<?xml version="1.0" encoding="utf-8"?>
<!-- Generator: Adobe Illustrator 24.0.0, SVG Export Plug-In . SVG Version: 6.00 Build 0)  -->
<svg version="1.1" id="OBJECTS" xmlns="http://www.w3.org/2000/svg" xmlns:xlink="http://www.w3.org/1999/xlink" x="0px" y="0px"
	 viewBox="0 0 211.6 246.5" style="enable-background:new 0 0 211.6 246.5;" xml:space="preserve">
<style type="text/css">
	.st0{fill:#FFF7F7;}
	.st1{fill:#104A5B;}
	.st2{font-family:'NexaBold';}
	.st3{font-size:10.0293px;}
	.st4{font-family:'NexaLight';}
	.st5{font-size:7.5979px;}
	.st6{font-size:6.0402px;}
	.st7{font-size:8.8281px;}
	.st8{font-size:11.1204px;}
</style>
<path class="st0" d="M211.6,0H0v187.2l2.2,1.4c0.1-0.3,0.4-0.4,0.9-0.4s0.9,0.3,0.9,0.5s-0.4,0.5-0.9,0.5s-0.9-0.3-0.9-0.5l0,0
	L0,190v56.5l2.5-2.2l2.2,2l2.2-2l2.2,2l2.2-2l2.2,2l2.2-2l2.2,2l2.2-2l2.2,2l2.2-2l2.2,2l2.2-2l2.2,2l2.2-2l2.2,2l2.2-2l2.2,2l2.2-2
	l2.2,2l2.2-2l2.2,2l2.2-2l2.2,2l2.2-2l2.2,2l2.2-2l2.2,2l2.2-2l2.2,2l2.2-2l2.2,2l2.2-2l2.2,2l2.2-2l2.2,2l2.2-2l2.2,2l2.2-2l2.2,2
	l2.2-2l2.2,2l2.2-2l2.2,2l2.2-2l2.2,2l2.2-2l2.2,2l2.2-2l2.2,2l2.2-2l2.2,2l2.2-2l2.2,2l2.2-2l2.2,2l2.2-2l2.2,2l2.2-2l2.2,2l2.2-2
	l2.2,2l2.2-2l2.2,2l2.2-2l2.2,2l2.2-2l2.2,2l2.2-2l2.2,2l2.2-2l2.2,2l2.2-2l2.2,2l2.2-2l2.2,2l2.2-2l2.2,2l2.2-2l2.2,2l2.2-2l2.2,2
	l2.2-2l2.2,2l2.2-2l2.2,2l2.2-2l2.2,2l2.2-2l2.2,2l2.2-2l2.2,2l2.2-2l2.4,2.1V190l-2.2-1.4l2.2-1.4V0H211.6z M6.2,189.3
	c-0.5,0-0.9-0.3-0.9-0.5c0-0.3,0.4-0.5,0.9-0.5s0.9,0.3,0.9,0.5C7.1,189.1,6.7,189.3,6.2,189.3z M9.4,189.3c-0.5,0-0.9-0.3-0.9-0.5
	c0-0.3,0.4-0.5,0.9-0.5s0.9,0.3,0.9,0.5C10.3,189.1,9.9,189.3,9.4,189.3z M12.6,189.3c-0.5,0-0.9-0.3-0.9-0.5c0-0.3,0.4-0.5,0.9-0.5
	s0.9,0.3,0.9,0.5C13.5,189.1,13.1,189.3,12.6,189.3z M15.8,189.3c-0.5,0-0.9-0.3-0.9-0.5c0-0.3,0.4-0.5,0.9-0.5
	c0.5,0,0.9,0.3,0.9,0.5C16.7,189.1,16.3,189.3,15.8,189.3z M19,189.3c-0.5,0-0.9-0.3-0.9-0.5c0-0.3,0.4-0.5,0.9-0.5s0.9,0.3,0.9,0.5
	C19.9,189.1,19.5,189.3,19,189.3z M22.2,189.3c-0.5,0-0.9-0.3-0.9-0.5c0-0.3,0.4-0.5,0.9-0.5s0.9,0.3,0.9,0.5
	C23.1,189.1,22.7,189.3,22.2,189.3z M25.4,189.3c-0.5,0-0.9-0.3-0.9-0.5c0-0.3,0.4-0.5,0.9-0.5s0.9,0.3,0.9,0.5
	C26.3,189.1,25.9,189.3,25.4,189.3z M28.6,189.3c-0.5,0-0.9-0.3-0.9-0.5c0-0.3,0.4-0.5,0.9-0.5s0.9,0.3,0.9,0.5
	C29.5,189.1,29.1,189.3,28.6,189.3z M31.8,189.3c-0.5,0-0.9-0.3-0.9-0.5c0-0.3,0.4-0.5,0.9-0.5s0.9,0.3,0.9,0.5
	C32.7,189.1,32.3,189.3,31.8,189.3z M35,189.3c-0.5,0-0.9-0.3-0.9-0.5c0-0.3,0.4-0.5,0.9-0.5s0.9,0.3,0.9,0.5
	C35.9,189.1,35.5,189.3,35,189.3z M38.2,189.3c-0.5,0-0.9-0.3-0.9-0.5c0-0.3,0.4-0.5,0.9-0.5s0.9,0.3,0.9,0.5
	C39.1,189.1,38.7,189.3,38.2,189.3z M41.4,189.3c-0.5,0-0.9-0.3-0.9-0.5c0-0.3,0.4-0.5,0.9-0.5s0.9,0.3,0.9,0.5
	C42.3,189.1,41.9,189.3,41.4,189.3z M44.6,189.3c-0.5,0-0.9-0.3-0.9-0.5c0-0.3,0.4-0.5,0.9-0.5s0.9,0.3,0.9,0.5
	C45.5,189.1,45.1,189.3,44.6,189.3z M47.8,189.3c-0.5,0-0.9-0.3-0.9-0.5c0-0.3,0.4-0.5,0.9-0.5s0.9,0.3,0.9,0.5
	C48.7,189.1,48.3,189.3,47.8,189.3z M51,189.3c-0.5,0-0.9-0.3-0.9-0.5c0-0.3,0.4-0.5,0.9-0.5s0.9,0.3,0.9,0.5
	C51.9,189.1,51.5,189.3,51,189.3z M54.2,189.3c-0.5,0-0.9-0.3-0.9-0.5c0-0.3,0.4-0.5,0.9-0.5s0.9,0.3,0.9,0.5
	C55.1,189.1,54.7,189.3,54.2,189.3z M57.4,189.3c-0.5,0-0.9-0.3-0.9-0.5c0-0.3,0.4-0.5,0.9-0.5s0.9,0.3,0.9,0.5
	C58.3,189.1,57.9,189.3,57.4,189.3z M60.6,189.3c-0.5,0-0.9-0.3-0.9-0.5c0-0.3,0.4-0.5,0.9-0.5s0.9,0.3,0.9,0.5
	C61.5,189.1,61.1,189.3,60.6,189.3z M63.9,189.3c-0.5,0-0.9-0.3-0.9-0.5c0-0.3,0.4-0.5,0.9-0.5s0.9,0.3,0.9,0.5
	C64.7,189.1,64.3,189.3,63.9,189.3z M67.1,189.3c-0.5,0-0.9-0.3-0.9-0.5c0-0.3,0.4-0.5,0.9-0.5s0.9,0.3,0.9,0.5
	C67.9,189.1,67.5,189.3,67.1,189.3z M70.3,189.3c-0.5,0-0.9-0.3-0.9-0.5c0-0.3,0.4-0.5,0.9-0.5s0.9,0.3,0.9,0.5
	C71.1,189.1,70.7,189.3,70.3,189.3z M73.5,189.3c-0.5,0-0.9-0.3-0.9-0.5c0-0.3,0.4-0.5,0.9-0.5s0.9,0.3,0.9,0.5
	C74.3,189.1,73.9,189.3,73.5,189.3z M76.7,189.3c-0.5,0-0.9-0.3-0.9-0.5c0-0.3,0.4-0.5,0.9-0.5s0.9,0.3,0.9,0.5
	C77.5,189.1,77.1,189.3,76.7,189.3z M79.9,189.3c-0.5,0-0.9-0.3-0.9-0.5c0-0.3,0.4-0.5,0.9-0.5s0.9,0.3,0.9,0.5
	C80.7,189.1,80.3,189.3,79.9,189.3z M83.1,189.3c-0.5,0-0.9-0.3-0.9-0.5c0-0.3,0.4-0.5,0.9-0.5s0.9,0.3,0.9,0.5
	C83.9,189.1,83.5,189.3,83.1,189.3z M86.3,189.3c-0.5,0-0.9-0.3-0.9-0.5c0-0.3,0.4-0.5,0.9-0.5s0.9,0.3,0.9,0.5
	C87.1,189.1,86.7,189.3,86.3,189.3z M89.5,189.3c-0.5,0-0.9-0.3-0.9-0.5c0-0.3,0.4-0.5,0.9-0.5s0.9,0.3,0.9,0.5
	C90.3,189.1,89.9,189.3,89.5,189.3z M92.7,189.3c-0.5,0-0.9-0.3-0.9-0.5c0-0.3,0.4-0.5,0.9-0.5s0.9,0.3,0.9,0.5
	C93.5,189.1,93.1,189.3,92.7,189.3z M95.9,189.3c-0.5,0-0.9-0.3-0.9-0.5c0-0.3,0.4-0.5,0.9-0.5s0.9,0.3,0.9,0.5
	C96.7,189.1,96.3,189.3,95.9,189.3z M99.1,189.3c-0.5,0-0.9-0.3-0.9-0.5c0-0.3,0.4-0.5,0.9-0.5s0.9,0.3,0.9,0.5
	C99.9,189.1,99.5,189.3,99.1,189.3z M102.3,189.3c-0.5,0-0.9-0.3-0.9-0.5c0-0.3,0.4-0.5,0.9-0.5s0.9,0.3,0.9,0.5
	C103.1,189.1,102.7,189.3,102.3,189.3z M105.5,189.3c-0.5,0-0.9-0.3-0.9-0.5c0-0.3,0.4-0.5,0.9-0.5s0.9,0.3,0.9,0.5
	C106.3,189.1,105.9,189.3,105.5,189.3z M108.7,189.3c-0.5,0-0.9-0.3-0.9-0.5c0-0.3,0.4-0.5,0.9-0.5s0.9,0.3,0.9,0.5
	C109.5,189.1,109.1,189.3,108.7,189.3z M111.9,189.3c-0.5,0-0.9-0.3-0.9-0.5c0-0.3,0.4-0.5,0.9-0.5s0.9,0.3,0.9,0.5
	C112.8,189.1,112.4,189.3,111.9,189.3z M115.1,189.3c-0.5,0-0.9-0.3-0.9-0.5c0-0.3,0.4-0.5,0.9-0.5s0.9,0.3,0.9,0.5
	C116,189.1,115.6,189.3,115.1,189.3z M118.3,189.3c-0.5,0-0.9-0.3-0.9-0.5c0-0.3,0.4-0.5,0.9-0.5s0.9,0.3,0.9,0.5
	C119.2,189.1,118.8,189.3,118.3,189.3z M121.5,189.3c-0.5,0-0.9-0.3-0.9-0.5c0-0.3,0.4-0.5,0.9-0.5s0.9,0.3,0.9,0.5
	C122.4,189.1,122,189.3,121.5,189.3z M124.7,189.3c-0.5,0-0.9-0.3-0.9-0.5c0-0.3,0.4-0.5,0.9-0.5s0.9,0.3,0.9,0.5
	C125.6,189.1,125.2,189.3,124.7,189.3z M127.9,189.3c-0.5,0-0.9-0.3-0.9-0.5c0-0.3,0.4-0.5,0.9-0.5c0.5,0,0.9,0.3,0.9,0.5
	C128.8,189.1,128.4,189.3,127.9,189.3z M131.1,189.3c-0.5,0-0.9-0.3-0.9-0.5c0-0.3,0.4-0.5,0.9-0.5s0.9,0.3,0.9,0.5
	C132,189.1,131.6,189.3,131.1,189.3z M134.3,189.3c-0.5,0-0.9-0.3-0.9-0.5c0-0.3,0.4-0.5,0.9-0.5s0.9,0.3,0.9,0.5
	C135.2,189.1,134.8,189.3,134.3,189.3z M137.5,189.3c-0.5,0-0.9-0.3-0.9-0.5c0-0.3,0.4-0.5,0.9-0.5s0.9,0.3,0.9,0.5
	C138.4,189.1,138,189.3,137.5,189.3z M140.7,189.3c-0.5,0-0.9-0.3-0.9-0.5c0-0.3,0.4-0.5,0.9-0.5s0.9,0.3,0.9,0.5
	C141.6,189.1,141.2,189.3,140.7,189.3z M143.9,189.3c-0.5,0-0.9-0.3-0.9-0.5c0-0.3,0.4-0.5,0.9-0.5s0.9,0.3,0.9,0.5
	C144.8,189.1,144.4,189.3,143.9,189.3z M147.1,189.3c-0.5,0-0.9-0.3-0.9-0.5c0-0.3,0.4-0.5,0.9-0.5s0.9,0.3,0.9,0.5
	C148,189.1,147.6,189.3,147.1,189.3z M150.3,189.3c-0.5,0-0.9-0.3-0.9-0.5c0-0.3,0.4-0.5,0.9-0.5s0.9,0.3,0.9,0.5
	C151.2,189.1,150.8,189.3,150.3,189.3z M153.5,189.3c-0.5,0-0.9-0.3-0.9-0.5c0-0.3,0.4-0.5,0.9-0.5s0.9,0.3,0.9,0.5
	C154.4,189.1,154,189.3,153.5,189.3z M156.7,189.3c-0.5,0-0.9-0.3-0.9-0.5c0-0.3,0.4-0.5,0.9-0.5s0.9,0.3,0.9,0.5
	C157.6,189.1,157.2,189.3,156.7,189.3z M159.9,189.3c-0.5,0-0.9-0.3-0.9-0.5c0-0.3,0.4-0.5,0.9-0.5s0.9,0.3,0.9,0.5
	C160.8,189.1,160.4,189.3,159.9,189.3z M163.1,189.3c-0.5,0-0.9-0.3-0.9-0.5c0-0.3,0.4-0.5,0.9-0.5s0.9,0.3,0.9,0.5
	C164,189.1,163.6,189.3,163.1,189.3z M166.3,189.3c-0.5,0-0.9-0.3-0.9-0.5c0-0.3,0.4-0.5,0.9-0.5s0.9,0.3,0.9,0.5
	C167.2,189.1,166.8,189.3,166.3,189.3z M169.5,189.3c-0.5,0-0.9-0.3-0.9-0.5c0-0.3,0.4-0.5,0.9-0.5s0.9,0.3,0.9,0.5
	C170.4,189.1,170,189.3,169.5,189.3z M172.7,189.3c-0.5,0-0.9-0.3-0.9-0.5c0-0.3,0.4-0.5,0.9-0.5s0.9,0.3,0.9,0.5
	C173.6,189.1,173.2,189.3,172.7,189.3z M175.9,189.3c-0.5,0-0.9-0.3-0.9-0.5c0-0.3,0.4-0.5,0.9-0.5s0.9,0.3,0.9,0.5
	C176.8,189.1,176.4,189.3,175.9,189.3z M179.1,189.3c-0.5,0-0.9-0.3-0.9-0.5c0-0.3,0.4-0.5,0.9-0.5s0.9,0.3,0.9,0.5
	C180,189.1,179.6,189.3,179.1,189.3z M182.3,189.3c-0.5,0-0.9-0.3-0.9-0.5c0-0.3,0.4-0.5,0.9-0.5s0.9,0.3,0.9,0.5
	C183.2,189.1,182.8,189.3,182.3,189.3z M185.5,189.3c-0.5,0-0.9-0.3-0.9-0.5c0-0.3,0.4-0.5,0.9-0.5s0.9,0.3,0.9,0.5
	C186.4,189.1,186,189.3,185.5,189.3z M188.7,189.3c-0.5,0-0.9-0.3-0.9-0.5c0-0.3,0.4-0.5,0.9-0.5s0.9,0.3,0.9,0.5
	C189.6,189.1,189.2,189.3,188.7,189.3z M191.9,189.3c-0.5,0-0.9-0.3-0.9-0.5c0-0.3,0.4-0.5,0.9-0.5s0.9,0.3,0.9,0.5
	C192.8,189.1,192.4,189.3,191.9,189.3z M195.1,189.3c-0.5,0-0.9-0.3-0.9-0.5c0-0.3,0.4-0.5,0.9-0.5s0.9,0.3,0.9,0.5
	C196,189.1,195.6,189.3,195.1,189.3z M198.3,189.3c-0.5,0-0.9-0.3-0.9-0.5c0-0.3,0.4-0.5,0.9-0.5s0.9,0.3,0.9,0.5
	C199.2,189.1,198.8,189.3,198.3,189.3z M201.5,189.3c-0.5,0-0.9-0.3-0.9-0.5c0-0.3,0.4-0.5,0.9-0.5s0.9,0.3,0.9,0.5
	C202.4,189.1,202,189.3,201.5,189.3z M204.7,189.3c-0.5,0-0.9-0.3-0.9-0.5c0-0.3,0.4-0.5,0.9-0.5s0.9,0.3,0.9,0.5
	C205.6,189.1,205.2,189.3,204.7,189.3z M207.9,189.3c-0.5,0-0.9-0.3-0.9-0.5c0-0.3,0.4-0.5,0.9-0.5s0.9,0.3,0.9,0.5
	C208.8,189.1,208.4,189.3,207.9,189.3z"/>
<rect x="18.2" y="58.3" class="st1" width="175.3" height="0.3"/>
<rect x="18.2" y="124" class="st1" width="175.3" height="0.3"/>
<rect x="18.2" y="159.8" class="st1" width="175.3" height="0.3"/>
<g>
	<rect x="16.7" y="199.1" class="st1" width="7.2" height="27.6"/>
	<rect x="29.1" y="199.1" class="st1" width="8.6" height="27.6"/>
	<rect x="151.8" y="199.1" class="st1" width="5.6" height="27.6"/>
	<rect x="42.2" y="199.1" class="st1" width="3.4" height="27.6"/>
	<rect x="48.8" y="199.1" class="st1" width="2.6" height="27.6"/>
	<rect x="54.9" y="199.1" class="st1" width="5.5" height="27.6"/>
	<rect x="71.5" y="199.1" class="st1" width="7" height="27.6"/>
	<rect x="160.8" y="199.1" class="st1" width="8.1" height="27.6"/>
	<rect x="83.6" y="199.1" class="st1" width="7" height="27.6"/>
	<rect x="138.3" y="199.1" class="st1" width="10.7" height="27.6"/>
	<rect x="95.8" y="199.1" class="st1" width="3.6" height="27.6"/>
	<rect x="172.3" y="199.1" class="st1" width="3.6" height="27.6"/>
	<rect x="103.1" y="199.1" class="st1" width="6.6" height="27.6"/>
	<rect x="127.6" y="199.1" class="st1" width="6.5" height="27.6"/>
	<rect x="112.6" y="199.1" class="st1" width="2" height="27.6"/>
	<rect x="117.3" y="199.1" class="st1" width="2" height="27.6"/>
	<rect x="122.2" y="199.1" class="st1" width="2" height="27.6"/>
	<rect x="64" y="199.1" class="st1" width="3.9" height="27.6"/>
	<rect x="182.3" y="199.1" class="st1" width="3.9" height="27.6"/>
	<rect x="189" y="199.1" class="st1" width="5.9" height="27.6"/>
	<rect x="178.1" y="199.1" class="st1" width="2.2" height="27.6"/>
</g>
<text transform="matrix(1 0 0 1 64.1069 47.7681)" class="st1 st2 st3">YOUR COMPANY</text>
<g>
	<path class="st1" d="M100,32.9c0.4,0.2,0.9,0.4,1.3,0.6c1.3,0.5,2.8,0.8,4.3,0.8s3-0.3,4.3-0.8c0.5-0.2,0.9-0.4,1.3-0.6l-5.7-5.9
		L100,32.9z"/>
	<path class="st1" d="M105.7,10c-6.7,0-12.1,5.4-12.1,12.1c0,1.2,0.2,2.3,0.5,3.4c0.6,2.2,1.9,4.1,3.5,5.6l8.1-8.4l8.1,8.4
		c1.6-1.5,2.9-3.4,3.5-5.6c0.3-1.1,0.5-2.2,0.5-3.4C117.8,15.5,112.4,10,105.7,10z"/>
</g>
<text transform="matrix(1 0 0 1 18.4423 72.0244)" class="st1 st4 st5">lorem ipsum</text>
<text transform="matrix(1 0 0 1 18.4003 86.2085)" class="st1 st4 st5">dolor sit amet</text>
<text transform="matrix(1 0 0 1 18.4804 112.0137)" class="st1 st4 st5">quis nostrud </text>
<text transform="matrix(1 0 0 1 18.4799 97.9004)" class="st1 st4 st5">vel eum iriure</text>
<text transform="matrix(1 0 0 1 169.5844 72.1519)" class="st1 st4 st6">$17.89</text>
<text transform="matrix(1 0 0 1 171.4828 86.1875)" class="st1 st4 st6">$10.12</text>
<text transform="matrix(1 0 0 1 167.0668 97.7295)" class="st1 st4 st6">$99.99</text>
<text transform="matrix(1 0 0 1 168.183 112.4473)" class="st1 st4 st6">$57.23</text>
<text transform="matrix(1 0 0 1 163.3637 136.3154)" class="st1 st4 st6">$280.67</text>
<text transform="matrix(1 0 0 1 167.9535 153.043)" class="st1 st4 st6">$28.07</text>
<text transform="matrix(1 0 0 1 153.8198 176.3896)" class="st1 st2 st7">$308.70</text>
<g>
	<text transform="matrix(1 0 0 1 18.0092 136.6846)" class="st1 st4 st5">Sub Total</text>
</g>
<text transform="matrix(1 0 0 1 17.8408 177.0723)" class="st1 st2 st7">Total</text>
<g>
	<text transform="matrix(1 0 0 1 18.0053 153.3076)" class="st1 st4 st5">Taxes</text>
</g>
<text transform="matrix(1 0 0 1 51.3676 240.7627)" class="st1 st4 st8">8320203928302</text>
</svg>
