<?xml version="1.0" encoding="utf-8"?>
<!-- Generator: Adobe Illustrator 24.0.0, SVG Export Plug-In . SVG Version: 6.00 Build 0)  -->
<svg version="1.1" id="Capa_1" xmlns="http://www.w3.org/2000/svg" xmlns:xlink="http://www.w3.org/1999/xlink" x="0px" y="0px"
	 viewBox="0 0 458 458.9" style="enable-background:new 0 0 458 458.9;" xml:space="preserve">
<style type="text/css">
	.st0{display:none;}
	.st1{fill:url(#SVGID_1_);}
	.st2{fill:url(#SVGID_2_);}
	.st3{fill:url(#SVGID_3_);}
	.st4{fill:url(#SVGID_4_);}
	.st5{fill:url(#SVGID_5_);}
	.st6{fill:url(#SVGID_6_);}
	.st7{fill:url(#SVGID_7_);}
	.st8{fill:url(#SVGID_8_);}
	.st9{fill:url(#SVGID_9_);}
	.st10{fill:url(#SVGID_10_);}
	.st11{fill:url(#SVGID_11_);}
	.st12{fill:url(#SVGID_12_);}
</style>
<g id="Capa_1_1_" class="st0">
	
		<image style="display:inline;overflow:visible;opacity:0.76;enable-background:new    ;" width="900" height="540" xlink:href="../../../../../Downloads/modulos.jpg"  transform="matrix(0.9278 0 0 0.9278 -186.4111 -18.9)">
	</image>
</g>
<g id="Capa_3">
	
		<linearGradient id="SVGID_1_" gradientUnits="userSpaceOnUse" x1="318.2889" y1="366.2" x2="417.6889" y2="366.2" gradientTransform="matrix(1 0 0 -1 0 528.2)">
		<stop  offset="6.819570e-07" style="stop-color:#FE0E95"/>
		<stop  offset="1" style="stop-color:#FE7B11"/>
	</linearGradient>
	<path class="st1" d="M318.3,88.3c0,0,88.8,49.6,92.2,51.5c3.8,2,6.9,4.4,7.1,8.2c0,3.8,0.1,87.7,0.1,87.7l-19.4-10.1
		c0,0-0.1-66-0.1-67.9c0-1.2-0.6-1.6-3.4-3.3s-76.4-42.2-76.4-42.2V88.3H318.3z"/>
	
		<linearGradient id="SVGID_2_" gradientUnits="userSpaceOnUse" x1="-76.2473" y1="366.2" x2="23.1527" y2="366.2" gradientTransform="matrix(-1 0 0 -1 63.2416 528.2)">
		<stop  offset="6.819570e-07" style="stop-color:#FE0E95"/>
		<stop  offset="1" style="stop-color:#FE7B11"/>
	</linearGradient>
	<path class="st2" d="M139.5,88.3c0,0-88.8,49.6-92.2,51.5c-3.8,2-6.9,4.4-7.1,8.2c0,3.8-0.1,87.7-0.1,87.7l19.4-10.1
		c0,0,0.1-66,0.1-67.9c0-1.2,0.6-1.6,3.4-3.3c2.8-1.7,76.4-42.2,76.4-42.2L139.5,88.3L139.5,88.3z"/>
	
		<linearGradient id="SVGID_3_" gradientUnits="userSpaceOnUse" x1="140.3962" y1="185.5142" x2="263.4381" y2="185.5142" gradientTransform="matrix(-0.5245 0.8514 0.8514 0.5245 174.6911 123.5339)">
		<stop  offset="6.819570e-07" style="stop-color:#FE0E95"/>
		<stop  offset="1" style="stop-color:#FE7B11"/>
	</linearGradient>
	<path class="st3" d="M346.2,394.5c0,0-106.9,59.8-110.3,61.6c-3.7,2.2-7.3,3.8-10.6,2c-3.3-2-118.2-66.8-118.2-66.8l14.9-14
		c0,0,102.9,57.3,104.4,58.1c2,1.1,3.9,1.3,6.7-0.5c2.7-1.7,94.3-52.4,94.3-52.4L346.2,394.5z"/>
</g>
<g id="Capa_2_1_">
	
		<linearGradient id="SVGID_4_" gradientUnits="userSpaceOnUse" x1="149.4889" y1="484.55" x2="309.0889" y2="484.55" gradientTransform="matrix(1 0 0 -1 0 528.2)">
		<stop  offset="6.819570e-07" style="stop-color:#FE0E95"/>
		<stop  offset="1" style="stop-color:#FE7B11"/>
	</linearGradient>
	<path class="st4" d="M149.5,43.5l79.8,43.8l79.8-43.5c0,0-71.1-39.5-76.3-42.3c-3.1-2-4-2-7.5,0C223.4,2.7,149.5,43.5,149.5,43.5z"
		/>
	
		<linearGradient id="SVGID_5_" gradientUnits="userSpaceOnUse" x1="239.3889" y1="400.65" x2="318.2889" y2="400.65" gradientTransform="matrix(1 0 0 -1 0 528.2)">
		<stop  offset="6.819570e-07" style="stop-color:#FE0E95"/>
		<stop  offset="1" style="stop-color:#FE7B11"/>
	</linearGradient>
	<path class="st5" d="M318.3,61.4l-78.9,42.3v90c0,0,67.7-37.5,72.8-40.5c3.3-1.7,6.1-4.1,6.1-8.1
		C318.3,142.8,318.3,61.4,318.3,61.4z"/>
	
		<linearGradient id="SVGID_6_" gradientUnits="userSpaceOnUse" x1="139.1" y1="400.75" x2="219.7889" y2="400.75" gradientTransform="matrix(1 0 0 -1 0 528.2)">
		<stop  offset="6.819570e-07" style="stop-color:#FE0E95"/>
		<stop  offset="1" style="stop-color:#FE7B11"/>
	</linearGradient>
	<path class="st6" d="M219.8,194.7l-1-91.3l-79.6-43.2c0,0-0.2,77.2,0,83.1c0,3.7,1.7,7.7,5.2,9.6
		C146.5,154,219.8,194.7,219.8,194.7z"/>
	
		<linearGradient id="SVGID_7_" gradientUnits="userSpaceOnUse" x1="10.2889" y1="276.15" x2="169.8889" y2="276.15" gradientTransform="matrix(1 0 0 -1 0 528.2)">
		<stop  offset="6.819570e-07" style="stop-color:#FE0E95"/>
		<stop  offset="1" style="stop-color:#FE7B11"/>
	</linearGradient>
	<path class="st7" d="M10.3,251.9l79.8,43.8l79.8-43.5c0,0-71.1-39.5-76.3-42.3c-3.1-2-4-2-7.5,0C84.3,211,10.3,251.9,10.3,251.9z"
		/>
	
		<linearGradient id="SVGID_8_" gradientUnits="userSpaceOnUse" x1="100.2889" y1="192.35" x2="179.1889" y2="192.35" gradientTransform="matrix(1 0 0 -1 0 528.2)">
		<stop  offset="6.819570e-07" style="stop-color:#FE0E95"/>
		<stop  offset="1" style="stop-color:#FE7B11"/>
	</linearGradient>
	<path class="st8" d="M179.2,269.7L100.3,312v90c0,0,67.7-37.5,72.8-40.5c3.3-1.7,6.1-4.1,6.1-8.1
		C179.2,351.2,179.2,269.7,179.2,269.7z"/>
	
		<linearGradient id="SVGID_9_" gradientUnits="userSpaceOnUse" x1="0" y1="192.35" x2="80.6889" y2="192.35" gradientTransform="matrix(1 0 0 -1 0 528.2)">
		<stop  offset="6.819570e-07" style="stop-color:#FE0E95"/>
		<stop  offset="1" style="stop-color:#FE7B11"/>
	</linearGradient>
	<path class="st9" d="M80.7,403.1l-1-91.3L0.1,268.6c0,0-0.2,77.2,0,83.1c0,3.7,1.7,7.7,5.2,9.6C7.3,362.3,80.7,403.1,80.7,403.1z"
		/>
	
		<linearGradient id="SVGID_10_" gradientUnits="userSpaceOnUse" x1="289.1889" y1="276.15" x2="448.7889" y2="276.15" gradientTransform="matrix(1 0 0 -1 0 528.2)">
		<stop  offset="6.819570e-07" style="stop-color:#FE0E95"/>
		<stop  offset="1" style="stop-color:#FE7B11"/>
	</linearGradient>
	<path class="st10" d="M289.2,251.9l79.8,43.8l79.8-43.5c0,0-71.1-39.5-76.3-42.3c-3.1-2-4-2-7.5,0
		C363.1,211,289.2,251.9,289.2,251.9z"/>
	
		<linearGradient id="SVGID_11_" gradientUnits="userSpaceOnUse" x1="379.0889" y1="192.35" x2="457.9889" y2="192.35" gradientTransform="matrix(1 0 0 -1 0 528.2)">
		<stop  offset="6.819570e-07" style="stop-color:#FE0E95"/>
		<stop  offset="1" style="stop-color:#FE7B11"/>
	</linearGradient>
	<path class="st11" d="M458,269.7L379.1,312v90c0,0,67.7-37.5,72.8-40.5c3.3-1.7,6.1-4.1,6.1-8.1C458,351.2,458,269.7,458,269.7z"/>
	
		<linearGradient id="SVGID_12_" gradientUnits="userSpaceOnUse" x1="278.8" y1="192.35" x2="359.4889" y2="192.35" gradientTransform="matrix(1 0 0 -1 0 528.2)">
		<stop  offset="6.819570e-07" style="stop-color:#FE0E95"/>
		<stop  offset="1" style="stop-color:#FE7B11"/>
	</linearGradient>
	<path class="st12" d="M359.5,403.1l-1-91.3l-79.6-43.2c0,0-0.2,77.2,0,83.1c0,3.7,1.7,7.7,5.2,9.6
		C286.2,362.3,359.5,403.1,359.5,403.1z"/>
</g>
</svg>
