<?xml version="1.0" encoding="utf-8"?>
<!-- Generator: Adobe Illustrator 24.0.0, SVG Export Plug-In . SVG Version: 6.00 Build 0)  -->
<svg version="1.1" id="Capa_2" xmlns="http://www.w3.org/2000/svg" xmlns:xlink="http://www.w3.org/1999/xlink" x="0px" y="0px"
	 viewBox="0 0 118 136" style="enable-background:new 0 0 118 136;" xml:space="preserve">
<style type="text/css">
	.st0{fill:url(#SVGID_1_);}
	.st1{fill:url(#SVGID_2_);}
</style>
<g>
	<linearGradient id="SVGID_1_" gradientUnits="userSpaceOnUse" x1="8.2743" y1="77.1418" x2="109.7257" y2="77.1418">
		<stop  offset="3.409785e-07" style="stop-color:#FE7B11"/>
		<stop  offset="1" style="stop-color:#FE0E95"/>
	</linearGradient>
	<path class="st0" d="M14.7,25.6c-3.3-1.4-5.9-0.2-6.1,2.2c0,2.3-2.1,20.5,4.3,41.7c0.9,3.4,4,3.6,4.3,3.7L83,88.7
		c0,0,4.4,1,3.6,4.7c-2.1,6.7-20.4,25.5-27.3,26.7c-8.2,0.4-26-14.9-33.4-36.1c-2.1-3.6-8.6,0.5-7.2,4.3
		c1.1,3.3,13.6,36.1,39.2,41.2c14.6-0.6,34.5-22.5,41-41.2c0.9-5.3-3.3-6.5-10-8c-2.3-0.5-62-13.7-66.3-15.4
		c-4.3-1.7-5.9-17.3-5.1-24c1.3-5.6,8-1.4,11.1,0.3c2.9,1.7,21.5,9.6,25.9,11.5s6.3,1,10.2-0.7c4.1-1.8,24.5-10.8,28.1-12.3
		c3.7-1.5,6.6,0,6.6,3c0,3.1-2.7,21.5-4.1,25.7c-1.6,5.6,6.2,10.1,9.4,2.1c3.2-8,6-39.6,4.7-42.8c-1.2-3.2-4.1-3.9-7.5-2.2
		C98.5,27.4,62.7,43.4,61,44.1s-3.1,0.8-4.9,0C54.4,43.2,18.7,27,14.7,25.6z"/>
	<linearGradient id="SVGID_2_" gradientUnits="userSpaceOnUse" x1="31.1206" y1="18.0235" x2="87.7683" y2="18.0235">
		<stop  offset="3.409785e-07" style="stop-color:#FE7B11"/>
		<stop  offset="1" style="stop-color:#FE0E95"/>
	</linearGradient>
	<path class="st1" d="M87.4,22.6C79.3,10.2,68,6.5,60,6.5S39.5,9.3,31.7,23.1c-2.6,5.4,4.9,9.1,8.2,4c13.8-20.1,33.8-10.4,39.7-0.4
		C82.8,31.6,89.5,26.1,87.4,22.6z"/>
</g>
</svg>
