<?xml version="1.0" encoding="utf-8"?>
<!-- Generator: Adobe Illustrator 24.0.0, SVG Export Plug-In . SVG Version: 6.00 Build 0)  -->
<svg version="1.1" id="Capa_1" xmlns="http://www.w3.org/2000/svg" xmlns:xlink="http://www.w3.org/1999/xlink" x="0px" y="0px"
	 viewBox="0 0 383.8 328.3" style="enable-background:new 0 0 383.8 328.3;" xml:space="preserve">
<style type="text/css">
	.st0{display:none;}
	.st1{display:inline;fill:url(#SVGID_1_);}
	.st2{display:inline;}
	.st3{opacity:0.47;fill:#A5DEF6;enable-background:new    ;}
	.st4{opacity:0.3;}
	.st5{fill:#4385F4;}
	.st6{fill:none;stroke:#0254A9;stroke-width:0.7739;stroke-linecap:round;stroke-linejoin:round;stroke-miterlimit:10;}
	.st7{fill:none;stroke:#0254A9;stroke-width:1.8958;stroke-linecap:round;stroke-linejoin:round;stroke-miterlimit:10;}
	.st8{fill:none;stroke:#0254A9;stroke-width:1.7211;stroke-linecap:round;stroke-linejoin:round;stroke-miterlimit:10;}
	.st9{fill:none;stroke:#0254A9;stroke-width:2.7259;stroke-linecap:round;stroke-linejoin:round;stroke-miterlimit:10;}
	.st10{fill:none;stroke:#0254A9;stroke-width:3.2169;stroke-linecap:round;stroke-linejoin:round;stroke-miterlimit:10;}
	.st11{fill:none;stroke:#0254A9;stroke-width:1.9925;stroke-linecap:round;stroke-linejoin:round;stroke-miterlimit:10;}
	.st12{fill:none;stroke:#0254A9;stroke-width:2.4028;stroke-linecap:round;stroke-linejoin:round;stroke-miterlimit:10;}
	.st13{fill:#BEC6C4;}
	.st14{fill:#FEFEFE;}
	.st15{fill:none;stroke:#BACCC6;stroke-width:1.4277;stroke-linecap:round;stroke-linejoin:round;stroke-miterlimit:10;}
	.st16{fill:none;stroke:#BACCC6;stroke-width:2.0383;stroke-linecap:round;stroke-linejoin:round;stroke-miterlimit:10;}
	.st17{fill:#38AAE3;}
	.st18{fill:#0254A9;}
	.st19{fill:#FABB49;}
	.st20{fill:#D38309;}
	.st21{fill:#13B5A0;}
	.st22{fill:#FAAE26;}
	.st23{fill:#BC6C56;}
	.st24{fill:#034C8A;}
	.st25{fill:#D08B73;}
	.st26{clip-path:url(#SVGID_3_);fill:#BC6C56;}
	.st27{fill:#EE5F43;}
	.st28{clip-path:url(#SVGID_5_);fill:#C4422B;}
	.st29{fill:#282E5B;}
	.st30{fill:#4485F4;}
	.st31{clip-path:url(#SVGID_7_);fill:#282E5B;}
	.st32{clip-path:url(#SVGID_9_);fill:#282E5B;}
	.st33{clip-path:url(#SVGID_11_);fill:#282E5B;}
	.st34{clip-path:url(#SVGID_13_);fill:#282E5B;}
	.st35{clip-path:url(#SVGID_15_);fill:#282E5B;}
	.st36{opacity:0.5;clip-path:url(#SVGID_17_);fill:#BC6C56;enable-background:new    ;}
	.st37{opacity:0.5;fill:#BC6C56;enable-background:new    ;}
	.st38{opacity:0.5;clip-path:url(#SVGID_19_);fill:#BC6C56;enable-background:new    ;}
	.st39{opacity:0.5;clip-path:url(#SVGID_21_);fill:#BC6C56;enable-background:new    ;}
	.st40{fill:#346EC1;}
	.st41{fill:none;stroke:#034C8A;stroke-width:3.0534;stroke-linecap:round;stroke-linejoin:round;stroke-miterlimit:10;}
	.st42{fill:#034C8A;stroke:#034C8A;stroke-width:1.0331;stroke-linecap:round;stroke-linejoin:round;stroke-miterlimit:10;}
	.st43{fill:#034C8A;stroke:#034C8A;stroke-width:0.9735;stroke-linecap:round;stroke-linejoin:round;stroke-miterlimit:10;}
	.st44{fill:#434E84;}
	.st45{clip-path:url(#SVGID_23_);fill:#282E5B;}
	.st46{clip-path:url(#SVGID_25_);fill:#282E5B;}
	.st47{clip-path:url(#SVGID_27_);fill:#282E5B;}
	.st48{clip-path:url(#SVGID_29_);fill:#282E5B;}
	.st49{clip-path:url(#SVGID_31_);fill:#034C8A;}
	.st50{clip-path:url(#SVGID_33_);fill:#034C8A;}
	.st51{clip-path:url(#SVGID_35_);fill:none;stroke:#034C8A;stroke-width:0.9034;stroke-miterlimit:10;}
	.st52{clip-path:url(#SVGID_37_);fill:#BC6C56;}
	.st53{fill:#363A68;}
	.st54{clip-path:url(#SVGID_39_);fill:#BC6C56;}
	.st55{opacity:0.5;clip-path:url(#SVGID_41_);fill:#BC6C56;enable-background:new    ;}
	.st56{fill:#C4422B;}
	.st57{opacity:0.5;fill:#C4422B;enable-background:new    ;}
	.st58{fill:none;stroke:#434E84;stroke-width:4.287;stroke-linecap:round;stroke-linejoin:round;stroke-miterlimit:10;}
</style>
<g id="FONDO" class="st0">
	
		<linearGradient id="SVGID_1_" gradientUnits="userSpaceOnUse" x1="-166.4565" y1="198.0894" x2="583.5435" y2="198.0894" gradientTransform="matrix(1 0 0 -1 0 334.9787)">
		<stop  offset="0" style="stop-color:#E4127A"/>
		<stop  offset="1" style="stop-color:#75018F"/>
	</linearGradient>
	<rect x="-166.5" y="-113.1" class="st1" width="750" height="500"/>
</g>
<g id="BACKGROUND" class="st0">
	<g class="st2">
		<path class="st3" d="M417.1,324.9c13.2-14.6,27.4-35.4,25.2-59c-2.2-23.6-20.9-29.8-26.5-54.9c-8.7-38.9,15.4-55.7,17.3-91.1
			c3.4-63.4-67.4-138.1-135.4-146c-41.1-4.8-46.8,18.8-98.2,15.9C136.2-13.7,125-50.6,80-46C28.7-40.8-24.8,14.1-24.9,64.1
			c-0.1,51.5,56.7,74.6,45.1,114.1c-7.6,26.1-37,24.7-53.1,55.7c-15.3,29.4,9.1,74.7,21.9,90.9C137.9,324.9,268.2,324.9,417.1,324.9
			z"/>
		<circle class="st3" cx="-18.6" cy="-20.3" r="19.7"/>
		<circle class="st3" cx="-11" cy="165.8" r="19.7"/>
		<ellipse class="st3" cx="27.9" cy="12.1" rx="10.8" ry="10.8"/>
		<path class="st3" d="M426.7,193.3c0-6.3,5.1-11.5,11.5-11.5c6.3,0,11.5,5.1,11.5,11.5c0,6.3-5.1,11.5-11.5,11.5
			C431.9,204.8,426.7,199.7,426.7,193.3z"/>
		<ellipse class="st3" cx="434.8" cy="167.6" rx="8.1" ry="8.1"/>
		<ellipse class="st3" cx="-30" cy="22.9" rx="8.3" ry="8.3"/>
		<ellipse class="st3" cx="191.8" cy="-26.3" rx="8.3" ry="8.3"/>
		
			<ellipse transform="matrix(0.1602 -0.9871 0.9871 0.1602 323.9319 344.5818)" class="st3" cx="364.5" cy="-18.1" rx="8.3" ry="8.3"/>
		<g class="st4">
			<g>
				<path class="st5" d="M160.2,311.1c0.3-1.3,0.2-2.8,0-4.1c-0.3-1.3-0.8-2.5-1.5-3.6s-1.5-2-2.5-2.9c-0.5-0.4-1.1-0.8-1.6-1.1
					c-0.5-0.3-1.1-0.6-1.6-0.9c-2.2-1-4.3-1.4-6.1-1.7c-0.8-0.1-1.7-0.3-2.5-0.4s-1.7-0.2-2.5-0.3c-6.9-0.9-14.7-1.4-23.2-1.1
					c-14.4,0.5-33.4,3.2-33.4,6.4c0,3.2,18.6,6.4,33.4,7.1c8.5,0.4,16.2,0,23-0.9c1.7-0.2,3.4-0.4,4.8-0.7c1.4-0.2,2.7-0.4,3.8-0.3
					c0.6,0,1.1,0.1,1.6,0.3c0.5,0.2,1.1,0.4,1.5,0.7c0.9,0.6,1.7,1.6,1.9,2.8L160.2,311.1z"/>
				<path class="st6" d="M157.7,310.4c0-1.1-0.3-2.2-0.7-3.1s-1-1.7-1.7-2.3c-0.7-0.7-1.4-1.2-2.2-1.6s-1.6-0.7-2.4-0.9
					c-1.6-0.4-3.1-0.5-4.6-0.5h-4.3l-17-0.1l-34-0.2"/>
				<line class="st6" x1="105.8" y1="301.6" x2="102.3" y2="304.8"/>
				<line class="st6" x1="109.8" y1="301.7" x2="107.1" y2="297.4"/>
				<line class="st6" x1="118.6" y1="301.7" x2="116" y2="305.5"/>
				<line class="st6" x1="124.9" y1="301.8" x2="121.2" y2="297.3"/>
				<line class="st6" x1="131.9" y1="301.8" x2="128.2" y2="306.4"/>
				<line class="st6" x1="143.3" y1="301.9" x2="140.2" y2="298.8"/>
			</g>
			<g>
				<path class="st5" d="M194.3,325.7c-0.6-2.5-5.8-9-7.3-11.4c-1.6-2.6-3.5-4.7-5.4-6.5c-3.8-3.6-7.8-6.1-11.3-8.2
					c-3.2-1.9-6.6-3.9-10.2-5.8c-3.6-1.9-7.4-3.8-11.3-5.6c-2-0.9-4-1.8-6.1-2.7c-2.1-0.9-4.2-1.7-6.3-2.6c-2.2-0.9-4.3-1.7-6.6-2.5
					c-2.2-0.8-4.5-1.6-6.9-2.4c-9.3-3-19.3-5.6-29.9-7.6c-17.8-3.3-38.7-4.9-55.2-4c-16.5,0.8-28.3,3.7-28.6,7.5
					c-0.3,3.9,10.6,8.5,25.6,13.5S69,298,85.9,302.6c19.5,5.2,37.5,9.2,53.7,12.3c4.1,0.8,8,1.5,11.8,2.2s7.5,1.3,11,1.9
					c3.4,0.5,6.5,1.1,9.3,2.1c1.4,0.5,2.7,1.2,3.9,2c1.2,0.9,2.3,1.9,3.1,3.2L194.3,325.7z"/>
				<path class="st7" d="M183.9,323.2c-0.5-1.1-1-2.1-1.7-3.1c-0.3-0.5-0.7-0.9-1-1.4c-0.4-0.5-0.8-0.9-1.2-1.3
					c-1.6-1.7-3.4-3-5.1-4.1c-3.5-2.1-7-3.5-10.3-4.7c-6.6-2.4-13.2-4.7-19.8-6.9c-13.2-4.4-26.6-8.3-40.1-11.7
					c-26.9-6.8-54.2-11.6-81.5-14.5"/>
				<path class="st7" d="M59.1,280.5c-3.2,2.1-6.4,4.3-9.6,6.4"/>
				<path class="st7" d="M68.8,282.2c-1.5-3.8-3.1-7.6-4.7-11.3"/>
				<path class="st7" d="M89.7,286.5c-2.7,2.5-5.4,5.2-8,7.7"/>
				<path class="st7" d="M104.7,290.1c-2.1-4.2-4.2-8.5-6.4-12.8"/>
				<path class="st7" d="M121.4,294.6c-3.9,2.8-7.8,5.7-11.7,8.6"/>
				<path class="st7" d="M148.1,302.9c-1.6-3.2-3.3-6.4-5-9.6"/>
			</g>
			<g>
				<path class="st5" d="M275.6,322.5c9.9-4,21.8-8.9,35.4-14.6s28.8-12.1,45.5-19.5c14-6.2,30.6-13.2,44-19.1
					c13.3-5.8,23.4-10.7,22.8-14.2c-0.5-3.4-11.7-5.4-27-4.6c-1.9,0.1-3.9,0.2-5.9,0.4s-4.1,0.4-6.2,0.7c-4.2,0.5-8.6,1.3-13,2.1
					c-2.2,0.4-4.4,0.9-6.6,1.4s-4.4,1-6.6,1.6s-4.3,1.2-6.4,1.9c-1.1,0.3-2.1,0.6-3.1,1s-2.1,0.7-3.1,1.1c-2.3,0.8-4.6,1.7-6.9,2.5
					c-2.2,0.9-4.4,1.9-6.6,2.8c-1.1,0.5-2.1,1-3.2,1.4c-1,0.5-2.1,1-3.1,1.5c-2,1-4.1,2.1-6,3.1c-2,1.1-3.8,2.2-5.7,3.3
					c-1.9,1.1-3.7,2.2-5.4,3.3c-1.8,1.2-3.5,2.3-5.1,3.5c-0.8,0.6-1.7,1.2-2.5,1.7c-0.8,0.6-1.6,1.2-2.4,1.8
					c-12.5,9.4-22,19.2-28.9,27.6L275.6,322.5z"/>
				<path class="st8" d="M273.1,317.4c20-14.7,41.8-27.2,64.8-37.4c23-10.2,47.4-17.9,72.4-22.9"/>
				<path class="st8" d="M377.8,265.2c1.8-3,3.6-6.1,5.5-9.1"/>
				<polyline class="st8" points="369.2,268 373.5,271.5 377.8,275.1 				"/>
				<polyline class="st8" points="350.8,274.6 351.9,269.6 353.1,264.7 				"/>
				<path class="st8" d="M337.9,280c3.9,1.9,7.7,3.8,11.4,5.8"/>
				<path class="st8" d="M323.7,286.6c0.9-4.3,1.9-8.6,3-12.9"/>
				<path class="st8" d="M301.6,298.6c3.1,0.8,6.2,1.6,9.3,2.5"/>
			</g>
			<g>
				<path class="st5" d="M197.4,231.1c-8.6-15.1-23.8-41.6-38.9-61.2c-15-19.6-34.1-40.7-58.1-60.3c-2.4-2.1-5.1-4.1-7.7-6.1
					c-2.7-2-5.4-4.1-8.2-6.1c-2.8-2-5.7-4-8.6-5.9l-4.3-2.9c-1.5-0.9-3-1.8-4.4-2.8c-2.9-1.8-5.9-3.6-8.8-5.3
					c-2.9-1.7-5.9-3.3-8.8-4.9c-2.9-1.5-5.8-3.1-8.6-4.4c-2.9-1.3-5.7-2.6-8.4-3.8c-1.4-0.6-2.7-1.2-4-1.7c-0.7-0.3-1.3-0.6-2-0.8
					c-0.7-0.2-1.3-0.5-2-0.7c-2.6-1-5.1-1.8-7.5-2.6s-4.6-1.5-6.7-2c-2.2-0.5-4.2-0.9-6-1.3C-3.2,56.9-8,57.2-9.4,59.7
					c-1.3,2.4,0.8,6.9,5.3,12.4c1.1,1.4,2.4,2.8,3.8,4.4s2.9,3.3,4.5,5s3.4,3.5,5.2,5.3c1.8,1.9,3.7,3.8,5.7,5.8s4,4,6.2,6
					c2.1,2.1,4.2,4.2,6.4,6.4c4.5,4.2,8.9,8.9,13.7,13.3l1.8,1.7l1.7,1.7l3.5,3.4c2.3,2.3,4.7,4.5,7.1,6.8c2.3,2.3,4.7,4.6,7,6.8
					c1.2,1.1,2.3,2.2,3.5,3.3c1.1,1.1,2.3,2.2,3.4,3.3c2.6,2.5,5.2,4.9,7.8,7.3c2.6,2.4,5.1,4.8,7.7,7.2c1.3,1.2,2.6,2.3,3.8,3.5
					c1.3,1.2,2.5,2.3,3.8,3.5c2.5,2.3,5,4.5,7.6,6.7c5,4.4,9.9,8.6,14.8,12.7c4.8,4.1,9.7,7.9,14.4,11.7
					c18.8,14.9,36.2,26.9,50.8,36.2L197.4,231.1z"/>
				<path class="st9" d="M191.5,230c-27.3-29.1-60.5-60.3-89.8-87.5C87.1,129,72,116,56.4,103.8C40.8,91.5,24.6,80.3,7.8,70.2"/>
				<path class="st9" d="M50.7,99.4c-5.5,0.6-10.9,1.1-16.4,1.9"/>
				<path class="st9" d="M61.8,108l0.9-8.8c0.3-2.9,0.5-5.9,0.7-8.8"/>
				<polyline class="st9" points="85.3,127.7 77.6,129.8 69.9,132 				"/>
				<path class="st9" d="M101.8,142.6c0.3-6.8,0.6-13.7,0.7-20.5"/>
				<path class="st9" d="M119.7,159.6c-6.9,0.9-13.8,1.9-20.7,2.9"/>
				<path class="st9" d="M148.1,188.2c0-5.2,0.1-10.4,0-15.5"/>
			</g>
			<g>
				<path class="st5" d="M249.4,226.9c-2-20.7-5.8-46.1-13.3-74.5c-3.7-14.2-8.4-29.1-14.3-44.5c-2.9-7.7-6.1-15.5-9.7-23.5
					c-1.7-4-3.7-8-5.6-12c-2-4-4.1-8.1-6.2-12.2c-7.4-13.7-16.4-28.2-26.7-41.4c-10.2-13.3-21.7-25.2-33-34.2
					c-2.7-2.3-5.6-4.3-8.3-6.2c-1.4-0.9-2.7-1.9-4-2.7c-1.4-0.8-2.7-1.6-4-2.4c-1.3-0.7-2.6-1.5-3.8-2.1c-0.6-0.3-1.2-0.7-1.8-1
					c-0.6-0.3-1.2-0.6-1.8-0.8c-2.4-1.1-4.7-2-6.7-2.8s-4-1.3-5.8-1.6s-3.3-0.5-4.7-0.5c-2.7,0-4.6,0.6-5.6,2
					c-0.9,1.3-1,3.4-0.3,5.9c0.3,1.3,0.9,2.6,1.6,4.1c0.3,0.7,0.7,1.5,1.1,2.3s0.8,1.7,1.3,2.6c0.9,1.8,2,3.6,3.2,5.6
					c1.1,2,2.3,4.2,3.7,6.4c1.4,2.2,2.7,4.6,4.1,7c0.7,1.2,1.5,2.4,2.2,3.7s1.5,2.6,2.2,4c6.1,10.7,12.5,23.1,18.8,36.4
					c6.3,13.2,12.4,27.3,18.3,40.8c1.7,3.9,3.4,7.7,5.1,11.5c1.7,3.8,3.4,7.6,5.1,11.3c3.4,7.5,6.9,14.8,10.3,21.8
					c6.9,14.1,13.9,27.4,20.7,39.7c13.7,24.7,26.8,45.7,38,62.7L249.4,226.9z"/>
				<path class="st10" d="M238.9,228.6c-15.4-44.8-32.8-88.8-52.1-131.8c-9.6-21.5-20.1-42.6-32.3-62.4
					c-6.1-9.9-12.7-19.4-19.9-28.3L132,2.7L130.7,1c-0.5-0.5-0.9-1.1-1.4-1.6L123.6-7l-5.9-6.1c-1-1-2-2-3-2.9l-3.1-2.9"/>
				<path class="st10" d="M149.9,27.2c-3.1-0.8-6.3-1.5-9.5-2.1s-6.2-1.3-9.4-1.8"/>
				<path class="st10" d="M158.6,41.3c3.1-6.2,6.2-12.5,9-18.9"/>
				<path class="st10" d="M175.7,73.1c-6.2-0.8-12.5-1.5-18.7-2.2"/>
				<path class="st10" d="M186.8,96.8c3.5-7.3,6.8-14.6,10.1-22.1"/>
				<path class="st10" d="M198.5,123.6c-7.9-2.2-15.9-4.3-23.8-6.3"/>
				<path class="st10" d="M216.5,167.6c2.4-5.6,4.8-11.2,7.1-16.9"/>
			</g>
			<g>
				<path class="st5" d="M224.3,324.2c-7.8-10-28.1-33.5-40.3-46.3s-26.7-26.6-43.9-40.2c-28.9-22.9-70.5-49.7-75.9-43.5
					c-5.3,6.1,25.4,43.9,53.5,70c16.1,14.9,32.2,26.9,47.3,36.3c15,9.5,28.6,19.5,40.1,24.6L224.3,324.2z"/>
				<path class="st11" d="M215.5,322.5c-45.7-36-96.3-79.7-140.3-118.1"/>
				<line class="st11" x1="104.2" y1="229.6" x2="92" y2="230"/>
				<line class="st11" x1="112" y1="236.4" x2="113.9" y2="223.6"/>
				<line class="st11" x1="129.1" y1="251.1" x2="117.8" y2="254.2"/>
				<line class="st11" x1="141.5" y1="261.6" x2="141.5" y2="246.7"/>
				<line class="st11" x1="155.3" y1="273.3" x2="140.3" y2="276.3"/>
				<line class="st11" x1="177.9" y1="292" x2="176.7" y2="280.8"/>
			</g>
			<g>
				<path class="st5" d="M240.2,326.6c9.6-11.5,21.1-25.6,33.8-42.1c12.7-16.4,26.7-35,41.4-56.1c12.3-17.7,26.8-38.6,38-55.7
					s18.9-30.6,15.5-34.2c-3.3-3.5-17.6,2.9-34.8,15.4c-2.1,1.6-4.4,3.2-6.6,4.9s-4.4,3.6-6.7,5.4c-4.6,3.7-9.1,7.8-13.6,12.1
					c-2.3,2.1-4.5,4.3-6.7,6.5s-4.4,4.4-6.5,6.7s-4.2,4.6-6.2,6.9c-1,1.1-2,2.3-3,3.4c-1,1.2-1.9,2.3-2.9,3.5
					c-2.2,2.6-4.3,5.3-6.3,7.9c-2,2.7-3.9,5.3-5.8,8c-0.9,1.3-1.9,2.6-2.8,4c-0.9,1.3-1.8,2.7-2.6,4c-1.7,2.7-3.4,5.3-5,7.9
					c-1.6,2.6-3.1,5.3-4.5,7.9c-1.4,2.6-2.9,5.2-4.2,7.8s-2.6,5.2-3.8,7.7c-0.6,1.3-1.2,2.5-1.8,3.8s-1.1,2.5-1.7,3.8
					c-8.7,20-15.1,44.5-18.1,59.4L240.2,326.6z"/>
				<path class="st12" d="M231.5,325.2c15.1-31.3,35.2-64.7,55.6-93.4s43.2-55.8,68.4-80.9"/>
				<path class="st12" d="M323.8,185.1c-0.2-4.9-0.3-9.9-0.3-14.8"/>
				<polyline class="st12" points="315.7,194.7 323.4,195.7 331.1,196.7 				"/>
				<polyline class="st12" points="298.7,216 296.4,209.3 294.2,202.6 				"/>
				<path class="st12" d="M287.1,231.8c6-0.5,11.9-1,17.9-1.2"/>
				<path class="st12" d="M274.8,249.8c-1.9-5.8-3.7-11.7-5.5-17.6"/>
				<path class="st12" d="M256.2,279.7c4.4-1.1,8.7-2.3,13.1-3.3"/>
			</g>
		</g>
	</g>
</g>
<g id="OBJECTS">
	<g>
		<g>
			<path class="st13" d="M373.3,176.1H244.9c-4.6,0-8.3-3.7-8.3-8.3V80.1c0-4.6,3.7-8.3,8.3-8.3h128.4c4.6,0,8.3,3.7,8.3,8.3v87.7
				C381.6,172.4,377.9,176.1,373.3,176.1z"/>
			<path class="st14" d="M370,173.8H248.2c-4.6,0-8.3-3.7-8.3-8.3V82.4c0-4.6,3.7-8.3,8.3-8.3H370c4.6,0,8.3,3.7,8.3,8.3v83.1
				C378.2,170.1,374.5,173.8,370,173.8z"/>
			<g>
				<line class="st15" x1="300.2" y1="147.8" x2="327.6" y2="147.8"/>
				<line class="st15" x1="300.2" y1="151.8" x2="327.6" y2="151.8"/>
				<line class="st15" x1="300.2" y1="155.7" x2="327.6" y2="155.7"/>
				<line class="st15" x1="300.2" y1="159.7" x2="327.6" y2="159.7"/>
				<line class="st15" x1="300.2" y1="163.7" x2="310.8" y2="163.7"/>
			</g>
			<g>
				<line class="st16" x1="277.3" y1="93.3" x2="316.4" y2="93.3"/>
				<line class="st16" x1="277.3" y1="99" x2="316.4" y2="99"/>
				<line class="st16" x1="277.3" y1="104.7" x2="316.4" y2="104.7"/>
				<line class="st16" x1="277.3" y1="110.4" x2="316.4" y2="110.4"/>
				<line class="st16" x1="277.3" y1="116" x2="292.5" y2="116"/>
			</g>
			<g>
				<path class="st17" d="M334.5,106.2h3.7c0.1-0.3,0.1-0.7,0.1-1.1v-8.2h-9.6v13.2h4.5c0.4,0,0.8-0.1,1.2-0.2L334.5,106.2
					L334.5,106.2z"/>
				<path class="st18" d="M334.5,110c1.8-0.5,3.3-1.9,3.7-3.8h-3.7V110z"/>
			</g>
			<g>
				<path class="st19" d="M351.2,143.7h7.9c0.2-0.7,0.3-1.5,0.3-2.3v-17.5h-20.5v28.3h9.8c0.9,0,1.8-0.1,2.7-0.3v-8.2H351.2z"/>
				<path class="st20" d="M351.2,151.8c3.9-1,7-4.1,7.9-8.1h-7.9V151.8z"/>
			</g>
			<g>
				<path class="st19" d="M357.3,102.6h7.9c0.2-0.7,0.3-1.5,0.3-2.3V82.8H345v28.3h9.8c0.9,0,1.8-0.1,2.7-0.3v-8.2H357.3z"/>
				<path class="st20" d="M357.3,110.8c3.9-1,7-4.1,7.9-8.1h-7.9V110.8z"/>
			</g>
		</g>
		<g>
			<g>
				<path class="st21" d="M21.6,92.4h30.9l16.9,11V56.8c0-9.4-8.7-16.9-19.4-16.9H21.6c-10.7,0-19.4,7.6-19.4,16.9v18.7
					C2.1,84.8,10.8,92.4,21.6,92.4z"/>
				<path class="st14" d="M35.7,82.2c-2.5,0-4.2-1.9-4.2-4.4c0-2.6,1.8-4.4,4.3-4.4s4.2,1.8,4.3,4.4C40,80.3,38.4,82.2,35.7,82.2
					L35.7,82.2z M33,71.1l-1-21.7h7.6l-1.1,21.7C38.5,71.1,33,71.1,33,71.1z"/>
			</g>
			<g>
				<path class="st5" d="M286,58h-30.9l-16.9,11V22.4c0-9.4,8.7-16.9,19.4-16.9H286c10.7,0,19.4,7.6,19.4,16.9v18.7
					C305.4,50.5,296.7,58,286,58z"/>
				<path class="st14" d="M256.6,47.4c0-0.1,0-0.2,0-0.2c0.9-1.8-0.6-2.7-1.5-3.9c-0.1-0.2-0.4-0.2-0.6-0.2c-0.3,0-0.6,0.1-0.9,0.1
					c-1.1,0.1-1.1,0.1-1.6-0.9c-0.4-0.8-0.6-1.6-0.8-2.5c-0.1-0.4-0.1-0.7,0.3-0.9c1.4-0.5,1.6-1.6,1.6-2.9c0-0.9-0.2-1.4-0.9-1.8
					c-0.2-0.1-0.4-0.3-0.6-0.5c-0.3-0.2-0.3-0.4-0.2-0.7c0.4-1.1,0.8-2.2,1.5-3.1c0.2-0.3,0.4-0.4,0.7-0.3c1.4,0.6,2.4,0,3.4-1
					c0.5-0.5,0.7-0.9,0.6-1.6c-0.2-1.4-0.2-1.4,1.2-2c0.7-0.3,1.4-0.5,2.2-0.7c0.4-0.1,0.7,0,0.8,0.3c0.5,1.1,1.3,1.6,2.7,1.6
					c1,0,1.7-0.1,2.2-1c0.6-0.9,0.7-0.8,1.7-0.5c0.8,0.3,1.5,0.7,2.3,1.1c0.5,0.3,0.7,0.6,0.5,1c-0.4,1.1-0.1,1.9,0.7,2.8
					c0.8,0.9,1.5,1.2,2.6,0.9c0.6-0.2,0.9,0.1,1.1,0.6c0.4,0.9,0.8,1.9,1,2.9c0.1,0.4,0.1,0.6-0.3,0.8c-1.4,0.5-1.7,1.6-1.7,3
					c0,0.8,0.1,1.3,0.8,1.7c0.2,0.1,0.4,0.3,0.6,0.5c0.3,0.2,0.4,0.4,0.2,0.7c-0.4,1.1-0.8,2.1-1.4,3.1c-0.2,0.3-0.5,0.4-0.8,0.3
					c-1.3-0.5-2.2,0-3.2,0.9c-0.9,0.8-0.8,1.5-0.7,2.4c0.1,0.6-0.1,0.9-0.6,1.1c-0.9,0.4-1.9,0.8-2.9,1c-0.4,0.1-0.7,0.1-0.8-0.3
					c-0.6-1.4-1.6-1.6-3-1.7c-1.1-0.1-1.4,0.5-1.9,1.1c-0.6,0.8-0.6,0.8-1.5,0.4c-0.9-0.3-1.8-0.7-2.6-1.2
					C256.7,47.8,256.4,47.6,256.6,47.4z M263.9,30.6c-3.6,0-6.4,2.8-6.4,6.4s2.8,6.4,6.4,6.4s6.4-2.8,6.4-6.4
					C270.3,33.3,267.5,30.6,263.9,30.6z"/>
				<path class="st14" d="M277.4,32.1c0-0.1,0-0.1,0-0.1c0.7-1.4-0.4-2-1.1-2.9c-0.1-0.1-0.3-0.1-0.4-0.1c-0.2,0-0.4,0.1-0.6,0.1
					c-0.8,0.1-0.9,0.1-1.2-0.7c-0.3-0.6-0.5-1.2-0.6-1.8c-0.1-0.3,0-0.5,0.2-0.7c1-0.4,1.2-1.2,1.2-2.2c0-0.7-0.1-1-0.7-1.4
					c-0.2-0.1-0.3-0.2-0.4-0.3c-0.2-0.1-0.2-0.3-0.2-0.5c0.3-0.8,0.6-1.6,1.1-2.4c0.1-0.2,0.3-0.3,0.5-0.2c1.1,0.4,1.8,0,2.5-0.8
					c0.4-0.4,0.6-0.7,0.5-1.2c-0.2-1.1-0.1-1.1,0.9-1.5c0.5-0.2,1.1-0.4,1.6-0.5c0.3-0.1,0.5,0,0.6,0.2c0.4,0.9,1,1.2,2,1.2
					c0.7,0,1.2-0.1,1.7-0.7c0.4-0.7,0.5-0.6,1.3-0.3c0.6,0.2,1.2,0.5,1.7,0.8c0.3,0.2,0.5,0.4,0.4,0.8c-0.3,0.8-0.1,1.4,0.5,2.1
					c0.6,0.7,1.1,0.9,1.9,0.7c0.5-0.1,0.7,0.1,0.9,0.5c0.3,0.7,0.6,1.4,0.8,2.1c0.1,0.3,0,0.5-0.2,0.6c-1.1,0.4-1.2,1.2-1.2,2.3
					c0,0.6,0.1,1,0.6,1.3c0.2,0.1,0.3,0.2,0.4,0.3c0.2,0.1,0.3,0.3,0.2,0.6c-0.3,0.8-0.6,1.6-1.1,2.3c-0.1,0.2-0.3,0.3-0.6,0.2
					c-1-0.4-1.6,0-2.4,0.7c-0.7,0.6-0.6,1.1-0.5,1.8c0.1,0.4-0.1,0.7-0.5,0.8c-0.7,0.3-1.4,0.6-2.1,0.8c-0.3,0.1-0.5,0-0.6-0.2
					c-0.4-1-1.2-1.2-2.2-1.2c-0.8,0-1.1,0.3-1.4,0.8c-0.5,0.6-0.5,0.6-1.2,0.3c-0.7-0.2-1.3-0.6-1.9-0.9
					C277.5,32.4,277.3,32.3,277.4,32.1z M282.9,19.4c-2.7,0-4.8,2.1-4.8,4.8s2.1,4.8,4.8,4.8c2.7,0,4.8-2.1,4.8-4.8
					C287.7,21.5,285.7,19.4,282.9,19.4z"/>
			</g>
			<g>
				<path class="st5" d="M183.8,110.1h-30.9l-16.9,11V74.5c0-9.4,8.7-16.9,19.4-16.9h28.4c10.7,0,19.4,7.6,19.4,16.9v18.7
					C203.3,102.5,194.6,110.1,183.8,110.1z"/>
				<polygon class="st22" points="169.7,66.5 174.9,77 186.5,78.7 178.1,86.9 180.1,98.5 169.7,93 159.2,98.5 161.2,86.9 
					152.8,78.7 164.4,77 				"/>
			</g>
		</g>
		<g>
			<g>
				<g>
					<path class="st23" d="M88,159.7c0.8-0.9,1.2-1.9,1.3-3.2c0-0.9-0.1-1.9-0.6-2.7c-0.5-0.9-1.3-1.6-2.2-2.1
						c-0.9-0.5-1.9-0.6-3-0.5c-1.5,0.2-3,0.8-4.2,1.7c-0.8,0.6-1.4,1.5-1.8,2.5c-0.5,1.5-0.7,3.2-0.3,4.7c0.2,0.8,0.5,1.5,0.8,2.2
						c0.5,1,0.9,2,1.5,3c1,1.9,2.1,3.8,3.2,5.6c0.5,0.8,1,1.6,1.4,2.5c0.3,0.8,0.6,1.6,1,2.2c0.3,0.5,0.7,0.8,1.1,1.1
						c0.8,0.4,1.7,0.8,2.5,1.3c1.8,1.1,3.5,2.3,5.4,3.3c2,1,3.5,1.5,5.4,2.2c2.2,0.7,4.3,1.1,5.9,1.4c1.2,0.2,2.4,0.4,4,0.6
						c2,0.2,3.7,0.2,4.9,0.1c2.7-1.3,5.3-2.5,8-3.8c0.1-1.2,0.3-2.4,0.4-3.7c-0.9-1.2-1.7-2.4-2.6-3.6c-0.6-0.1-1.3-0.3-1.9-0.4
						c-2,1-4,2-6,2.9c-0.6,0.8-1.1,1.5-1.7,2.3c-0.9,0.1-1.9,0.1-2.8,0.2c-2.4-1.3-4.2-2.5-5.3-3.4c-1.7-1.3-2.8-2.3-4.9-3.6
						c-1.5-1-2.4-1.4-2.4-1.4c-0.8-0.4-1.7-0.8-2.5-1.4c-1-0.8-1.5-1.9-2-3.1c-0.4-1.1-0.8-2.1-1.2-3.2c-0.4-1-0.8-1.9-1.2-2.9
						c-0.6-1.5-1.5-3.4-2.6-5.6L88,159.7z"/>
					<path class="st24" d="M103.6,320.8c-1.2-0.5-2.7-0.3-4-0.4c-1.8-0.1-3.5-0.7-5.1-1.5c-1.7-0.8-3.3-1.9-4.8-3
						c-0.7-0.6-1.5-1.1-2.2-1.8c-0.2-0.2-0.5-0.5-0.8-0.6c-0.1,0-0.3,0-0.4-0.1c0.5-0.3,0.2-0.9,0.1-1.4c-0.3-1-0.7-2-1-3
						c-0.2-0.7-0.2-1.5-0.4-2.2c-0.2-1.1-1-2.1-0.9-3.3c0-0.3,0.1-0.6,0-0.8c-0.1-0.3-0.4-0.5-0.5-0.8c-0.1-0.5,0-1.1,0-1.6
						c0-1.2-0.1-2.3-0.1-3.5c-0.1-2.1-0.1-4.1-0.1-6.2c0.1-2,0.2-3.9,0.4-5.9c0.3-2.3,0.5-4.6,0.6-7c0-0.9,0.1-1.8,0.3-2.8
						c0.2-0.9,0.1-1.8,0.2-2.7c0-0.7,0.2-1.3,0.4-2c0.3-0.9,0.5-1.8,0.8-2.7c0.2-0.7,0.6-1.3,0.9-2c0.4-0.8,0.6-1.7,0.8-2.5
						c0.4-2.1,0.4-4.1,0.4-6.2c0.1-1.9,0.5-3.9,1-5.8c0.5-2.3,1.2-4.6,1.8-6.8c0.5-1.9,1-3.8,1.4-5.7c0.4-2,0.8-3.9,1.1-5.9
						c0.3-2.3,0.6-4.6,0.8-6.8c0.1-1,0.1-2.1,0.2-3.1c0.1-0.9,0.3-1.8,0.4-2.6s-0.1-1.6-0.1-2.5c0-1,0.3-2,0.6-2.9
						c0.2-0.5,0.4-1,0.6-1.5c0.3-0.5,0.6-0.9,0.7-1.4c0.2-1,0.4-2,0.6-3c0.1-1,0.2-1.9,0.2-2.9l-24.3-7.3c-0.7,0.8-1.3,1.6-1.9,2.4
						c-1.3,1.8-2.5,3.6-3.3,5.6s-1.1,4.1-1,6.2c0.1,2.3,0.7,4.6,1.4,6.8c0.3,1.1,0.7,2.3,1.1,3.4c0.3,0.9,0.5,1.8,1,2.6
						c0.2,0.4,0.6,0.6,0.8,1c0.1,0.3,0.1,0.6,0.1,0.8c0,1.5,0.8,2.8,1,4.2c0.1,0.5-0.1,1-0.2,1.5s0.1,1.1,0.2,1.6
						c0.1,0.9,0.1,1.9,0.1,2.9c0,1.3,0,2.5,0,3.8c0,2.3,0,4.7,0.1,7c0.1,1.4,0.1,2.9,0.2,4.3c0,0.9,0,1.9-0.2,2.8
						c-0.1,0.8-0.3,1.5-0.3,2.2c0,0.6,0,1.2-0.2,1.8c-0.2,0.7-0.4,1.5-0.4,2.3c0,0.6,0.2,1.1,0.3,1.6c0.1,0.7,0,1.3-0.1,2
						c0,1.1,0,2.2-0.1,3.3c-0.2,2.3-0.6,4.6-0.8,6.9c-0.2,2.4-0.4,4.7-0.4,7.1c0,2.3,0.2,4.7,0.6,7c0.3,2.3,0.8,4.6,1.1,7
						c0.3,2.6,0.4,5.2,0.6,7.8c0.1,2.2,0.5,4.4,0.7,6.6c0.1,1.2,0.1,2.4,0.2,3.6c0,0.6,0,1.2,0.3,1.8c-0.5,0.1-0.6,0.6-0.8,1
						c-0.6,1.8-0.7,3.8-0.9,5.6c-0.1,0.8-0.1,1.7,0,2.5c0,0.2,0.1,0.5,0.2,0.6c0.4,0.6,1.4,0.7,2,0.7c1.6,0.2,3.1,0.2,4.7,0.2
						c2.7,0,5.5,0,8.2,0c3.8,0,7.7,0.1,11.6-0.3c1.7-0.2,3.5-0.5,5.1-1.3c0.6-0.3,1.1-0.6,1.1-1.3
						C105.6,322.9,105.1,321.4,103.6,320.8z"/>
					<g>
						<g>
							<path id="XMLID_63_" class="st25" d="M93.5,118.1c0.1,0.5,0.2,1,0.3,1.5c0.2,1.1,0.2,2.2,0.2,3.3c0,1-0.3,2-0.2,3.1
								c0,0.6,0.4,1.1,0.7,1.7c0.4,0.8,1,1.7,1.3,2.6c0.1,0.5,0.2,1.1-0.3,1.3c-0.6,0.2-1.7-0.1-1.9,0.7c-0.1,0.4,0,0.9-0.1,1.3
								c-0.1,0.3-0.3,0.3-0.6,0.5c-0.2,0.2-0.3,0.4-0.3,0.6c0,0.5,0,1-0.2,1.4s-0.5,0.6-0.7,1c-0.2,0.3-0.2,0.7-0.2,1
								c0,1,0,2.2-1.2,2.4c-0.7,0.2-1.5,0-2.2-0.1c-0.9-0.1-1.9-0.3-2.8-0.2c-0.4,0.1-0.8,0.3-1.1,0.6c-0.5,0.6-1,1.3-1.2,2.1
								c0,0,0.6,4.1,1.4,5.8s-2.5,2.4-2.5,2.4l-8.7-4l-3.1-4.8l2-5.3c0.3-0.8,0.5-1.7,0.6-2.6l0.4-17.4l11.7-4.2L93.5,118.1
								L93.5,118.1z"/>
						</g>
						<g>
							<defs>
								<path id="SVGID_2_" d="M93.5,118.1c0.1,0.5,0.2,1,0.3,1.5c0.2,1.1,0.2,2.2,0.2,3.3c0,1-0.3,2-0.2,3.1c0,0.6,0.4,1.1,0.7,1.7
									c0.4,0.8,1,1.7,1.3,2.6c0.1,0.5,0.2,1.1-0.3,1.3c-0.6,0.2-1.7-0.1-1.9,0.7c-0.1,0.4,0,0.9-0.1,1.3c-0.1,0.3-0.3,0.3-0.6,0.5
									c-0.2,0.2-0.3,0.4-0.3,0.6c0,0.5,0,1-0.2,1.4s-0.5,0.6-0.7,1c-0.2,0.3-0.2,0.7-0.2,1c0,1,0,2.2-1.2,2.4
									c-0.7,0.2-1.5,0-2.2-0.1c-0.9-0.1-1.9-0.3-2.8-0.2c-0.4,0.1-0.8,0.3-1.1,0.6c-0.5,0.6-1,1.3-1.2,2.1c0,0,0.6,4.1,1.4,5.8
									s-2.5,2.4-2.5,2.4l-8.7-4l-3.1-4.8l2-5.3c0.3-0.8,0.5-1.7,0.6-2.6l0.4-17.4l11.7-4.2L93.5,118.1L93.5,118.1z"/>
							</defs>
							<clipPath id="SVGID_3_">
								<use xlink:href="#SVGID_2_"  style="overflow:visible;"/>
							</clipPath>
							<path class="st26" d="M86.2,140.5c0,0-5.1-2.3-6.5-6.9c0.1,3.7,4.4,9.7,4.4,9.7L86.2,140.5z"/>
						</g>
					</g>
					<path class="st17" d="M91.9,206c0,1-0.1,1.9-0.2,2.9s-0.3,2-0.6,3c-0.1,0.5-0.5,1-0.7,1.4c-0.2,0.5-0.5,1-0.6,1.5
						c-0.3,0.9-0.6,1.9-0.6,2.9c0,0.8,0.1,1.6,0.1,2.5c-0.1,0.9-0.3,1.7-0.4,2.6c-0.1,1-0.1,2.1-0.2,3.1c-0.2,2.3-0.5,4.6-0.8,6.8
						c-0.2,2-0.6,4-1.1,5.9c-0.4,1.9-0.9,3.8-1.4,5.7c-0.6,2.3-1.3,4.5-1.8,6.8c-0.4,1.9-0.9,3.9-1,5.8c-0.1,2.1,0,4.1-0.4,6.2
						c-0.2,0.9-0.4,1.7-0.8,2.5c-0.3,0.7-0.7,1.3-0.9,2c-0.3,0.9-0.5,1.8-0.8,2.7c-0.2,0.6-0.4,1.3-0.4,2c0,0.9,0,1.8-0.2,2.7
						c-0.2,0.9-0.2,1.8-0.3,2.8c-0.1,2.3-0.4,4.6-0.6,7c-0.2,1.9-0.4,3.9-0.4,5.9c-0.1,2.1,0,4.1,0.1,6.2c0,1.2,0.1,2.3,0.1,3.5
						c0,0.5-0.1,1.1,0,1.6c0.1,0.3,0.4,0.5,0.4,0.8c0.1,0.3,0,0.6,0,0.8c-0.1,1.2,0.7,2.2,0.9,3.3c0.1,0.7,0.2,1.5,0.4,2.2
						c0.3,1,0.6,2,1,3c0.1,0.5,0.4,1.1-0.1,1.4l-2.8,4.5c-1.9,0.9-9.5-1.3-9.5-1.3c-0.3-0.6-0.3-1.2-0.3-1.8
						c-0.1-1.2-0.1-2.4-0.2-3.6c-0.2-2.2-0.5-4.4-0.7-6.6c-0.2-2.6-0.3-5.2-0.6-7.8c-0.3-2.3-0.7-4.6-1.1-7c-0.3-2.3-0.6-4.6-0.6-7
						s0.2-4.8,0.4-7.1c0.2-2.3,0.6-4.6,0.8-6.9c0.1-1.1,0-2.2,0.1-3.3c0-0.7,0.2-1.3,0.1-2c-0.1-0.6-0.3-1.1-0.3-1.6
						c0-0.8,0.2-1.5,0.4-2.3c0.2-0.6,0.2-1.2,0.2-1.8c-0.1-0.8,0.1-1.5,0.3-2.2c0.2-0.9,0.2-1.9,0.2-2.8c0-1.4-0.1-2.9-0.2-4.3
						c-0.1-2.3-0.1-4.7-0.1-7c0-1.3,0-2.5,0-3.8c0-0.9,0-1.9-0.1-2.9c-0.1-0.5-0.2-1-0.2-1.6c0.1-0.5,0.2-0.9,0.2-1.5
						c-0.1-1.5-1-2.7-1-4.2c0-0.3,0-0.6-0.1-0.8c-0.2-0.4-0.6-0.6-0.8-1c-0.5-0.8-0.7-1.7-1-2.6c-0.4-1.1-0.7-2.3-1.1-3.4
						c-0.7-2.2-1.3-4.5-1.4-6.8c-0.1-2.1,0.3-4.3,1-6.2c0.8-2,2-3.9,3.3-5.6c0.6-0.8,1.2-1.7,1.9-2.4L91.9,206z"/>
					<g>
						<g>
							<path id="XMLID_64_" class="st27" d="M68.9,171.1c-1.4-3.2-2.4-6.7-2.7-10.2c-0.3-3.4,0-6.8,0.9-10.1c0.5-1.6,1.4-3,1.7-4.7
								l2.4-6.5c3.6,3.5,6.7,5.7,8.3,6.7c0.8,0.5,2.2,1.3,4.1,1.4c0.2,0,0.4,0,0.5,0l10.1,11.7c0.9,0.7,1.7,1.6,2.3,2.6
								c1,1.7,1.3,3.8,1.1,5.7c-0.1,1.2-0.3,2.4-0.4,3.6c-0.1,1.1,0,2.1,0.2,3.2c0.4,2.4,0.8,4.8,1.1,7.2c0.3,2.6,1.4,17.7,1.6,19.1
								c0.2,1.3,0.4,2.4,0.5,3.2c-3.2,1.9-5.8,2.5-7.6,2.6c-4,0.3-8.6-1-10.8,0c-0.2,0.1-1,0.4-1.5,0.2c-0.3-0.2-0.3-0.8-0.4-1.1
								c-0.1-0.6-0.2-1.2-0.3-1.8c0-0.2,0-0.4-0.1-0.6c-0.1-0.2-0.2-0.2-0.4-0.1c-0.3,0.1-2.1,2.1-2.4,2.3
								c-0.8,0.6-3.4-0.4-10.8-7.1c0.9-0.5,2-1.2,2.8-2.1c0.6-0.7,0.9-1,1-1.3c0.3-0.6,0.6-0.9,1.1-1.3c0.4-0.3,0.8-0.6,1.1-1
								c0.2-0.4,0.3-0.9,0.5-1.2s0.6-0.4,0.9-0.6c0.4-0.2,0.6-0.6,0.8-1L68.9,171.1z"/>
						</g>
						<g>
							<defs>
								<path id="SVGID_4_" d="M68.9,171.1c-1.4-3.2-2.4-6.7-2.7-10.2c-0.3-3.4,0-6.8,0.9-10.1c0.5-1.6,1.4-3,1.7-4.7l2.4-6.5
									c3.6,3.5,6.7,5.7,8.3,6.7c0.8,0.5,2.2,1.3,4.1,1.4c0.2,0,0.4,0,0.5,0l10.1,11.7c0.9,0.7,1.7,1.6,2.3,2.6
									c1,1.7,1.3,3.8,1.1,5.7c-0.1,1.2-0.3,2.4-0.4,3.6c-0.1,1.1,0,2.1,0.2,3.2c0.4,2.4,0.8,4.8,1.1,7.2
									c0.3,2.6,1.4,17.7,1.6,19.1c0.2,1.3,0.4,2.4,0.5,3.2c-3.2,1.9-5.8,2.5-7.6,2.6c-4,0.3-8.6-1-10.8,0c-0.2,0.1-1,0.4-1.5,0.2
									c-0.3-0.2-0.3-0.8-0.4-1.1c-0.1-0.6-0.2-1.2-0.3-1.8c0-0.2,0-0.4-0.1-0.6c-0.1-0.2-0.2-0.2-0.4-0.1
									c-0.3,0.1-2.1,2.1-2.4,2.3c-0.8,0.6-3.4-0.4-10.8-7.1c0.9-0.5,2-1.2,2.8-2.1c0.6-0.7,0.9-1,1-1.3c0.3-0.6,0.6-0.9,1.1-1.3
									c0.4-0.3,0.8-0.6,1.1-1c0.2-0.4,0.3-0.9,0.5-1.2s0.6-0.4,0.9-0.6c0.4-0.2,0.6-0.6,0.8-1L68.9,171.1z"/>
							</defs>
							<clipPath id="SVGID_5_">
								<use xlink:href="#SVGID_4_"  style="overflow:visible;"/>
							</clipPath>
							<path class="st28" d="M83,159.1c0,0-3.5,13.7-3.1,14.6c0.3,0.9,3.9,20.1,3.9,20.1l-11-22.7l6.3-12.3L83,159.1z"/>
						</g>
					</g>
					<path class="st29" d="M68.3,316.6c-0.5,0.1-0.6,0.6-0.8,1c-0.6,1.8-0.7,3.8-0.9,5.6c-0.1,0.8-0.1,1.7,0,2.5
						c0,0.2,0.1,0.5,0.2,0.6c0.4,0.6,1.4,0.7,2,0.7c1.6,0.2,3.1,0.2,4.7,0.2c2.7,0,5.5,0,8.2,0c3.8,0,7.7,0.1,11.6-0.3
						c1.7-0.2,3.5-0.5,5.1-1.3c0.6-0.3,1.1-0.6,1.1-1.3c0.1-1.5-0.3-3-1.8-3.6c-1.2-0.5-2.7-0.3-4-0.4c-1.8-0.1-3.5-0.7-5.1-1.5
						c-1.7-0.8-3.3-1.9-4.8-3c-0.7-0.6-1.5-1.1-2.2-1.8c-0.2-0.2-0.5-0.5-0.8-0.6c-2-0.5-2.8,1.8-3.9,2.9c-0.7,0.7-1.7,1-2.7,1.1
						c-0.9,0.1-1.7,0.1-2.6-0.1s-1.7-0.5-2.6-0.7C68.9,316.6,68.6,316.6,68.3,316.6z"/>
					<path class="st25" d="M79,164c1.3-0.5,2.3-1.4,3-2.7c0.5-1,0.9-2.1,0.8-3.3c0-1.3-0.5-2.5-1.2-3.5c-0.7-1.1-1.7-1.8-2.8-2.3
						c-1.6-0.7-3.5-1-5.3-0.7c-1.2,0.2-2.3,0.8-3.2,1.7c-1.3,1.3-2.4,3.1-2.9,4.9c-0.2,0.9-0.3,1.9-0.3,2.8c0,1.4-0.1,2.7-0.1,4.1
						c0,2.7,0.2,5.4,0.4,8c0.1,1.2,0.1,2.4,0.1,3.6c-0.1,1-0.3,2-0.2,3c0.1,0.7,0.3,1.3,0.6,1.8c0.6,1,1.3,1.9,1.9,2.9
						c1.2,2.3,2.4,4.6,3.8,6.7c1.3,2,2.9,3.8,4.5,5.6c1.8,2,3.6,4,5.5,5.9c1.9,1.7,3.8,3.4,5.8,4.9c0.8,0.6,2.6,1.5,4.9,2
						c3.4,0.8,6.3,0.3,8.2-0.3c0.6-0.6,2.2-2.6,2.4-5.7c0.1-1.9-0.3-3.5-0.7-4.3c-1.7-0.2-3.6-0.8-5.6-1.9c-0.2-0.1-0.5-0.3-0.7-0.4
						c1.1-0.7,2.1-1.1,2.8-1.3c1-0.3,1.7-0.3,1.9-0.9c0.2-0.5-0.1-1.2-0.3-1.6c-0.6-0.8-1.9-1.1-3.2-0.7c-3.1,1.9-6.2,3.7-9.2,5.6
						c-0.1-0.1-0.3-0.3-0.6-0.5c-2-2-2.5-4-3.9-6.7c-1.2-2.4-2.3-4.8-3.6-7.2c-0.5-1-1.1-2-1.7-3s-1.3-1.9-1.8-3
						c-0.7-1.5-0.5-2.9-0.4-4.5c0.1-1.4,0.3-2.8,0.4-4.2c0.1-1.3,0.2-2.5,0.3-3.8c0.2-2.6,0.4-5.1,0.3-7.7L79,164z"/>
					<path class="st24" d="M93.1,120.4c-3.1,2.8-5.1,3-6.4,2.6c-1.5-0.4-2.8-2-3.8-1.4c-0.4,0.2-0.6,0.6-0.6,1
						c0.2,0.4,0.6,1.3,0.6,2.4s-0.5,2.5-1,2.6c-1,0.1-1.6-3.7-2.4-3.6c-0.7,0.1-0.6,2.8-1.5,6.3c-0.7,2.7-1.8,6.9-5.2,9
						c-0.5,0.3-3.8,2.2-6.8,0.6c-1.7-0.9-3.1-2.7-3.3-4.9c-0.2-2.4,1.2-4.1,1.5-4.5c-0.5-0.2-2.7-1.3-3.7-3.8
						c-0.1-0.2-1.3-3.4,0.2-5.8c1.1-1.7,2.7-1.4,3.1-2.8c0.5-1.5-1.1-2.2-1.2-4.5c-0.1-3,2.6-5.1,2.7-5.2c1.4-1.1,2.8-1.3,3.4-1.4
						c2.9-0.4,5.1,1,5.8,1.4c0.2-0.7,0.8-2.3,2.5-3.4c2.1-1.5,4.5-1.2,5.4-1c0.9,0.1,2.7,0.4,4,1.8c0.7,0.8,1,1.6,1.2,2.2
						c0.5-0.5,1.8-1.8,3.9-2.3c0.7-0.1,2.7-0.6,4.7,0.5c2.8,1.5,3.2,4.9,3.3,5.3c0.3,2.4-1,2.7-0.9,5.2c0.1,3.4,2.4,4.6,1.6,6.1
						c-0.6,1.2-2.8,1.6-4.4,1C93.6,122.7,93.1,120.5,93.1,120.4z"/>
					<path class="st25" d="M80.8,125.7c0-0.1-0.1-0.3-0.2-0.5c0,0-0.1-0.4-0.3-0.7c-0.4-0.7-1.1-1.4-2-1.6c-0.8-0.2-1.6,0.2-2,0.9
						c-0.7,1.1-0.1,2.8,0.4,3.9c0.5,1,1.4,2.4,2.6,2.6c0.1,0,1.1,0.1,1.5-0.5c0.3-0.4,0.2-0.8,0.1-1C81,127.8,80.9,126.8,80.8,125.7
						z"/>
					<path class="st23" d="M79,127c-0.1-0.8-1-0.3-1.1-1.1s0.8-0.6,0.7-1.2c0-0.6-1.8-0.5-1.5,1.5C77.5,128.4,79.1,127.7,79,127z"/>
				</g>
				<g>
					<path class="st29" d="M266.2,313.8c0,1.5,2.8,10.4,2.8,10.4h13.7c0,0,1.2-3,0.8-4.1c-0.3-1.2-4.8-4.5-5-5.1
						c-0.3-0.7-3.6-9.3-3.6-9.3S266.2,312.3,266.2,313.8z"/>
					<path class="st29" d="M199.2,305.6c0,0-2.1,6.7-3.1,8.3c-1,1.6-6.7,5.7-7,6.2c-0.2,0.5-1,5.1-1,5.1h19c0,0,0.9-7,0.9-8.4
						s-0.6-5.6-0.6-5.6l-0.5-4.8L199.2,305.6z"/>
					<g>
						<g>
							<path id="XMLID_77_" class="st30" d="M214,201.2c0,0-5,15.9-5.3,20.2s-4.9,32.5-5.5,35.1c-2.8,12.8-5.8,40.9-5.8,40.9l2,2.6
								l-2,3.9v5c0,0,3.2-0.9,4.7-0.9s5.6,1.7,5.6,1.7s4.4-12.2,4.4-14s2-2.7,1.8-4s-0.6-4.8,0-6.3s3.6-14.7,3.8-18.2
								s4.2-14.4,4.2-14.4s4.7-13.9,5.5-15.9c0.7-2,1.9-12.4,6.6-12.4s12.1,14.9,13.3,20.4s9.2,32.3,10.4,34.3s6,8.7,6,8.7l-1.8,7.2
								l1.3,9.9c0,0,0.8,5.1,0.9,6.2s4.3,0,4.3,0s7.7-1.6,8.9-2.3c1.2-0.6,1.4-3.4,1.1-4.2c-0.2-0.9-1-2.6-1-3.5s-5.3-36.2-5.8-38.9
								S267,250,266.1,246c-0.9-4.1-1.8-13.4-1.8-16.4s-0.5-6.2-0.5-7.5s-7-23.1-7-23.1L214,201.2z"/>
						</g>
						<g>
							<defs>
								<path id="SVGID_6_" d="M214,201.2c0,0-5,15.9-5.3,20.2s-4.9,32.5-5.5,35.1c-2.8,12.8-5.8,40.9-5.8,40.9l2,2.6l-2,3.9v5
									c0,0,3.2-0.9,4.7-0.9s5.6,1.7,5.6,1.7s4.4-12.2,4.4-14s2-2.7,1.8-4s-0.6-4.8,0-6.3s3.6-14.7,3.8-18.2s4.2-14.4,4.2-14.4
									s4.7-13.9,5.5-15.9c0.7-2,1.9-12.4,6.6-12.4s12.1,14.9,13.3,20.4s9.2,32.3,10.4,34.3s6,8.7,6,8.7l-1.8,7.2l1.3,9.9
									c0,0,0.8,5.1,0.9,6.2s4.3,0,4.3,0s7.7-1.6,8.9-2.3c1.2-0.6,1.4-3.4,1.1-4.2c-0.2-0.9-1-2.6-1-3.5s-5.3-36.2-5.8-38.9
									S267,250,266.1,246c-0.9-4.1-1.8-13.4-1.8-16.4s-0.5-6.2-0.5-7.5s-7-23.1-7-23.1L214,201.2z"/>
							</defs>
							<clipPath id="SVGID_7_">
								<use xlink:href="#SVGID_6_"  style="overflow:visible;"/>
							</clipPath>
							<path class="st31" d="M225.8,221.7c2.7,1.7,6.2,2.4,9.7,3C230.5,232.2,228.9,225.5,225.8,221.7z"/>
						</g>
						<g>
							<defs>
								<path id="SVGID_8_" d="M214,201.2c0,0-5,15.9-5.3,20.2s-4.9,32.5-5.5,35.1c-2.8,12.8-5.8,40.9-5.8,40.9l2,2.6l-2,3.9v5
									c0,0,3.2-0.9,4.7-0.9s5.6,1.7,5.6,1.7s4.4-12.2,4.4-14s2-2.7,1.8-4s-0.6-4.8,0-6.3s3.6-14.7,3.8-18.2s4.2-14.4,4.2-14.4
									s4.7-13.9,5.5-15.9c0.7-2,1.9-12.4,6.6-12.4s12.1,14.9,13.3,20.4s9.2,32.3,10.4,34.3s6,8.7,6,8.7l-1.8,7.2l1.3,9.9
									c0,0,0.8,5.1,0.9,6.2s4.3,0,4.3,0s7.7-1.6,8.9-2.3c1.2-0.6,1.4-3.4,1.1-4.2c-0.2-0.9-1-2.6-1-3.5s-5.3-36.2-5.8-38.9
									S267,250,266.1,246c-0.9-4.1-1.8-13.4-1.8-16.4s-0.5-6.2-0.5-7.5s-7-23.1-7-23.1L214,201.2z"/>
							</defs>
							<clipPath id="SVGID_9_">
								<use xlink:href="#SVGID_8_"  style="overflow:visible;"/>
							</clipPath>
							<polygon class="st32" points="215.8,293.4 209.2,294.8 213.3,298.9 							"/>
						</g>
						<g>
							<defs>
								<path id="SVGID_10_" d="M214,201.2c0,0-5,15.9-5.3,20.2s-4.9,32.5-5.5,35.1c-2.8,12.8-5.8,40.9-5.8,40.9l2,2.6l-2,3.9v5
									c0,0,3.2-0.9,4.7-0.9s5.6,1.7,5.6,1.7s4.4-12.2,4.4-14s2-2.7,1.8-4s-0.6-4.8,0-6.3s3.6-14.7,3.8-18.2s4.2-14.4,4.2-14.4
									s4.7-13.9,5.5-15.9c0.7-2,1.9-12.4,6.6-12.4s12.1,14.9,13.3,20.4s9.2,32.3,10.4,34.3s6,8.7,6,8.7l-1.8,7.2l1.3,9.9
									c0,0,0.8,5.1,0.9,6.2s4.3,0,4.3,0s7.7-1.6,8.9-2.3c1.2-0.6,1.4-3.4,1.1-4.2c-0.2-0.9-1-2.6-1-3.5s-5.3-36.2-5.8-38.9
									S267,250,266.1,246c-0.9-4.1-1.8-13.4-1.8-16.4s-0.5-6.2-0.5-7.5s-7-23.1-7-23.1L214,201.2z"/>
							</defs>
							<clipPath id="SVGID_11_">
								<use xlink:href="#SVGID_10_"  style="overflow:visible;"/>
							</clipPath>
							<polygon class="st33" points="258.9,283.9 266.6,289.2 260.2,287.7 							"/>
						</g>
					</g>
					<g>
						<g>
							<path id="XMLID_75_" class="st24" d="M218.6,128.8c-1.4,0.8-1.7,0.7-6.4,2.4c-3.1,1.1-4.6,1.7-4.8,1.9
								c-2.6,2.4-1,6.3-2.3,12.5c-0.7,3.2-3.2,6.3-3,7.6s4.4,1.2,7.6,1.2c3.6,0,4.2-0.9,5.1-0.3c3.8,2.2-3.5,16.6-3,31.6
								c0.1,1.4,0.3,6,0,12.2c-0.1,2.8-0.3,5.2-0.5,6.7c9.4,2.5,17.5,3.5,23.4,4c9.8,0.7,14.2-0.1,18.1-2.2c3.2-1.7,5.3-3.9,6.7-5.5
								c-1.2-2.6-1.5-4.7-1.5-6.2c0-2.1,0.4-2.8,0.2-5.5c0-0.9-0.2-2-0.7-4.7c-0.8-3.7-1.3-5.1-1.7-7c-0.5-2.3-2.4-10.5,1.7-16.4
								c0.5-0.7,0.9-1.2,1.2-1.5c0.7,0.4,1.3,1.8,2.2,1.3c0.8-0.5,2-9.1,3.1-11.7c0.8-1.9,1.8-3.9,2-6.8c0.1-1.3,0.2-4.1-1.5-6.6
								c-0.3-0.4-0.8-1.2-2.5-2.5c-0.7-0.5-2-1.5-7.5-4c-1.9-0.8-2.8-1.3-3.7-1.6c-2.4-0.8-4.5-1.2-6.2-1.4
								c-8.8-1.1-10.9,1.3-17.2,0c-0.9-0.2-2.5-0.6-4.4-0.1C221.2,126.7,221,127.5,218.6,128.8z"/>
						</g>
						<g>
							<defs>
								<path id="SVGID_12_" d="M218.6,128.8c-1.4,0.8-1.7,0.7-6.4,2.4c-3.1,1.1-4.6,1.7-4.8,1.9c-2.6,2.4-1,6.3-2.3,12.5
									c-0.7,3.2-3.2,6.3-3,7.6s4.4,1.2,7.6,1.2c3.6,0,4.2-0.9,5.1-0.3c3.8,2.2-3.5,16.6-3,31.6c0.1,1.4,0.3,6,0,12.2
									c-0.1,2.8-0.3,5.2-0.5,6.7c9.4,2.5,17.5,3.5,23.4,4c9.8,0.7,14.2-0.1,18.1-2.2c3.2-1.7,5.3-3.9,6.7-5.5
									c-1.2-2.6-1.5-4.7-1.5-6.2c0-2.1,0.4-2.8,0.2-5.5c0-0.9-0.2-2-0.7-4.7c-0.8-3.7-1.3-5.1-1.7-7c-0.5-2.3-2.4-10.5,1.7-16.4
									c0.5-0.7,0.9-1.2,1.2-1.5c0.7,0.4,1.3,1.8,2.2,1.3c0.8-0.5,2-9.1,3.1-11.7c0.8-1.9,1.8-3.9,2-6.8c0.1-1.3,0.2-4.1-1.5-6.6
									c-0.3-0.4-0.8-1.2-2.5-2.5c-0.7-0.5-2-1.5-7.5-4c-1.9-0.8-2.8-1.3-3.7-1.6c-2.4-0.8-4.5-1.2-6.2-1.4
									c-8.8-1.1-10.9,1.3-17.2,0c-0.9-0.2-2.5-0.6-4.4-0.1C221.2,126.7,221,127.5,218.6,128.8z"/>
							</defs>
							<clipPath id="SVGID_13_">
								<use xlink:href="#SVGID_12_"  style="overflow:visible;"/>
							</clipPath>
							<path class="st34" d="M216.3,141.9c0,0,0.6,6.8,0.6,11.4c0,1.8-1.7,0.1-1.9,0.9c-0.5,2.8-1.2,4.6-2.4,5.8
								C216.6,162.3,222.4,153.1,216.3,141.9z"/>
						</g>
						<g>
							<defs>
								<path id="SVGID_14_" d="M218.6,128.8c-1.4,0.8-1.7,0.7-6.4,2.4c-3.1,1.1-4.6,1.7-4.8,1.9c-2.6,2.4-1,6.3-2.3,12.5
									c-0.7,3.2-3.2,6.3-3,7.6s4.4,1.2,7.6,1.2c3.6,0,4.2-0.9,5.1-0.3c3.8,2.2-3.5,16.6-3,31.6c0.1,1.4,0.3,6,0,12.2
									c-0.1,2.8-0.3,5.2-0.5,6.7c9.4,2.5,17.5,3.5,23.4,4c9.8,0.7,14.2-0.1,18.1-2.2c3.2-1.7,5.3-3.9,6.7-5.5
									c-1.2-2.6-1.5-4.7-1.5-6.2c0-2.1,0.4-2.8,0.2-5.5c0-0.9-0.2-2-0.7-4.7c-0.8-3.7-1.3-5.1-1.7-7c-0.5-2.3-2.4-10.5,1.7-16.4
									c0.5-0.7,0.9-1.2,1.2-1.5c0.7,0.4,1.3,1.8,2.2,1.3c0.8-0.5,2-9.1,3.1-11.7c0.8-1.9,1.8-3.9,2-6.8c0.1-1.3,0.2-4.1-1.5-6.6
									c-0.3-0.4-0.8-1.2-2.5-2.5c-0.7-0.5-2-1.5-7.5-4c-1.9-0.8-2.8-1.3-3.7-1.6c-2.4-0.8-4.5-1.2-6.2-1.4
									c-8.8-1.1-10.9,1.3-17.2,0c-0.9-0.2-2.5-0.6-4.4-0.1C221.2,126.7,221,127.5,218.6,128.8z"/>
							</defs>
							<clipPath id="SVGID_15_">
								<use xlink:href="#SVGID_14_"  style="overflow:visible;"/>
							</clipPath>
							<path class="st35" d="M249.6,152.4c0,0,4.2-9.6,4.7-11.1s-8.1,9.8-8.1,9.8L249.6,152.4z"/>
						</g>
					</g>
					<g>
						<g>
							<path id="XMLID_76_" class="st23" d="M234,113.7c-0.7,4.6-1.4,9.3-2.2,13.9c4.1,0,8.3,0,12.4,0c-0.7-4.7-1.3-9.5-2-14.2
								C239.6,113.5,236.8,113.6,234,113.7z"/>
						</g>
						<g>
							<defs>
								<path id="SVGID_16_" d="M234,113.7c-0.7,4.6-1.4,9.3-2.2,13.9c4.1,0,8.3,0,12.4,0c-0.7-4.7-1.3-9.5-2-14.2
									C239.6,113.5,236.8,113.6,234,113.7z"/>
							</defs>
							<clipPath id="SVGID_17_">
								<use xlink:href="#SVGID_16_"  style="overflow:visible;"/>
							</clipPath>
							<path class="st36" d="M229.9,118.3l17.3,1.3c0,0-2,6.3-8.6,6.3s-8.6-7-8.6-7"/>
						</g>
					</g>
					<path class="st23" d="M223,126.2c1.4,6.6,7.1,11.4,13.7,11.6c6.4,0.2,12.2-3.9,14.2-10.1c-3-1.2-7.6-2.7-13.4-3.1
						C231.3,124.2,226.2,125.3,223,126.2z"/>
					<path class="st29" d="M229.7,109.8c-0.2-3.6-0.4-7.3-0.6-10.9c2.1-4.2,6.4-6.7,10.9-6.3c4.1,0.3,7.7,2.9,9.4,6.7
						c-0.2,3.8-0.5,7.5-0.7,11.3C242.4,110.3,236.1,110,229.7,109.8z"/>
					<polygon class="st37" points="228,125.1 227.8,129.8 231.9,133.1 233.4,137.3 236.9,148.8 234.1,131.8 230,128.6 228.4,123 
											"/>
					<g>
						<g>
							<path id="XMLID_74_" class="st23" d="M203.3,153.2c-0.5,3.4,0.7,12.1,0.9,18.3c0,1.1,0.1,3,1.3,4.6c0.6,0.7,1.7,1.8,4.1,2.5
								c4,1.1,15.8,2.1,31.6,2.7c3.7-1.8,7.4-3.5,11.1-5.3c3.5-3.7,5.3-7.8,4-9.8c-1.7-2.6-8.2-1.4-12.3,1.1c-3.5,2.1-5.3,5.3-6.1,7
								c-3.7-0.8-7.7-1.7-11.9-3c-3.7-1.1-7.1-2.3-10.3-3.5c0.3-2,0.6-4.6,0.5-7.4c-0.1-2.9-0.3-4.3-0.7-6.3
								C211.5,152.8,205.8,152.5,203.3,153.2z"/>
						</g>
						<g>
							<defs>
								<path id="SVGID_18_" d="M203.3,153.2c-0.5,3.4,0.7,12.1,0.9,18.3c0,1.1,0.1,3,1.3,4.6c0.6,0.7,1.7,1.8,4.1,2.5
									c4,1.1,15.8,2.1,31.6,2.7c3.7-1.8,7.4-3.5,11.1-5.3c3.5-3.7,5.3-7.8,4-9.8c-1.7-2.6-8.2-1.4-12.3,1.1
									c-3.5,2.1-5.3,5.3-6.1,7c-3.7-0.8-7.7-1.7-11.9-3c-3.7-1.1-7.1-2.3-10.3-3.5c0.3-2,0.6-4.6,0.5-7.4
									c-0.1-2.9-0.3-4.3-0.7-6.3C211.5,152.8,205.8,152.5,203.3,153.2z"/>
							</defs>
							<clipPath id="SVGID_19_">
								<use xlink:href="#SVGID_18_"  style="overflow:visible;"/>
							</clipPath>
							<rect x="201.5" y="150.1" class="st38" width="16.3" height="5.7"/>
						</g>
						<g>
							<defs>
								<path id="SVGID_20_" d="M203.3,153.2c-0.5,3.4,0.7,12.1,0.9,18.3c0,1.1,0.1,3,1.3,4.6c0.6,0.7,1.7,1.8,4.1,2.5
									c4,1.1,15.8,2.1,31.6,2.7c3.7-1.8,7.4-3.5,11.1-5.3c3.5-3.7,5.3-7.8,4-9.8c-1.7-2.6-8.2-1.4-12.3,1.1
									c-3.5,2.1-5.3,5.3-6.1,7c-3.7-0.8-7.7-1.7-11.9-3c-3.7-1.1-7.1-2.3-10.3-3.5c0.3-2,0.6-4.6,0.5-7.4
									c-0.1-2.9-0.3-4.3-0.7-6.3C211.5,152.8,205.8,152.5,203.3,153.2z"/>
							</defs>
							<clipPath id="SVGID_21_">
								<use xlink:href="#SVGID_20_"  style="overflow:visible;"/>
							</clipPath>
							<path class="st39" d="M239.7,168.8c0,0,4,4.3,8.4,3.8s10.8-7.3,10.8-7.3l-6.8-1.3L239.7,168.8z"/>
						</g>
					</g>
					<path class="st23" d="M247.3,101c0.1,2.3,0.2,4.7,0.3,7c0.4-0.1,1.1-0.2,1.6,0.2c0.9,0.6,0.7,2,0.6,2.8
						c-0.1,0.7-0.2,1.3-0.7,1.8c-0.5,0.4-1.1,0.5-1.4,0.5c-0.2,1.4-0.8,4-2.7,6.5c-1.1,1.5-3.3,4.4-6.3,4.2
						c-2.7-0.1-4.5-2.7-5.8-4.6c-1.8-2.6-2.4-5.1-2.6-6.6c-0.3,0-0.8,0-1.1-0.2c-0.2-0.2-0.3-0.5-0.2-2.1c0.1-2.1,0.4-2.4,0.5-2.6
						c0.4-0.4,1-0.5,1.3-0.5c0.4-2.5,0.8-5.1,1.2-7.6c0.8-0.7,3.2-2.4,6.6-2.6C243.6,97,246.8,100.5,247.3,101z"/>
					<path class="st37" d="M234.9,132.3c0.4,2.8,0.8,3.4,1.2,5.9c2.2-1.1,4.7-0.5,7.1-1.8c-1.5-3.3-1.7-3.8-2.1-5
						c0.2-2.2,0.5-3.9,0.8-5.1c0.2-1.2,0.4-1.9,0.6-3.1c0.3-1.7,0.4-3.2,0.4-4.1c-0.5,0.1-1,0.2-1.5,0.3c-0.6,0.8-1.1,1.7-1.7,2.5
						c-0.8-1-1.7-2-2.7-3s-2-1.9-2.9-2.7c-1.8,1.8,0,0-1.8,1.8c0.2,1.8,3.1,4.1,3.3,5.9C237.4,125.8,233.1,130.5,234.9,132.3z"/>
					<path class="st23" d="M251.6,153.6c1.6,1.1,2.9,1.3,5.3,2.8c1.3,0.8,2.3,1.6,2.9,2.2c-1,5.8-4.6,10.4-9.4,11.7
						c-2.7,0.8-5.2,0.3-6.7-0.1c-0.5-0.2-1.1-0.5-1.8-1c-2-1.6-2.7-3.9-3.1-5.3c-0.8-3.4-2.8-14.5-5-29.6c-1.8-1.8-3.6-3.6-5.5-5.4
						c-0.2-1.8-0.4-3.6-0.6-5.3c1.8-1.8,3.5-3.5,5.3-5.3c0.9,0.8,1.9,1.7,2.9,2.7s1.9,2,2.7,3c0.6-0.8,1.1-1.7,1.7-2.5
						c0.5-0.1,1-0.2,1.5-0.3c-0.1,0.9-0.2,2.4-0.4,4.1c-0.2,1.2-0.4,1.9-0.6,3.1c-0.2,1.2-0.5,2.9-0.8,5.1
						c0.8,2.3,3.4,10.1,7.4,15.8C248.8,151.1,249.8,152.4,251.6,153.6z"/>
				</g>
				<g>
					<g>
						<path class="st40" d="M121.8,264H162c1.1,0,2-0.9,2-2v-4.5c0-1.1-0.9-2-2-2h-40.2c-1.1,0-2,0.9-2,2v4.4
							C119.7,263.1,120.6,264,121.8,264z"/>
						<path class="st41" d="M164,263.4c-14.8,0-29.5,0-44.3,0"/>
						<rect x="140.2" y="263.9" class="st42" width="3.4" height="55.6"/>
						<rect x="137.4" y="292.7" class="st43" width="9" height="16.9"/>
						<path class="st43" d="M111.7,321.2c4-2.7,15.1-9.3,30.8-9.1c14.9,0.2,25.5,6.4,29.5,9.1c0-0.9,0-1.9,0-2.8
							c-4.3-2.7-14.8-8.6-29.5-8.8c-15.5-0.2-26.6,6.1-30.8,8.8C111.7,319.4,111.7,320.3,111.7,321.2z"/>
						<path class="st43" d="M168.2,321.2c0-2.1,1.7-3.9,3.9-3.9c2.1,0,3.9,1.7,3.9,3.9c0,2.1-1.7,3.9-3.9,3.9
							S168.2,323.4,168.2,321.2z"/>
						<path class="st43" d="M107.9,321.2c0-2.1,1.7-3.9,3.9-3.9c2.1,0,3.9,1.7,3.9,3.9c0,2.1-1.7,3.9-3.9,3.9
							S107.9,323.4,107.9,321.2z"/>
						<path class="st43" d="M138.2,321.2c0-2,1.6-3.6,3.6-3.6s3.6,1.6,3.6,3.6s-1.6,3.6-3.6,3.6
							C139.9,324.9,138.2,323.3,138.2,321.2z"/>
					</g>
					<g>
						<path class="st29" d="M166.6,303.9c0,0-3.6,10.4-4.1,15s0.7,6.8,2,6.8c1.4,0,14.9-1.1,14.9-1.1s2.3-3.6,2.3-4.3
							s-2.8-7.3-2.8-9.5c0-2.1-2-7-2-7h-10.3V303.9z"/>
						<path class="st29" d="M107.1,303.9v8.3c0,0-7.3,6.8-7.3,9.1c0,2.3,3,4.1,5.1,3.8c2.1-0.3,12.9,0.3,13.8-0.7
							c1-1,1.3-12.9,1.3-12.9l-1.6-7.7h-11.3V303.9z"/>
						<g>
							<g>
								<path id="XMLID_33_" class="st44" d="M124.2,230.5c0,0-9.8,4.6-13.4,9.6c-3.6,5.1-4.9,4.6-6.5,6.7c-1.6,2.1-2,3.7-0.8,6.4
									c1.1,2.6,1.8,47.9,1.8,47.9v6.2c0,0,3.8-1.1,5.6-1c1.8,0.2,6.6,1,8.4,1.3s1.1-5.5,1.1-5.5l1.5-4.7c0,0,1.3-30.8,2.3-33.4
									s9.1-7.2,9.1-7.2s0-1.3,8.8,0c8.8,1.3,17.3-2.9,19.2-0.7c2,2.3,2.3,13.7,2.3,19.9c0,6.2,0.7,10.4,0,14s1.3,13,1.6,14.3
									s0.2,2.8,0.2,2.8s1.7-1.2,5-1.2s8.8-0.3,8.8-0.3s-2.3-7.5,0-12.4s3.3-23.2,3.3-28.4s2.3-15.3,0-19.2s-24.1-15.2-24.1-15.2
									h-34.2V230.5z"/>
							</g>
							<g>
								<defs>
									<path id="SVGID_22_" d="M124.2,230.5c0,0-9.8,4.6-13.4,9.6c-3.6,5.1-4.9,4.6-6.5,6.7c-1.6,2.1-2,3.7-0.8,6.4
										c1.1,2.6,1.8,47.9,1.8,47.9v6.2c0,0,3.8-1.1,5.6-1c1.8,0.2,6.6,1,8.4,1.3s1.1-5.5,1.1-5.5l1.5-4.7c0,0,1.3-30.8,2.3-33.4
										s9.1-7.2,9.1-7.2s0-1.3,8.8,0c8.8,1.3,17.3-2.9,19.2-0.7c2,2.3,2.3,13.7,2.3,19.9c0,6.2,0.7,10.4,0,14s1.3,13,1.6,14.3
										s0.2,2.8,0.2,2.8s1.7-1.2,5-1.2s8.8-0.3,8.8-0.3s-2.3-7.5,0-12.4s3.3-23.2,3.3-28.4s2.3-15.3,0-19.2s-24.1-15.2-24.1-15.2
										h-34.2V230.5z"/>
								</defs>
								<clipPath id="SVGID_23_">
									<use xlink:href="#SVGID_22_"  style="overflow:visible;"/>
								</clipPath>
								<path class="st45" d="M133.4,256.8c0,0-11.1,6.8-14.5,6.8s3.9,0.7,4.6,7.4C123.8,274.8,133.4,256.8,133.4,256.8z"/>
							</g>
							<g>
								<defs>
									<path id="SVGID_24_" d="M124.2,230.5c0,0-9.8,4.6-13.4,9.6c-3.6,5.1-4.9,4.6-6.5,6.7c-1.6,2.1-2,3.7-0.8,6.4
										c1.1,2.6,1.8,47.9,1.8,47.9v6.2c0,0,3.8-1.1,5.6-1c1.8,0.2,6.6,1,8.4,1.3s1.1-5.5,1.1-5.5l1.5-4.7c0,0,1.3-30.8,2.3-33.4
										s9.1-7.2,9.1-7.2s0-1.3,8.8,0c8.8,1.3,17.3-2.9,19.2-0.7c2,2.3,2.3,13.7,2.3,19.9c0,6.2,0.7,10.4,0,14s1.3,13,1.6,14.3
										s0.2,2.8,0.2,2.8s1.7-1.2,5-1.2s8.8-0.3,8.8-0.3s-2.3-7.5,0-12.4s3.3-23.2,3.3-28.4s2.3-15.3,0-19.2s-24.1-15.2-24.1-15.2
										h-34.2V230.5z"/>
								</defs>
								<clipPath id="SVGID_25_">
									<use xlink:href="#SVGID_24_"  style="overflow:visible;"/>
								</clipPath>
								<path class="st46" d="M131.5,298.6c0,0-11.1,2.6-14.5,2.6s3.9,0.3,4.6,2.8C121.9,305.5,131.5,298.6,131.5,298.6z"/>
							</g>
							<g>
								<defs>
									<path id="SVGID_26_" d="M124.2,230.5c0,0-9.8,4.6-13.4,9.6c-3.6,5.1-4.9,4.6-6.5,6.7c-1.6,2.1-2,3.7-0.8,6.4
										c1.1,2.6,1.8,47.9,1.8,47.9v6.2c0,0,3.8-1.1,5.6-1c1.8,0.2,6.6,1,8.4,1.3s1.1-5.5,1.1-5.5l1.5-4.7c0,0,1.3-30.8,2.3-33.4
										s9.1-7.2,9.1-7.2s0-1.3,8.8,0c8.8,1.3,17.3-2.9,19.2-0.7c2,2.3,2.3,13.7,2.3,19.9c0,6.2,0.7,10.4,0,14s1.3,13,1.6,14.3
										s0.2,2.8,0.2,2.8s1.7-1.2,5-1.2s8.8-0.3,8.8-0.3s-2.3-7.5,0-12.4s3.3-23.2,3.3-28.4s2.3-15.3,0-19.2s-24.1-15.2-24.1-15.2
										h-34.2V230.5z"/>
								</defs>
								<clipPath id="SVGID_27_">
									<use xlink:href="#SVGID_26_"  style="overflow:visible;"/>
								</clipPath>
								<path class="st47" d="M160,255.5c0,0,6.5,3.9,9.9,3.9s-6.5,2.3-6.5,6.1C163.3,269.3,160,255.5,160,255.5z"/>
							</g>
							<g>
								<defs>
									<path id="SVGID_28_" d="M124.2,230.5c0,0-9.8,4.6-13.4,9.6c-3.6,5.1-4.9,4.6-6.5,6.7c-1.6,2.1-2,3.7-0.8,6.4
										c1.1,2.6,1.8,47.9,1.8,47.9v6.2c0,0,3.8-1.1,5.6-1c1.8,0.2,6.6,1,8.4,1.3s1.1-5.5,1.1-5.5l1.5-4.7c0,0,1.3-30.8,2.3-33.4
										s9.1-7.2,9.1-7.2s0-1.3,8.8,0c8.8,1.3,17.3-2.9,19.2-0.7c2,2.3,2.3,13.7,2.3,19.9c0,6.2,0.7,10.4,0,14s1.3,13,1.6,14.3
										s0.2,2.8,0.2,2.8s1.7-1.2,5-1.2s8.8-0.3,8.8-0.3s-2.3-7.5,0-12.4s3.3-23.2,3.3-28.4s2.3-15.3,0-19.2s-24.1-15.2-24.1-15.2
										h-34.2V230.5z"/>
								</defs>
								<clipPath id="SVGID_29_">
									<use xlink:href="#SVGID_28_"  style="overflow:visible;"/>
								</clipPath>
								<path class="st48" d="M160,293.3c0,0,6.5,3.9,9.9,3.9s-6.5,2.3-6.5,6.1C163.3,307,160,293.3,160,293.3z"/>
							</g>
						</g>
						<g>
							<g>
								<path id="XMLID_4_" class="st30" d="M133.5,173.1c-9.7,3.9-21.5,6.7-24.4,18c-0.7,2.8-1.1,5.6-1.8,8.4
									c-0.5,1.9-2.5,4.9-1.6,6.9c1.3,2.6,7.9,3.5,10.4,3.6l17.4,28.2l22.5-5.4l13-24.8l4.1-1.2c0,0,2.4,0.2,2.4-1.1
									c0-3.2-1.4-6.8-2.1-9.8c-1-4.5-1.5-10.2-3.5-14.3c-2.3-4.8-8.4-4.9-13-6c-3.5-0.8-6.9-1.7-10.4-2.5L133.5,173.1L133.5,173.1
									z"/>
							</g>
							<g>
								<defs>
									<path id="SVGID_30_" d="M133.5,173.1c-9.7,3.9-21.5,6.7-24.4,18c-0.7,2.8-1.1,5.6-1.8,8.4c-0.5,1.9-2.5,4.9-1.6,6.9
										c1.3,2.6,7.9,3.5,10.4,3.6l17.4,28.2l22.5-5.4l13-24.8l4.1-1.2c0,0,2.4,0.2,2.4-1.1c0-3.2-1.4-6.8-2.1-9.8
										c-1-4.5-1.5-10.2-3.5-14.3c-2.3-4.8-8.4-4.9-13-6c-3.5-0.8-6.9-1.7-10.4-2.5L133.5,173.1L133.5,173.1z"/>
								</defs>
								<clipPath id="SVGID_31_">
									<use xlink:href="#SVGID_30_"  style="overflow:visible;"/>
								</clipPath>
								<path class="st49" d="M122,209.1c0,0,1,0.4,1.4-1c1-3.6,1.9-11.6,1.8-13.7c-0.2-2.8,1.2,11.9,0,16.3c-1.1,4.4-3.8,7-3.8,7
									L122,209.1z"/>
							</g>
							<g>
								<defs>
									<path id="SVGID_32_" d="M133.5,173.1c-9.7,3.9-21.5,6.7-24.4,18c-0.7,2.8-1.1,5.6-1.8,8.4c-0.5,1.9-2.5,4.9-1.6,6.9
										c1.3,2.6,7.9,3.5,10.4,3.6l17.4,28.2l22.5-5.4l13-24.8l4.1-1.2c0,0,2.4,0.2,2.4-1.1c0-3.2-1.4-6.8-2.1-9.8
										c-1-4.5-1.5-10.2-3.5-14.3c-2.3-4.8-8.4-4.9-13-6c-3.5-0.8-6.9-1.7-10.4-2.5L133.5,173.1L133.5,173.1z"/>
								</defs>
								<clipPath id="SVGID_33_">
									<use xlink:href="#SVGID_32_"  style="overflow:visible;"/>
								</clipPath>
								<path class="st50" d="M160.2,209.3c-0.4-0.1-0.8-0.5-0.9-0.9c-0.5-2.7-2-12-1.9-14.3c0.2-2.8-1.2,11.9,0,16.3
									c1.1,4.4,3.8,7,3.8,7l-0.3-7.9L160.2,209.3z"/>
							</g>
							<g>
								<defs>
									<path id="SVGID_34_" d="M133.5,173.1c-9.7,3.9-21.5,6.7-24.4,18c-0.7,2.8-1.1,5.6-1.8,8.4c-0.5,1.9-2.5,4.9-1.6,6.9
										c1.3,2.6,7.9,3.5,10.4,3.6l17.4,28.2l22.5-5.4l13-24.8l4.1-1.2c0,0,2.4,0.2,2.4-1.1c0-3.2-1.4-6.8-2.1-9.8
										c-1-4.5-1.5-10.2-3.5-14.3c-2.3-4.8-8.4-4.9-13-6c-3.5-0.8-6.9-1.7-10.4-2.5L133.5,173.1L133.5,173.1z"/>
								</defs>
								<clipPath id="SVGID_35_">
									<use xlink:href="#SVGID_34_"  style="overflow:visible;"/>
								</clipPath>
								<ellipse class="st51" cx="140.4" cy="178.2" rx="12.1" ry="10.8"/>
							</g>
						</g>
						<g>
							<g>
								<path id="XMLID_47_" class="st25" d="M131.9,173.5c-0.2,0.1,0,6.2,0,6.7c0,1-0.1,1.7,0.3,2.5c1.1,2,3,3.6,5.3,3.8
									c3.8,0.4,7.4-0.7,10.4-2.8c0.3-0.2,2.3-2.6,2.3-2.9v-11.7L131.9,173.5z"/>
							</g>
							<g>
								<defs>
									<path id="SVGID_36_" d="M131.9,173.5c-0.2,0.1,0,6.2,0,6.7c0,1-0.1,1.7,0.3,2.5c1.1,2,3,3.6,5.3,3.8
										c3.8,0.4,7.4-0.7,10.4-2.8c0.3-0.2,2.3-2.6,2.3-2.9v-11.7L131.9,173.5z"/>
								</defs>
								<clipPath id="SVGID_37_">
									<use xlink:href="#SVGID_36_"  style="overflow:visible;"/>
								</clipPath>
								<path class="st52" d="M130.3,179.2c3.7,2.4,6.7,3.4,10.6,3.1c3.9-0.4,11.6-7.8,11.6-7.8l-1.5-5.4l-20.7,2.9L130.3,179.2
									L130.3,179.2z"/>
							</g>
						</g>
						<path class="st53" d="M127.3,149.8c0,0-0.3,14.8,0,19.2s5.2,9.5,8.3,9.9c3.1,0.5,6.7,2.1,8.5,0s6.4-4.9,7.2-8.5
							s-0.3-13.7,0-14.8s-0.8-9.5-2.6-11.1s-7-2.1-9.3-2.1S128.8,143.6,127.3,149.8z"/>
						<path class="st25" d="M130.7,154.6c0,0-1.6,7.2-1.5,9.5c0.2,2.3,0.2,6.7,2.1,6.5c2-0.2,4.1-4.9,7.8-4.9s5.4,3.9,7.8,3.7
							c2.4-0.2,2.9-2.9,3.1-7.5c0.2-4.6-3.6-12.1-5.9-12.1c-2.3,0-1.5,2.3-4.6,2.3s-3.3-2.3-5.4-2.3S130.7,154.6,130.7,154.6z"/>
						<g>
							<g>
								<path id="XMLID_24_" class="st25" d="M160.9,209.5c0,0,2.4-3.6,5.3-3.9c2.9-0.2,8.1,0.3,8.1,0.3l-3.1,19.5
									c0,0,1,2.2,0.2,3.3c-0.7,1.1-4.4,2.4-4.4,2.4l-19.9,11.6h-1.7l-1-2.3l-2.7-0.5l-2.1,2.8h-2.4v-7.1l3.8-2.3l2.8,1.8
									c0,0,13.2-8.2,14.9-10.4c1.7-2.3,1.7-2.3,1.7-2.3L160.9,209.5z"/>
							</g>
							<g>
								<defs>
									<path id="SVGID_38_" d="M160.9,209.5c0,0,2.4-3.6,5.3-3.9c2.9-0.2,8.1,0.3,8.1,0.3l-3.1,19.5c0,0,1,2.2,0.2,3.3
										c-0.7,1.1-4.4,2.4-4.4,2.4l-19.9,11.6h-1.7l-1-2.3l-2.7-0.5l-2.1,2.8h-2.4v-7.1l3.8-2.3l2.8,1.8c0,0,13.2-8.2,14.9-10.4
										c1.7-2.3,1.7-2.3,1.7-2.3L160.9,209.5z"/>
								</defs>
								<clipPath id="SVGID_39_">
									<use xlink:href="#SVGID_38_"  style="overflow:visible;"/>
								</clipPath>
								<path class="st54" d="M157.8,214.2c0,0,4.2-4.7,8.5-5.1c4.2-0.3,10.9-0.2,10.9-0.2l0.7-5.1l-13.5-1.6l-8.6,8L157.8,214.2z"
									/>
							</g>
						</g>
						<g>
							<g>
								<path id="XMLID_16_" class="st23" d="M122,209.1l0.5,13.1l14.7,13.4v7.1h2.4l2.1-2.8l2.7,0.5l1,2.3c0,0,3.1,0.7,3.3,1.6
									c0.2,0.9-1.7,7.1-2.7,7.3s-7.8-0.6-7.8-0.6l-6-4c0,0,0.2-7.3,0-8.4c-0.2-1.1-17-7.9-18.6-9.9c-0.7-0.8-1-2.4-1.8-5.4
									c-1.8-6.3-3.2-12.9-3.6-16.4c1.3-0.3,3.5,0,5.2-0.1C117.3,206.6,120,208.4,122,209.1z"/>
							</g>
							<g>
								<defs>
									<path id="SVGID_40_" d="M122,209.1l0.5,13.1l14.7,13.4v7.1h2.4l2.1-2.8l2.7,0.5l1,2.3c0,0,3.1,0.7,3.3,1.6
										c0.2,0.9-1.7,7.1-2.7,7.3s-7.8-0.6-7.8-0.6l-6-4c0,0,0.2-7.3,0-8.4c-0.2-1.1-17-7.9-18.6-9.9c-0.7-0.8-1-2.4-1.8-5.4
										c-1.8-6.3-3.2-12.9-3.6-16.4c1.3-0.3,3.5,0,5.2-0.1C117.3,206.6,120,208.4,122,209.1z"/>
								</defs>
								<clipPath id="SVGID_41_">
									<use xlink:href="#SVGID_40_"  style="overflow:visible;"/>
								</clipPath>
								<path class="st55" d="M107.8,206.2v3.6c0,0,6.3-0.8,7.7-0.7c1.4,0.2,7.5,2.3,7.5,2.3l1.5-3.3
									C124.4,208.1,109.5,205.6,107.8,206.2z"/>
							</g>
						</g>
					</g>
				</g>
				<g>
					<path class="st56" d="M315.9,227.3H49.8c-2,0-3.6,1.6-3.6,3.6v2.4c0,2,1.6,3.6,3.6,3.6H316c2,0,3.6-1.6,3.6-3.6v-2.4
						C319.5,228.9,317.9,227.3,315.9,227.3z"/>
					<path class="st57" d="M315.9,234.7H49.8c-2,0-3.6-1.6-3.6-3.6v2.1c0,2,1.6,3.6,3.6,3.6H316c2,0,3.6-1.6,3.6-3.6v-2.1
						C319.5,233.1,317.9,234.7,315.9,234.7z"/>
					<path class="st44" d="M273.3,236.8l1.1,1.9c1.1,2,3.3,3.2,5.6,3.2h12.6l-0.5-5.1L273.3,236.8L273.3,236.8z"/>
					<polygon class="st29" points="292.6,241.9 301,325.2 304.7,325.2 304.7,236.8 292.1,236.8 					"/>
					<path class="st44" d="M73.1,241.9h12.6c2.3,0,4.4-1.2,5.6-3.2l1.1-1.9H73.6L73.1,241.9z"/>
					<polygon class="st29" points="61,236.8 61,325.2 64.7,325.2 73.6,236.8 					"/>
				</g>
				<g>
					<polygon class="st44" points="118.8,224.6 89.4,224.6 100.3,189.2 129.6,189.2 					"/>
					<polygon class="st29" points="121.2,224.6 91.8,224.6 102.7,189.2 132.1,189.2 					"/>
					<rect x="61" y="223.5" class="st44" width="53.9" height="3.7"/>
					<rect x="88" y="223.5" class="st29" width="31" height="3.7"/>
					<path class="st13" d="M115.3,207.6c0.4-2-0.1-3.8-1.3-4.2c-1.1-0.4-2.4,0.9-2.8,2.9s0.1,3.8,1.3,4.2
						C113.6,210.8,114.8,209.5,115.3,207.6z"/>
				</g>
				<g>
					<rect x="155.6" y="189.2" class="st44" width="44.8" height="35.4"/>
					<rect x="157" y="189.2" class="st29" width="47" height="35.4"/>
					<rect x="157.2" y="224.6" class="st29" width="45.4" height="2.7"/>
					<path class="st13" d="M183.4,206.9c0-2-1.6-3.5-3.5-3.5c-2,0-3.5,1.6-3.5,3.5c0,2,1.6,3.5,3.5,3.5
						C181.9,210.4,183.4,208.8,183.4,206.9z"/>
				</g>
				<g>
					<polygon class="st44" points="256.4,224.6 285.8,224.6 274.9,189.2 245.5,189.2 					"/>
					<polygon class="st29" points="254,224.6 283.3,224.6 272.4,189.2 243.1,189.2 					"/>
					<rect x="260.3" y="223.6" class="st44" width="53.9" height="3.7"/>
					<rect x="256.2" y="223.6" class="st29" width="31" height="3.7"/>
					<path class="st13" d="M259.9,207.6c-0.4-2,0.1-3.8,1.3-4.2c1.1-0.4,2.4,0.9,2.8,2.9s-0.1,3.8-1.3,4.2S260.3,209.5,259.9,207.6z
						"/>
				</g>
			</g>
			<line class="st58" x1="2.1" y1="326.2" x2="381.6" y2="326.2"/>
		</g>
	</g>
</g>
</svg>
