<?xml version="1.0" encoding="utf-8"?>
<!-- Generator: Adobe Illustrator 24.0.0, SVG Export Plug-In . SVG Version: 6.00 Build 0)  -->
<svg version="1.1" id="Capa_1" xmlns="http://www.w3.org/2000/svg" xmlns:xlink="http://www.w3.org/1999/xlink" x="0px" y="0px"
	 viewBox="0 0 500 459.4" style="enable-background:new 0 0 500 459.4;" xml:space="preserve">
<style type="text/css">
	.st0{fill:url(#SVGID_1_);}
	.st1{opacity:0.28;fill:#210656;enable-background:new    ;}
	.st2{fill:#D0DDFF;}
	.st3{fill:#D8F4FF;}
	.st4{fill:#E6FFFF;}
	.st5{fill:#BEC0E9;}
	.st6{fill:#000039;}
	.st7{fill:#003284;}
	.st8{fill:#93A5C9;}
	.st9{fill:#A3BAD7;}
	.st10{fill:#FFFFFF;}
	.st11{fill:#BBC5E1;}
	.st12{fill:#E1F1FF;}
	.st13{fill:#E5F0FF;}
	.st14{fill:#E0F3FF;}
	.st15{fill:#B6BAD7;}
	.st16{fill:#00A3FF;}
	.st17{fill:#35EFFF;}
	.st18{fill:#00D4FF;}
	.st19{fill:#0075EC;}
	.st20{fill:#FFE200;}
	.st21{fill:#FFFF4E;}
	.st22{fill:#FF2149;}
	.st23{fill:#FF528A;}
	.st24{fill:#0FE490;}
	.st25{fill:#45FFC6;}
	.st26{fill:none;}
	.st27{fill:#1FFFC6;}
	.st28{fill:#0042FF;}
	.st29{fill:#FF3EDD;}
	.st30{fill:#FF497E;}
	.st31{fill:#FFC400;}
	.st32{opacity:0.34;}
	.st33{fill:#FF1754;}
	.st34{fill:#FF3FAA;}
	.st35{fill:#B5112B;}
	.st36{fill:#FF478B;}
	.st37{fill:#DF093C;}
	.st38{fill:#DFE4FF;}
	.st39{fill:#C5C4E0;}
	.st40{fill:#FFD300;}
	.st41{fill:#02FD00;}
	.st42{fill:#D6DEEB;}
	.st43{fill:#BCCACB;}
	.st44{fill:#E9F1EB;}
	.st45{fill:#E6F8FF;}
	.st46{fill:#D1DDED;}
	.st47{fill:#682118;}
	.st48{fill:#9A2F18;}
	.st49{fill:#7F2E18;}
	.st50{fill:#B45A18;}
	.st51{fill:#9B4318;}
	.st52{fill:#C35E18;}
	.st53{fill:#B45018;}
	.st54{fill:#DC6218;}
	.st55{fill:url(#SVGID_2_);}
	.st56{fill:url(#SVGID_3_);}
	.st57{fill:url(#SVGID_4_);}
	.st58{fill:#FF3967;}
	.st59{fill:#D1F0FF;}
	.st60{fill:#BDC6F4;}
	.st61{fill:#9A9CDF;}
	.st62{fill:#FFEEB1;}
	.st63{fill:#FFFF00;}
	.st64{fill:#FFD100;}
	.st65{fill:#FFA600;}
	.st66{fill:#FFDB00;}
	.st67{fill:#FFFF6C;}
	.st68{fill:#FFB800;}
	.st69{opacity:0.2;fill:#FFFFFF;enable-background:new    ;}
	.st70{opacity:0.53;fill:#FFFFFF;enable-background:new    ;}
	.st71{opacity:0.3;fill:#00A3FF;enable-background:new    ;}
	.st72{opacity:0.4;fill:#00E3FF;enable-background:new    ;}
	.st73{opacity:0.81;fill:url(#SVGID_5_);enable-background:new    ;}
	.st74{opacity:0.3;fill:#002AB4;enable-background:new    ;}
	.st75{fill:#FF2232;}
	.st76{fill:#FF787D;}
	.st77{fill:#B51413;}
	.st78{fill:#FFC500;}
	.st79{fill:#FFED00;}
	.st80{fill:#FF9700;}
	.st81{fill:#FFB100;}
	.st82{fill:#3DD376;}
	.st83{fill:#84FA9C;}
	.st84{fill:#1A9F58;}
	.st85{fill:none;stroke:#12D77E;stroke-width:2;stroke-linecap:round;stroke-linejoin:round;stroke-miterlimit:10;}
	.st86{fill:#12D77E;}
	.st87{fill:none;stroke:#12FFFF;stroke-width:2;stroke-linecap:round;stroke-linejoin:round;stroke-miterlimit:10;}
	.st88{fill:none;stroke:#FF3181;stroke-width:2;stroke-linecap:round;stroke-linejoin:round;stroke-miterlimit:10;}
	.st89{fill:none;stroke:#FFD000;stroke-width:2;stroke-linecap:round;stroke-linejoin:round;stroke-miterlimit:10;}
	.st90{opacity:0.28;fill:#FFFFFF;enable-background:new    ;}
	.st91{opacity:0.81;fill:url(#SVGID_6_);enable-background:new    ;}
	.st92{fill:#12FFFF;}
	.st93{fill:#FF3181;}
	.st94{fill:#FFD000;}
	.st95{opacity:0.81;fill:url(#SVGID_7_);enable-background:new    ;}
</style>
<g id="OBJECTS">
	
		<linearGradient id="SVGID_1_" gradientUnits="userSpaceOnUse" x1="250" y1="-38.6085" x2="250" y2="321.2516" gradientTransform="matrix(1 0 0 -1 0 420.783)">
		<stop  offset="0" style="stop-color:#FFFFFF;stop-opacity:0"/>
		<stop  offset="0.9979" style="stop-color:#17083E"/>
	</linearGradient>
	<polyline class="st0" points="133.7,229.4 0,459.4 500,459.4 369.3,224.9 277.7,224.9 202.1,237.9 133.7,229.4 	"/>
	<g>
		<g>
			<g>
				<path class="st1" d="M353.7,367.9H150c-7.5,0-13.6-6.1-13.6-13.6V236.8c0-7.5,6.1-13.6,13.6-13.6h203.7
					c7.5,0,13.6,6.1,13.6,13.6v117.5C367.4,361.8,361.3,367.9,353.7,367.9z"/>
				<path class="st2" d="M356.4,363.9H147.3c-7.5,0-13.6-6.1-13.6-13.6V229.4c0-7.5,6.1-13.6,13.6-13.6h209.1
					c7.5,0,13.6,6.1,13.6,13.6v120.9C370,357.8,363.9,363.9,356.4,363.9z"/>
				<path class="st3" d="M356.4,362.1H147.3c-7.5,0-13.6-6.1-13.6-13.6v1.8c0,7.5,6.1,13.6,13.6,13.6h209.1
					c7.5,0,13.6-6.1,13.6-13.6v-1.9C370,356,363.9,362.1,356.4,362.1z"/>
				<g>
					<path class="st4" d="M346.1,318.9H157.6c-2.7,0-4.8-2.2-4.8-4.8v-77.6c0-2.7,2.2-4.8,4.8-4.8h188.5c2.7,0,4.8,2.2,4.8,4.8v77.6
						C351,316.8,348.8,318.9,346.1,318.9z"/>
					<path class="st5" d="M346.1,317.6H157.6c-2.7,0-4.8-2.2-4.8-4.8v-76.3c0-2.7,2.2-4.8,4.8-4.8h188.5c2.7,0,4.8,2.2,4.8,4.8v76.3
						C351,315.4,348.8,317.6,346.1,317.6z"/>
				</g>
			</g>
			<path class="st6" d="M239.7,298.7h9.6c0.5,0,1-0.5,1-1v-8.8c0-0.5-0.5-1-1-1h-9.6c-0.6,0-1,0.5-1,1v8.8
				C238.7,298.2,239.2,298.7,239.7,298.7z M224,298.7h9.6c0.5,0,1-0.5,1-1v-8.8c0-0.5-0.5-1-1-1H224c-0.6,0-1,0.5-1,1v8.8
				C223,298.2,223.4,298.7,224,298.7z M161.1,257.1h9.6c0.5,0,1-0.5,1-1v-8.8c0-0.5-0.5-1-1-1h-9.6c-0.6,0-1,0.5-1,1v8.8
				C160.1,256.7,160.6,257.1,161.1,257.1z M224,270.2h9.6c0.5,0,1-0.5,1-1v-8.8c0-0.5-0.5-1-1-1H224c-0.6,0-1,0.5-1,1v8.8
				C223,269.7,223.4,270.2,224,270.2z M224,284.4h9.6c0.5,0,1-0.5,1-1v-8.8c0-0.5-0.5-1-1-1H224c-0.6,0-1,0.5-1,1v8.8
				C223,284,223.4,284.4,224,284.4z M224,244.4h9.6c0.5,0,1-0.5,1-1v-4.6c0-0.5-0.5-1-1-1H224c-0.6,0-1,0.5-1,1v4.6
				C223,243.9,223.4,244.4,224,244.4z M224,257.1h9.6c0.5,0,1-0.5,1-1v-8.8c0-0.5-0.5-1-1-1H224c-0.6,0-1,0.5-1,1v8.8
				C223,256.7,223.4,257.1,224,257.1z M161.1,244.4h9.6c0.5,0,1-0.5,1-1v-4.6c0-0.5-0.5-1-1-1h-9.6c-0.6,0-1,0.5-1,1v4.6
				C160.1,243.9,160.6,244.4,161.1,244.4z M186.4,259.4h-25.3c-0.6,0-1,0.5-1,1v8.8c0,0.5,0.4,1,1,1h25.3c0.5,0,1-0.5,1-1v-8.8
				C187.4,259.8,187,259.4,186.4,259.4z M186.4,273.6h-9.6c-0.6,0-1,0.5-1,1v8.8c0,0.5,0.4,1,1,1h9.6c0.5,0,1-0.5,1-1v-8.8
				C187.4,274.1,187,273.6,186.4,273.6z M170.7,287.9h-9.6c-0.6,0-1,0.5-1,1v8.8c0,0.5,0.4,1,1,1h9.6c0.5,0,1-0.5,1-1v-8.8
				C171.7,288.3,171.2,287.9,170.7,287.9z M186.4,246.3h-9.6c-0.6,0-1,0.5-1,1v8.8c0,0.5,0.4,1,1,1h9.6c0.5,0,1-0.5,1-1v-8.8
				C187.4,246.7,187,246.3,186.4,246.3z M186.4,287.9h-9.6c-0.6,0-1,0.5-1,1v8.8c0,0.5,0.4,1,1,1h9.6c0.5,0,1-0.5,1-1v-8.8
				C187.4,288.3,187,287.9,186.4,287.9z M170.7,273.6h-9.6c-0.6,0-1,0.5-1,1v8.8c0,0.5,0.4,1,1,1h9.6c0.5,0,1-0.5,1-1v-8.8
				C171.7,274.1,171.2,273.6,170.7,273.6z M186.4,302.1h-9.6c-0.6,0-1,0.5-1,1v8.8c0,0.5,0.4,1,1,1h9.6c0.5,0,1-0.5,1-1v-8.8
				C187.4,302.5,187,302.1,186.4,302.1z M271.2,284.4h9.6c0.5,0,1-0.5,1-1v-8.8c0-0.5-0.5-1-1-1h-9.6c-0.6,0-1,0.5-1,1v8.8
				C270.2,284,270.6,284.4,271.2,284.4z M239.7,284.4h9.6c0.5,0,1-0.5,1-1v-8.8c0-0.5-0.5-1-1-1h-9.6c-0.6,0-1,0.5-1,1v8.8
				C238.7,284,239.2,284.4,239.7,284.4z M271.2,270.2h9.6c0.5,0,1-0.5,1-1v-8.8c0-0.5-0.5-1-1-1h-9.6c-0.6,0-1,0.5-1,1v8.8
				C270.2,269.7,270.6,270.2,271.2,270.2z M255.4,244.4h9.6c0.5,0,1-0.5,1-1v-4.6c0-0.5-0.5-1-1-1h-9.6c-0.6,0-1,0.5-1,1v4.6
				C254.4,243.9,254.9,244.4,255.4,244.4z M271.2,298.7h9.6c0.5,0,1-0.5,1-1v-8.8c0-0.5-0.5-1-1-1h-9.6c-0.6,0-1,0.5-1,1v8.8
				C270.2,298.2,270.6,298.7,271.2,298.7z M318.3,244.4h9.6c0.5,0,1-0.5,1-1v-4.6c0-0.5-0.5-1-1-1h-9.6c-0.6,0-1,0.5-1,1v4.6
				C317.3,243.9,317.8,244.4,318.3,244.4z M271.2,244.4h9.6c0.5,0,1-0.5,1-1v-4.6c0-0.5-0.5-1-1-1h-9.6c-0.6,0-1,0.5-1,1v4.6
				C270.2,243.9,270.6,244.4,271.2,244.4z M271.2,257.1h9.6c0.5,0,1-0.5,1-1v-8.8c0-0.5-0.5-1-1-1h-9.6c-0.6,0-1,0.5-1,1v8.8
				C270.2,256.7,270.6,257.1,271.2,257.1z M186.4,237.7h-9.6c-0.6,0-1,0.5-1,1v4.6c0,0.5,0.4,1,1,1h9.6c0.5,0,1-0.5,1-1v-4.6
				C187.4,238.2,187,237.7,186.4,237.7z M239.7,257.1h9.6c0.5,0,1-0.5,1-1v-8.8c0-0.5-0.5-1-1-1h-9.6c-0.6,0-1,0.5-1,1v8.8
				C238.7,256.7,239.2,257.1,239.7,257.1z M255.4,257.1h9.6c0.5,0,1-0.5,1-1v-8.8c0-0.5-0.5-1-1-1h-9.6c-0.6,0-1,0.5-1,1v8.8
				C254.4,256.7,254.9,257.1,255.4,257.1z M239.7,270.2h9.6c0.5,0,1-0.5,1-1v-8.8c0-0.5-0.5-1-1-1h-9.6c-0.6,0-1,0.5-1,1v8.8
				C238.7,269.7,239.2,270.2,239.7,270.2z M239.7,244.4h9.6c0.5,0,1-0.5,1-1v-4.6c0-0.5-0.5-1-1-1h-9.6c-0.6,0-1,0.5-1,1v4.6
				C238.7,243.9,239.2,244.4,239.7,244.4z M255.4,298.7h9.6c0.5,0,1-0.5,1-1v-8.8c0-0.5-0.5-1-1-1h-9.6c-0.6,0-1,0.5-1,1v8.8
				C254.4,298.2,254.9,298.7,255.4,298.7z M255.4,270.2h9.6c0.5,0,1-0.5,1-1v-8.8c0-0.5-0.5-1-1-1h-9.6c-0.6,0-1,0.5-1,1v8.8
				C254.4,269.7,254.9,270.2,255.4,270.2z M255.4,284.4h9.6c0.5,0,1-0.5,1-1v-8.8c0-0.5-0.5-1-1-1h-9.6c-0.6,0-1,0.5-1,1v8.8
				C254.4,284,254.9,284.4,255.4,284.4z M170.7,302.1h-9.6c-0.6,0-1,0.5-1,1v8.8c0,0.5,0.4,1,1,1h9.6c0.5,0,1-0.5,1-1v-8.8
				C171.7,302.5,171.2,302.1,170.7,302.1z M312.2,273.6h-9.6c-0.6,0-1,0.5-1,1v8.8c0,0.5,0.4,1,1,1h9.6c0.5,0,1-0.5,1-1v-8.8
				C313.2,274.1,312.8,273.6,312.2,273.6z M312.2,259.4h-9.6c-0.6,0-1,0.5-1,1v8.8c0,0.5,0.4,1,1,1h9.6c0.5,0,1-0.5,1-1v-8.8
				C313.2,259.8,312.8,259.4,312.2,259.4z M327.9,302.1h-9.6c-0.6,0-1,0.5-1,1v8.8c0,0.5,0.4,1,1,1h9.6c0.5,0,1-0.5,1-1v-8.8
				C328.9,302.5,328.5,302.1,327.9,302.1z M312.2,237.7h-9.6c-0.6,0-1,0.5-1,1v4.6c0,0.5,0.4,1,1,1h9.6c0.5,0,1-0.5,1-1v-4.6
				C313.2,238.2,312.8,237.7,312.2,237.7z M312.2,246.3h-9.6c-0.6,0-1,0.5-1,1v8.8c0,0.5,0.4,1,1,1h9.6c0.5,0,1-0.5,1-1v-8.8
				C313.2,246.7,312.8,246.3,312.2,246.3z M296.5,246.3h-9.6c-0.6,0-1,0.5-1,1v8.8c0,0.5,0.4,1,1,1h9.6c0.5,0,1-0.5,1-1v-8.8
				C297.5,246.7,297,246.3,296.5,246.3z M296.5,237.7h-9.6c-0.6,0-1,0.5-1,1v4.6c0,0.5,0.4,1,1,1h9.6c0.5,0,1-0.5,1-1v-4.6
				C297.5,238.2,297,237.7,296.5,237.7z M312.2,302.1h-9.6c-0.6,0-1,0.5-1,1v8.8c0,0.5,0.4,1,1,1h9.6c0.5,0,1-0.5,1-1v-8.8
				C313.2,302.5,312.8,302.1,312.2,302.1z M312.2,287.9h-9.6c-0.6,0-1,0.5-1,1v8.8c0,0.5,0.4,1,1,1h9.6c0.5,0,1-0.5,1-1v-8.8
				C313.2,288.3,312.8,287.9,312.2,287.9z M343.6,246.3h-25.3c-0.6,0-1,0.5-1,1v8.8c0,0.5,0.4,1,1,1h25.3c0.5,0,1-0.5,1-1v-8.8
				C344.6,246.7,344.2,246.3,343.6,246.3z M343.6,237.7H334c-0.6,0-1,0.5-1,1v4.6c0,0.5,0.4,1,1,1h9.6c0.5,0,1-0.5,1-1v-4.6
				C344.6,238.2,344.2,237.7,343.6,237.7z M343.6,259.4h-25.3c-0.6,0-1,0.5-1,1v8.8c0,0.5,0.4,1,1,1H332c0.5,0,1,0.5,1,1v12.2
				c0,0.5,0.4,1,1,1h9.6c0.5,0,1-0.5,1-1v-23C344.6,259.8,344.2,259.4,343.6,259.4z M202.1,302.1h-9.6c-0.6,0-1,0.5-1,1v8.8
				c0,0.5,0.4,1,1,1h9.6c0.5,0,1-0.5,1-1v-8.8C203.1,302.5,202.7,302.1,202.1,302.1z M327.9,287.9h-9.6c-0.6,0-1,0.5-1,1v8.8
				c0,0.5,0.4,1,1,1h9.6c0.5,0,1-0.5,1-1v-8.8C328.9,288.3,328.5,287.9,327.9,287.9z M327.9,273.6h-9.6c-0.6,0-1,0.5-1,1v8.8
				c0,0.5,0.4,1,1,1h9.6c0.5,0,1-0.5,1-1v-8.8C328.9,274.1,328.5,273.6,327.9,273.6z M343.6,302.1H334c-0.6,0-1,0.5-1,1v8.8
				c0,0.5,0.4,1,1,1h9.6c0.5,0,1-0.5,1-1v-8.8C344.6,302.5,344.2,302.1,343.6,302.1z M343.6,287.9H334c-0.6,0-1,0.5-1,1v8.8
				c0,0.5,0.4,1,1,1h9.6c0.5,0,1-0.5,1-1v-8.8C344.6,288.3,344.2,287.9,343.6,287.9z M217.9,287.9h-9.6c-0.6,0-1,0.5-1,1v8.8
				c0,0.5,0.4,1,1,1h9.6c0.5,0,1-0.5,1-1v-8.8C218.9,288.3,218.4,287.9,217.9,287.9z M202.1,246.3h-9.6c-0.6,0-1,0.5-1,1v8.8
				c0,0.5,0.4,1,1,1h9.6c0.5,0,1-0.5,1-1v-8.8C203.1,246.7,202.7,246.3,202.1,246.3z M217.9,302.1h-9.6c-0.6,0-1,0.5-1,1v8.8
				c0,0.5,0.4,1,1,1h9.6c0.5,0,1-0.5,1-1v-8.8C218.9,302.5,218.4,302.1,217.9,302.1z M202.1,237.7h-9.6c-0.6,0-1,0.5-1,1v4.6
				c0,0.5,0.4,1,1,1h9.6c0.5,0,1-0.5,1-1v-4.6C203.1,238.2,202.7,237.7,202.1,237.7z M296.5,259.4h-9.6c-0.6,0-1,0.5-1,1v8.8
				c0,0.5,0.4,1,1,1h9.6c0.5,0,1-0.5,1-1v-8.8C297.5,259.8,297,259.4,296.5,259.4z M202.1,287.9h-9.6c-0.6,0-1,0.5-1,1v8.8
				c0,0.5,0.4,1,1,1h9.6c0.5,0,1-0.5,1-1v-8.8C203.1,288.3,202.7,287.9,202.1,287.9z M202.1,273.6h-9.6c-0.6,0-1,0.5-1,1v8.8
				c0,0.5,0.4,1,1,1h9.6c0.5,0,1-0.5,1-1v-8.8C203.1,274.1,202.7,273.6,202.1,273.6z M202.1,259.4h-9.6c-0.6,0-1,0.5-1,1v8.8
				c0,0.5,0.4,1,1,1h9.6c0.5,0,1-0.5,1-1v-8.8C203.1,259.8,202.7,259.4,202.1,259.4z M217.9,273.6h-9.6c-0.6,0-1,0.5-1,1v8.8
				c0,0.5,0.4,1,1,1h9.6c0.5,0,1-0.5,1-1v-8.8C218.9,274.1,218.4,273.6,217.9,273.6z M296.5,273.6h-9.6c-0.6,0-1,0.5-1,1v8.8
				c0,0.5,0.4,1,1,1h9.6c0.5,0,1-0.5,1-1v-8.8C297.5,274.1,297,273.6,296.5,273.6z M296.5,302.1H224c-0.6,0-1,0.5-1,1v8.8
				c0,0.5,0.4,1,1,1h72.5c0.5,0,1-0.5,1-1v-8.8C297.5,302.5,297,302.1,296.5,302.1z M296.5,287.9h-9.6c-0.6,0-1,0.5-1,1v8.8
				c0,0.5,0.4,1,1,1h9.6c0.5,0,1-0.5,1-1v-8.8C297.5,288.3,297,287.9,296.5,287.9z M217.9,259.4h-9.6c-0.6,0-1,0.5-1,1v8.8
				c0,0.5,0.4,1,1,1h9.6c0.5,0,1-0.5,1-1v-8.8C218.9,259.8,218.4,259.4,217.9,259.4z M217.9,246.3h-9.6c-0.6,0-1,0.5-1,1v8.8
				c0,0.5,0.4,1,1,1h9.6c0.5,0,1-0.5,1-1v-8.8C218.9,246.7,218.4,246.3,217.9,246.3z M217.9,237.7h-9.6c-0.6,0-1,0.5-1,1v4.6
				c0,0.5,0.4,1,1,1h9.6c0.5,0,1-0.5,1-1v-4.6C218.9,238.2,218.4,237.7,217.9,237.7z"/>
			<g>
				<path class="st7" d="M161.1,237.9h9.6c0.5,0,1,0.5,1,1v-0.2c0-0.5-0.5-1-1-1h-9.6c-0.6,0-1,0.5-1,1v0.2
					C160.1,238.4,160.6,237.9,161.1,237.9z"/>
				<path class="st7" d="M161.1,246.5h9.6c0.5,0,1,0.5,1,1v-0.2c0-0.5-0.5-1-1-1h-9.6c-0.6,0-1,0.5-1,1v0.2
					C160.1,246.9,160.6,246.5,161.1,246.5z"/>
				<path class="st7" d="M224,288h9.6c0.5,0,1,0.5,1,1v-0.2c0-0.5-0.5-1-1-1H224c-0.6,0-1,0.5-1,1v0.2C223,288.5,223.4,288,224,288z
					"/>
				<path class="st7" d="M224,259.6h9.6c0.5,0,1,0.5,1,1v-0.2c0-0.5-0.5-1-1-1H224c-0.6,0-1,0.5-1,1v0.2
					C223,260,223.4,259.6,224,259.6z"/>
				<path class="st7" d="M224,246.5h9.6c0.5,0,1,0.5,1,1v-0.2c0-0.5-0.5-1-1-1H224c-0.6,0-1,0.5-1,1v0.2
					C223,246.9,223.4,246.5,224,246.5z"/>
				<path class="st7" d="M224,273.8h9.6c0.5,0,1,0.5,1,1v-0.2c0-0.5-0.5-1-1-1H224c-0.6,0-1,0.5-1,1v0.2
					C223,274.3,223.4,273.8,224,273.8z"/>
				<path class="st7" d="M170.7,302.1h-9.6c-0.6,0-1,0.5-1,1v0.2c0-0.5,0.4-1,1-1h9.6c0.5,0,1,0.5,1,1v-0.2
					C171.7,302.5,171.2,302.1,170.7,302.1z"/>
				<path class="st7" d="M186.4,273.6h-9.6c-0.6,0-1,0.5-1,1v0.2c0-0.5,0.4-1,1-1h9.6c0.5,0,1,0.5,1,1v-0.2
					C187.4,274.1,187,273.6,186.4,273.6z"/>
				<path class="st7" d="M170.7,287.9h-9.6c-0.6,0-1,0.5-1,1v0.2c0-0.5,0.4-1,1-1h9.6c0.5,0,1,0.5,1,1v-0.2
					C171.7,288.3,171.2,287.9,170.7,287.9z"/>
				<path class="st7" d="M224,237.9h9.6c0.5,0,1,0.5,1,1v-0.2c0-0.5-0.5-1-1-1H224c-0.6,0-1,0.5-1,1v0.2
					C223,238.4,223.4,237.9,224,237.9z"/>
				<path class="st7" d="M186.4,246.3h-9.6c-0.6,0-1,0.5-1,1v0.2c0-0.5,0.4-1,1-1h9.6c0.5,0,1,0.5,1,1v-0.2
					C187.4,246.7,187,246.3,186.4,246.3z"/>
				<path class="st7" d="M186.4,259.4h-25.3c-0.6,0-1,0.5-1,1v0.2c0-0.5,0.4-1,1-1h25.3c0.5,0,1,0.5,1,1v-0.2
					C187.4,259.8,187,259.4,186.4,259.4z"/>
				<path class="st7" d="M170.7,273.6h-9.6c-0.6,0-1,0.5-1,1v0.2c0-0.5,0.4-1,1-1h9.6c0.5,0,1,0.5,1,1v-0.2
					C171.7,274.1,171.2,273.6,170.7,273.6z"/>
				<path class="st7" d="M186.4,302.1h-9.6c-0.6,0-1,0.5-1,1v0.2c0-0.5,0.4-1,1-1h9.6c0.5,0,1,0.5,1,1v-0.2
					C187.4,302.5,187,302.1,186.4,302.1z"/>
				<path class="st7" d="M186.4,287.9h-9.6c-0.6,0-1,0.5-1,1v0.2c0-0.5,0.4-1,1-1h9.6c0.5,0,1,0.5,1,1v-0.2
					C187.4,288.3,187,287.9,186.4,287.9z"/>
				<path class="st7" d="M271.2,288h9.6c0.5,0,1,0.5,1,1v-0.2c0-0.5-0.5-1-1-1h-9.6c-0.6,0-1,0.5-1,1v0.2
					C270.2,288.5,270.6,288,271.2,288z"/>
				<path class="st7" d="M271.2,259.6h9.6c0.5,0,1,0.5,1,1v-0.2c0-0.5-0.5-1-1-1h-9.6c-0.6,0-1,0.5-1,1v0.2
					C270.2,260,270.6,259.6,271.2,259.6z"/>
				<path class="st7" d="M271.2,273.8h9.6c0.5,0,1,0.5,1,1v-0.2c0-0.5-0.5-1-1-1h-9.6c-0.6,0-1,0.5-1,1v0.2
					C270.2,274.3,270.6,273.8,271.2,273.8z"/>
				<path class="st7" d="M186.4,237.7h-9.6c-0.6,0-1,0.5-1,1v0.2c0-0.5,0.4-1,1-1h9.6c0.5,0,1,0.5,1,1v-0.2
					C187.4,238.2,187,237.7,186.4,237.7z"/>
				<path class="st7" d="M255.4,237.9h9.6c0.5,0,1,0.5,1,1v-0.2c0-0.5-0.5-1-1-1h-9.6c-0.6,0-1,0.5-1,1v0.2
					C254.4,238.4,254.9,237.9,255.4,237.9z"/>
				<path class="st7" d="M255.4,246.5h9.6c0.5,0,1,0.5,1,1v-0.2c0-0.5-0.5-1-1-1h-9.6c-0.6,0-1,0.5-1,1v0.2
					C254.4,246.9,254.9,246.5,255.4,246.5z"/>
				<path class="st7" d="M318.3,237.9h9.6c0.5,0,1,0.5,1,1v-0.2c0-0.5-0.5-1-1-1h-9.6c-0.6,0-1,0.5-1,1v0.2
					C317.3,238.4,317.8,237.9,318.3,237.9z"/>
				<path class="st7" d="M271.2,246.5h9.6c0.5,0,1,0.5,1,1v-0.2c0-0.5-0.5-1-1-1h-9.6c-0.6,0-1,0.5-1,1v0.2
					C270.2,246.9,270.6,246.5,271.2,246.5z"/>
				<path class="st7" d="M271.2,237.9h9.6c0.5,0,1,0.5,1,1v-0.2c0-0.5-0.5-1-1-1h-9.6c-0.6,0-1,0.5-1,1v0.2
					C270.2,238.4,270.6,237.9,271.2,237.9z"/>
				<path class="st7" d="M255.4,259.6h9.6c0.5,0,1,0.5,1,1v-0.2c0-0.5-0.5-1-1-1h-9.6c-0.6,0-1,0.5-1,1v0.2
					C254.4,260,254.9,259.6,255.4,259.6z"/>
				<path class="st7" d="M239.7,246.5h9.6c0.5,0,1,0.5,1,1v-0.2c0-0.5-0.5-1-1-1h-9.6c-0.6,0-1,0.5-1,1v0.2
					C238.7,246.9,239.2,246.5,239.7,246.5z"/>
				<path class="st7" d="M239.7,259.6h9.6c0.5,0,1,0.5,1,1v-0.2c0-0.5-0.5-1-1-1h-9.6c-0.6,0-1,0.5-1,1v0.2
					C238.7,260,239.2,259.6,239.7,259.6z"/>
				<path class="st7" d="M239.7,273.8h9.6c0.5,0,1,0.5,1,1v-0.2c0-0.5-0.5-1-1-1h-9.6c-0.6,0-1,0.5-1,1v0.2
					C238.7,274.3,239.2,273.8,239.7,273.8z"/>
				<path class="st7" d="M255.4,273.8h9.6c0.5,0,1,0.5,1,1v-0.2c0-0.5-0.5-1-1-1h-9.6c-0.6,0-1,0.5-1,1v0.2
					C254.4,274.3,254.9,273.8,255.4,273.8z"/>
				<path class="st7" d="M239.7,288h9.6c0.5,0,1,0.5,1,1v-0.2c0-0.5-0.5-1-1-1h-9.6c-0.6,0-1,0.5-1,1v0.2
					C238.7,288.5,239.2,288,239.7,288z"/>
				<path class="st7" d="M239.7,237.9h9.6c0.5,0,1,0.5,1,1v-0.2c0-0.5-0.5-1-1-1h-9.6c-0.6,0-1,0.5-1,1v0.2
					C238.7,238.4,239.2,237.9,239.7,237.9z"/>
				<path class="st7" d="M255.4,288h9.6c0.5,0,1,0.5,1,1v-0.2c0-0.5-0.5-1-1-1h-9.6c-0.6,0-1,0.5-1,1v0.2
					C254.4,288.5,254.9,288,255.4,288z"/>
				<path class="st7" d="M296.5,302.1H224c-0.6,0-1,0.5-1,1v0.2c0-0.5,0.4-1,1-1h72.5c0.5,0,1,0.5,1,1v-0.2
					C297.5,302.5,297,302.1,296.5,302.1z"/>
				<path class="st7" d="M327.9,302.1h-9.6c-0.6,0-1,0.5-1,1v0.2c0-0.5,0.4-1,1-1h9.6c0.5,0,1,0.5,1,1v-0.2
					C328.9,302.5,328.5,302.1,327.9,302.1z"/>
				<path class="st7" d="M312.2,237.7h-9.6c-0.6,0-1,0.5-1,1v0.2c0-0.5,0.4-1,1-1h9.6c0.5,0,1,0.5,1,1v-0.2
					C313.2,238.2,312.8,237.7,312.2,237.7z"/>
				<path class="st7" d="M312.2,259.4h-9.6c-0.6,0-1,0.5-1,1v0.2c0-0.5,0.4-1,1-1h9.6c0.5,0,1,0.5,1,1v-0.2
					C313.2,259.8,312.8,259.4,312.2,259.4z"/>
				<path class="st7" d="M312.2,246.3h-9.6c-0.6,0-1,0.5-1,1v0.2c0-0.5,0.4-1,1-1h9.6c0.5,0,1,0.5,1,1v-0.2
					C313.2,246.7,312.8,246.3,312.2,246.3z"/>
				<path class="st7" d="M312.2,273.6h-9.6c-0.6,0-1,0.5-1,1v0.2c0-0.5,0.4-1,1-1h9.6c0.5,0,1,0.5,1,1v-0.2
					C313.2,274.1,312.8,273.6,312.2,273.6z"/>
				<path class="st7" d="M312.2,302.1h-9.6c-0.6,0-1,0.5-1,1v0.2c0-0.5,0.4-1,1-1h9.6c0.5,0,1,0.5,1,1v-0.2
					C313.2,302.5,312.8,302.1,312.2,302.1z"/>
				<path class="st7" d="M312.2,287.9h-9.6c-0.6,0-1,0.5-1,1v0.2c0-0.5,0.4-1,1-1h9.6c0.5,0,1,0.5,1,1v-0.2
					C313.2,288.3,312.8,287.9,312.2,287.9z"/>
				<path class="st7" d="M343.6,237.7H334c-0.6,0-1,0.5-1,1v0.2c0-0.5,0.4-1,1-1h9.6c0.5,0,1,0.5,1,1v-0.2
					C344.6,238.2,344.2,237.7,343.6,237.7z"/>
				<path class="st7" d="M327.9,287.9h-9.6c-0.6,0-1,0.5-1,1v0.2c0-0.5,0.4-1,1-1h9.6c0.5,0,1,0.5,1,1v-0.2
					C328.9,288.3,328.5,287.9,327.9,287.9z"/>
				<path class="st7" d="M296.5,237.7h-9.6c-0.6,0-1,0.5-1,1v0.2c0-0.5,0.4-1,1-1h9.6c0.5,0,1,0.5,1,1v-0.2
					C297.5,238.2,297,237.7,296.5,237.7z"/>
				<path class="st7" d="M343.6,259.4h-25.3c-0.6,0-1,0.5-1,1v0.2c0-0.5,0.4-1,1-1h25.3c0.5,0,1,0.5,1,1v-0.2
					C344.6,259.8,344.2,259.4,343.6,259.4z"/>
				<path class="st7" d="M343.6,246.3h-25.3c-0.6,0-1,0.5-1,1v0.2c0-0.5,0.4-1,1-1h25.3c0.5,0,1,0.5,1,1v-0.2
					C344.6,246.7,344.2,246.3,343.6,246.3z"/>
				<path class="st7" d="M343.6,287.9H334c-0.6,0-1,0.5-1,1v0.2c0-0.5,0.4-1,1-1h9.6c0.5,0,1,0.5,1,1v-0.2
					C344.6,288.3,344.2,287.9,343.6,287.9z"/>
				<path class="st7" d="M327.9,273.6h-9.6c-0.6,0-1,0.5-1,1v0.2c0-0.5,0.4-1,1-1h9.6c0.5,0,1,0.5,1,1v-0.2
					C328.9,274.1,328.5,273.6,327.9,273.6z"/>
				<path class="st7" d="M343.6,302.1H334c-0.6,0-1,0.5-1,1v0.2c0-0.5,0.4-1,1-1h9.6c0.5,0,1,0.5,1,1v-0.2
					C344.6,302.5,344.2,302.1,343.6,302.1z"/>
				<path class="st7" d="M217.9,287.9h-9.6c-0.6,0-1,0.5-1,1v0.2c0-0.5,0.4-1,1-1h9.6c0.5,0,1,0.5,1,1v-0.2
					C218.9,288.3,218.4,287.9,217.9,287.9z"/>
				<path class="st7" d="M202.1,237.7h-9.6c-0.6,0-1,0.5-1,1v0.2c0-0.5,0.4-1,1-1h9.6c0.5,0,1,0.5,1,1v-0.2
					C203.1,238.2,202.7,237.7,202.1,237.7z"/>
				<path class="st7" d="M217.9,302.1h-9.6c-0.6,0-1,0.5-1,1v0.2c0-0.5,0.4-1,1-1h9.6c0.5,0,1,0.5,1,1v-0.2
					C218.9,302.5,218.4,302.1,217.9,302.1z"/>
				<path class="st7" d="M202.1,302.1h-9.6c-0.6,0-1,0.5-1,1v0.2c0-0.5,0.4-1,1-1h9.6c0.5,0,1,0.5,1,1v-0.2
					C203.1,302.5,202.7,302.1,202.1,302.1z"/>
				<path class="st7" d="M202.1,246.3h-9.6c-0.6,0-1,0.5-1,1v0.2c0-0.5,0.4-1,1-1h9.6c0.5,0,1,0.5,1,1v-0.2
					C203.1,246.7,202.7,246.3,202.1,246.3z"/>
				<path class="st7" d="M202.1,287.9h-9.6c-0.6,0-1,0.5-1,1v0.2c0-0.5,0.4-1,1-1h9.6c0.5,0,1,0.5,1,1v-0.2
					C203.1,288.3,202.7,287.9,202.1,287.9z"/>
				<path class="st7" d="M202.1,259.4h-9.6c-0.6,0-1,0.5-1,1v0.2c0-0.5,0.4-1,1-1h9.6c0.5,0,1,0.5,1,1v-0.2
					C203.1,259.8,202.7,259.4,202.1,259.4z"/>
				<path class="st7" d="M202.1,273.6h-9.6c-0.6,0-1,0.5-1,1v0.2c0-0.5,0.4-1,1-1h9.6c0.5,0,1,0.5,1,1v-0.2
					C203.1,274.1,202.7,273.6,202.1,273.6z"/>
				<path class="st7" d="M296.5,273.6h-9.6c-0.6,0-1,0.5-1,1v0.2c0-0.5,0.4-1,1-1h9.6c0.5,0,1,0.5,1,1v-0.2
					C297.5,274.1,297,273.6,296.5,273.6z"/>
				<path class="st7" d="M296.5,287.9h-9.6c-0.6,0-1,0.5-1,1v0.2c0-0.5,0.4-1,1-1h9.6c0.5,0,1,0.5,1,1v-0.2
					C297.5,288.3,297,287.9,296.5,287.9z"/>
				<path class="st7" d="M296.5,246.3h-9.6c-0.6,0-1,0.5-1,1v0.2c0-0.5,0.4-1,1-1h9.6c0.5,0,1,0.5,1,1v-0.2
					C297.5,246.7,297,246.3,296.5,246.3z"/>
				<path class="st7" d="M296.5,259.4h-9.6c-0.6,0-1,0.5-1,1v0.2c0-0.5,0.4-1,1-1h9.6c0.5,0,1,0.5,1,1v-0.2
					C297.5,259.8,297,259.4,296.5,259.4z"/>
				<path class="st7" d="M217.9,237.7h-9.6c-0.6,0-1,0.5-1,1v0.2c0-0.5,0.4-1,1-1h9.6c0.5,0,1,0.5,1,1v-0.2
					C218.9,238.2,218.4,237.7,217.9,237.7z"/>
				<path class="st7" d="M217.9,259.4h-9.6c-0.6,0-1,0.5-1,1v0.2c0-0.5,0.4-1,1-1h9.6c0.5,0,1,0.5,1,1v-0.2
					C218.9,259.8,218.4,259.4,217.9,259.4z"/>
				<path class="st7" d="M217.9,246.3h-9.6c-0.6,0-1,0.5-1,1v0.2c0-0.5,0.4-1,1-1h9.6c0.5,0,1,0.5,1,1v-0.2
					C218.9,246.7,218.4,246.3,217.9,246.3z"/>
				<path class="st7" d="M217.9,273.6h-9.6c-0.6,0-1,0.5-1,1v0.2c0-0.5,0.4-1,1-1h9.6c0.5,0,1,0.5,1,1v-0.2
					C218.9,274.1,218.4,273.6,217.9,273.6z"/>
			</g>
			<g>
				<g>
					<path class="st4" d="M276.5,357.1h-49.8c-2.7,0-4.8-2.2-4.8-4.8v-25.2c0-2.7,2.2-4.8,4.8-4.8h49.8c2.7,0,4.8,2.2,4.8,4.8v25.2
						C281.4,354.9,279.2,357.1,276.5,357.1z"/>
					<path class="st5" d="M276.5,356.8h-49.8c-2.7,0-4.8-2.2-4.8-4.8v-24.9c0-2.7,2.2-4.8,4.8-4.8h49.8c2.7,0,4.8,2.2,4.8,4.8V352
						C281.4,354.6,279.2,356.8,276.5,356.8z"/>
				</g>
				<rect x="221.9" y="350.4" class="st4" width="59.4" height="0.7"/>
				<rect x="221.9" y="350.2" class="st8" width="59.4" height="0.7"/>
			</g>
		</g>
		<g>
			<path class="st9" d="M364.8,213.4H139c-2.1,0-4.1-1.3-4.8-3.4l-20.5-52.6c-0.6-4.3,2.6-7.2,6.1-7.2h264.1c4.1,0,6.8,3.9,6,7.8
				l-20.4,52C368.9,212.1,366.9,213.4,364.8,213.4z"/>
		</g>
		<path class="st10" d="M119.8,150.4h264.1c3.6,0,6.1,2.9,6.2,6.3c0-3.4-2.5-6.5-6.2-6.5H119.8c-3.3,0-6.3,2.6-6.2,6.4
			C113.6,152.9,116.5,150.4,119.8,150.4z"/>
		<g>
			<path class="st11" d="M365.6,215.8H138.1c-2.2,0-4.1-1.4-4.8-3.4L114,159c-1.2-3.3,1.3-6.9,4.8-6.9h266c3.6,0,6,3.5,4.8,6.9
				l-19.2,53.4C369.7,214.4,367.8,215.8,365.6,215.8z"/>
		</g>
		<g>
			<path class="st6" d="M384.9,152.2h-266c-3.6,0-6,3.5-4.8,6.9l18.4,51h238.8l18.4-51C390.9,155.7,388.5,152.2,384.9,152.2z"/>
		</g>
		<g>
			<polygon class="st12" points="119.5,158.4 137,208.3 365.7,208.3 384.2,158.4 			"/>
		</g>
		<g>
			<path class="st10" d="M376.3,193l13.5-34.4c1.1-3.3-1.4-6.7-4.9-6.7h-266c-3.1,0-5.4,2.7-5.1,5.6l12.9,33.1L115,158.4
				c-0.5-1.3-0.3-2.7,0.5-3.8s2-1.8,3.4-1.8h266c1.4,0,2.6,0.6,3.4,1.8c0.8,1.1,1,2.5,0.5,3.8L376.3,193z"/>
		</g>
		<g>
			<path class="st13" d="M384.9,153.2c1.4,0,2.6,0.6,3.4,1.8c0.8,1.1,1,2.5,0.5,3.8l-19.3,53.3c-0.6,1.6-2.2,2.7-3.9,2.7H138.1
				c-1.7,0-3.3-1.1-3.9-2.7L115,158.7c-0.5-1.3-0.3-2.7,0.5-3.8s2-1.8,3.4-1.8h266 M384.9,152.2h-266c-3.6,0-6,3.5-4.8,6.9
				l19.3,53.3c0.7,2,2.7,3.4,4.8,3.4h227.5c2.2,0,4.1-1.4,4.8-3.4l19.3-53.3C390.9,155.7,388.5,152.2,384.9,152.2L384.9,152.2z"/>
		</g>
		<ellipse class="st14" cx="352.4" cy="225.1" rx="5.1" ry="5.2"/>
		<circle class="st15" cx="352.4" cy="225" r="5.1"/>
		<circle class="st2" cx="352.4" cy="225" r="4.2"/>
		<path class="st14" d="M352.4,229.1c-2.3,0-4.2-1.9-4.2-4.2c0,0,0,0,0,0.1c0,2.3,1.9,4.2,4.2,4.2c2.3,0,4.2-1.9,4.2-4.2
			c0,0,0,0,0-0.1C356.6,227.2,354.7,229.1,352.4,229.1z"/>
		<g>
			<polygon class="st16" points="124.2,171.8 379.2,171.8 384.2,158.4 119.5,158.4 			"/>
		</g>
		<g>
			<polygon class="st17" points="384,158.8 384.2,158.4 119.5,158.4 119.6,158.8 			"/>
		</g>
		<g>
			<g>
				<g>
					
						<ellipse transform="matrix(0.5914 -0.8064 0.8064 0.5914 -80.5972 171.7917)" class="st18" cx="129.2" cy="165.4" rx="3" ry="4.1"/>
				</g>
				<g>
					
						<ellipse transform="matrix(0.5611 -0.8277 0.8277 0.5611 -80.1481 179.4776)" class="st19" cx="129.2" cy="165.3" rx="3" ry="4.1"/>
				</g>
				<g>
					
						<ellipse transform="matrix(0.5611 -0.8277 0.8277 0.5611 -80.1481 179.4779)" class="st20" cx="129.2" cy="165.3" rx="2.1" ry="2.9"/>
				</g>
				<g>
					<path class="st21" d="M128.5,163.1c1.4,0,2.8,1,3.3,2.3l0,0C131.3,164,129.9,163,128.5,163.1c-1.4-0.1-2.2,1-1.8,2.3l0,0
						C126.3,164.1,127.1,163.1,128.5,163.1z"/>
				</g>
			</g>
			<g>
				<g>
					
						<ellipse transform="matrix(0.5914 -0.8064 0.8064 0.5914 -76.791 179.2828)" class="st18" cx="138.5" cy="165.4" rx="3" ry="4.1"/>
				</g>
				<g>
					
						<ellipse transform="matrix(0.5611 -0.8277 0.8277 0.5611 -76.0608 187.1665)" class="st19" cx="138.5" cy="165.3" rx="3" ry="4.1"/>
				</g>
				<g>
					
						<ellipse transform="matrix(0.5611 -0.8277 0.8277 0.5611 -76.0608 187.1665)" class="st22" cx="138.5" cy="165.3" rx="2.1" ry="2.9"/>
				</g>
				<g>
					<path class="st23" d="M137.8,163.1c1.4,0,2.8,1,3.3,2.3l0,0C140.6,164,139.2,163,137.8,163.1c-1.4-0.1-2.2,1-1.8,2.3l0,0
						C135.6,164.1,136.4,163.1,137.8,163.1z"/>
				</g>
			</g>
			<g>
				<g>
					
						<ellipse transform="matrix(0.5914 -0.8064 0.8064 0.5914 -72.9848 186.7739)" class="st18" cx="147.8" cy="165.4" rx="3" ry="4.1"/>
				</g>
				<g>
					
						<ellipse transform="matrix(0.5611 -0.8277 0.8277 0.5611 -71.9735 194.8555)" class="st19" cx="147.8" cy="165.3" rx="3" ry="4.1"/>
				</g>
				<g>
					
						<ellipse transform="matrix(0.5611 -0.8277 0.8277 0.5611 -71.9735 194.8555)" class="st24" cx="147.8" cy="165.3" rx="2.1" ry="2.9"/>
				</g>
				<g>
					<path class="st25" d="M147.1,163.1c1.4,0,2.8,1,3.3,2.3l0,0C149.9,164,148.4,163,147.1,163.1c-1.4-0.1-2.2,1-1.8,2.3l0,0
						C144.9,164.1,145.7,163.1,147.1,163.1z"/>
				</g>
			</g>
		</g>
		<g>
			<line class="st26" x1="255.4" y1="184" x2="255.4" y2="179.2"/>
		</g>
		<g>
			<path class="st27" d="M240,180.7H135.8c-0.8,0-1.5-0.7-1.5-1.5s0.7-1.5,1.5-1.5H240c0.8,0,1.5,0.7,1.5,1.5S240.8,180.7,240,180.7
				z"/>
		</g>
		<g>
			<path class="st28" d="M260.2,180.7H248c-0.8,0-1.5-0.7-1.5-1.5s0.7-1.5,1.5-1.5h12.2c0.8,0,1.5,0.7,1.5,1.5
				S261.1,180.7,260.2,180.7z"/>
		</g>
		<g>
			<path class="st27" d="M301.6,180.7h-33.8c-0.8,0-1.5-0.7-1.5-1.5s0.7-1.5,1.5-1.5h33.8c0.8,0,1.5,0.7,1.5,1.5
				S302.4,180.7,301.6,180.7z"/>
		</g>
		<g>
			<path class="st29" d="M323.1,180.7h-6.8c-0.8,0-1.5-0.7-1.5-1.5s0.7-1.5,1.5-1.5h6.8c0.8,0,1.5,0.7,1.5,1.5
				S324,180.7,323.1,180.7z"/>
		</g>
		<g>
			<path class="st29" d="M334.8,180.7H328c-0.8,0-1.5-0.7-1.5-1.5s0.7-1.5,1.5-1.5h6.8c0.8,0,1.5,0.7,1.5,1.5
				S335.6,180.7,334.8,180.7z"/>
		</g>
		<g>
			<path class="st28" d="M156.1,187.7h-17.6c-0.8,0-1.5-0.7-1.5-1.5s0.7-1.5,1.5-1.5h17.6c0.8,0,1.5,0.7,1.5,1.5
				S156.9,187.7,156.1,187.7z"/>
		</g>
		<g>
			<path class="st27" d="M201.2,187.7h-35.3c-0.8,0-1.5-0.7-1.5-1.5s0.7-1.5,1.5-1.5h35.3c0.8,0,1.5,0.7,1.5,1.5
				S202,187.7,201.2,187.7z"/>
		</g>
		<g>
			<path class="st28" d="M270.2,187.7h-58.9c-0.8,0-1.5-0.7-1.5-1.5s0.7-1.5,1.5-1.5h58.9c0.8,0,1.5,0.7,1.5,1.5
				S271,187.7,270.2,187.7z"/>
		</g>
		<g>
			<path class="st30" d="M178.9,196.3h-37.8c-0.8,0-1.5-0.7-1.5-1.5s0.7-1.5,1.5-1.5h37.8c0.8,0,1.5,0.7,1.5,1.5
				S179.7,196.3,178.9,196.3z"/>
		</g>
		<g>
			<path class="st30" d="M191.5,196.3h-4.1c-0.8,0-1.5-0.7-1.5-1.5s0.7-1.5,1.5-1.5h4.1c0.8,0,1.5,0.7,1.5,1.5
				S192.4,196.3,191.5,196.3z"/>
		</g>
		<g>
			<path class="st30" d="M207.3,196.3h-6.1c-0.8,0-1.5-0.7-1.5-1.5s0.7-1.5,1.5-1.5h6.1c0.8,0,1.5,0.7,1.5,1.5
				S208.1,196.3,207.3,196.3z"/>
		</g>
		<g>
			<path class="st30" d="M223,196.3h-8.7c-0.8,0-1.5-0.7-1.5-1.5s0.7-1.5,1.5-1.5h8.7c0.8,0,1.5,0.7,1.5,1.5S223.8,196.3,223,196.3z
				"/>
		</g>
		<g>
			<path class="st30" d="M288.5,187.7h-11.1c-0.8,0-1.5-0.7-1.5-1.5s0.7-1.5,1.5-1.5h11.1c0.8,0,1.5,0.7,1.5,1.5
				S289.3,187.7,288.5,187.7z"/>
		</g>
		<g>
			<path class="st30" d="M319.7,187.7h-24.3c-0.8,0-1.5-0.7-1.5-1.5s0.7-1.5,1.5-1.5h24.3c0.8,0,1.5,0.7,1.5,1.5
				S320.6,187.7,319.7,187.7z"/>
		</g>
		<g>
			<path class="st31" d="M170.3,204.1h-27c-0.8,0-1.5-0.7-1.5-1.5s0.7-1.5,1.5-1.5h27c0.8,0,1.5,0.7,1.5,1.5
				S171.1,204.1,170.3,204.1z"/>
		</g>
		<g>
			<path class="st31" d="M362.3,198h-60.7c-0.8,0-1.5-0.7-1.5-1.5s0.7-1.5,1.5-1.5h60.7c0.8,0,1.5,0.7,1.5,1.5S363.2,198,362.3,198z
				"/>
		</g>
		<g>
			<path class="st31" d="M359,204.1h-9.5c-0.8,0-1.5-0.7-1.5-1.5s0.7-1.5,1.5-1.5h9.5c0.8,0,1.5,0.7,1.5,1.5S359.8,204.1,359,204.1z
				"/>
		</g>
		<g>
			<path class="st31" d="M344.6,204.1h-8.2c-0.8,0-1.5-0.7-1.5-1.5s0.7-1.5,1.5-1.5h8.2c0.8,0,1.5,0.7,1.5,1.5
				S345.5,204.1,344.6,204.1z"/>
		</g>
		<g class="st32">
			<polygon class="st12" points="291,158.4 200.5,158.4 150.5,208.3 241.1,208.3 			"/>
			<polygon class="st12" points="356.8,158.4 319.4,158.4 269.5,208.3 306.9,208.3 			"/>
			<polygon class="st12" points="383.7,159.7 384.2,158.4 374.7,158.4 324.8,208.3 335.1,208.3 			"/>
		</g>
	</g>
	<g>
		<path class="st33" d="M442.5,365.7H386v-84.3h56.5c2.7,0,4.9,2.2,4.9,4.9v74.4C447.4,363.5,445.2,365.7,442.5,365.7z"/>
		<path class="st34" d="M442.5,281.4h-0.2c2.7,0,4.9,2.2,4.9,4.9v74.4c0,2.7-2.2,4.9-4.9,4.9h0.2c2.7,0,4.9-2.2,4.9-4.9v-74.4
			C447.4,283.6,445.2,281.4,442.5,281.4z"/>
		<g>
			<rect x="386" y="281.4" class="st35" width="10.4" height="84.3"/>
			<rect x="396.5" y="281.4" class="st36" width="1.1" height="84.3"/>
			<rect x="430.8" y="281.4" class="st37" width="7" height="84.3"/>
			<rect x="431.6" y="280.6" class="st38" width="7" height="85.8"/>
			<rect x="431.6" y="280.6" class="st10" width="0.5" height="85.8"/>
			<g>
				<rect x="432.8" y="280.6" class="st10" width="0.1" height="85.8"/>
				<rect x="432.9" y="280.6" class="st39" width="0.2" height="85.8"/>
			</g>
			<g>
				<rect x="433.8" y="280.6" class="st10" width="0.1" height="85.8"/>
				<rect x="433.9" y="280.6" class="st39" width="0.2" height="85.8"/>
			</g>
			<g>
				<rect x="434.8" y="280.6" class="st10" width="0.1" height="85.8"/>
				<rect x="434.8" y="280.6" class="st39" width="0.2" height="85.8"/>
			</g>
			<g>
				<rect x="435.8" y="280.6" class="st10" width="0.1" height="85.8"/>
				<rect x="435.8" y="280.6" class="st39" width="0.2" height="85.8"/>
			</g>
			<g>
				<rect x="436.8" y="280.6" class="st10" width="0.1" height="85.8"/>
				<rect x="436.8" y="280.6" class="st39" width="0.2" height="85.8"/>
			</g>
			<g>
				<rect x="437.8" y="280.6" class="st10" width="0.1" height="85.8"/>
				<rect x="437.8" y="280.6" class="st39" width="0.2" height="85.8"/>
			</g>
			<rect x="400.3" y="352.7" class="st40" width="17.2" height="8.8"/>
			<rect x="400.3" y="349.4" class="st40" width="17.2" height="2.1"/>
			<rect x="400.3" y="346.2" class="st41" width="8.6" height="2.1"/>
		</g>
	</g>
	<g>
		
			<ellipse transform="matrix(3.327793e-02 -0.9994 0.9994 3.327793e-02 -216.5647 362.6875)" class="st42" cx="79.2" cy="293.3" rx="36.8" ry="36.8"/>
		<path class="st43" d="M108.9,289.4c-2.7-13.8-14.8-24.2-29.4-24.2c-16.6,0-30,13.4-30,30s13.4,30,30,30
			c14.5,0,26.7-10.4,29.4-24.1h3.9c1,0,1.9-0.2,2.7-0.7c0.4-2.3,0.7-4.7,0.7-7.1c0-1,0-1.9-0.1-2.9c-0.9-0.6-2-1-3.2-1L108.9,289.4
			L108.9,289.4z"/>
		<path class="st44" d="M79.2,257c20.2,0,36.7,16.3,36.8,36.5c0-0.1,0-0.2,0-0.3c0-20.3-16.5-36.8-36.8-36.8s-36.8,16.5-36.8,36.8
			c0,0.1,0,0.2,0,0.3C42.6,273.4,59,257,79.2,257z"/>
		<g>
			<path class="st10" d="M112.7,299.2h-9c-3.2,0-5.8-2.6-5.8-5.8l0,0c0-3.2,2.6-5.8,5.8-5.8h9c3.2,0,5.8,2.6,5.8,5.8l0,0
				C118.6,296.5,115.9,299.2,112.7,299.2z"/>
			<circle class="st45" cx="79.5" cy="293.3" r="30"/>
			<path class="st10" d="M79.5,263.6c16.5,0,29.9,13.3,30,29.8v-0.1c0-16.6-13.4-30-30-30s-30,13.4-30,30v0.1
				C49.5,276.9,62.9,263.6,79.5,263.6z"/>
			<ellipse class="st10" cx="79.5" cy="293.5" rx="26.3" ry="26.5"/>
			
				<ellipse transform="matrix(3.327793e-02 -0.9994 0.9994 3.327793e-02 -216.2746 362.9873)" class="st46" cx="79.5" cy="293.3" rx="26.3" ry="26.3"/>
			
				<ellipse transform="matrix(3.327793e-02 -0.9994 0.9994 3.327793e-02 -216.2746 362.9873)" class="st46" cx="79.5" cy="293.3" rx="24.3" ry="24.3"/>
			
				<ellipse transform="matrix(3.327793e-02 -0.9994 0.9994 3.327793e-02 -216.2746 362.9873)" class="st47" cx="79.5" cy="293.3" rx="23.8" ry="23.8"/>
			<path class="st48" d="M79.5,269.8c13.1,0,23.7,10.6,23.8,23.6v-0.1c0-13.1-10.6-23.8-23.8-23.8s-23.8,10.6-23.8,23.8v0.1
				C55.8,280.3,66.4,269.8,79.5,269.8z"/>
			<circle class="st49" cx="79.5" cy="293.3" r="18.4"/>
			<path class="st50" d="M79.5,275c10.1,0,18.4,8.2,18.4,18.3v-0.1c0-10.2-8.2-18.4-18.4-18.4S61,283.1,61,293.3v0.1
				C61.1,283.2,69.3,275,79.5,275z"/>
			<circle class="st51" cx="79.5" cy="293.3" r="11.1"/>
			<path class="st52" d="M79.5,282.3c6.1,0,11,4.9,11,11c0,0,0,0,0-0.1c0-6.1-4.9-11.1-11.1-11.1c-6.1,0-11.1,4.9-11.1,11.1
				c0,0,0,0,0,0.1C68.4,287.2,73.4,282.3,79.5,282.3z"/>
			<circle class="st53" cx="79.5" cy="293.3" r="4.5"/>
			<path class="st54" d="M79.5,288.9c2.5,0,4.4,2,4.5,4.4v-0.1c0-2.5-2-4.5-4.5-4.5s-4.5,2-4.5,4.5v0.1
				C75,290.9,77,288.9,79.5,288.9z"/>
		</g>
		
			<linearGradient id="SVGID_2_" gradientUnits="userSpaceOnUse" x1="78.2335" y1="129.758" x2="50.3813" y2="157.6101" gradientTransform="matrix(1 0 0 -1 0 420.783)">
			<stop  offset="0" style="stop-color:#E6EEFF;stop-opacity:0"/>
			<stop  offset="0.9979" style="stop-color:#E6EEFF"/>
		</linearGradient>
		<circle class="st55" cx="73" cy="285.8" r="12"/>
		
			<linearGradient id="SVGID_3_" gradientUnits="userSpaceOnUse" x1="71.8445" y1="121.747" x2="58.8986" y2="134.6929" gradientTransform="matrix(1 0 0 -1 0 420.783)">
			<stop  offset="0" style="stop-color:#E6EEFF;stop-opacity:0"/>
			<stop  offset="0.9979" style="stop-color:#E6EEFF"/>
		</linearGradient>
		<circle class="st56" cx="69.4" cy="296.6" r="5.6"/>
		
			<linearGradient id="SVGID_4_" gradientUnits="userSpaceOnUse" x1="97.2573" y1="118.0342" x2="89.1614" y2="126.1301" gradientTransform="matrix(1 0 0 -1 0 420.783)">
			<stop  offset="0" style="stop-color:#E6EEFF;stop-opacity:0"/>
			<stop  offset="0.9979" style="stop-color:#E6EEFF"/>
		</linearGradient>
		<circle class="st57" cx="95.7" cy="301.2" r="3.5"/>
	</g>
	<g>
		<path class="st58" d="M443.9,386.8h-5.2c-2.8,0-5-2.3-5-5l0,0c0-2.8,2.3-5,5-5h5.2c2.8,0,5,2.3,5,5l0,0
			C448.9,384.6,446.6,386.8,443.9,386.8z"/>
		<path class="st59" d="M441.5,383.5l-1,3.4l-52.7,0.1c-0.9,0-1.7-0.7-1.7-1.7l0,0c0-0.9,0.7-1.7,1.7-1.7L441.5,383.5z"/>
		<path class="st60" d="M441.5,380.2v3.3l-53.7,0.1c-0.9,0-1.7-0.7-1.7-1.7l0,0c0-0.9,0.7-1.7,1.7-1.7L441.5,380.2z"/>
		<path class="st61" d="M440.5,376.8l1.1,3.3l-53.7,0.1c-0.9,0-1.7-0.7-1.7-1.7l0,0c0-0.9,0.7-1.7,1.7-1.7L440.5,376.8z"/>
		<g>
			<g>
				<path class="st62" d="M384.2,377.1l-12.9,4c-0.9,0.2-0.9,1.5,0,1.7l12.9,4l2.3-4.9L384.2,377.1z"/>
				<path class="st63" d="M438.7,383.5l-1,3.4L385,387c-0.9,0-1.7-0.7-1.7-1.7l0,0c0-0.9,0.7-1.7,1.7-1.7L438.7,383.5z"/>
				<path class="st64" d="M438.7,380.2v3.3l-53.7,0.1c-0.9,0-1.7-0.7-1.7-1.7l0,0c0-0.9,0.7-1.7,1.7-1.7L438.7,380.2z"/>
				<path class="st65" d="M437.7,376.8l1.1,3.3l-53.7,0.1c-0.9,0-1.7-0.7-1.7-1.7l0,0c0-0.9,0.7-1.7,1.7-1.7L437.7,376.8z"/>
				<path class="st66" d="M371.1,382.8l6.3,1.8c0.3-0.6,0.6-1.9,0.6-2.7c0-0.8-0.2-1.8-0.5-2.4l-6.4,1.6
					C370.2,381.4,370.2,382.6,371.1,382.8z"/>
				<path class="st67" d="M371,381.9c-0.2,0-0.2,0.2,0.1,0.3l6.9,0.6c0.1-0.2,0.1-0.5,0-0.7L371,381.9z"/>
				<path class="st68" d="M371.1,381.2c-0.1,0-0.1,0-0.1,0.1l0,0c0,0-0.1,0-0.1,0.1l0,0c-0.1,0.1-0.1,0.1-0.2,0.2l0,0c0,0,0,0,0,0.1
					l0,0c0,0,0,0,0,0.1c0,0,0,0,0,0.1l0,0c0.1-0.1,0.3-0.3,0.5-0.3l6.8-1.1c-0.1-0.3-0.3-0.9-0.4-1.1L371.1,381.2z"/>
				<path class="st67" d="M383.3,385.3c0,0.9,0.8,1.7,1.7,1.7l52.7-0.1l0.5-1.7L383.3,385.3z"/>
				<path class="st67" d="M385,383.6l53.7-0.1v-0.2l-54.4,0.1C384.5,383.6,384.8,383.6,385,383.6z"/>
				<path class="st67" d="M385,380.3l53.7-0.1l-0.1-0.2l-54.4,0.1C384.5,380.2,384.7,380.3,385,380.3z"/>
			</g>
			<path class="st67" d="M383.3,378.6c0,0.9,0.8,1.7,1.7,1.7h0.1c-0.9,0-1.7-0.7-1.7-1.7c0-0.9,0.7-1.7,1.7-1.7H385
				C384.1,376.9,383.3,377.7,383.3,378.6z"/>
			<path class="st67" d="M383.3,382c0,0.9,0.8,1.7,1.7,1.7h0.1c-0.9,0-1.7-0.7-1.7-1.7c0-0.9,0.7-1.7,1.7-1.7H385
				C384.1,380.3,383.3,381,383.3,382z"/>
			<path class="st67" d="M383.3,385.3c0,0.9,0.8,1.7,1.7,1.7h0.1c-0.9,0-1.7-0.7-1.7-1.7c0-0.9,0.7-1.7,1.7-1.7H385
				C384.1,383.6,383.3,384.4,383.3,385.3z"/>
		</g>
	</g>
	<g>
		<g>
			<path class="st69" d="M274.7,166.8H78.5c-2.8,0-5.1-2.3-5.1-5.1V37.9c0-2.8,2.3-5.1,5.1-5.1h196.2c2.8,0,5.1,2.3,5.1,5.1v123.8
				C279.7,164.5,277.5,166.8,274.7,166.8z"/>
			<path class="st70" d="M274.7,166.1H78.5c-2.8,0-5.1-2.3-5.1-5.1v0.7c0,2.8,2.3,5.1,5.1,5.1h196.2c2.8,0,5.1-2.3,5.1-5.1V161
				C279.7,163.8,277.5,166.1,274.7,166.1z"/>
			<path class="st71" d="M273.9,31.6H79.3c-3.2,0-5.9,2.6-5.9,5.9v1.2c0-3.2,2.6-5.9,5.9-5.9h194.6c3.2,0,5.9,2.6,5.9,5.9v-1.3
				C279.7,34.2,277.1,31.6,273.9,31.6z"/>
			<path class="st71" d="M273.9,32.8H79.3c-3.2,0-5.9,2.6-5.9,5.9v15.7h206.3V38.7C279.7,35.4,277.1,32.8,273.9,32.8z"/>
			<path class="st72" d="M273.9,32.8H79.3c-3.2,0-5.9,2.6-5.9,5.9v0.2c0-3.2,2.6-5.9,5.9-5.9h194.6c3.2,0,5.9,2.6,5.9,5.9v-0.2
				C279.7,35.4,277.1,32.8,273.9,32.8z"/>
			<rect x="73.4" y="53.6" class="st72" width="206.3" height="0.9"/>
			
				<linearGradient id="SVGID_5_" gradientUnits="userSpaceOnUse" x1="81.7" y1="310.4915" x2="271.8038" y2="310.4915" gradientTransform="matrix(1 0 0 -1 0 420.783)">
				<stop  offset="0" style="stop-color:#190849"/>
				<stop  offset="1" style="stop-color:#300877"/>
			</linearGradient>
			<path class="st73" d="M267.7,159.7H85.9c-2.3,0-4.2-1.9-4.2-4.2V65.1c0-2.3,1.9-4.2,4.2-4.2h181.7c2.3,0,4.2,1.9,4.2,4.2v90.4
				C271.9,157.8,270,159.7,267.7,159.7z"/>
			<circle class="st74" cx="85" cy="43.6" r="5.8"/>
			<path class="st72" d="M85,49.2c-3.2,0-5.8-2.6-5.8-5.7v0.1c0,3.2,2.6,5.8,5.8,5.8c3.2,0,5.8-2.6,5.8-5.8v-0.1
				C90.8,46.7,88.2,49.2,85,49.2z"/>
			<circle class="st71" cx="85" cy="43.6" r="4.5"/>
			<circle class="st75" cx="85" cy="43.6" r="3.7"/>
			<path class="st76" d="M85,40c2,0,3.7,1.6,3.7,3.6c0,0,0,0,0-0.1c0-2-1.7-3.7-3.7-3.7s-3.7,1.7-3.7,3.7c0,0,0,0,0,0.1
				C81.3,41.7,83,40,85,40z"/>
			<circle class="st77" cx="85" cy="43.6" r="2.2"/>
			<path class="st76" d="M85,41.5c1.2,0,2.2,1,2.2,2.2c0,0,0,0,0-0.1C87.2,42.4,86.2,41.4,85,41.5c-1.2-0.1-2.2,0.9-2.2,2.1
				c0,0,0,0,0,0.1C82.8,42.5,83.8,41.5,85,41.5z"/>
			<circle class="st74" cx="101.9" cy="43.6" r="5.8"/>
			<path class="st72" d="M101.9,49.2c-3.2,0-5.8-2.6-5.8-5.7v0.1c0,3.2,2.6,5.8,5.8,5.8s5.8-2.6,5.8-5.8v-0.1
				C107.7,46.7,105.1,49.2,101.9,49.2z"/>
			<circle class="st71" cx="101.9" cy="43.6" r="4.5"/>
			<circle class="st78" cx="101.9" cy="43.6" r="3.7"/>
			<path class="st79" d="M101.9,40c2,0,3.7,1.6,3.7,3.6c0,0,0,0,0-0.1c0-2-1.7-3.7-3.7-3.7s-3.7,1.7-3.7,3.7c0,0,0,0,0,0.1
				C98.2,41.7,99.9,40,101.9,40z"/>
			<circle class="st80" cx="101.9" cy="43.6" r="2.2"/>
			<path class="st81" d="M101.9,41.5c1.2,0,2.2,1,2.2,2.2c0,0,0,0,0-0.1C104.1,42.4,103.1,41.4,101.9,41.5c-1.2-0.1-2.2,0.9-2.2,2.1
				c0,0,0,0,0,0.1C99.7,42.5,100.7,41.5,101.9,41.5z"/>
			<circle class="st74" cx="118.8" cy="43.6" r="5.8"/>
			<path class="st72" d="M118.8,49.2c-3.2,0-5.8-2.6-5.8-5.7v0.1c0,3.2,2.6,5.8,5.8,5.8c3.2,0,5.8-2.6,5.8-5.8v-0.1
				C124.6,46.7,122,49.2,118.8,49.2z"/>
			<circle class="st71" cx="118.8" cy="43.6" r="4.5"/>
			<circle class="st82" cx="118.8" cy="43.6" r="3.7"/>
			<path class="st83" d="M118.8,40c2,0,3.7,1.6,3.7,3.6c0,0,0,0,0-0.1c0-2-1.7-3.7-3.7-3.7s-3.7,1.7-3.7,3.7c0,0,0,0,0,0.1
				C115.2,41.7,116.8,40,118.8,40z"/>
			<circle class="st84" cx="118.8" cy="43.6" r="2.2"/>
			<path class="st83" d="M118.8,41.5c1.2,0,2.2,1,2.2,2.2c0,0,0,0,0-0.1C121,42.4,120,41.4,118.8,41.5c-1.2-0.1-2.2,0.9-2.2,2.1
				c0,0,0,0,0,0.1C116.6,42.5,117.6,41.5,118.8,41.5z"/>
			<polyline class="st85" points="91.8,66.7 87.2,71.3 91.8,75.8 			"/>
			<polyline class="st85" points="103.2,66.7 107.7,71.3 103.2,75.8 			"/>
			<line class="st85" x1="95.6" y1="76.6" x2="99.2" y2="66.7"/>
			<circle class="st86" cx="112.6" cy="76.7" r="1.3"/>
			<circle class="st86" cx="117.9" cy="76.7" r="1.3"/>
			<circle class="st86" cx="123.2" cy="76.7" r="1.3"/>
			<line class="st85" x1="89.5" y1="85.9" x2="226" y2="85.9"/>
			<line class="st85" x1="234.3" y1="85.9" x2="244.8" y2="85.9"/>
			<line class="st85" x1="250.8" y1="85.9" x2="264.2" y2="85.9"/>
			<line class="st87" x1="89.5" y1="96.6" x2="174.9" y2="96.6"/>
			<line class="st87" x1="187.6" y1="96.6" x2="202.9" y2="96.6"/>
			<line class="st87" x1="202.9" y1="102.8" x2="161.4" y2="102.8"/>
			<line class="st87" x1="155.7" y1="102.8" x2="147.3" y2="102.8"/>
			<line class="st87" x1="140.6" y1="102.8" x2="132.3" y2="102.8"/>
			<line class="st87" x1="125.6" y1="102.8" x2="117.2" y2="102.8"/>
			<line class="st87" x1="110.6" y1="102.8" x2="102.2" y2="102.8"/>
			<line class="st88" x1="231.7" y1="110.3" x2="102.2" y2="110.3"/>
			<line class="st87" x1="92.5" y1="102.8" x2="89.5" y2="102.8"/>
			<line class="st87" x1="92.5" y1="110.3" x2="89.5" y2="110.3"/>
			<line class="st87" x1="92.5" y1="117.8" x2="89.5" y2="117.8"/>
			<line class="st87" x1="92.5" y1="125.3" x2="89.5" y2="125.3"/>
			<line class="st88" x1="239.6" y1="110.3" x2="257.5" y2="110.3"/>
			<line class="st88" x1="101.9" y1="117.8" x2="137.7" y2="117.8"/>
			<line class="st88" x1="101.9" y1="125.5" x2="137.7" y2="125.5"/>
			<line class="st88" x1="101.9" y1="133.2" x2="137.7" y2="133.2"/>
			<line class="st88" x1="101.9" y1="140.9" x2="137.7" y2="140.9"/>
			<line class="st89" x1="161.4" y1="140.9" x2="234.3" y2="140.9"/>
			<line class="st89" x1="204.6" y1="133.2" x2="234.3" y2="133.2"/>
			<line class="st89" x1="222.5" y1="125.3" x2="234.3" y2="125.3"/>
		</g>
		<g>
			<g>
				<path class="st69" d="M392.7,242.7h-91.6c-2.9,0-5.2-2.3-5.2-5.2V89.2c0-2.9,2.3-5.2,5.2-5.2h91.6c2.9,0,5.2,2.3,5.2,5.2v148.3
					C397.9,240.4,395.6,242.7,392.7,242.7z"/>
				<path class="st90" d="M392.8,242.1H301c-2.8,0-5.1-2.3-5.1-5.1v0.6c0,2.8,2.3,5.1,5.1,5.1h91.8c2.8,0,5.1-2.3,5.1-5.1V237
					C397.9,239.8,395.6,242.1,392.8,242.1z"/>
				<path class="st71" d="M394,83.2h-94.1c-2.2,0-3.9,1.7-3.9,3.9v0.8c0-2.2,1.7-3.9,3.9-3.9H394c2.2,0,3.9,1.7,3.9,3.9v-0.8
					C397.9,85,396.2,83.2,394,83.2z"/>
				<path class="st71" d="M394,84.1h-94.1c-2.2,0-3.9,1.7-3.9,3.9v10.4h101.9V87.9C397.9,85.8,396.2,84.1,394,84.1z"/>
				<path class="st72" d="M394,84.1h-94.1c-2.2,0-3.9,1.7-3.9,3.9v0.1c0-2.2,1.7-3.9,3.9-3.9L394,84.1c2.2,0.1,3.9,1.8,3.9,4V88
					C397.9,85.8,396.2,84.1,394,84.1z"/>
				<rect x="296" y="97.9" class="st72" width="101.9" height="0.6"/>
				
					<linearGradient id="SVGID_6_" gradientUnits="userSpaceOnUse" x1="301.6" y1="250.4415" x2="392.7" y2="250.4415" gradientTransform="matrix(1 0 0 -1 0 420.783)">
					<stop  offset="0" style="stop-color:#190849"/>
					<stop  offset="1" style="stop-color:#300877"/>
				</linearGradient>
				<path class="st91" d="M388.5,238h-82.7c-2.3,0-4.2-1.9-4.2-4.2V106.9c0-2.3,1.9-4.2,4.2-4.2h82.7c2.3,0,4.2,1.9,4.2,4.2v126.9
					C392.7,236.1,390.8,238,388.5,238z"/>
				<circle class="st74" cx="303.7" cy="91.3" r="3.9"/>
				<path class="st72" d="M303.7,95c-2.1,0-3.8-1.7-3.9-3.8c0,0,0,0,0,0.1c0,2.1,1.7,3.9,3.9,3.9s3.9-1.7,3.9-3.9c0,0,0,0,0-0.1
					C307.5,93.3,305.8,95,303.7,95z"/>
				<circle class="st71" cx="303.7" cy="91.3" r="3"/>
				<circle class="st75" cx="303.7" cy="91.3" r="2.5"/>
				<path class="st76" d="M303.7,88.9c1.3,0,2.4,1.1,2.5,2.4l0,0C306.1,89.9,305,88.8,303.7,88.9c-1.4-0.1-2.5,1-2.5,2.4l0,0
					C301.3,89.9,302.3,88.9,303.7,88.9z"/>
				<circle class="st77" cx="303.7" cy="91.3" r="1.5"/>
				<path class="st76" d="M303.7,89.8c0.8,0,1.5,0.6,1.5,1.4l0,0C305.2,90.4,304.5,89.8,303.7,89.8c-0.8-0.1-1.5,0.6-1.5,1.4l0,0
					C302.2,90.5,302.9,89.8,303.7,89.8z"/>
				<circle class="st74" cx="314.9" cy="91.3" r="3.9"/>
				<path class="st72" d="M314.9,95c-2.1,0-3.8-1.7-3.9-3.8c0,0,0,0,0,0.1c0,2.1,1.7,3.9,3.9,3.9c2.1,0,3.9-1.7,3.9-3.9
					c0,0,0,0,0-0.1C318.8,93.3,317.1,95,314.9,95z"/>
				<circle class="st71" cx="314.9" cy="91.3" r="3"/>
				<circle class="st78" cx="314.9" cy="91.3" r="2.5"/>
				<path class="st79" d="M314.9,88.9c1.3,0,2.4,1.1,2.5,2.4l0,0C317.4,89.9,316.3,88.8,314.9,88.9c-1.4-0.1-2.5,1-2.5,2.4l0,0
					C312.5,89.9,313.6,88.9,314.9,88.9z"/>
				<circle class="st80" cx="314.9" cy="91.3" r="1.5"/>
				<path class="st81" d="M314.9,89.8c0.8,0,1.5,0.6,1.5,1.4l0,0C316.4,90.4,315.8,89.8,314.9,89.8c-0.8-0.1-1.5,0.6-1.5,1.4l0,0
					C313.5,90.5,314.1,89.8,314.9,89.8z"/>
				<circle class="st74" cx="326.2" cy="91.3" r="3.9"/>
				<path class="st72" d="M326.2,95c-2.1,0-3.8-1.7-3.9-3.8c0,0,0,0,0,0.1c0,2.1,1.7,3.9,3.9,3.9c2.1,0,3.9-1.7,3.9-3.9
					c0,0,0,0,0-0.1C330,93.3,328.3,95,326.2,95z"/>
				<circle class="st71" cx="326.2" cy="91.3" r="3"/>
				<circle class="st82" cx="326.2" cy="91.3" r="2.5"/>
				<path class="st83" d="M326.2,88.9c1.3,0,2.4,1.1,2.5,2.4l0,0C328.7,89.9,327.5,88.8,326.2,88.9c-1.4-0.1-2.5,1-2.5,2.4l0,0
					C323.8,89.9,324.8,88.9,326.2,88.9z"/>
				<circle class="st84" cx="326.2" cy="91.3" r="1.5"/>
				<path class="st83" d="M326.2,89.8c0.8,0,1.5,0.6,1.5,1.4l0,0C327.7,90.4,327,89.8,326.2,89.8c-0.8-0.1-1.5,0.6-1.5,1.4l0,0
					C324.7,90.5,325.4,89.8,326.2,89.8z"/>
				<g>
					<path class="st86" d="M369.9,120.1h-63.2c-0.4,0-0.8-0.3-0.8-0.8c0-0.4,0.3-0.8,0.8-0.8h63.2c0.4,0,0.8,0.3,0.8,0.8
						C370.7,119.8,370.3,120.1,369.9,120.1z"/>
				</g>
				<g>
					<path class="st86" d="M380.1,120.1h-4.7c-0.4,0-0.8-0.3-0.8-0.8c0-0.4,0.3-0.8,0.8-0.8h4.7c0.4,0,0.8,0.3,0.8,0.8
						S380.5,120.1,380.1,120.1z"/>
				</g>
				<g>
					<path class="st86" d="M387.6,120.1H384c-0.4,0-0.8-0.3-0.8-0.8c0-0.4,0.3-0.8,0.8-0.8h3.5c0.4,0,0.8,0.3,0.8,0.8
						S388,120.1,387.6,120.1z"/>
				</g>
				<g>
					<path class="st92" d="M342.2,127.3h-35.5c-0.4,0-0.8-0.3-0.8-0.8c0-0.4,0.3-0.8,0.8-0.8h35.5c0.4,0,0.8,0.3,0.8,0.8
						C343,126.9,342.6,127.3,342.2,127.3z"/>
				</g>
				<g>
					<path class="st92" d="M354.5,127.3h-10.2c-0.4,0-0.8-0.3-0.8-0.8c0-0.4,0.3-0.8,0.8-0.8h10.2c0.4,0,0.8,0.3,0.8,0.8
						C355.3,126.9,355,127.3,354.5,127.3z"/>
				</g>
				<g>
					<path class="st92" d="M354.5,131.4h-6.3c-0.4,0-0.8-0.3-0.8-0.8c0-0.4,0.3-0.8,0.8-0.8h6.3c0.4,0,0.8,0.3,0.8,0.8
						C355.3,131,355,131.4,354.5,131.4z"/>
				</g>
				<g>
					<path class="st92" d="M345.1,131.4h-0.7c-0.4,0-0.8-0.3-0.8-0.8c0-0.4,0.3-0.8,0.8-0.8h0.7c0.4,0,0.8,0.3,0.8,0.8
						C345.9,131,345.6,131.4,345.1,131.4z"/>
				</g>
				<g>
					<path class="st92" d="M340.7,131.4h-5.6c-0.4,0-0.8-0.3-0.8-0.8c0-0.4,0.3-0.8,0.8-0.8h5.6c0.4,0,0.8,0.3,0.8,0.8
						C341.5,131,341.1,131.4,340.7,131.4z"/>
				</g>
				<g>
					<path class="st92" d="M330.7,131.4h-5.6c-0.4,0-0.8-0.3-0.8-0.8c0-0.4,0.3-0.8,0.8-0.8h5.6c0.4,0,0.8,0.3,0.8,0.8
						C331.5,131,331.1,131.4,330.7,131.4z"/>
				</g>
				<g>
					<path class="st92" d="M320.7,131.4h-5.6c-0.4,0-0.8-0.3-0.8-0.8c0-0.4,0.3-0.8,0.8-0.8h5.6c0.4,0,0.8,0.3,0.8,0.8
						C321.5,131,321.1,131.4,320.7,131.4z"/>
				</g>
				<g>
					<path class="st93" d="M373.7,136.4h-58.5c-0.4,0-0.8-0.3-0.8-0.8c0-0.4,0.3-0.8,0.8-0.8h58.5c0.4,0,0.8,0.3,0.8,0.8
						C374.4,136,374.1,136.4,373.7,136.4z"/>
				</g>
				<g>
					<path class="st92" d="M308.7,131.4h-2c-0.4,0-0.8-0.3-0.8-0.8c0-0.4,0.3-0.8,0.8-0.8h2c0.4,0,0.8,0.3,0.8,0.8
						C309.5,131,309.1,131.4,308.7,131.4z"/>
				</g>
				<g>
					<path class="st92" d="M308.7,136.4h-2c-0.4,0-0.8-0.3-0.8-0.8c0-0.4,0.3-0.8,0.8-0.8h2c0.4,0,0.8,0.3,0.8,0.8
						C309.5,136,309.1,136.4,308.7,136.4z"/>
				</g>
				<g>
					<path class="st92" d="M308.7,141.4h-2c-0.4,0-0.8-0.3-0.8-0.8c0-0.4,0.3-0.8,0.8-0.8h2c0.4,0,0.8,0.3,0.8,0.8
						C309.5,141,309.1,141.4,308.7,141.4z"/>
				</g>
				<g>
					<path class="st92" d="M308.7,146.4h-2c-0.4,0-0.8-0.3-0.8-0.8c0-0.4,0.3-0.8,0.8-0.8h2c0.4,0,0.8,0.3,0.8,0.8
						C309.5,146,309.1,146.4,308.7,146.4z"/>
				</g>
				<g>
					<path class="st93" d="M386.2,136.4h-7.3c-0.4,0-0.8-0.3-0.8-0.8c0-0.4,0.3-0.8,0.8-0.8h7.3c0.4,0,0.8,0.3,0.8,0.8
						C386.9,136,386.6,136.4,386.2,136.4z"/>
				</g>
				<g>
					<path class="st93" d="M338.8,141.4H315c-0.4,0-0.8-0.3-0.8-0.8c0-0.4,0.3-0.8,0.8-0.8h23.8c0.4,0,0.8,0.3,0.8,0.8
						C339.5,141,339.2,141.4,338.8,141.4z"/>
				</g>
				<g>
					<path class="st94" d="M375.4,156.7h-27.2c-0.4,0-0.8-0.3-0.8-0.8c0-0.4,0.3-0.8,0.8-0.8h27.2c0.4,0,0.8,0.3,0.8,0.8
						C376.2,156.4,375.8,156.7,375.4,156.7z"/>
				</g>
				<g>
					<path class="st94" d="M375.4,151.6h-19.7c-0.4,0-0.8-0.3-0.8-0.8c0-0.4,0.3-0.8,0.8-0.8h19.7c0.4,0,0.8,0.3,0.8,0.8
						C376.2,151.3,375.8,151.6,375.4,151.6z"/>
				</g>
				<g>
					<path class="st94" d="M375.4,146.4h-7.8c-0.4,0-0.8-0.3-0.8-0.8c0-0.4,0.3-0.8,0.8-0.8h7.8c0.4,0,0.8,0.3,0.8,0.8
						C376.2,146,375.8,146.4,375.4,146.4z"/>
				</g>
			</g>
			<g>
				<path class="st93" d="M335.1,113.2h-28.4c-0.4,0-0.8-0.3-0.8-0.8c0-0.4,0.3-0.8,0.8-0.8h28.4c0.4,0,0.8,0.3,0.8,0.8
					C335.9,112.8,335.6,113.2,335.1,113.2z"/>
			</g>
			<g>
				<path class="st94" d="M353.6,168.9h-46.9c-0.4,0-0.8-0.3-0.8-0.8c0-0.4,0.3-0.8,0.8-0.8h46.9c0.4,0,0.8,0.3,0.8,0.8
					C354.4,168.5,354,168.9,353.6,168.9z"/>
			</g>
			<g>
				<path class="st94" d="M353.6,175h-46.9c-0.4,0-0.8-0.3-0.8-0.8c0-0.4,0.3-0.8,0.8-0.8h46.9c0.4,0,0.8,0.3,0.8,0.8
					S354,175,353.6,175z"/>
			</g>
			<g>
				<path class="st94" d="M353.6,181.2h-46.9c-0.4,0-0.8-0.3-0.8-0.8s0.3-0.8,0.8-0.8h46.9c0.4,0,0.8,0.3,0.8,0.8
					S354,181.2,353.6,181.2z"/>
			</g>
			<g>
				<path class="st94" d="M353.6,218h-46.9c-0.4,0-0.8-0.3-0.8-0.8s0.3-0.8,0.8-0.8h46.9c0.4,0,0.8,0.3,0.8,0.8S354,218,353.6,218z"
					/>
			</g>
			<g>
				<path class="st86" d="M363.6,161.7h-12.8c-0.4,0-0.8-0.3-0.8-0.8c0-0.4,0.3-0.8,0.8-0.8h12.8c0.4,0,0.8,0.3,0.8,0.8
					S364,161.7,363.6,161.7z"/>
			</g>
			<g>
				<path class="st86" d="M387.6,161.7h-17.7c-0.4,0-0.8-0.3-0.8-0.8c0-0.4,0.3-0.8,0.8-0.8h17.7c0.4,0,0.8,0.3,0.8,0.8
					C388.3,161.4,388,161.7,387.6,161.7z"/>
			</g>
			<g>
				<path class="st86" d="M387.6,168.9h-17.7c-0.4,0-0.8-0.3-0.8-0.8c0-0.4,0.3-0.8,0.8-0.8h17.7c0.4,0,0.8,0.3,0.8,0.8
					C388.3,168.5,388,168.9,387.6,168.9z"/>
			</g>
			<g>
				<path class="st86" d="M312.5,227.3h-5.8c-0.4,0-0.8-0.3-0.8-0.8s0.3-0.8,0.8-0.8h5.8c0.4,0,0.8,0.3,0.8,0.8
					S312.9,227.3,312.5,227.3z"/>
			</g>
			<g>
				<path class="st86" d="M312.5,232h-5.8c-0.4,0-0.8-0.3-0.8-0.8s0.3-0.8,0.8-0.8h5.8c0.4,0,0.8,0.3,0.8,0.8S312.9,232,312.5,232z"
					/>
			</g>
			<g>
				<path class="st86" d="M359.5,232H316c-0.4,0-0.8-0.3-0.8-0.8s0.3-0.8,0.8-0.8h43.5c0.4,0,0.8,0.3,0.8,0.8S359.9,232,359.5,232z"
					/>
			</g>
			<g>
				<path class="st86" d="M323.8,227.3H318c-0.4,0-0.8-0.3-0.8-0.8s0.3-0.8,0.8-0.8h5.8c0.4,0,0.8,0.3,0.8,0.8
					S324.2,227.3,323.8,227.3z"/>
			</g>
			<g>
				<path class="st86" d="M335.1,227.3h-5.8c-0.4,0-0.8-0.3-0.8-0.8s0.3-0.8,0.8-0.8h5.8c0.4,0,0.8,0.3,0.8,0.8
					S335.6,227.3,335.1,227.3z"/>
			</g>
			<g>
				<path class="st86" d="M346.5,227.3h-5.8c-0.4,0-0.8-0.3-0.8-0.8s0.3-0.8,0.8-0.8h5.8c0.4,0,0.8,0.3,0.8,0.8
					S346.9,227.3,346.5,227.3z"/>
			</g>
			<g>
				<path class="st86" d="M357.8,227.3H352c-0.4,0-0.8-0.3-0.8-0.8s0.3-0.8,0.8-0.8h5.8c0.4,0,0.8,0.3,0.8,0.8
					S358.2,227.3,357.8,227.3z"/>
			</g>
			<g>
				<path class="st86" d="M369.1,227.3h-5.8c-0.4,0-0.8-0.3-0.8-0.8s0.3-0.8,0.8-0.8h5.8c0.4,0,0.8,0.3,0.8,0.8
					S369.5,227.3,369.1,227.3z"/>
			</g>
			<g>
				<path class="st86" d="M378.1,227.3h-3.5c-0.4,0-0.8-0.3-0.8-0.8s0.3-0.8,0.8-0.8h3.5c0.4,0,0.8,0.3,0.8,0.8
					S378.6,227.3,378.1,227.3z"/>
			</g>
		</g>
		<g>
			<g>
				<path class="st69" d="M433.9,111.6h-72c-1.7,0-3.2-1.4-3.2-3.2V42.9c0-1.7,1.4-3.2,3.2-3.2h72c1.7,0,3.2,1.4,3.2,3.2v65.5
					C437.1,110.2,435.7,111.6,433.9,111.6z"/>
				<path class="st71" d="M434.1,39.1h-72.3c-1.7,0-3,1.3-3,3v0.6c0-1.7,1.3-3,3-3h72.3c1.7,0,3,1.3,3,3v-0.6
					C437.1,40.5,435.7,39.1,434.1,39.1z"/>
				<path class="st71" d="M434.1,39.8h-72.3c-1.7,0-3,1.3-3,3v8h78.3v-8C437.1,41.1,435.7,39.8,434.1,39.8z"/>
				<path class="st72" d="M434.1,39.8h-72.3c-1.7,0-3,1.3-3,3v0.1c0-1.7,1.3-3,3-3L434.1,39.8c1.7,0.1,3,1.4,3,3.1v-0.1
					C437.1,41.1,435.7,39.8,434.1,39.8z"/>
				<rect x="358.7" y="50.4" class="st72" width="78.3" height="0.4"/>
				
					<linearGradient id="SVGID_7_" gradientUnits="userSpaceOnUse" x1="363" y1="339.6915" x2="433" y2="339.6915" gradientTransform="matrix(1 0 0 -1 0 420.783)">
					<stop  offset="0" style="stop-color:#190849"/>
					<stop  offset="1" style="stop-color:#300877"/>
				</linearGradient>
				<path class="st95" d="M430.6,108h-65.2c-1.3,0-2.4-1.1-2.4-2.4v-49c0-1.3,1.1-2.4,2.4-2.4h65.2c1.3,0,2.4,1.1,2.4,2.4v49
					C433,106.9,432,108,430.6,108z"/>
				<circle class="st74" cx="364.7" cy="45.3" r="3"/>
				<path class="st72" d="M364.7,48.2c-1.6,0-2.9-1.3-3-2.9c0,0,0,0,0,0.1c0,1.6,1.3,3,3,3c1.6,0,3-1.3,3-3c0,0,0,0,0-0.1
					C367.6,46.9,366.3,48.2,364.7,48.2z"/>
				<circle class="st71" cx="364.7" cy="45.3" r="2.3"/>
				<circle class="st75" cx="364.7" cy="45.3" r="1.9"/>
				<path class="st76" d="M364.7,43.5c1,0,1.9,0.8,1.9,1.9l0,0C366.5,44.3,365.7,43.4,364.7,43.5c-1-0.1-1.9,0.8-1.9,1.8l0,0
					C362.8,44.3,363.6,43.5,364.7,43.5z"/>
				<circle class="st77" cx="364.7" cy="45.3" r="1.1"/>
				<path class="st76" d="M364.7,44.2c0.6,0,1.1,0.5,1.1,1.1l0,0C365.8,44.7,365.3,44.2,364.7,44.2c-0.6-0.1-1.1,0.5-1.1,1.1l0,0
					C363.5,44.7,364,44.2,364.7,44.2z"/>
				<circle class="st74" cx="373.3" cy="45.3" r="3"/>
				<path class="st72" d="M373.3,48.2c-1.6,0-2.9-1.3-3-2.9c0,0,0,0,0,0.1c0,1.6,1.3,3,3,3s3-1.3,3-3c0,0,0,0,0-0.1
					C376.2,46.9,374.9,48.2,373.3,48.2z"/>
				<circle class="st71" cx="373.3" cy="45.3" r="2.3"/>
				<circle class="st78" cx="373.3" cy="45.3" r="1.9"/>
				<path class="st79" d="M373.3,43.5c1,0,1.9,0.8,1.9,1.9l0,0C375.2,44.3,374.3,43.4,373.3,43.5c-1-0.1-1.9,0.8-1.9,1.8l0,0
					C371.4,44.3,372.3,43.5,373.3,43.5z"/>
				<circle class="st80" cx="373.3" cy="45.3" r="1.1"/>
				<path class="st81" d="M373.3,44.2c0.6,0,1.1,0.5,1.1,1.1l0,0C374.4,44.7,373.9,44.2,373.3,44.2c-0.6-0.1-1.1,0.5-1.1,1.1l0,0
					C372.2,44.7,372.7,44.2,373.3,44.2z"/>
				<circle class="st74" cx="381.9" cy="45.3" r="3"/>
				<path class="st72" d="M381.9,48.2c-1.6,0-2.9-1.3-3-2.9c0,0,0,0,0,0.1c0,1.6,1.3,3,3,3c1.6,0,3-1.3,3-3c0,0,0,0,0-0.1
					C384.9,46.9,383.6,48.2,381.9,48.2z"/>
				<circle class="st71" cx="381.9" cy="45.3" r="2.3"/>
				<circle class="st82" cx="381.9" cy="45.3" r="1.9"/>
				<path class="st83" d="M381.9,43.5c1,0,1.9,0.8,1.9,1.9l0,0C383.8,44.3,383,43.4,381.9,43.5c-1-0.1-1.9,0.8-1.9,1.8l0,0
					C380.1,44.3,380.9,43.5,381.9,43.5z"/>
				<circle class="st84" cx="381.9" cy="45.3" r="1.1"/>
				<path class="st83" d="M381.9,44.2c0.6,0,1.1,0.5,1.1,1.1l0,0C383.1,44.7,382.6,44.2,381.9,44.2c-0.6-0.1-1.1,0.5-1.1,1.1l0,0
					C380.8,44.7,381.3,44.2,381.9,44.2z"/>
				<g>
					<path class="st86" d="M415.5,67.5H367c-0.3,0-0.6-0.3-0.6-0.6c0-0.3,0.3-0.6,0.6-0.6h48.6c0.3,0,0.6,0.3,0.6,0.6
						C416.1,67.2,415.9,67.5,415.5,67.5z"/>
				</g>
				<g>
					<path class="st86" d="M423.4,67.5h-3.6c-0.3,0-0.6-0.3-0.6-0.6c0-0.3,0.3-0.6,0.6-0.6h3.6c0.3,0,0.6,0.3,0.6,0.6
						C424,67.2,423.7,67.5,423.4,67.5z"/>
				</g>
				<g>
					<path class="st86" d="M429.1,67.5h-2.7c-0.3,0-0.6-0.3-0.6-0.6c0-0.3,0.3-0.6,0.6-0.6h2.7c0.3,0,0.6,0.3,0.6,0.6
						C429.7,67.2,429.4,67.5,429.1,67.5z"/>
				</g>
				<g>
					<path class="st92" d="M394.2,73H367c-0.3,0-0.6-0.3-0.6-0.6s0.3-0.6,0.6-0.6h27.3c0.3,0,0.6,0.3,0.6,0.6S394.6,73,394.2,73z"/>
				</g>
				<g>
					<path class="st92" d="M403.7,73h-7.8c-0.3,0-0.6-0.3-0.6-0.6s0.3-0.6,0.6-0.6h7.8c0.3,0,0.6,0.3,0.6,0.6S404.1,73,403.7,73z"/>
				</g>
				<g>
					<path class="st92" d="M403.7,76.2h-4.9c-0.3,0-0.6-0.3-0.6-0.6s0.3-0.6,0.6-0.6h4.9c0.3,0,0.6,0.3,0.6,0.6
						S404.1,76.2,403.7,76.2z"/>
				</g>
				<g>
					<path class="st92" d="M396.5,76.2h-0.6c-0.3,0-0.6-0.3-0.6-0.6s0.3-0.6,0.6-0.6h0.6c0.3,0,0.6,0.3,0.6,0.6
						S396.8,76.2,396.5,76.2z"/>
				</g>
				<g>
					<path class="st92" d="M393.1,76.2h-4.3c-0.3,0-0.6-0.3-0.6-0.6s0.3-0.6,0.6-0.6h4.3c0.3,0,0.6,0.3,0.6,0.6
						S393.4,76.2,393.1,76.2z"/>
				</g>
				<g>
					<path class="st92" d="M385.4,76.2h-4.3c-0.3,0-0.6-0.3-0.6-0.6s0.3-0.6,0.6-0.6h4.3c0.3,0,0.6,0.3,0.6,0.6
						S385.7,76.2,385.4,76.2z"/>
				</g>
				<g>
					<path class="st92" d="M377.7,76.2h-4.3c-0.3,0-0.6-0.3-0.6-0.6s0.3-0.6,0.6-0.6h4.3c0.3,0,0.6,0.3,0.6,0.6
						S378.1,76.2,377.7,76.2z"/>
				</g>
				<g>
					<path class="st93" d="M418.4,80h-45c-0.3,0-0.6-0.3-0.6-0.6s0.3-0.6,0.6-0.6h45c0.3,0,0.6,0.3,0.6,0.6S418.8,80,418.4,80z"/>
				</g>
				<g>
					<path class="st92" d="M368.5,76.2H367c-0.3,0-0.6-0.3-0.6-0.6s0.3-0.6,0.6-0.6h1.5c0.3,0,0.6,0.3,0.6,0.6
						S368.8,76.2,368.5,76.2z"/>
				</g>
				<g>
					<path class="st92" d="M368.5,80H367c-0.3,0-0.6-0.3-0.6-0.6s0.3-0.6,0.6-0.6h1.5c0.3,0,0.6,0.3,0.6,0.6S368.8,80,368.5,80z"/>
				</g>
				<g>
					<path class="st92" d="M368.5,83.8H367c-0.3,0-0.6-0.3-0.6-0.6s0.3-0.6,0.6-0.6h1.5c0.3,0,0.6,0.3,0.6,0.6
						S368.8,83.8,368.5,83.8z"/>
				</g>
				<g>
					<path class="st93" d="M428,80h-5.6c-0.3,0-0.6-0.3-0.6-0.6s0.3-0.6,0.6-0.6h5.6c0.3,0,0.6,0.3,0.6,0.6S428.4,80,428,80z"/>
				</g>
				<g>
					<path class="st93" d="M391.6,83.8h-18.3c-0.3,0-0.6-0.3-0.6-0.6s0.3-0.6,0.6-0.6h18.3c0.3,0,0.6,0.3,0.6,0.6
						S391.9,83.8,391.6,83.8z"/>
				</g>
				<g>
					<path class="st94" d="M419.8,88.9h-20.9c-0.3,0-0.6-0.3-0.6-0.6s0.3-0.6,0.6-0.6h20.9c0.3,0,0.6,0.3,0.6,0.6
						S420.1,88.9,419.8,88.9z"/>
				</g>
				<g>
					<path class="st94" d="M419.8,86.2h-6c-0.3,0-0.6-0.3-0.6-0.6s0.3-0.6,0.6-0.6h6c0.3,0,0.6,0.3,0.6,0.6S420.1,86.2,419.8,86.2z"
						/>
				</g>
			</g>
			<g>
				<path class="st93" d="M388.8,62.2H367c-0.3,0-0.6-0.3-0.6-0.6s0.3-0.6,0.6-0.6h21.9c0.3,0,0.6,0.3,0.6,0.6
					S389.1,62.2,388.8,62.2z"/>
			</g>
			<g>
				<path class="st94" d="M403,99.6h-36c-0.3,0-0.6-0.3-0.6-0.6s0.3-0.6,0.6-0.6h36c0.3,0,0.6,0.3,0.6,0.6S403.3,99.6,403,99.6z"/>
			</g>
			<g>
				<path class="st86" d="M410.7,92.7h-9.8c-0.3,0-0.6-0.3-0.6-0.6s0.3-0.6,0.6-0.6h9.8c0.3,0,0.6,0.3,0.6,0.6S411,92.7,410.7,92.7z
					"/>
			</g>
			<g>
				<path class="st86" d="M429.1,92.7h-13.6c-0.3,0-0.6-0.3-0.6-0.6s0.3-0.6,0.6-0.6h13.6c0.3,0,0.6,0.3,0.6,0.6
					S429.4,92.7,429.1,92.7z"/>
			</g>
			<g>
				<path class="st86" d="M429.1,98.2h-13.6c-0.3,0-0.6-0.3-0.6-0.6s0.3-0.6,0.6-0.6h13.6c0.3,0,0.6,0.3,0.6,0.6
					S429.4,98.2,429.1,98.2z"/>
			</g>
			<g>
				<path class="st86" d="M371.4,103.4H367c-0.3,0-0.6-0.3-0.6-0.6s0.3-0.6,0.6-0.6h4.4c0.3,0,0.6,0.3,0.6,0.6
					S371.7,103.4,371.4,103.4z"/>
			</g>
			<g>
				<path class="st86" d="M407.5,103.4h-33.4c-0.3,0-0.6-0.3-0.6-0.6s0.3-0.6,0.6-0.6h33.4c0.3,0,0.6,0.3,0.6,0.6
					S407.8,103.4,407.5,103.4z"/>
			</g>
		</g>
	</g>
</g>
</svg>
