<?xml version="1.0" encoding="utf-8"?>
<!-- Generator: Adobe Illustrator 24.0.0, SVG Export Plug-In . SVG Version: 6.00 Build 0)  -->
<svg version="1.1" id="Layer_4" xmlns="http://www.w3.org/2000/svg" xmlns:xlink="http://www.w3.org/1999/xlink" x="0px" y="0px"
	 viewBox="0 0 318.5 332.3" style="enable-background:new 0 0 318.5 332.3;" xml:space="preserve">
<style type="text/css">
	.st0{opacity:0.2;enable-background:new    ;}
	.st1{fill:#FFFFFF;}
	.st2{fill:#F0D19E;}
	.st3{fill:#FFE0AE;}
	.st4{fill:#435C75;}
	.st5{fill:#35495D;}
	.st6{fill:#EDEDED;}
	.st7{fill:#432918;}
	.st8{fill:#3C3C3B;}
	.st9{opacity:0.1;fill:#1D1D1B;enable-background:new    ;}
	.st10{fill:#454444;}
	.st11{fill:#9B9B9B;}
	.st12{fill:#E8E8E8;}
	.st13{fill:#4ADBE8;}
	.st14{opacity:0.4;fill:#FFFFFF;enable-background:new    ;}
	.st15{fill:#273B4F;}
	.st16{fill:#FD634A;}
	.st17{opacity:0.4;fill:#383838;enable-background:new    ;}
	.st18{fill:#FFD899;}
	.st19{fill:#BB9B66;}
	.st20{fill:#FF1212;}
	.st21{fill:#011A34;}
	.st22{opacity:0.1;enable-background:new    ;}
	.st23{fill:#B2B2B2;}
	.st24{fill:#FCCC51;}
	.st25{fill:#C9A341;}
	.st26{opacity:0.5;fill:#FFFFFF;enable-background:new    ;}
	.st27{opacity:0.5;fill:#383838;enable-background:new    ;}
	.st28{fill:#FF1F1F;}
	.st29{fill:#C81111;}
	.st30{fill:#D3D3D3;}
	.st31{fill:#F0F0F0;}
	.st32{fill:#7DACDB;}
	.st33{fill:#FF4242;}
	.st34{fill:#FA5539;}
	.st35{opacity:0.35;fill:#FFFFFF;enable-background:new    ;}
	.st36{fill:#BF3B25;}
	.st37{fill:#EAEAEA;}
	.st38{fill:#717171;}
	.st39{fill:#A4A4A4;}
	.st40{opacity:0.4;}
	.st41{opacity:0.8;}
	.st42{opacity:0.4;enable-background:new    ;}
	.st43{opacity:0.4;fill:#9B9B9B;enable-background:new    ;}
	.st44{fill:#FF0E00;}
	.st45{fill:url(#path87_1_);}
	.st46{fill:url(#path89_1_);}
</style>
<g>
	<path class="st0" d="M249.1,118.5c0-0.2,0-0.5,0-0.7c0-0.1,0-0.2,0-0.4c0-0.2-0.1-0.5-0.1-0.7c0-0.1,0-0.2-0.1-0.3
		c-0.1-0.3-0.1-0.5-0.2-0.8c0-0.1,0-0.2-0.1-0.3c-0.1-0.3-0.2-0.6-0.3-0.8c0-0.1,0-0.1-0.1-0.2c-0.1-0.3-0.3-0.7-0.4-1l0,0
		c-1-2.1-2.7-4-4.8-5.3l-15.7-11.5l0,0l-3.1-5.8l2.4-9.8c1.6-1.2,3.4-2.9,5.6-4.9c2.1-2,4-5.9,5.6-10.3c0.1,0.3,0.2,0.6,0.5,0.7
		c1,0.4,2.6-0.8,3.8-2.9c0.6-0.1,1.2-0.7,1.7-1.5c0.5-1,0.4-2,0-2.4c0.5-2.1,0.3-3.9-0.6-4.4c-0.2-0.2-0.3-0.4-0.6-0.5
		c0,0,0,0-0.1,0v-0.1c1.4-4.9,4-10.9,4.2-16.1c0.1-3.3-1.3-7.4-3.5-9.8c-2.1-2.3-4.2-3.2-7-4.4c-2.5-1-4.8-1.8-7.6-2.5
		c-2.8-0.7-5.2-1.1-7.9-1.3c-3-0.2-5.3-0.4-8.2,0.7c-3.1,1.2-6.2,4.1-7.6,7.1c-2.2,4.6-2.7,11.2-3.7,16.2v0.1c0,0-0.6,0.1-0.9,0.2
		c-1,0-2,1.5-2.5,3.6c-0.6,0.2-1.1,1.1-1.1,2.2c0,1,0.3,1.8,0.8,2.1c0.2,2.2,0.8,3.9,1.8,4.2c0,1.4,0,3.5,0.6,5.9
		c0,2.2,0.2,4.1,0.7,5.5c1,2.9,1.9,5.1,2.7,7l-2.4,9.8l-5.4,3.7l0,0l-19.3,3c-2.5,0.2-4.8,1.1-6.7,2.5l0,0c-0.3,0.2-0.6,0.4-0.8,0.7
		l-0.1,0.1c-0.2,0.2-0.4,0.4-0.7,0.6c-0.1,0.1-0.1,0.1-0.2,0.2c-0.2,0.2-0.4,0.4-0.5,0.6c-0.1,0.1-0.1,0.2-0.2,0.2
		c-0.2,0.2-0.3,0.4-0.5,0.6c-0.1,0.1-0.1,0.2-0.2,0.3c-0.1,0.2-0.3,0.4-0.4,0.6c-0.1,0.1-0.1,0.2-0.2,0.3c-0.1,0.2-0.2,0.4-0.3,0.7
		c0,0.1-0.1,0.2-0.2,0.3c-0.1,0.2-0.2,0.5-0.3,0.7c0,0.1-0.1,0.2-0.1,0.3c-0.1,0.3-0.2,0.7-0.3,1.1l-2.7,11.1l38,9.2l6.1,1.5
		l39.8,9.7l2.7-11.1c0.1-0.4,0.2-0.7,0.2-1.1c0-0.1,0-0.2,0-0.3c0-0.3,0.1-0.5,0.1-0.8c0-0.1,0-0.3,0-0.4c0-0.2,0-0.5,0-0.7
		C249.1,118.8,249.1,118.6,249.1,118.5z"/>
	<g>
		<path class="st1" d="M160.3,110.4l2.7-11.1c1.3-5.4,6-9.4,11.6-9.8l19.3-3l0,0l6.8,12.4l7.9-6.1c0.1,0.1,0.3,0.2,0.4,0.3
			c0.2,0,0.3,0,0.5-0.1l4.2,9l11.7-7.8l0,0l15.7,11.5c4.8,3,7.1,8.6,5.7,14.1l-2.7,11.1L160.3,110.4z"/>
		<path class="st2" d="M202,71.9l-2.6,10.7l-0.3,1.2c-0.6,2.3,4.6,5.5,9.5,8.8c0.1,0.1,0.3,0.2,0.4,0.3c0.2,0,0.3,0,0.5-0.1
			c5.9-0.6,12-1.1,12.5-3.4l0.3-1.2l2.6-10.7L202,71.9z"/>
		<path class="st3" d="M211.9,81c-0.3-0.1-0.5-0.1-0.8-0.2c-0.1,0-0.2,0-0.3-0.1c-0.1,0-0.2,0-0.3-0.1c-6.1-1.5-7.6-3.9-11.6-14.9
			c-1-2.7-0.9-7.1-0.2-11.7c-1.6-0.1-2.7-2.8-2.5-6.1s1.6-5.9,3.2-5.9c0,0,0,0,0.1,0c0.5,0,1,0.4,1.3,0.9c0.3,1.8,0.3,3.7-0.1,5.6
			c0.6,0.1,0.3-0.3,0.6-0.4c2.7-28.1,14.2-23.4,20.5-22c0.1,0,3,0.9,3.1,0.9c0.1,0.1,3.1,0.6,3.2,0.7c6.2,1.6,18.6,2.7,8.1,28.9
			c0.2,0.2-0.3,0.5,0.3,0.6c0.6-1.8,1.4-3.5,2.5-5c0.6-0.3,1.1-0.3,1.6-0.1c0,0,0,0,0.1,0c1.4,0.7,1.5,3.7,0.2,6.7s-3.6,4.9-5,4.3
			c-1.6,4.4-3.5,8.4-5.6,10.3c-8.6,7.9-11,9.4-17.1,7.9c-0.1,0-0.2,0-0.3-0.1c-0.1,0-0.2,0-0.3-0.1C212.4,81.2,212.2,81.1,211.9,81z
			"/>
		<polygon class="st4" points="198.3,119.6 205.1,99.8 209.3,100.8 206.2,121.5 		"/>
		<path class="st5" d="M207.1,100.8c-0.1,0-0.1,0-0.2,0c-0.4-0.1-1.2-0.5-1.6-0.7c-0.6-0.3-0.6-0.7-0.5-1.5l0.6-6.5l7.3,1.8
			l-2.4,6.1c-0.3,0.7-0.5,1.1-1.1,1.1c-0.5,0-1.3,0-1.8-0.1C207.2,100.8,207.2,100.8,207.1,100.8z"/>
		<path class="st6" d="M209,92.9l-8.3,5.8l-6.8-12.4l5.4-3.7l-0.3,1.2C198.5,86.2,204,89.7,209,92.9z"/>
		<path class="st6" d="M209,92.9l4.7,8.9l11.7-7.8l-3.1-5.8l-0.3,1.2C221.5,91.8,214.9,92.3,209,92.9z"/>
		<path class="st7" d="M226.9,19.4c-2.8-0.7-5.2-1.1-7.9-1.3c-3-0.2-5.3-0.4-8.2,0.7c-3.1,1.2-6.2,4.1-7.6,7.1
			c-2.2,4.6-2.7,11.2-3.7,16.2v0.1c2,0.2,1.6,4.6,1.3,6.4c0.3,0.1,0.5,0.2,0.8,0.1c2.7-28.1,12-19.7,18.4-16.9
			c7.3,3.2,8.8,3,9.3,3.2c0.4,0.2-1.8-0.6-3.3-2.5c0.2,0,3.6,1,4.1,1.1c0.3,0-1.8-0.7-2.3-1.5c1.1,0.4,3.3,0.5,3.9,0.7
			c5.4,1.3,11.5,5.7,4.1,24.3c0.2,0.2,0.5,0.2,0.8,0.3c0.6-1.8,2.2-5.8,4.1-5.1v-0.1c1.4-4.9,4-10.9,4.2-16.1
			c0.1-3.3-1.3-7.4-3.5-9.8c-2.1-2.3-4.2-3.2-7-4.4C232,20.8,229.7,20,226.9,19.4z"/>
		<path class="st8" d="M197.7,48.2c0,1.2-0.7,2.2-1.4,2.2s-1.3-1.1-1.2-2.3c0-1.2,0.7-2.2,1.4-2.2S197.7,47,197.7,48.2z"/>
		<g>
			<path class="st8" d="M216.3,71.4l-3.9-0.9c-0.9-0.2-1.7,0.2-2.1,1c-11.3-3.5-11.8-13.7-11.6-17.2c0.7-0.8,0.8-2.8,1-5.5
				c0.2-3.4,0.5-6.3-0.9-6.4c-1.4-0.1-2.7,2.6-2.9,5.9c-0.2,3.1,0.6,5.8,1.8,6.2c-0.1,3.9,0.7,14.4,12.4,17.9c0,0.8,0.6,1.6,1.5,1.8
				l3.9,0.9c1,0.3,2.1-0.4,2.3-1.4l0,0C218,72.7,217.3,71.7,216.3,71.4z"/>
			<path class="st8" d="M242,57.1c0.5-2.2,0.3-4-0.6-4.4c-1.3-0.6-2.4,2.2-3.8,5.3c-1.3,3.1-2.4,5.4-1.1,5.9c1,0.4,2.6-0.8,3.8-2.9
				c0.6-0.1,1.2-0.7,1.7-1.5C242.4,58.5,242.4,57.6,242,57.1z"/>
		</g>
		<path class="st9" d="M167.9,91.9c-2.4,1.8-4.1,4.3-4.9,7.3l-2.7,11.1l38,9.2l7.9,1.9l38,9.2l2.7-11.1c0.7-3,0.3-6.1-1-8.8
			C231.1,127.6,172.1,113.2,167.9,91.9z"/>
	</g>
</g>
<g>
	<path class="st0" d="M286.6,320.9c0-0.3-0.1-0.5-0.2-0.8l-28.5-67.3c-1.1-2.6-5.5-4.8-9.8-4.8h-3.5v-2.4h3.3c5.3,0,9.7-4.3,9.7-9.7
		V127.7c0-5.3-4.3-9.7-9.7-9.7H65.7c-5.3,0-9.7,4.3-9.7,9.7v108.2c0,5.3,4.3,9.7,9.7,9.7H69v2.4h-3.5c-4.3,0-8.6,2.1-9.6,4.8
		l-24.8,67.3c0,0.1-0.1,0.3-0.1,0.4l0,0v8l0,0c0.3,2.1,3.7,3.7,8.6,3.7h238.7c4.8,0,8.2-1.6,8.4-3.7l0,0L286.6,320.9L286.6,320.9z"
		/>
	<g>
		<g>
			<rect x="62.7" y="238.3" class="st10" width="175.6" height="7.5"/>
			<path class="st10" d="M280.4,314.8l-3-0.1L251.6,254c-1.1-2.6-5.5-4.8-9.8-4.8H59.2c-4.3,0-8.6,2.1-9.6,4.8l-22.1,60.1l-2.8,0.3
				v8l0,0c0.3,2.1,3.7,3.7,8.6,3.7H272c4.8,0,8.2-1.6,8.4-3.7l0,0V314.8z"/>
			<path class="st11" d="M272,318.8H33.3c-5.6,0-9.4-2.1-8.5-4.8l24.8-67.3c1-2.6,5.3-4.8,9.6-4.8h182.6c4.3,0,8.7,2.1,9.8,4.8
				L280,314C281.3,316.7,277.6,318.8,272,318.8z"/>
			<polygon class="st10" points="149.1,291 134.3,291 131.7,291 117,291 114.3,291 99.7,291.1 97,291.1 82.3,291.1 80.8,297.9 
				166.9,297.8 166.4,291 151.6,291 			"/>
			<polygon class="st10" points="164.4,258.4 58.4,258.5 45.5,297.9 202.3,297.8 196.4,266.5 165,266.6 			"/>
			<polygon class="st10" points="61,250.4 58.8,257.2 71.8,257.2 73.8,250.3 			"/>
			<polygon class="st10" points="118.7,250.3 105.8,250.3 104.8,257.2 118,257.1 			"/>
			<polygon class="st10" points="133.6,250.3 120.8,250.3 120.2,257.1 133.3,257.1 			"/>
			<polygon class="st10" points="166.2,257.1 179.3,257.1 178.5,250.3 165.7,250.3 			"/>
			<polygon class="st10" points="194.7,257.1 193.4,250.2 183.2,250.2 183.2,250.2 150.8,250.3 150.9,257.1 181.6,257.1 
				181.6,257.1 			"/>
			<polygon class="st10" points="58.4,258.5 56.2,265.3 69.7,265.3 71.5,258.5 			"/>
			<polygon class="st10" points="86.9,258.5 73.8,258.5 71.9,265.3 85.4,265.3 			"/>
			<polygon class="st10" points="102.3,258.5 89.3,258.5 87.8,265.3 101.3,265.3 			"/>
			<polygon class="st10" points="117.7,258.5 104.7,258.5 103.5,265.3 117,265.3 			"/>
			<polygon class="st10" points="119.3,265.3 132.9,265.3 133.3,258.4 120,258.4 			"/>
			<polygon class="st10" points="135.2,265.3 148.8,265.3 148.7,258.4 135.5,258.4 			"/>
			<polygon class="st10" points="164.1,258.4 150.9,258.4 151.1,265.3 164.6,265.2 			"/>
			<polygon class="st10" points="180.6,266.5 167,266.6 167.5,273.4 181.4,273.4 			"/>
			<polygon class="st10" points="55.7,266.7 53.5,273.5 67.3,273.5 69.3,266.6 			"/>
			<polygon class="st10" points="71.5,266.6 69.8,273.5 83.7,273.5 85.2,266.6 			"/>
			<polygon class="st10" points="87.4,266.6 86,273.5 99.9,273.5 101,266.6 			"/>
			<polygon class="st10" points="102.3,273.4 116.2,273.4 117,266.6 103.3,266.6 			"/>
			<polygon class="st10" points="118.7,273.4 132.6,273.4 132.9,266.6 119.2,266.6 			"/>
			<polygon class="st10" points="134.9,273.4 148.8,273.4 148.8,266.6 135.2,266.6 			"/>
			<polygon class="st10" points="164.7,266.6 151.1,266.6 151.2,273.4 165.1,273.4 			"/>
			<polygon class="st10" points="199.2,281.5 196.4,266.5 182.9,266.5 184,274.7 167.6,274.7 168.2,281.5 			"/>
			<polygon class="st10" points="53,274.8 50.8,281.6 65,281.6 66.9,274.8 			"/>
			<polygon class="st10" points="69.3,274.8 67.5,281.6 81.8,281.6 83.3,274.8 			"/>
			<polygon class="st10" points="85.8,274.8 84.3,281.6 98.7,281.6 99.8,274.8 			"/>
			<polygon class="st10" points="102.2,274.8 101,281.6 115.3,281.6 116,274.7 			"/>
			<polygon class="st10" points="117.8,281.6 132.2,281.6 132.5,274.7 118.5,274.7 			"/>
			<polygon class="st10" points="148.9,274.7 134.9,274.7 134.6,281.6 148.9,281.6 			"/>
			<polygon class="st10" points="151.3,274.7 151.4,281.6 165.7,281.5 165.2,274.7 			"/>
			<polygon class="st10" points="67.2,282.9 64.8,282.9 50.4,282.9 48,289.8 62.9,289.8 65.3,289.8 80,289.8 81.5,282.9 			"/>
			<polygon class="st10" points="84,282.9 82.5,289.8 97.3,289.7 98.3,282.9 			"/>
			<polygon class="st10" points="100.8,282.9 99.8,289.7 114.5,289.7 115.2,282.9 			"/>
			<polygon class="st10" points="117.7,282.9 117,289.7 131.8,289.7 132.1,282.9 			"/>
			<polygon class="st10" points="134.6,282.9 134.3,289.7 149,289.7 149,282.9 			"/>
			<polygon class="st10" points="151.6,289.7 166.3,289.7 165.8,282.8 151.4,282.9 			"/>
			<polygon class="st10" points="186,289.7 200.8,289.7 199.5,282.8 168.3,282.8 168.8,289.7 183.5,289.7 			"/>
			<polygon class="st10" points="45.5,297.9 60.5,297.9 62.5,291.1 47.7,291.1 			"/>
			<polygon class="st10" points="63.2,297.9 78.3,297.9 79.8,291.1 64.9,291.1 			"/>
			<polygon class="st10" points="169.4,297.8 184.6,297.8 183.7,291 168.9,291 			"/>
			<polygon class="st10" points="187.2,297.8 202.3,297.8 201,291 186.2,291 			"/>
			<polygon class="st10" points="244.1,297.8 259.1,297.8 256.5,291 256.5,291 256,289.6 256,289.6 253.4,282.8 253.4,282.8 
				251.6,278.1 250.3,274.7 250.3,274.7 249.8,273.4 249.8,273.4 247.1,266.5 247.1,266.5 246.6,265.2 246.6,265.2 244,258.4 
				230.8,258.4 230.8,258.4 222,258.4 215.4,258.4 215.4,258.4 213.1,258.4 213.1,258.4 200,258.4 204.3,278.1 205.1,281.5 
				205.1,281.5 205.3,282.9 205.3,282.9 206.8,289.7 206.8,289.7 207.1,291 207.1,291 208.6,297.8 241.5,297.8 241.5,297.8 			"/>
			<path class="st10" d="M241.6,239.5H59.4c-5.3,0-9.7-4.3-9.7-9.7V121.6c0-5.3,4.3-9.7,9.7-9.7h182.3c5.3,0,9.7,4.3,9.7,9.7v108.2
				C251.3,235.2,247,239.5,241.6,239.5z"/>
			<polygon class="st12" points="59,248.4 56.7,255.3 69.8,255.3 71.7,248.4 			"/>
			<polygon class="st12" points="148.6,248.4 148.8,255.2 161.9,255.2 161.4,248.4 			"/>
			<polygon class="st12" points="164.1,255.2 177.2,255.2 176.3,248.3 163.6,248.4 			"/>
			<polygon class="st12" points="179.4,255.2 192.5,255.2 191.3,248.3 178.5,248.3 			"/>
			<polygon class="st12" points="56.3,256.6 54,263.4 67.4,263.4 69.3,256.6 			"/>
			<polygon class="st12" points="84.8,256.6 71.7,256.6 69.8,263.4 83.3,263.4 			"/>
			<polygon class="st12" points="100.3,256.6 87,256.6 85.7,263.4 99.2,263.4 			"/>
			<polygon class="st12" points="115.7,256.5 102.4,256.6 101.4,263.4 115,263.4 			"/>
			<polygon class="st12" points="117.2,263.4 130.8,263.4 131.1,256.5 117.8,256.5 			"/>
			<polygon class="st12" points="133.1,263.4 146.6,263.4 146.5,256.5 133.4,256.5 			"/>
			<polygon class="st12" points="161.9,256.5 148.8,256.5 148.9,263.4 162.4,263.3 			"/>
			<polygon class="st12" points="178.4,264.6 164.8,264.6 165.4,271.5 179.3,271.5 			"/>
			<polygon class="st12" points="201.5,256.5 203,263.3 216.5,263.3 214.7,256.5 			"/>
			<polygon class="st12" points="218.8,263.3 232.3,263.3 230.1,256.4 216.9,256.5 			"/>
			<polygon class="st12" points="245.5,256.4 232.4,256.4 234.6,263.3 248.1,263.3 			"/>
			<polygon class="st12" points="53.5,264.7 51.4,271.6 65.3,271.6 67.2,264.7 			"/>
			<polygon class="st12" points="69.4,264.7 67.5,271.6 81.4,271.6 83,264.7 			"/>
			<polygon class="st12" points="85.3,264.7 83.8,271.6 97.8,271.5 98.9,264.7 			"/>
			<polygon class="st12" points="100.2,271.5 114,271.5 114.7,264.7 101.3,264.7 			"/>
			<polygon class="st12" points="116.5,271.5 130.4,271.5 130.7,264.7 117.2,264.7 			"/>
			<polygon class="st12" points="132.8,271.5 146.7,271.5 146.6,264.7 133.1,264.7 			"/>
			<polygon class="st12" points="162.5,264.6 149,264.7 149.1,271.5 163,271.5 			"/>
			<polygon class="st12" points="197.1,279.6 194.3,264.6 180.7,264.6 181.9,272.8 165.5,272.8 166,279.6 			"/>
			<polygon class="st12" points="203.3,264.6 204.8,271.4 218.7,271.4 216.9,264.6 			"/>
			<polygon class="st12" points="221.1,271.4 235,271.4 232.8,264.6 219.2,264.6 			"/>
			<polygon class="st12" points="248.6,264.6 235.1,264.6 237.4,271.4 251.3,271.4 			"/>
			<polygon class="st12" points="50.9,272.9 48.7,279.7 63,279.7 64.8,272.9 			"/>
			<polygon class="st12" points="67.3,272.9 65.3,279.7 79.8,279.7 81.3,272.9 			"/>
			<polygon class="st12" points="83.7,272.9 82.2,279.7 96.4,279.7 97.5,272.9 			"/>
			<polygon class="st12" points="99.9,272.8 98.9,279.7 113.2,279.7 114,272.8 			"/>
			<polygon class="st12" points="115.7,279.7 130,279.7 130.4,272.8 116.3,272.8 			"/>
			<polygon class="st12" points="146.7,272.8 132.8,272.8 132.5,279.7 146.8,279.6 			"/>
			<polygon class="st12" points="149.1,272.8 149.3,279.6 163.6,279.6 163.1,272.8 			"/>
			<polygon class="st12" points="205.1,272.8 206.6,279.6 220.9,279.6 219.1,272.7 			"/>
			<polygon class="st12" points="223.4,279.6 237.6,279.6 235.4,272.7 221.5,272.7 			"/>
			<polygon class="st12" points="251.8,272.7 237.8,272.7 240.1,279.6 254.4,279.5 			"/>
			<polygon class="st12" points="65,281 62.5,281 48.2,281 46,287.9 60.7,287.9 63.2,287.9 77.9,287.9 79.4,281 			"/>
			<polygon class="st12" points="81.8,281 80.4,287.9 95.2,287.8 96.3,281 			"/>
			<polygon class="st12" points="98.8,281 97.7,287.8 112.3,287.8 113,281 			"/>
			<polygon class="st12" points="115.5,281 115,287.8 129.7,287.8 130,281 			"/>
			<polygon class="st12" points="132.4,281 132.2,287.8 146.9,287.8 146.8,281 			"/>
			<polygon class="st12" points="149.4,287.8 164.1,287.8 163.7,280.9 149.3,281 			"/>
			<polygon class="st12" points="183.9,287.8 198.6,287.7 197.3,280.9 166.1,280.9 166.7,287.8 181.4,287.8 			"/>
			<polygon class="st12" points="206.9,280.9 208.4,287.7 223.1,287.7 221.3,280.9 			"/>
			<polygon class="st12" points="225.6,287.7 240.3,287.7 238.1,280.9 223.7,280.9 			"/>
			<polygon class="st12" points="254.9,280.9 240.6,280.9 242.9,287.7 257.6,287.7 			"/>
			<polygon class="st12" points="43.3,296 58.4,296 60.4,289.2 45.5,289.2 			"/>
			<polygon class="st12" points="61,296 76.2,296 77.7,289.2 62.9,289.2 			"/>
			<polygon class="st12" points="146.9,289.1 132.1,289.1 129.6,289.1 114.7,289.1 112.2,289.1 97.4,289.1 94.9,289.1 80.2,289.2 
				78.7,296 164.7,295.9 164.2,289.1 149.5,289.1 			"/>
			<polygon class="st12" points="167.3,295.9 182.4,295.9 181.5,289.1 166.8,289.1 			"/>
			<polygon class="st12" points="185,295.9 200.1,295.9 198.9,289.1 184.1,289.1 			"/>
			<polygon class="st12" points="223.5,289 208.7,289 210.2,295.9 243,295.9 240.8,289 226,289 			"/>
			<polygon class="st12" points="245.6,295.9 260.6,295.8 258.1,289 243.3,289 			"/>
			<path class="st10" d="M176.9,314.4h-48.8c-1.8,0-3.3-0.7-3.2-1.6l0.7-11.7c0.1-0.9,1.5-1.6,3.3-1.6h46.6c1.8,0,3.2,0.7,3.3,1.6
				l1.3,11.7C180.2,313.7,178.8,314.4,176.9,314.4z"/>
			<path class="st13" d="M243.6,131v92.4c0,4.6-4,8.3-8.9,8.3H66.2c-4.9,0-8.9-3.7-8.9-8.3V131c0-4.6,4-8.3,8.9-8.3h168.5
				C239.6,122.8,243.6,126.5,243.6,131z"/>
			<path class="st12" d="M153.8,117c0,1.8-1.5,3.3-3.3,3.3s-3.3-1.5-3.3-3.3s1.5-3.3,3.3-3.3S153.8,115.2,153.8,117z"/>
			<path class="st10" d="M152.8,117c0,1.2-1,2.2-2.2,2.2s-2.2-1-2.2-2.2s1-2.2,2.2-2.2S152.8,115.8,152.8,117z"/>
			<polygon class="st10" points="132.5,250.3 101,250.3 101,250.3 90.9,250.3 89.4,257.2 102.5,257.2 102.5,257.1 132.5,257.1 			
				"/>
			<polygon class="st12" points="88.8,248.4 87.3,255.3 100.4,255.3 101.5,248.4 			"/>
			<polygon class="st12" points="116.5,248.4 103.7,248.4 102.7,255.3 115.7,255.2 			"/>
			<polygon class="st12" points="131.5,248.4 118.7,248.4 118,255.2 131.2,255.2 			"/>
		</g>
	</g>
	<path class="st0" d="M280.1,314l-16.8-39.8c-31.9,15.2-69.9,24.1-110.8,24.1c-41.7,0-80.5-9.2-112.7-25l-15,40.7
		c0,0.1-0.1,0.3-0.1,0.4l0,0v8l0,0c0.3,2.1,3.7,3.7,8.6,3.7h238.7c4.8,0,8.2-1.6,8.4-3.7l0,0v-7.6l0,0
		C280.4,314.6,280.3,314.3,280.1,314z"/>
	<path class="st14" d="M243.6,131v7.4l-172,93.3h-5.5c-4.9,0-8.9-3.7-8.9-8.3v-6.7l173.3-94h4.2C239.6,122.8,243.6,126.5,243.6,131z
		"/>
	<polygon class="st14" points="223.3,122.8 57.3,212.8 57.3,200.3 200.2,122.8 	"/>
	<g>
		<polygon class="st0" points="192.1,140.9 185.3,140.9 178.4,140.9 171.6,140.9 164.7,140.9 157.9,140.9 151,140.9 144.2,140.9 
			137.3,140.9 130.5,140.9 123.5,140.9 116.7,140.9 116.7,147.7 116.7,154.6 116.7,161.4 116.7,168.3 116.7,175.1 116.7,182 
			116.7,188.8 116.7,195.7 116.7,202.5 116.7,209.4 116.7,216.2 116.7,223.1 123.5,223.1 130.5,223.1 198.9,223.1 198.9,216.2 
			198.9,209.4 198.9,202.5 198.9,195.7 198.9,188.8 198.9,182 198.9,175.1 198.9,168.3 198.9,161.4 198.9,154.6 198.9,154.6 
			198.9,147.7 198.9,140.9 		"/>
		<g>
			<rect x="111.3" y="135.9" class="st1" width="82.2" height="82.2"/>
			<polygon class="st15" points="118.2,218.1 118.2,211.2 118.2,204.4 125,204.4 132,204.4 132,197.5 125,197.5 118.2,197.5 
				118.2,190.7 125,190.7 132,190.7 138.8,190.7 138.8,197.5 138.8,204.4 145.7,204.4 145.7,197.5 145.7,190.7 145.7,183.8 
				138.8,183.8 132,183.8 125,183.8 125,177 118.2,177 118.2,170.1 125,170.1 125,163.3 118.2,163.3 118.2,156.4 118.2,149.6 
				118.2,142.7 125,142.7 125,149.6 125,156.4 132,156.4 132,149.6 132,142.7 138.8,142.7 145.7,142.7 152.5,142.7 159.4,142.7 
				166.2,142.7 166.2,149.6 159.4,149.6 152.5,149.6 145.7,149.6 138.8,149.6 138.8,156.4 145.7,156.4 152.5,156.4 159.4,156.4 
				166.2,156.4 166.2,163.3 166.2,170.1 173.1,170.1 173.1,163.3 173.1,156.4 173.1,149.6 173.1,142.7 179.9,142.7 186.8,142.7 
				193.6,142.7 193.6,135.9 186.8,135.9 179.9,135.9 173.1,135.9 166.2,135.9 159.4,135.9 152.5,135.9 145.7,135.9 138.8,135.9 
				132,135.9 125,135.9 118.2,135.9 111.3,135.9 111.3,142.7 111.3,149.6 111.3,156.4 111.3,163.3 111.3,170.1 111.3,177 
				111.3,183.8 111.3,190.7 111.3,197.5 111.3,204.4 111.3,211.2 111.3,218.1 			"/>
			<polygon class="st15" points="193.6,218.1 193.6,211.2 193.6,204.4 193.6,197.5 193.6,190.7 193.6,183.8 193.6,177 193.6,170.1 
				193.6,163.3 193.6,156.4 193.6,149.6 186.8,149.6 179.9,149.6 179.9,156.4 186.8,156.4 186.8,163.3 179.9,163.3 179.9,170.1 
				186.8,170.1 186.8,177 186.8,183.8 186.8,190.7 186.8,197.5 186.8,204.4 186.8,211.2 179.9,211.2 173.1,211.2 166.2,211.2 
				159.4,211.2 159.4,204.4 159.4,197.5 152.5,197.5 152.5,204.4 152.5,211.2 145.7,211.2 138.8,211.2 132,211.2 125,211.2 
				125,218.1 			"/>
			<polygon class="st15" points="138.8,163.3 132,163.3 132,170.1 132,177 138.8,177 145.7,177 145.7,170.1 145.7,163.3 			"/>
			<polygon class="st15" points="179.9,183.8 179.9,177 173.1,177 166.2,177 166.2,183.8 173.1,183.8 			"/>
			<polygon class="st15" points="159.4,183.8 159.4,177 159.4,170.1 159.4,163.3 152.5,163.3 152.5,170.1 152.5,177 152.5,183.8 
				152.5,190.7 159.4,190.7 			"/>
			<polygon class="st15" points="166.2,197.5 166.2,204.4 173.1,204.4 179.9,204.4 179.9,197.5 179.9,190.7 173.1,190.7 
				166.2,190.7 			"/>
			<polygon class="st16" points="125,218.1 125,211.2 132,211.2 138.8,211.2 145.7,211.2 152.5,211.2 152.5,204.4 152.5,197.5 
				159.4,197.5 159.4,197.5 166.2,197.5 166.2,192.5 166.2,190.7 166.2,182.2 166.2,177 173.1,177 175.4,177 179.9,177 179.9,170.1 
				179.9,170.1 179.9,163.3 179.9,156.4 179.9,156.4 179.9,149.6 186.8,149.6 193.6,149.6 193.6,142.7 186.8,142.7 179.9,142.7 
				173.1,142.7 173.1,149.6 173.1,156.4 173.1,156.4 173.1,163.3 173.1,170.1 166.2,170.1 163.9,170.1 159.4,170.1 159.4,171.8 
				159.4,177 159.4,182.2 159.4,190.7 152.5,190.7 152.5,190.7 145.7,190.7 145.7,197.5 145.7,204.4 138.8,204.4 132,204.4 
				125,204.4 118.2,204.4 118.2,209.1 118.2,211.2 118.2,218.1 			"/>
		</g>
	</g>
</g>
<g>
	<path class="st17" d="M56.4,131.8c0-0.1,0-0.1-0.1-0.2c-0.1-0.1-0.1-0.3-0.2-0.4c0-0.1-0.1-0.1-0.1-0.2c-0.1-0.1-0.1-0.3-0.2-0.4
		l-0.1-0.1c-0.1-0.2-0.2-0.3-0.4-0.5c0,0,0,0-0.1-0.1s-0.2-0.3-0.4-0.4l-0.1-0.1c-0.1-0.1-0.2-0.2-0.4-0.3c-0.1,0-0.1-0.1-0.2-0.1
		c-0.1-0.1-0.3-0.2-0.4-0.3c0,0-0.1,0-0.1-0.1c-0.2-0.1-0.4-0.2-0.6-0.3c-0.1,0-0.1,0-0.2-0.1c-0.2-0.1-0.3-0.1-0.5-0.2
		c-0.1,0-0.2,0-0.2-0.1c-0.1,0-0.3-0.1-0.5-0.1c-0.1,0-0.2,0-0.3-0.1c-0.2,0-0.3-0.1-0.5-0.1c-0.1,0-0.3,0-0.4-0.1
		c-0.2,0-0.3,0-0.5-0.1c-0.2,0-0.3,0-0.5,0c-0.1,0-0.1,0-0.2,0l0,0c-1-0.1-2.1,0-3.3,0.1l-0.6-3.1l-0.4,0.1l-0.8-4
		c1.3-0.9,2.1-2.4,1.8-3.9l-2.4-12.8c-0.2-0.8-0.9-1.4-1.6-1.2l0,0c-0.6,0.1-1.1,0.7-1,1.5l0,0l-0.5-2.4c-0.2-0.8-0.9-1.4-1.8-1.2
		l0,0c-0.8,0.1-1.3,0.8-1.2,1.6l0,0l-0.1-0.6c-0.2-0.8-0.9-1.4-1.8-1.2l0,0c-0.8,0.2-1.3,1-1.2,1.8l0.1,0.5l0,0
		c-0.3-0.7-1-1.1-1.7-0.9l0,0c-0.8,0.2-1.3,0.9-1.2,1.8l0.9,4.6c-0.2-0.1-0.5-0.1-0.7-0.1l0,0c-0.9,0.2-1.4,1.2-1.2,2.2l1.7,9.1
		c0.3,1.6,1.7,2.8,3.4,3.1l0.7,3.9l-1.1,0.2l0.6,3.1c-1.1,0.3-2.2,0.7-3.1,1.2c-3.5,1.6-5.5,3.9-4.9,7c0.5,2.4,2,3.8,4.3,4.5h0.1
		c0.2,0,0.3,0.1,0.5,0.1c0.1,0,0.1,0,0.2,0c0.2,0,0.3,0.1,0.5,0.1c0.1,0,0.2,0,0.3,0c0.2,0,0.3,0,0.5,0.1c0.1,0,0.2,0,0.3,0
		s0.3,0,0.5,0c0.1,0,0.3,0,0.4,0c0.1,0,0.3,0,0.4,0c0.2,0,0.3,0,0.5,0c0.1,0,0.2,0,0.4,0s0.5,0,0.8,0h0.1l0,0
		c1.8-0.1,3.8-0.3,5.9-0.7l0,0l0,0c0.5-0.1,1-0.2,1.5-0.3h0.1c0.5-0.1,0.9-0.2,1.4-0.3l0,0c1-0.2,1.9-0.5,2.8-0.8l0,0l0,0l0,0l0,0
		h0.1l0,0c0.5-0.2,0.9-0.3,1.3-0.5l0,0l0,0c0.1,0,0.2-0.1,0.3-0.1l0,0l0,0c0.2-0.1,0.3-0.2,0.5-0.2l0,0l0,0c0.1-0.1,0.3-0.1,0.4-0.2
		l0,0l0,0c0.1-0.1,0.3-0.1,0.4-0.2l0,0l0,0c0.3-0.1,0.5-0.3,0.7-0.4l0,0l0,0c0.1-0.1,0.2-0.1,0.3-0.2l0,0l0,0
		c0.2-0.1,0.3-0.2,0.4-0.3l0,0l0,0c0.1-0.1,0.2-0.1,0.3-0.2l0,0l0,0c0.1-0.1,0.3-0.3,0.4-0.4l0,0l0,0c0.1-0.1,0.1-0.1,0.2-0.2l0,0
		l0,0c0.2-0.2,0.4-0.4,0.5-0.6l0,0l0,0c0-0.1,0.1-0.1,0.1-0.2l0,0l0,0c0.1-0.2,0.2-0.3,0.3-0.5l0,0l0,0c0-0.1,0.1-0.1,0.1-0.2l0,0
		l0,0c0.1-0.2,0.2-0.4,0.2-0.6l0,0l0,0c0,0,0,0,0-0.1l0,0l0,0c0.1-0.2,0.1-0.5,0.2-0.7l0,0l0,0c0-0.1,0-0.1,0-0.2l0,0l0,0
		c0-0.2,0-0.4,0-0.6c0-0.1,0-0.2,0-0.2c0-0.3,0-0.6-0.1-0.9C56.5,132.3,56.5,132.1,56.4,131.8z"/>
	<g>
		<g>
			
				<rect x="34.5" y="120.4" transform="matrix(0.9822 -0.1878 0.1878 0.9822 -22.4253 9.4883)" class="st1" width="8.8" height="5.4"/>
			<g>
				<g>
					<path class="st18" d="M34.7,110l2.7-0.5l-1.4-7.4h0.2l-0.1-0.6c-0.2-0.8-0.9-1.4-1.8-1.2l0,0c-0.8,0.2-1.3,1-1.2,1.8l0.1,0.5
						h0.1L34.7,110z"/>
					<path class="st18" d="M37.6,109.4l2.7-0.5l-0.9-4.8h0.1l-0.5-2.4c-0.2-0.8-0.9-1.4-1.8-1.2l0,0c-0.8,0.1-1.3,0.8-1.2,1.6H36
						L37.6,109.4z"/>
					<path class="st18" d="M40.5,102.6L40.5,102.6c-0.7,0.1-1.1,0.7-1.1,1.5h0.1l0.9,4.8l1.2-0.2l0.1,0.3l-2,0.4l-7.4,1.4l0.3,1.5
						l2.5-0.5c1.4-0.3,2.9,1.2,3.3,3.4l0.2,0.9l0.1,0.6l-0.3,0.1l-0.3-1.5c-0.4-2-1.7-3.4-3-3.1l-2.8,0.5l-0.1-0.3l-0.5-2.7
						c-0.1-0.6-0.4-1-0.8-1.2l-0.1-0.4c0.6,0.2,1.1,0.8,1.2,1.5l0.2,0.9l1.9-0.4l-1.4-7.5h0.1c-0.3-0.7-1-1.1-1.7-0.9l0,0
						c-0.8,0.2-1.3,0.9-1.2,1.8l0.9,4.6c-0.2-0.1-0.5-0.1-0.7-0.1l0,0c-0.9,0.2-1.4,1.2-1.2,2.2l1.3,6.6l0.2,1.3l0.2,1.2
						c0.4,2.1,2.7,3.5,5,3.1l3.9-0.8l1.3-0.2c2.4-0.5,4-2.6,3.6-4.7l-1.4-7.4l-0.1-0.5l-0.9-4.9C42,103,41.3,102.4,40.5,102.6z"/>
				</g>
				<path class="st19" d="M40.5,108.8l-0.9-4.8h-0.1l0,0h-0.1l0.9,4.8l-2.7,0.5l-1.4-7.4h-0.1l0,0H36l1.4,7.4l-2.7,0.5l-1.4-7.5
					h-0.1l0,0h-0.1l1.4,7.5l-1.9,0.4l-0.2-0.9c-0.1-0.7-0.6-1.3-1.2-1.5l0.1,0.4c0.4,0.2,0.7,0.7,0.8,1.2l0.5,2.7l0.1,0.3l2.8-0.5
					c1.3-0.2,2.6,1.2,3,3.1l0.3,1.5l0.3-0.1l-0.1-0.6l-0.2-0.9c-0.4-2.1-1.9-3.7-3.3-3.4L33,112l-0.3-1.5l7.4-1.4l2-0.4l-0.1-0.3
					L40.5,108.8z"/>
			</g>
			<path class="st20" d="M36.3,134.4c-1.9-0.1-4.2,1.5-3.7,4.5c0.5,3.3,2.7,3.7,3.6,3.7c-5.1,0.2-9-1-9.7-5c-0.6-3.2,1.4-5.4,4.9-7
				c0.6-0.3,2-0.7,3.3,0l0.6,3.4C35.4,134.2,35.7,134.4,36.3,134.4z"/>
			<path class="st1" d="M44.7,127.5c5.5-0.4,9.7,0.6,10.5,4.7c1,5.4-5.1,8.2-13,9.7c-2.1,0.4-4.1,0.7-5.9,0.7l0,0
				c-0.9,0-3.1-0.5-3.6-3.7c-0.5-3,1.8-4.5,3.7-4.5c0.1,0,0.3,0,0.5,0l0,0c1,0.1,2.4-0.1,3.9-0.4c2.8-0.5,5-1.5,4.9-2.1L44.7,127.5z
				"/>
			<path class="st21" d="M33.9,126.4l0.6,3.1l0.2,1.1l0.6,3.4c0,0.2,0.4,0.4,0.9,0.4c0.2,0,0.3,0,0.5,0l0,0c1,0.1,2.4-0.1,3.9-0.4
				c2.8-0.5,5-1.5,4.9-2.1l-0.9-4.5l-0.6-3.1L33.9,126.4z"/>
			<path class="st21" d="M36.3,134.4c0.2,0,0.3,0,0.5,0C36.6,134.5,36.4,134.5,36.3,134.4z"/>
			<path class="st1" d="M34.5,129.5l0.2,1.1c-1.3-0.6-2.7-0.2-3.3,0C32.3,130.2,33.4,129.8,34.5,129.5z"/>
			<path class="st1" d="M43.9,126.6c0.1,0.3-0.1,0.6-0.5,0.7l0,0c-0.3,0.1-0.6-0.2-0.7-0.5l0,0c-0.1-0.3,0.1-0.6,0.5-0.7l0,0
				C43.5,126.1,43.8,126.3,43.9,126.6L43.9,126.6z"/>
			<path class="st1" d="M44.3,128.6c0.1,0.3-0.1,0.6-0.5,0.7l0,0c-0.3,0.1-0.6-0.2-0.7-0.5l0,0c-0.1-0.3,0.1-0.6,0.5-0.7l0,0
				C43.9,128.1,44.2,128.3,44.3,128.6L44.3,128.6z"/>
			<path class="st1" d="M44.5,130.5c0.1,0.3-0.1,0.6-0.5,0.7l0,0c-0.3,0.1-0.6-0.2-0.7-0.5l0,0c-0.1-0.3,0.1-0.6,0.5-0.7l0,0
				C44.2,129.9,44.5,130.1,44.5,130.5L44.5,130.5z"/>
			<path class="st20" d="M44.8,132.8c1.7-0.8,4.4-0.2,5.1,2.8c0.7,3.2-1.1,4.4-2,4.8c4.9-1.7,8-4.3,7.2-8.2
				c-0.6-3.2-3.3-4.5-7.2-4.7c-0.7,0-2.1,0.1-3.1,1.2l0.6,3.4C45.5,132.3,45.3,132.5,44.8,132.8z"/>
		</g>
		<path class="st22" d="M41.7,139.8c-5.3,1-10.5,0.6-14.9-1c1.2,3.1,4.8,4.1,9.4,3.9l0,0c1.8-0.1,3.8-0.3,5.9-0.7s4.1-0.9,5.8-1.5
			l0,0H48c0.5-0.2,0.9-0.3,1.4-0.5c0.1-0.1,0.3-0.1,0.4-0.2c0.2-0.1,0.4-0.2,0.5-0.2c0.1-0.1,0.3-0.1,0.4-0.2
			c0.2-0.1,0.3-0.2,0.4-0.2c0.3-0.1,0.5-0.3,0.8-0.5c0.1-0.1,0.2-0.1,0.3-0.2c0.2-0.1,0.3-0.2,0.5-0.3c0.1-0.1,0.2-0.1,0.3-0.2
			c0.2-0.1,0.3-0.3,0.5-0.4c0.1-0.1,0.1-0.1,0.2-0.2c0.2-0.2,0.4-0.4,0.5-0.6c0-0.1,0.1-0.1,0.1-0.2c0.1-0.2,0.2-0.3,0.3-0.5
			c0-0.1,0.1-0.1,0.1-0.2c0.1-0.2,0.2-0.4,0.3-0.6v-0.1c0.1-0.2,0.1-0.5,0.2-0.8c0-0.1,0-0.1,0-0.2c0-0.2,0-0.4,0-0.6
			C51.7,136.4,47,138.8,41.7,139.8z"/>
	</g>
</g>
<g>
	<path class="st17" d="M48.5,167L48.5,167c-4.9-8.6-15.7-12.1-24.9-7.9c-9.2,4.2-13.5,14.6-10.3,24l0,0c0.2,0.6,0.4,1.2,0.7,1.7
		c1.9,4.2,5.2,7.4,9.1,9.3c1.3,0.6,2.6,1.1,4,1.5c1.7,0.4,3.1,1.4,4.2,2.7c0.3,0.4,0.6,0.9,0.9,1.5l2.5,5.5c0.2,0.4,0.5,0.8,0.7,1.1
		c0.1,0.1,0.1,0.2,0.2,0.2c0.3,0.3,0.5,0.6,0.8,0.8l0,0c0.3,0.2,0.6,0.4,0.9,0.5c0.1,0,0.1,0.1,0.2,0.1c0.3,0.1,0.6,0.2,0.9,0.3
		l0.8,1.7l-0.1,0.1c-0.1,0-0.1,0.1-0.1,0.2c0,0.1,0,0.2,0,0.4l0,0c0.1,0.2,0.4,0.4,0.6,0.3l0,0l0.3,0.6l-0.1,0.1
		c-0.1,0-0.1,0.1-0.1,0.2c0,0.1,0,0.2,0,0.3l0,0c0.1,0.1,0.1,0.2,0.3,0.3c0.1,0,0.2,0,0.4,0l0,0l0.3,0.6l-0.1,0.1
		c-0.1,0.1-0.1,0.1-0.1,0.2c0,0.1,0,0.2,0,0.4l0,0c0.1,0.2,0.4,0.4,0.6,0.3l0,0l0.3,0.6l-0.1,0.1c-0.1,0.1-0.1,0.1-0.1,0.2
		c0,0.1,0,0.2,0,0.3l0,0c0.1,0.1,0.1,0.2,0.3,0.3c0.1,0,0.2,0.1,0.4,0l0,0l0.3,0.6l-0.1,0.1c-0.1,0.1-0.1,0.1-0.1,0.2
		c0,0.1,0,0.2,0,0.3l0,0c0.1,0.1,0.1,0.2,0.3,0.3c0.1,0,0.2,0.1,0.4,0l0,0c0.1,0.1,0.1,0.2,0.2,0.2s0.1,0,0.2,0.1
		c0.1,0,0.1,0.1,0.2,0.1l0.1,0.2c0.1,0.1,0.2,0.2,0.3,0.3c0,0,0.1,0,0.2,0.1c0.1,0,0.2,0.1,0.3,0.1c0.1,0,0.2,0,0.3,0
		c0.1,0,0.2,0,0.4,0c0.1,0,0.2,0,0.3,0h0.1l1,0.6c0.2,0.1,0.4,0.2,0.5,0.3l0,0c0.2,0.1,0.3,0.1,0.4,0.2c0,0,0,0,0.1,0
		s0.3,0.1,0.4,0.1h0.1c0.1,0,0.3,0,0.4,0l0,0v0.1l0,0c0.1,0.3,0.6,0.4,1.1,0.3c0.6-0.1,1.3-0.3,1.9-0.6c0.7-0.3,1.3-0.7,1.7-1.1
		c0.4-0.4,0.7-0.8,0.5-1l0,0V217l0,0c0.1-0.1,0.2-0.2,0.2-0.3c0,0,0,0,0.1-0.1s0.1-0.2,0.2-0.3c0,0,0,0,0-0.1
		c0.1-0.1,0.1-0.3,0.2-0.4c0,0,0,0,0-0.1c0-0.2,0.1-0.3,0.1-0.5c0,0,0,0,0-0.1l0.2-1.1c0,0,0,0,0.1-0.1s0.2-0.2,0.2-0.2
		c0.1-0.1,0.2-0.2,0.2-0.3c0.1-0.1,0.1-0.1,0.2-0.2c0.1-0.1,0.1-0.2,0.1-0.3s0.1-0.1,0.1-0.2c0-0.1,0-0.3,0-0.4l-0.4-0.3
		c0.1-0.1,0.1-0.2,0.1-0.2c0-0.1,0-0.1,0.1-0.2c0-0.1,0-0.1,0-0.2l0.1-0.1c0.2-0.2,0.2-0.5,0-0.7l0,0c-0.1-0.1-0.2-0.1-0.3-0.1h-0.1
		h-0.1l-0.3-0.6l0.1-0.1c0.2-0.2,0.2-0.5,0-0.7c-0.1-0.1-0.2-0.1-0.3-0.1H54h-0.1l-0.3-0.6l0.1-0.1c0.2-0.2,0.2-0.5,0-0.7
		c-0.1-0.1-0.2-0.1-0.3-0.1h-0.1h-0.1l-0.3-0.6l0.1-0.1c0.2-0.2,0.2-0.5,0-0.7c-0.1-0.1-0.2-0.1-0.3-0.1h-0.1h-0.1l-0.3-0.6l0.1-0.1
		c0.2-0.2,0.2-0.5,0-0.7c-0.1-0.1-0.2-0.1-0.3-0.1h-0.1h-0.1l-0.8-1.7c0.2-0.3,0.3-0.6,0.4-0.9c0-0.1,0-0.1,0.1-0.2
		c0.1-0.3,0.2-0.7,0.2-1l0,0c0-0.4,0-0.7-0.1-1.1c0-0.1,0-0.2-0.1-0.3c-0.1-0.4-0.2-0.8-0.4-1.3l-2.5-5.5c-0.2-0.5-0.4-1.1-0.5-1.6
		c-0.3-1.7-0.1-3.4,0.7-4.9c0.3-0.6,0.6-1.3,0.9-2c0.5-1.3,0.9-2.7,1.1-4.2c0.1-0.7,0.2-1.4,0.2-2.2c0.1-2.2-0.2-4.4-0.9-6.6
		c-0.2-0.7-0.5-1.4-0.8-2.1C49,168.1,48.8,167.6,48.5,167z"/>
	<g>
		<g>
			<path class="st23" d="M48.2,218.6c-1.3,0.6-2.8,0.9-3.1,0.3l-4.5-9.9l5.3-2.4l4.5,9.9C50.7,217.1,49.5,218,48.2,218.6z"/>
			<path class="st6" d="M47.8,217.8c-2.8,1.3-3.2,1.1-4.7,0.4l-1.4-0.8l-5.9-13l9.8-4.5l5.9,13l-0.3,1.6
				C50.8,216.2,50.5,216.6,47.8,217.8z"/>
			<path class="st23" d="M47,216.1c-3,1.4-6.2,2.2-6.7,1.2l-7.7-16.8l12-5.5l7.7,16.8C52.8,212.9,50,214.7,47,216.1z"/>
			<path class="st6" d="M46.7,215.3c-3.2,1.5-6.6,2.4-7.1,1.4l-7.8-17.1l12.8-5.8l7.8,17.1C52.8,211.9,49.9,213.8,46.7,215.3z"/>
			<path class="st24" d="M20.9,158.8c-9.8,4.4-14.1,16-9.6,25.7c2.6,5.6,7.5,9.5,13.1,10.8c2.2,0.5,4.1,2.1,5,4.2l2.5,5.5
				c2.6,5.1,7.4,2.9,10.7,1.4c3.3-1.5,8.1-3.7,5.9-9l-2.5-5.5c-1-2.1-0.9-4.5,0.2-6.5c2.6-5.1,3-11.3,0.4-17
				C42,158.6,30.6,154.3,20.9,158.8z"/>
			<path class="st25" d="M36.9,187.8l-0.7-13.4l-1,0.1l0.7,13.3c-0.1,0-0.2,0.1-0.3,0.1l-2.4,1.1c-0.1,0-0.2,0.1-0.3,0.2l-9.6-9.3
				l-0.7,0.7l9.7,9.3c-0.2,0.4-0.2,1,0,1.4l6.1,13.3c0.3,0.6,0.9,1,1.6,0.8c0.7-0.1,1.3-0.3,1.9-0.6s1.2-0.6,1.7-1.1
				c0.5-0.4,0.7-1.1,0.4-1.8l-6.1-13.3C37.8,188.3,37.4,188,36.9,187.8z"/>
			<path class="st1" d="M34.7,176.6c-0.6,0.3-1.1,0-1.4-0.1c-0.3-0.1-0.4-0.2-0.6-0.1c-0.2,0.1-0.2,0.2-0.3,0.5
				c-0.1,0.4-0.2,0.9-0.9,1.2c-0.6,0.3-1.1,0-1.4-0.1c-0.3-0.1-0.4-0.2-0.6-0.1c-0.2,0.1-0.2,0.2-0.3,0.5c-0.1,0.4-0.2,0.9-0.9,1.2
				c-0.6,0.3-1.1,0-1.4-0.1c-0.3-0.1-0.4-0.2-0.6-0.1c-0.2,0.1-0.2,0.2-0.3,0.5c-0.1,0.4-0.2,0.9-0.9,1.2c-0.6,0.3-1.1,0-1.4-0.1
				c-0.3-0.1-0.4-0.2-0.6-0.1c-0.3,0.1-0.6,0-0.7-0.3c-0.1-0.3,0-0.6,0.3-0.7c0.6-0.3,1.1,0,1.4,0.1c0.3,0.1,0.4,0.2,0.6,0.1
				c0.2-0.1,0.2-0.2,0.3-0.5c0.1-0.4,0.2-0.9,0.9-1.2c0.6-0.3,1.1,0,1.4,0.1c0.3,0.1,0.4,0.2,0.6,0.1c0.2-0.1,0.2-0.2,0.3-0.5
				c0.1-0.4,0.2-0.9,0.9-1.2c0.6-0.3,1.1,0,1.4,0.1c0.3,0.1,0.4,0.2,0.6,0.1c0.2-0.1,0.2-0.2,0.3-0.5c0.1-0.4,0.2-0.9,0.9-1.2
				c0.6-0.3,1.1,0,1.4,0.1c0.3,0.1,0.4,0.2,0.6,0.1c0.2-0.1,0.2-0.2,0.3-0.5s0.2-0.9,0.9-1.2c0.3-0.1,0.6,0,0.7,0.3
				c0.1,0.3,0,0.6-0.3,0.7c-0.2,0.1-0.2,0.2-0.3,0.5C35.5,175.8,35.4,176.3,34.7,176.6z"/>
			<path class="st23" d="M41.2,216c-0.5,0.2-1.1,0.5-1.6,0.7c-0.2,0.1-0.5,0-0.6-0.3c-0.1-0.2,0-0.5,0.3-0.6c4.8-2,8.8-4.4,12-7.2
				c0.2-0.2,0.5-0.2,0.7,0s0.2,0.5,0,0.7C49,211.9,45.4,214.1,41.2,216z"/>
			<path class="st23" d="M47.9,214.3c-0.2,0.1-0.5,0-0.6-0.2s-0.1-0.5,0.1-0.7c1.6-1,3.1-2.2,4.5-3.4c0.2-0.2,0.5-0.2,0.7,0
				s0.2,0.5,0,0.7C51,212.1,49.5,213.2,47.9,214.3L47.9,214.3z"/>
			<path class="st23" d="M40.5,214.5c-0.5,0.2-1.1,0.5-1.6,0.7c-0.2,0.1-0.5,0-0.6-0.3c-0.1-0.2,0-0.5,0.3-0.6c4.8-2,8.8-4.4,12-7.2
				c0.2-0.2,0.5-0.2,0.7,0s0.2,0.5,0,0.7C48.3,210.4,44.7,212.6,40.5,214.5z"/>
			<path class="st23" d="M39.8,213c-0.5,0.2-1.1,0.5-1.6,0.7c-0.2,0.1-0.5,0-0.6-0.3c-0.1-0.2,0-0.5,0.3-0.6c4.8-2,8.8-4.5,12-7.2
				c0.2-0.2,0.5-0.2,0.7,0s0.2,0.5,0,0.7C47.5,208.8,44,211.1,39.8,213z"/>
			<path class="st23" d="M39,211.5c-0.5,0.2-1.1,0.5-1.6,0.7c-0.2,0.1-0.5,0-0.6-0.3c-0.1-0.2,0-0.5,0.3-0.6c4.8-2,8.8-4.5,12-7.2
				c0.2-0.2,0.5-0.2,0.7,0s0.2,0.5,0,0.7C46.9,207.3,43.3,209.6,39,211.5z"/>
			<path class="st23" d="M38.5,210c-0.5,0.2-1.1,0.5-1.7,0.7c-0.2,0.1-0.5,0-0.6-0.3c-0.1-0.2,0-0.5,0.3-0.6
				c1.8-0.8,3.5-1.6,5.1-2.5c0.2-0.1,0.5,0,0.7,0.2c0.1,0.2,0,0.5-0.2,0.7C40.9,208.8,39.7,209.4,38.5,210z"/>
		</g>
		<path class="st9" d="M35.1,189.9c-7.7,3.5-17.2,0.4-24.5-7.2c0.2,0.6,0.4,1.2,0.7,1.7c2.6,5.6,7.5,9.5,13.1,10.8
			c2.2,0.5,4.1,2.1,5,4.2l2.5,5.6c1,1.9,2.3,2.8,3.7,3.1l0.8,1.7c-0.2,0.1-0.3,0.4-0.2,0.6c0.1,0.2,0.4,0.4,0.6,0.3l0,0l0.3,0.6
			c-0.2,0.1-0.3,0.4-0.2,0.6c0.1,0.2,0.4,0.4,0.6,0.3l0,0l0.3,0.6c-0.2,0.1-0.3,0.4-0.2,0.6c0.1,0.2,0.4,0.4,0.6,0.3l0,0l0.3,0.6
			c-0.2,0.1-0.3,0.4-0.2,0.6c0.1,0.2,0.4,0.4,0.6,0.3l0,0l0.3,0.6c-0.2,0.1-0.3,0.4-0.2,0.6c0.1,0.2,0.4,0.4,0.6,0.3l0,0
			c0.1,0.2,0.3,0.3,0.7,0.3l0.1,0.2c0.2,0.4,0.9,0.5,1.8,0.4l1,0.6c0.8,0.4,1.3,0.6,1.9,0.5v0.1c0.3,0.6,1.7,0.3,3.1-0.3
			c1.3-0.6,2.5-1.5,2.2-2.1v-0.1c0.5-0.5,0.6-1,0.9-1.8l0.2-1.1c0.7-0.6,1.1-1.2,0.9-1.6l-0.1-0.2c0.2-0.2,0.2-0.5,0.2-0.7l0.1-0.1
			c0.2-0.2,0.2-0.5,0-0.7c-0.1-0.2-0.4-0.2-0.6-0.1l-0.3-0.6l0.1-0.1c0.2-0.2,0.2-0.5,0-0.7c-0.1-0.2-0.4-0.2-0.6-0.1l-0.3-0.6
			l0.1-0.1c0.2-0.2,0.2-0.5,0-0.7c-0.1-0.2-0.4-0.2-0.6-0.1l-0.3-0.6l0.1-0.1c0.2-0.2,0.2-0.5,0-0.7c-0.1-0.2-0.4-0.2-0.6-0.1
			l-0.3-0.6l0.1-0.1c0.2-0.2,0.2-0.5,0-0.7c-0.1-0.2-0.4-0.2-0.6-0.1l-0.8-1.7c0.7-1.2,0.9-2.8,0.1-4.8l-2.5-5.5
			c-1-2.1-0.9-4.5,0.2-6.5c2.6-5.1,3-11.3,0.4-17c-0.3-0.6-0.6-1.1-0.9-1.7C46.5,177.2,42.8,186.4,35.1,189.9z"/>
		<path class="st26" d="M31.4,159.2c0.8,1.8-3.2,3.1-7.9,5.3s-8.4,4.3-9.2,2.5s2.4-4.9,7.1-7.1C26.1,157.8,30.6,157.5,31.4,159.2z"
			/>
	</g>
</g>
<g>
	<path class="st27" d="M69.8,65.3l-3.5,2.6c-0.2-0.1-0.5-0.3-0.8-0.4c-0.2-0.1-0.3-0.1-0.5-0.2c-0.3-0.1-0.6-0.2-0.8-0.3l-0.5-4.4
		h-4.5c0-0.2,0-0.3,0.1-0.5c0.2-0.7,0.5-1.5,0.9-2.3c0.3-0.5,0.6-1.3,1.1-2.3s0.9-2.1,1.3-3.3c0.4-1.2,0.6-2.5,0.6-3.9
		S63,47.5,62.4,46c-0.5-1.4-1.3-2.5-2.3-3.5c-1-0.9-2.2-1.6-3.5-2.1c-1.3-0.4-2.8-0.6-4.5-0.5c-1.6,0.1-3.4,0.5-5.2,1.2
		c-1.7,0.7-3.1,1.5-4.2,2.5c-1.1,1-2,2-2.6,3s-1,2-1.1,3c-0.1,0.9,0,1.8,0.2,2.4c0.4,0.9,1,1.5,1.8,1.7s1.5,0.1,2.2-0.1
		s1.1-0.7,1.2-1.2c0.2-0.6,0.4-1.1,0.6-1.8c0.2-0.6,0.6-1.3,1.1-2s1.5-1.3,2.9-1.9c1.7-0.7,3.3-0.8,4.7-0.5c1.4,0.4,2.4,1.4,3.1,3
		c0.4,1,0.5,1.9,0.4,2.8c-0.1,0.9-0.3,1.8-0.6,2.6s-0.7,1.6-1.1,2.4c-0.4,0.8-0.8,1.5-1.1,2.1c-0.3,0.5-0.5,1.1-0.7,1.7
		c-0.2,0.7-0.3,1.4-0.4,2.2c0,0.8,0,1.7,0.2,2.7L52.6,65l-3.7,3.6l2.6,3.5c-0.1,0.2-0.3,0.5-0.4,0.8C51,73,51,73.2,50.8,73.3v0.1
		c-0.1,0.3-0.2,0.5-0.3,0.8l-4.4,0.5l-0.1,5l4.4,0.6c0.1,0.3,0.2,0.5,0.3,0.8c0.1,0.2,0.1,0.3,0.2,0.5c0.1,0.3,0.2,0.5,0.4,0.8
		L48.7,86l3.5,3.6l3.5-2.6c0.2,0.1,0.5,0.3,0.8,0.4c0.2,0.1,0.3,0.1,0.5,0.2c0.3,0.1,0.5,0.2,0.8,0.3l0.5,4.4l5,0.1l0.6-4.4
		c0.1,0,0.3-0.1,0.4-0.1c0.1,0,0.3-0.1,0.4-0.2c0.2-0.1,0.3-0.1,0.5-0.2c0.3-0.1,0.5-0.2,0.8-0.4l3.5,2.7l3.6-3.5l-2.6-3.5
		c0.1-0.2,0.3-0.5,0.4-0.8c0.1-0.2,0.1-0.3,0.2-0.5c0.1-0.3,0.2-0.6,0.3-0.8l4.4-0.5l0.1-5l-4.4-0.6c-0.1-0.3-0.2-0.5-0.3-0.8
		c-0.1-0.2-0.1-0.3-0.2-0.5c-0.1-0.3-0.2-0.5-0.4-0.8l2.7-3.5L69.8,65.3z"/>
	<g>
		<path class="st1" d="M73.3,75l-0.1,5l-4.3,0.6c-0.1,0.2-0.2,0.5-0.3,0.8c-0.1,0.2-0.1,0.3-0.2,0.5c-0.1,0.3-0.2,0.5-0.4,0.8
			l2.6,3.5l-3.6,3.5L63.6,87c-0.2,0.1-0.5,0.2-0.8,0.4c-0.2,0.1-0.3,0.1-0.5,0.2c-0.3,0.1-0.6,0.2-0.9,0.3l-0.5,4.3l-5-0.1l-0.5-4.4
			c-0.3-0.1-0.5-0.2-0.8-0.3c-0.2-0.1-0.3-0.1-0.5-0.2c-0.3-0.1-0.5-0.3-0.8-0.4l-3.5,2.6l-3.5-3.6l2.7-3.5
			c-0.1-0.2-0.2-0.5-0.4-0.8c-0.1-0.2-0.1-0.3-0.2-0.5c-0.1-0.3-0.2-0.5-0.3-0.8l-4.4-0.6l0.1-5l4.4-0.5c0.1-0.3,0.2-0.5,0.3-0.8
			v-0.1c0.1-0.1,0.1-0.3,0.2-0.4c0.1-0.3,0.3-0.5,0.4-0.8l-2.6-3.5l3.4-3.5l3.5,2.7c0.2-0.1,0.5-0.2,0.8-0.4
			c0.1-0.1,0.3-0.1,0.5-0.2l0,0c0.3-0.1,0.6-0.2,0.8-0.3l0.6-4.4l5,0.1l0.5,4.4c0.3,0.1,0.5,0.2,0.8,0.3c0.2,0.1,0.3,0.1,0.5,0.2
			c0.3,0.1,0.5,0.3,0.8,0.4l3.5-2.6l3.5,3.6l-2.7,3.5c0.1,0.2,0.2,0.5,0.4,0.8c0.1,0.2,0.1,0.3,0.2,0.5c0.1,0.3,0.2,0.6,0.3,0.8
			L73.3,75z"/>
		<path class="st5" d="M59.9,45.9c0.6,1.5,0.9,2.9,0.8,4.3c-0.1,1.4-0.3,2.7-0.6,3.9c-0.4,1.2-0.8,2.3-1.3,3.3s-0.9,1.7-1.1,2.3
			c-0.5,0.8-0.8,1.6-0.9,2.3c-0.2,0.7-0.2,1.4-0.2,2c0.1,0.7,0.2,1.3,0.4,2s0.5,1.4,0.8,2.3c0.2,0.5,0.2,1.1,0,1.6
			c-0.2,0.6-0.9,1.1-2,1.5c-0.9,0.4-1.7,0.4-2.3,0.1s-1.1-1-1.6-2.3s-0.9-2.5-1.1-3.6c-0.2-1-0.2-2-0.2-2.8s0.2-1.6,0.4-2.2
			c0.2-0.6,0.4-1.2,0.7-1.7c0.3-0.6,0.7-1.4,1.1-2.1c0.4-0.8,0.8-1.6,1.1-2.4c0.3-0.8,0.5-1.7,0.6-2.6c0.1-0.9,0-1.8-0.4-2.8
			c-0.6-1.6-1.7-2.6-3.1-3c-1.4-0.4-3-0.2-4.7,0.5c-1.4,0.6-2.4,1.2-2.9,1.9s-0.9,1.4-1.1,2c-0.2,0.6-0.4,1.2-0.6,1.8
			c-0.2,0.6-0.6,1-1.2,1.2c-0.6,0.3-1.4,0.3-2.2,0.1s-1.4-0.7-1.8-1.7c-0.3-0.7-0.3-1.5-0.2-2.4s0.5-1.9,1.1-3c0.6-1,1.5-2,2.6-3
			s2.5-1.8,4.2-2.5c1.8-0.7,3.5-1.1,5.2-1.2c1.6-0.1,3.1,0.1,4.5,0.5c1.3,0.4,2.5,1.1,3.5,2.1C58.5,43.4,59.3,44.6,59.9,45.9z"/>
		<path class="st5" d="M56.8,73.1c1.1-0.4,2.1-0.4,3.2,0c1.1,0.5,1.8,1.2,2.2,2.3c0.4,1,0.4,2.1,0,3.1c-0.4,1.1-1.2,1.8-2.3,2.3
			c-1.1,0.4-2.2,0.4-3.2-0.1s-1.7-1.2-2.2-2.3c-0.4-1.1-0.4-2.1,0-3.2C55,74.2,55.7,73.5,56.8,73.1z"/>
		<path class="st9" d="M48.8,82.6l-2.6,3.3l3.5,3.6l3.5-2.6c0.2,0.1,0.5,0.3,0.8,0.4c0.2,0.1,0.3,0.1,0.5,0.2
			c0.3,0.1,0.5,0.2,0.8,0.3l0.5,4.4l5,0.1l0.6-4.4c0.3-0.1,0.5-0.2,0.9-0.3c0.2-0.1,0.3-0.1,0.5-0.2c0.3-0.1,0.5-0.2,0.8-0.4
			l3.5,2.7l3.6-3.5l-2.6-3.5c0.1-0.2,0.3-0.5,0.4-0.8c0.1-0.2,0.1-0.3,0.2-0.5c0.1-0.3,0.2-0.6,0.3-0.8l4.4-0.5l0.1-5l-4.2-0.6
			C67.8,84.1,56.9,89.1,48.8,82.6z"/>
	</g>
</g>
<g>
	<path class="st27" d="M250.6,152.1c0.1-0.1,0.1-0.2,0.2-0.3c0.3-0.4,0.5-0.8,0.8-1.2c0,0,0,0,0-0.1c0.2-0.4,0.4-0.9,0.6-1.3
		c0-0.1,0.1-0.1,0.1-0.2c0.2-0.5,0.3-1,0.4-1.5l0,0l0,0c0.1-0.6,0.1-1.3,0.1-1.9c0-0.1,0-0.3,0-0.4c0-1.1,0.4-2,1.1-2.7l3.3-3.3
		l23.6-23.6c0.8-0.8,2-1.2,3.2-1.1c5.1,0.5,8.8-2.2,9.9-7.1v-0.1c0.1-0.3,0.2-0.8,0.2-1.1c0-0.3-0.1-0.6-0.3-0.7
		c-0.2-0.2-0.5-0.1-0.7,0l-5.6,3.2c-0.2,0.1-0.5,0.1-0.6,0c-1.7-1.5-2.8-3.4-3.1-5.6c0-0.2,0.1-0.5,0.2-0.6l5.4-3
		c0.5-0.3,0.5-1,0-1.3c-3.4-1.8-8-1.2-9.9,0.5c-1.9,1.6-3.3,4.9-3,7.4c0,0.1,0,0.3,0,0.4c0,1.1-0.4,2-1.1,2.7l-3.3,3.3l-23.6,23.6
		c-0.8,0.8-2,1.2-3.2,1.1c-0.7-0.1-1.4-0.1-2,0l0,0c-0.3,0-0.5,0.1-0.8,0.1c-0.5,0.1-0.9,0.2-1.4,0.3c-0.2,0.1-0.5,0.1-0.7,0.2
		c-0.2,0.1-0.4,0.2-0.7,0.3c-0.2,0.1-0.4,0.2-0.7,0.4c-0.2,0.1-0.4,0.3-0.6,0.4c-0.2,0.2-0.4,0.3-0.6,0.5s-0.3,0.3-0.5,0.5
		s-0.4,0.4-0.5,0.7c-0.1,0.2-0.3,0.4-0.4,0.6c-0.2,0.3-0.3,0.6-0.5,0.9c-0.1,0.2-0.2,0.4-0.3,0.5c-0.2,0.5-0.3,1-0.5,1.5v0.1v0.1
		c-0.1,0.3-0.2,0.8-0.2,1.1l0,0l0,0c0,0.3,0.1,0.6,0.3,0.7c0.2,0.1,0.5,0.1,0.7,0l5.6-3.2c0.2-0.1,0.5-0.1,0.6,0
		c1.7,1.5,2.8,3.4,3.1,5.6c0,0.2-0.1,0.5-0.2,0.6l-5.4,3c-0.2,0.1-0.3,0.4-0.3,0.6c0,0.3,0.1,0.5,0.3,0.6c3.4,1.8,8,1.2,9.9-0.5l0,0
		C250.1,152.8,250.4,152.5,250.6,152.1z"/>
	<path class="st27" d="M297.3,109.5c-0.5,0-0.9,0.1-1.2,0.4c-6.4,6.4-12.8,12.8-19.2,19.2l-3.9,5.4c0.2,1,0.7,2.1,1.4,3.1l-0.1-0.1
		l-1.1,1.1l0.8,0.8L255.3,158l0,0l-3.6,2l-2.1,3.7l0,0l0,0l2,2l3.7-2.1l2-3.6l0,0l0,0l0,0l6-6l0,0l12.6-12.6l0.8,0.8l1.1-1.1
		l-0.1-0.1c1,0.7,2.1,1.2,3.1,1.4l5.4-3.9c6.4-6.4,12.8-12.8,19.2-19.2c0.3-0.3,0.5-0.7,0.4-1.2
		C305.9,113.7,301.9,109.7,297.3,109.5z"/>
	<path class="st27" d="M304.3,148.2l-3.5,0.9c-0.1-0.2-0.3-0.3-0.5-0.5c-0.1-0.1-0.2-0.2-0.3-0.3c-0.2-0.2-0.4-0.3-0.5-0.5l0.9-3.4
		l-3.8-1.6l-1.8,3.1c-0.2,0-0.5,0-0.7,0l0,0c-0.1,0-0.3,0-0.4,0c-0.3,0-0.5,0-0.7,0l-1.8-3.1l-3.8,1.6l0.9,3.5
		c-0.2,0.1-0.3,0.3-0.5,0.5c-0.1,0.1-0.2,0.2-0.3,0.3l0,0c-0.2,0.2-0.3,0.3-0.5,0.5l-3.4-0.9l-1.6,3.8l3.1,1.8c0,0.2,0,0.5,0,0.7
		c0,0.1,0,0.3,0,0.4c0,0.3,0,0.5,0,0.7l-3.1,1.8l0,0l0,0l1.6,3.8l3.5-0.9c0.1,0.2,0.3,0.3,0.5,0.5c0.1,0.1,0.2,0.2,0.3,0.3
		c0.2,0.2,0.3,0.3,0.5,0.5l-0.9,3.4l0,0l0,0l3.8,1.6l1.8-3.1c0.2,0,0.5,0,0.7,0c0.1,0,0.3,0,0.4,0c0.3,0,0.5,0,0.7,0l1.8,3.1
		l3.8-1.6l0,0l0,0l-0.9-3.4c0.2-0.1,0.3-0.3,0.5-0.5c0.1-0.1,0.2-0.2,0.3-0.3c0.2-0.2,0.3-0.4,0.5-0.5l3.4,0.9l1.6-3.8l0,0l0,0
		l-3.1-1.8c0-0.2,0-0.4,0-0.7l0,0l0,0c0-0.1,0-0.3,0-0.4c0-0.2,0-0.5,0-0.7l3.1-1.8l0,0l0,0L304.3,148.2z M294,151.4
		c1.3,0,2.4,0.7,2.9,1.8l0,0c0.1,0.2,0.2,0.4,0.3,0.7l0,0c0.1,0.2,0.1,0.5,0.1,0.8c0,1.8-1.5,3.3-3.3,3.3c0,0,0,0-0.1,0
		c-0.3,0-0.6-0.1-0.9-0.1c-0.1,0-0.1,0-0.2-0.1c-0.3-0.1-0.6-0.2-0.8-0.4c0,0-0.1,0-0.1-0.1c-0.5-0.4-0.9-1-1.1-1.6
		c-0.1-0.3-0.2-0.6-0.2-0.9C290.8,152.9,292.1,151.4,294,151.4z"/>
</g>
<g>
	<path class="st1" d="M290.6,104.2c-0.2-0.1-0.5-0.1-0.7,0l-5.6,3.2c-0.2,0.1-0.5,0.1-0.6,0c-1.7-1.5-2.8-3.4-3.1-5.6
		c0-0.2,0.1-0.5,0.2-0.6l5.4-3c0.5-0.3,0.5-1,0-1.3c-3.4-1.8-8-1.2-9.9,0.5c-1.9,1.6-3.3,4.9-3,7.4c0,0.1,0,0.3,0,0.4
		c0,1.1-0.4,2-1.1,2.7l-3.3,3.3l-23.6,23.6c-0.8,0.8-2,1.2-3.2,1.1c-5.1-0.5-8.8,2.2-9.9,7.1v0.1c-0.1,0.3-0.2,0.8-0.2,1.1
		s0.1,0.6,0.3,0.7c0.2,0.1,0.5,0.1,0.7,0l5.6-3.2c0.2-0.1,0.5-0.1,0.6,0c1.7,1.5,2.8,3.4,3.1,5.6c0,0.2-0.1,0.5-0.2,0.6l-5.4,3
		c-0.5,0.3-0.4,1,0,1.3c3.4,1.8,8,1.2,9.9-0.5c1.9-1.6,3.3-4.9,3-7.4c0-0.1,0-0.3,0-0.4c0-1.1,0.4-2,1.1-2.7l3.3-3.3l23.6-23.6
		c0.8-0.8,2-1.2,3.2-1.1c5.1,0.5,8.8-2.2,9.9-7.1V106c0.1-0.3,0.2-0.8,0.2-1.1C290.9,104.6,290.8,104.3,290.6,104.2z"/>
	<g>
		
			<rect x="246.5" y="148.1" transform="matrix(0.7068 -0.7075 0.7075 0.7068 -29.032 228.9585)" class="st1" width="30.3" height="2.8"/>
		<path class="st28" d="M270,133.2c0.6,3.4,4.5,7.3,7.9,7.9l5.4-3.9c6.4-6.4,12.8-12.8,19.2-19.2c0.3-0.3,0.5-0.7,0.4-1.2
			c-0.2-4.5-4.2-8.5-8.7-8.7c-0.5,0-0.9,0.1-1.2,0.4c-6.4,6.4-12.8,12.8-19.2,19.2L270,133.2z"/>
		<polygon class="st29" points="270,133.2 277.9,141.1 283.4,137.3 273.9,127.8 		"/>
		<path class="st29" d="M299.5,116.2c0.3-0.3,0.8-0.3,1.2,0.1l0,0c0.4,0.4,0.4,0.9,0.1,1.2l-17,17c-0.3,0.3-0.8,0.3-1.2-0.1l0,0
			c-0.4-0.3-0.4-0.9-0.1-1.2L299.5,116.2z"/>
		<path class="st29" d="M297.4,112.4c0.3-0.3,0.9-0.3,1.2,0.1l0,0c0.4,0.3,0.4,0.9,0.1,1.2l-17.8,17.8c-0.3,0.3-0.9,0.3-1.2-0.1l0,0
			c-0.4-0.4-0.4-0.9-0.1-1.2L297.4,112.4z"/>
		<path class="st29" d="M293.6,110.3c0.3-0.3,0.8-0.3,1.2,0.1l0,0c0.4,0.4,0.4,0.9,0.1,1.2l-17,17c-0.3,0.3-0.8,0.3-1.2-0.1l0,0
			c-0.4-0.3-0.4-0.9-0.1-1.2L293.6,110.3z"/>
		<polygon class="st30" points="248.6,164.5 252.3,162.3 254.3,158.8 252.4,156.8 248.8,158.8 246.6,162.5 		"/>
		<path class="st31" d="M248.8,158.8c2.1,0.3,3.3,1.4,3.5,3.5l2-3.6c-0.1-1.1-0.7-1.9-2-2L248.8,158.8z"/>
		
			<rect x="271.7" y="136.1" transform="matrix(0.7072 -0.707 0.707 0.7072 -18.2247 233.212)" class="st29" width="1.6" height="5"/>
	</g>
	<path class="st1" d="M299.6,153.5c0-0.1,0-0.3,0-0.4c0-0.3,0-0.5,0-0.7l3.1-1.8l-1.6-3.8l-3.5,0.9c-0.1-0.2-0.3-0.3-0.5-0.5
		c-0.1-0.1-0.2-0.2-0.3-0.3c-0.2-0.2-0.4-0.3-0.5-0.5l0.9-3.4l-3.8-1.6l-1.8,3.1c-0.2,0-0.5,0-0.7,0l0,0c-0.1,0-0.3,0-0.4,0
		c-0.2,0-0.5,0-0.7,0l-1.8-3.1l-3.8,1.6l0.9,3.5c-0.2,0.1-0.3,0.3-0.5,0.5c-0.1,0.1-0.2,0.2-0.3,0.3l0,0c-0.2,0.2-0.3,0.3-0.5,0.5
		l-3.4-0.9l-1.6,3.8l3.1,1.8c0,0.2,0,0.5,0,0.7c0,0.1,0,0.3,0,0.4c0,0.3,0,0.5,0,0.7l-3.1,1.8l1.6,3.8l3.5-0.9
		c0.1,0.2,0.3,0.3,0.5,0.5c0.1,0.1,0.2,0.2,0.3,0.3c0.2,0.2,0.3,0.3,0.5,0.5l-0.9,3.4l3.8,1.6l1.8-3.1c0.2,0,0.5,0,0.7,0
		c0.1,0,0.3,0,0.4,0c0.3,0,0.5,0,0.7,0l1.8,3.1l3.8-1.6l-0.9-3.5c0.2-0.1,0.3-0.3,0.5-0.5c0.1-0.1,0.2-0.2,0.3-0.3
		c0.2-0.2,0.3-0.4,0.5-0.5l3.4,0.9l1.6-3.8l-3.1-1.8C299.6,154,299.6,153.8,299.6,153.5z M290.9,156.6c-1.8,0-3.3-1.5-3.3-3.3
		s1.5-3.3,3.3-3.3s3.3,1.5,3.3,3.3S292.6,156.6,290.9,156.6z"/>
</g>
<g>
	<path class="st22" d="M240.1,135.8c-4,0.3-6.9,2.9-7.9,7.2v0.1c-0.1,0.3-0.2,0.8-0.2,1.1s0.1,0.6,0.3,0.7c0.2,0.1,0.5,0.1,0.7,0
		l5.6-3.2c0.2-0.1,0.5-0.1,0.6,0c1.7,1.5,2.8,3.4,3.1,5.6c0,0.2-0.1,0.5-0.2,0.6l-5.4,3c-0.5,0.3-0.4,1,0,1.3c3.4,1.8,8,1.2,9.9-0.5
		c1.5-1.3,2.6-3.4,2.9-5.5C246,143.3,242.8,139.8,240.1,135.8z"/>
	<path class="st22" d="M252.4,156.8L252.4,156.8l-3.6,2l-2.1,3.7l2,2l3.7-2.1l2-3.6l0,0l6-6c-0.9-0.4-1.8-0.8-2.7-1.2L252.4,156.8z"
		/>
	<path class="st22" d="M294.1,153.3c0,1.8-1.5,3.3-3.3,3.3c-1.5,0-2.7-1-3.1-2.3c-2.7,0.8-5.6,1.4-8.5,1.6L279,156l1.6,3.8l3.5-0.9
		c0.1,0.2,0.3,0.3,0.5,0.5c0.1,0.1,0.2,0.2,0.3,0.3c0.2,0.2,0.3,0.3,0.5,0.5l-0.9,3.4l3.8,1.6l1.8-3.1c0.2,0,0.5,0,0.7,0
		c0.1,0,0.3,0,0.4,0c0.3,0,0.5,0,0.7,0l1.8,3.1l3.8-1.6l-0.9-3.5c0.2-0.1,0.3-0.3,0.5-0.5c0.1-0.1,0.2-0.2,0.3-0.3
		c0.2-0.2,0.3-0.4,0.5-0.5l3.4,0.9l1.6-3.8l-3.1-1.8c0-0.2,0-0.4,0-0.7c0-0.1,0-0.3,0-0.4c0-0.2,0-0.5,0-0.7l3.1-1.8l-1.4-3.5
		c-2.4,1.8-4.9,3.4-7.5,4.7C294,152.3,294.1,152.8,294.1,153.3z"/>
</g>
<g>
	<g>
		<path class="st27" d="M161.9,43.2c-2-1.3-5-1.7-7.2-1.5c-5-0.1-9,18.2-4.2,20.2c1.4,0.6,2.9,0.9,4.3,1.1
			c-1.8,4.6-3.9,9.1-6.4,13.3c-1.1,1.7-2.2,3.4-3.4,5.1c-1.7,2.3-3.5,4.6-5.4,6.8c-0.8-1.2-1.8-2.3-3-3.3c-3.4-2.9-14.4,5.6-16,10.8
			v0.1c-0.1,0.5-0.2,1-0.1,1.4c0,0.1,0,0.1,0,0.2c0,0.2,0.1,0.4,0.2,0.6l0,0c0.9,2.1,2.6,4.5,4.7,5.7c0,0,0.1,0,0.1,0.1
			c0.4,0.2,0.9,0.4,1.3,0.6c0.1,0.1,0.3,0.1,0.4,0.2c0.5,0.2,0.9,0.3,1.4,0.4c0.1,0,0.3,0.1,0.4,0.1c0.5,0.1,1,0.1,1.5,0.1
			c0.1,0,0.2,0,0.3,0c0.5,0,0.9,0,1.4-0.1c0.1,0,0.2,0,0.3,0c0.5-0.1,1-0.2,1.5-0.4c0.1,0,0.2-0.1,0.3-0.1c0.5-0.2,1-0.4,1.5-0.6
			c0,0,0.1,0,0.1-0.1c1-0.5,1.9-1.2,2.7-2c0,0,0,0,0.1-0.1l0,0c0.8-0.7,1.5-1.4,2.3-2.2c0.1-0.1,0.1-0.1,0.2-0.2
			c0.7-0.7,1.4-1.4,2.1-2.2c0.1-0.1,0.1-0.2,0.2-0.2c1.5-1.6,2.9-3.2,4.4-5c0.1-0.1,0.2-0.2,0.3-0.3c0.6-0.7,1.2-1.5,1.8-2.2
			c0.1-0.2,0.3-0.3,0.4-0.5c0.6-0.8,1.3-1.7,1.9-2.5l0,0c0-0.1,0.1-0.1,0.1-0.2l0,0c1.3-1.8,2.5-3.6,3.6-5.5
			c4.5-7.6,8.4-16.7,10.5-25l0,0C167.9,51.2,166.2,45.9,161.9,43.2z"/>
		<path class="st27" d="M129.2,83L129.2,83L129.2,83c0.2,0,0.3-0.1,0.5-0.1c0.5-0.1,0.9-0.3,1.4-0.4c0.4-0.1,0.7-0.3,1.1-0.4
			c0.2-0.1,0.4-0.2,0.6-0.3c0.4-0.2,0.8-0.4,1.2-0.6c0.1-0.1,0.2-0.1,0.3-0.2c0.5-0.3,0.9-0.5,1.3-0.8c0,0,0,0,0.1,0
			c6.9-4.6,10.5-13.1,8.4-21.6l0,0l3.7-0.9l-9.2-9.6l-0.2,0.7c-4.9-4.7-12-6.7-18.8-5c-10.8,2.7-17.4,13.6-14.8,24.5l-3.8,0.9
			l0.2,0.3c-0.1-0.1-0.1-0.1-0.2-0.1l9.1,9.5v-0.1l0,0l0.2-0.7C115.2,82.6,122.2,84.7,129.2,83z"/>
	</g>
	<g>
		<path class="st1" d="M138.8,58.6c2.2,8.8-3.2,17.7-12,19.8c-8.8,2.2-17.7-3.2-19.8-12c-2.2-8.8,3.2-17.7,12-19.8
			C127.7,44.4,136.7,49.8,138.8,58.6z"/>
		<path class="st5" d="M146.5,75.9c4.1-7.1,7.3-14.7,9.7-22.7c2.8,0.8,5.6,1.5,8.4,2.2c-2.2,8.3-6,17.4-10.5,25
			c-4.6,7.5-10.9,15.2-17.2,20.9c-1.9-2.1-3.9-4.3-5.8-6.4C136.9,89.2,142.2,82.8,146.5,75.9z"/>
		<path class="st32" d="M149.6,77.7c4.4-7.4,7.8-15.3,10.5-23.5c-1.3-0.3-2.6-0.7-3.9-1c-2.3,8-5.5,15.6-9.7,22.7
			c-4.3,6.9-9.6,13.3-15.6,19.1c0.9,1,1.8,2,2.7,3C139.7,91.8,145.1,85,149.6,77.7z"/>
		<path class="st5" d="M148.6,61.5c5.6,2.2,11.6,1.4,14.8-3.7s1.7-11.8-3.3-15c-2-1.3-5-1.7-7.2-1.5
			C147.8,41.2,143.9,59.5,148.6,61.5z"/>
		<path class="st5" d="M134.7,84.5c4.6,3.9,6.6,9.6,3.6,14.8c-3,5.2-9.6,7-14.8,4c-2.1-1.2-3.8-3.7-4.7-5.7
			C116.3,93.2,130.8,81.1,134.7,84.5z"/>
		<path class="st32" d="M149,60.8c-1.6-0.3-2.1-4.7-1.1-9.7c1-5.1,3.1-8.9,4.7-8.6c1.6,0.3,2.1,4.7,1.1,9.7S150.6,61.1,149,60.8z"/>
		<path class="st32" d="M134.3,85.1c-1-1.3-5.1,0.3-9.1,3.5c-4,3.2-6.5,6.9-5.4,8.2c1,1.3,5.1-0.3,9.1-3.5
			C132.9,90,135.3,86.4,134.3,85.1z"/>
		<g>
			<g>
				<path class="st32" d="M136.5,47.3l-0.2,0.7l-1.8,6.4l-1.6,5.6l3.7-0.9l0,0c1.9,7.8-2.9,15.8-10.7,17.7c-6,1.5-12.3-1-15.7-6.1
					l-1.9,6.4c4.9,4.7,12,6.8,18.9,5.1c10.8-2.7,17.4-13.6,14.8-24.5l0,0l3.7-0.9L136.5,47.3z"/>
				<path class="st5" d="M117.5,43c-10.8,2.7-17.4,13.6-14.8,24.5l-3.8,0.9L108,78l0.2-0.8l1.9-6.4l1.6-5.5l-3.7,0.9
					c-1.9-7.8,2.9-15.8,10.7-17.7c6-1.5,12.2,1,15.6,6l1.8-6.4C131.4,43.4,124.2,41.4,117.5,43z"/>
			</g>
			<g>
				<path class="st33" d="M111.2,60.2c-0.2-0.6-0.2-1.2,0-1.7c0.1-0.5,0.4-1,0.7-1.5c0.3-0.4,0.8-0.8,1.3-1.1s1-0.5,1.6-0.7
					s1.2-0.2,1.8-0.1c0.6,0.1,1.2,0.2,1.7,0.5s1,0.6,1.4,1.1s0.7,1,0.8,1.7c0.2,0.8,0.2,1.5,0,2.2s-0.5,1.3-0.8,2
					c-0.4,0.6-0.8,1.2-1.3,1.7s-0.9,1.1-1.3,1.5c-0.4,0.5-0.7,0.9-1,1.4c-0.2,0.4-0.3,0.8-0.2,1.2l0.1,0.5l5.9-1.5
					c0.2-0.1,0.5,0,0.7,0.2s0.4,0.4,0.5,0.8c0.1,0.3,0.1,0.6,0,0.9s-0.3,0.5-0.5,0.5l-7.6,1.9c-0.1,0-0.3,0-0.4,0
					c-0.2,0-0.3,0-0.4-0.1c-0.1,0-0.3-0.1-0.4-0.2c-0.1-0.1-0.2-0.2-0.2-0.3l-0.5-2.1c-0.1-0.6-0.1-1.1,0.1-1.7
					c0.2-0.6,0.5-1.1,0.9-1.7s0.8-1.1,1.3-1.7c0.5-0.6,0.9-1.1,1.3-1.7c0.4-0.5,0.7-1.1,0.9-1.6s0.3-1,0.2-1.5
					c-0.1-0.2-0.1-0.4-0.3-0.6c-0.1-0.2-0.3-0.4-0.5-0.5s-0.4-0.2-0.7-0.3s-0.6,0-0.9,0.1c-0.5,0.1-0.9,0.4-1.2,0.8
					c-0.3,0.4-0.4,0.9-0.2,1.6c0.1,0.3,0,0.5-0.2,0.8s-0.5,0.5-1,0.6c-0.4,0.1-0.7,0.1-1-0.1C111.5,61.2,111.2,60.8,111.2,60.2z"/>
				<path class="st33" d="M128.6,64.7l-5.1,1.3c-0.3,0.1-0.5,0-0.7-0.1s-0.4-0.3-0.4-0.7c0-0.2,0-0.4,0-0.6l2.6-11.1
					c0.1-0.3,0.2-0.5,0.4-0.7s0.4-0.3,0.6-0.3c0.1,0,0.3,0,0.4,0c0.2,0,0.3,0,0.5,0.1s0.3,0.1,0.4,0.2c0.1,0.1,0.2,0.2,0.3,0.4
					c0,0.1,0,0.2,0,0.4l-2.1,9.2l2.5-0.6l-0.6-2.2c-0.1-0.3,0-0.6,0.3-0.8s0.6-0.4,0.9-0.4c0.4-0.1,0.7-0.1,1,0s0.5,0.3,0.6,0.6
					l0.6,2.2l1-0.2c0.3-0.1,0.5,0,0.7,0.2s0.4,0.5,0.4,0.8c0.1,0.3,0.1,0.6,0,0.9c-0.1,0.3-0.3,0.5-0.5,0.5l-1,0.2l0.6,2.5
					c0.1,0.3,0,0.5-0.3,0.8c-0.2,0.2-0.5,0.4-0.9,0.5c-0.3,0.1-0.7,0.1-1,0s-0.5-0.3-0.6-0.5L128.6,64.7z"/>
			</g>
		</g>
		<path class="st9" d="M139.6,90.2c-6.1,1.5-12.2,1.6-17.8,0.4c-2.4,2.6-3.8,5.3-2.9,6.9c0.9,2,2.6,4.5,4.7,5.7
			c4.4,2.5,9.9,1.6,13.3-1.9l0,0c4.8-4.4,9.6-9.8,13.6-15.5C147.1,87.8,143.5,89.3,139.6,90.2z"/>
		<path class="st9" d="M135.4,69c-1.8,3.8-5.3,6.8-9.7,7.9c-4.3,1.1-8.7,0.1-12.2-2.4c-5.3-0.7-10.3-2.8-14.7-5.9l9.1,9.5l0.2-0.8
			c4.9,4.7,12,6.8,18.9,5.1c9.4-2.3,15.6-10.9,15.4-20.2C140.5,64.8,138.1,67.1,135.4,69z"/>
	</g>
</g>
<g>
	<path class="st27" d="M316.6,255.5l-4.1,1.1c-0.2-0.2-0.4-0.4-0.6-0.6c-0.1-0.1-0.2-0.2-0.4-0.4c-0.2-0.2-0.4-0.4-0.6-0.6l1.1-4.1
		l-4.1-1.7c0.7-5.6-1.1-11.5-5.4-15.8c-7.4-7.4-19.4-7.4-26.9,0c-6.4,6.4-7.3,16.3-2.6,23.7l-0.7,0.7c-0.7,0.7-0.7,1.9,0,2.7
		l0.1,0.1c-1.1-0.2-2.3,0-3.2,0.9c-6.5,6.2-13.1,12.4-19.6,18.5c-0.9,0.8-1.1,2.2-0.8,3.5c0.2,0.5,0.4,1,0.8,1.5
		c0.2,0.2,0.4,0.5,0.6,0.7c0.4,0.4,0.9,0.8,1.5,1.1c1,0.5,2.1,0.6,3.1,0.3c0.5-0.2,0.9-0.4,1.2-0.8c6.2-6.5,12.4-13.1,18.5-19.6
		c0.8-0.9,1.1-2.1,0.9-3.2l0.1,0.1c0.7,0.7,1.9,0.7,2.7,0l0.7-0.7c3.8,2.5,8.3,3.4,12.7,2.8l-1.6,0.9l1.9,4.5l0,0l0,0l4.1-1.1
		c0.2,0.2,0.3,0.4,0.6,0.6c0.1,0.1,0.2,0.2,0.4,0.4c0.2,0.2,0.4,0.4,0.6,0.6l-1.1,4.1l4.5,1.9l0,0l0,0l2.1-3.7c0.3,0,0.5,0,0.9,0.1
		c0.2,0,0.3,0,0.5,0l0,0l0,0c0.3,0,0.6,0,0.8,0l2.2,3.7l0,0l0,0l4.5-1.9l-1.1-4.1c0.2-0.2,0.4-0.3,0.6-0.6c0.1-0.1,0.3-0.2,0.4-0.4
		c0.2-0.2,0.4-0.4,0.6-0.6l4.1,1.1l0,0l0,0l1.9-4.5l-3.6-2.1l0,0l-0.1-0.1c0-0.3,0-0.5,0.1-0.8c0-0.2,0-0.4,0-0.5c0-0.3,0-0.6,0-0.8
		l3.7-2.2L316.6,255.5z M304.1,259.2c1.1,0,2.1,0.4,2.9,1.2c0.8,0.8,1.2,1.7,1.2,2.9c0,1.1-0.4,2-1.2,2.8c-0.8,0.8-1.7,1.2-2.9,1.2
		c-1.1,0-2.1-0.4-2.9-1.2c-0.8-0.8-1.1-1.8-1.1-2.8c0-0.4,0.1-0.9,0.2-1.2c0.7-0.5,1.4-1.1,2.1-1.8c0.3-0.3,0.6-0.6,0.8-0.9
		C303.6,259.2,303.9,259.2,304.1,259.2z"/>
	<g>
		<g>
			<path class="st1" d="M311.6,262.1c0-0.2,0-0.3,0-0.5c0-0.3,0-0.6,0-0.8l3.7-2.2l-1.9-4.5l-4.1,1.1c-0.2-0.2-0.4-0.4-0.6-0.6
				c-0.1-0.1-0.2-0.2-0.4-0.4c-0.2-0.2-0.4-0.4-0.6-0.6l1.1-4.1l-4.5-1.9l-2.1,3.7c-0.3,0-0.6,0-0.8-0.1l0,0c-0.2,0-0.3,0-0.5,0
				c-0.3,0-0.6,0-0.8,0.1l-2.1-3.7l-4.5,1.9l1.1,4.1c-0.2,0.2-0.4,0.3-0.6,0.6c-0.1,0.1-0.2,0.2-0.3,0.3h-0.1
				c-0.2,0.2-0.4,0.4-0.6,0.6L289,254l-1.9,4.5l3.7,2.1c0,0.3,0,0.6,0,0.8c0,0.2,0,0.3,0,0.5c0,0.3,0,0.6,0,0.8l-3.7,2.1l1.9,4.5
				l4.1-1.1c0.2,0.2,0.3,0.4,0.6,0.6c0.1,0.1,0.2,0.2,0.4,0.4c0.2,0.2,0.4,0.4,0.6,0.6l-1.1,4.1l4.5,1.9l2.1-3.7
				c0.3,0,0.5,0,0.9,0.1c0.2,0,0.3,0,0.5,0c0.3,0,0.6,0,0.8,0l2.1,3.7l4.5-1.9l-1.1-4.1c0.2-0.2,0.4-0.3,0.6-0.6
				c0.1-0.1,0.2-0.2,0.4-0.4c0.2-0.2,0.4-0.4,0.6-0.6l4.1,1.1l1.9-4.5l-3.7-2.1C311.6,262.7,311.6,262.5,311.6,262.1z M304,264.7
				c-0.8,0.8-1.7,1.2-2.9,1.2c-1.2,0-2.1-0.4-2.9-1.2c-0.8-0.8-1.1-1.8-1.1-2.8c0-1.1,0.4-2.1,1.2-2.9c0.8-0.8,1.7-1.2,2.8-1.2
				c1.1,0,2.1,0.4,2.9,1.2c0.8,0.8,1.2,1.7,1.2,2.9C305.1,263,304.8,263.9,304,264.7z"/>
			<path class="st22" d="M290.4,263.1l-3.6,2.1l1.9,4.5l4.1-1.1c0.2,0.2,0.3,0.4,0.6,0.6c0.1,0.1,0.2,0.2,0.4,0.4
				c0.2,0.2,0.4,0.4,0.6,0.6l-1.1,4.1l4.5,1.9l2.1-3.7c0.3,0,0.5,0,0.9,0.1c0.2,0,0.3,0,0.5,0c0.3,0,0.6,0,0.8,0l2.1,3.7l4.5-1.9
				l-1.1-4.1c0.2-0.2,0.4-0.3,0.6-0.6c0.1-0.1,0.2-0.2,0.4-0.4c0.2-0.2,0.4-0.4,0.6-0.6l4.1,1.1l1.9-4.5l-3.6-2.1
				C307.1,271.4,295.4,271.9,290.4,263.1z"/>
		</g>
		<path class="st34" d="M246.6,278.5c-1.4,1.3-1.2,3.9,0.6,5.7l0,0c1.8,1.8,4.4,2,5.7,0.6c6.2-6.5,12.4-13.1,18.5-19.6
			c1.3-1.4,1.2-3.7-0.2-5.1l0,0c-1.4-1.4-3.7-1.5-5.1-0.2C259.6,266.1,253.1,272.3,246.6,278.5z"/>
		<path class="st35" d="M296.6,234.7c-5.9-5.9-15.5-5.9-21.4,0s-5.9,15.5,0,21.4c5.9,5.9,15.5,5.9,21.4,0
			C302.6,250.2,302.6,240.6,296.6,234.7z"/>
		<path class="st36" d="M269.3,259l3.1,3.1c0.7,0.7,1.9,0.7,2.7,0l0.7-0.7c0.7-0.7,0.7-1.9,0-2.7l-3.1-3.1c-0.7-0.7-1.9-0.7-2.7,0
			l-0.7,0.7C268.6,257.1,268.6,258.3,269.3,259z"/>
		<path class="st34" d="M299.4,258.8c-7.4,7.4-19.4,7.4-26.9,0c-7.4-7.4-7.4-19.4,0-26.9c7.4-7.4,19.4-7.4,26.9,0
			C306.8,239.4,306.8,251.4,299.4,258.8z M275.3,256.1c5.9,5.9,15.5,5.9,21.4,0s5.9-15.5,0-21.4s-15.5-5.9-21.4,0
			S269.4,250.2,275.3,256.1z"/>
		<path class="st26" d="M280.4,236.7l-2.1-2.9c3.3-2.3,7.4-3,11.1-2l-0.9,3.4C285.8,234.5,282.8,235,280.4,236.7z"/>
		<path class="st37" d="M298.1,278.6L298.1,278.6C298.1,278.6,298.1,278.6,298.1,278.6C298.1,278.6,298.1,278.6,298.1,278.6z"/>
		<path class="st37" d="M300,244.3L300,244.3c-0.3,0-0.6,0-0.8,0c-0.5,0-0.9,0-1.3,0.1l-3.3-5.6l-6.9,2.9l1.7,6.3
			c-0.3,0.2-0.6,0.5-1,0.8c-0.2,0.2-0.3,0.3-0.5,0.5l-0.1,0.1c-0.3,0.3-0.6,0.6-0.8,1l-6.3-1.7l-2.9,6.9l5.6,3.3
			c0,0.4-0.1,0.9-0.1,1.3c0,0.3,0,0.5,0,0.8c0,0.4,0,0.7,0.1,1c3.3,1.1,6.8,1,10.1-0.2c-0.1-0.4-0.1-0.8-0.1-1.3
			c0-1.7,0.6-3.1,1.8-4.3c1.2-1.2,2.6-1.8,4.3-1.8c0.8,0,1.5,0.1,2.1,0.4c2.1-3.9,2.3-8.4,0.8-12.5l-1.3,2.2
			C300.8,244.4,300.4,244.4,300,244.3z"/>
		<path class="st34" d="M299.4,258.8c-7.4,7.4-19.4,7.4-26.9,0c-7.4-7.4-7.4-19.4,0-26.9c7.4-7.4,19.4-7.4,26.9,0
			C306.8,239.4,306.8,251.4,299.4,258.8z M275.3,256.1c5.9,5.9,15.5,5.9,21.4,0s5.9-15.5,0-21.4s-15.5-5.9-21.4,0
			S269.4,250.2,275.3,256.1z"/>
		<path class="st22" d="M250.6,274.7c-1.3,1.3-2.7,2.5-4,3.8c-1.4,1.3-1.2,3.9,0.6,5.7c1.8,1.8,4.4,2,5.7,0.6
			c4.5-4.8,9-9.6,13.6-14.3C261.8,272.7,256.4,274.2,250.6,274.7z"/>
	</g>
</g>
<g>
	<g>
		<path class="st27" d="M254.8,197L254.8,197l-0.1,0.1c-0.1,0.1-0.2,0.2-0.2,0.2l0,0c-3.2,3.3-5.7,8.4-5.8,12.3l0,0
			c0,0.2,0,0.3,0,0.5s0,0.3,0,0.5s0,0.4,0.1,0.5c0,0.1,0,0.3,0.1,0.4c0,0.2,0.1,0.4,0.2,0.5c0,0.1,0.1,0.3,0.1,0.4
			c0.1,0.2,0.2,0.4,0.3,0.5c0,0.1,0.1,0.2,0.1,0.3c0.2,0.3,0.3,0.5,0.6,0.7c0.2,0.2,0.4,0.4,0.7,0.6c0.1,0.1,0.2,0.1,0.3,0.1
			c0.2,0.1,0.3,0.2,0.5,0.3c0.1,0,0.2,0.1,0.4,0.1c0.2,0.1,0.3,0.1,0.5,0.2c0.1,0,0.3,0,0.4,0.1c0.2,0,0.4,0.1,0.5,0.1
			c0.2,0,0.3,0,0.5,0s0.4,0,0.5,0c0.2,0,0.4,0,0.6,0s0.4,0,0.5-0.1c0.2,0,0.4-0.1,0.6-0.1s0.4-0.1,0.5-0.1h0.1c0,0,0,0,0.1,0
			c0.2,0,0.3-0.1,0.5-0.1s0.3-0.1,0.5-0.1c0,0,0,0,0.1,0s0.2-0.1,0.2-0.1c0.1,0,0.3-0.1,0.4-0.1c0.2-0.1,0.3-0.1,0.5-0.2
			c0,0,0,0,0.1,0s0.2-0.1,0.4-0.1c0.1,0,0.2-0.1,0.3-0.1c0.2-0.1,0.3-0.1,0.5-0.2c0,0,0,0,0.1,0c0.2-0.1,0.3-0.2,0.5-0.2
			c0.1,0,0.1-0.1,0.2-0.1c0.1-0.1,0.3-0.1,0.4-0.2l0,0c0.2-0.1,0.4-0.2,0.6-0.3c0,0,0.1,0,0.1-0.1c0.1-0.1,0.3-0.2,0.4-0.2l0,0
			c0.2-0.1,0.4-0.3,0.7-0.4c0,0,0,0,0.1,0c0.1-0.1,0.3-0.2,0.4-0.2l0,0c0.2-0.2,0.5-0.3,0.7-0.5l0,0l0.1-0.1c0.7-0.5,1.3-1,1.9-1.6
			c0.1-0.1,0.1-0.1,0.2-0.2l0,0l0,0c0.1-0.1,0.2-0.2,0.2-0.2c4.8-4.8,3.7-9.2,0.4-12.6C263.9,193.4,259.5,192.4,254.8,197z"/>
		<path class="st27" d="M270.6,193.1c-1.3-1.3-2.8-2.3-4.4-3c-0.5-0.2-1.1,0-1.3,0.5c-0.2,0.5,0,1.1,0.5,1.3
			c2.9,1.3,5.4,3.8,6.6,6.8c0,0.1,0.1,0.2,0.2,0.3c0.3,0.3,0.7,0.4,1.1,0.2c0.5-0.2,0.7-0.8,0.5-1.3
			C273.1,196.1,272.1,194.4,270.6,193.1z"/>
		<path class="st27" d="M273.4,190.4c-1.7-1.7-3.7-3-5.9-3.9c-0.2-0.1-0.5-0.1-0.7,0s-0.4,0.3-0.5,0.5c-0.2,0.5,0.1,1.1,0.5,1.3
			c2,0.8,3.7,1.9,5.2,3.5c1.6,1.6,2.8,3.5,3.6,5.5c0,0.1,0.1,0.2,0.2,0.3c0.3,0.3,0.7,0.4,1,0.2c0.2-0.1,0.4-0.3,0.5-0.5
			s0.1-0.5,0-0.7C276.5,194.3,275.1,192.2,273.4,190.4z"/>
		<path class="st27" d="M276,187.8c-2.1-2.1-4.5-3.7-7.3-4.7c-0.2-0.1-0.5-0.1-0.7,0s-0.4,0.3-0.5,0.5c-0.2,0.5,0.1,1.1,0.6,1.2
			c2.5,0.9,4.7,2.4,6.6,4.3c2,2,3.4,4.3,4.4,6.9c0,0.1,0.1,0.3,0.2,0.4c0.3,0.3,0.7,0.4,1,0.2c0.2-0.1,0.4-0.3,0.5-0.5
			s0.1-0.5,0-0.7C279.8,192.5,278.1,189.9,276,187.8z"/>
		<path class="st27" d="M284.3,194.2c-1.2-3.4-3.1-6.5-5.6-9.1c-2.5-2.5-5.4-4.4-8.7-5.5c-0.2-0.1-0.5-0.1-0.7,0s-0.4,0.3-0.5,0.5
			c-0.2,0.5,0.1,1.1,0.6,1.2c3,1.1,5.7,2.8,8,5.1c2.4,2.4,4.1,5.2,5.2,8.3c0,0.1,0.1,0.3,0.2,0.4c0.3,0.3,0.6,0.4,1,0.2
			C284.1,195.2,284.5,194.7,284.3,194.2z"/>
	</g>
	<g>
		<g>
			<path class="st37" d="M248.5,213.3c-3.4-3.4-0.1-12.1,4.6-16.9c4.8-4.8,9.2-3.7,12.6-0.3s4.4,7.9-0.4,12.6
				C260.6,213.5,251.9,216.7,248.5,213.3z"/>
			<g>
				<path class="st38" d="M265.4,208.7l0.1-0.1l-5.9-5.9l6.3-6.3c-0.1-0.1-0.2-0.2-0.2-0.3c-0.1-0.1-0.2-0.2-0.3-0.2l-6.3,6.3
					l-5.9-5.9l-0.1,0.1c-0.1,0.1-0.2,0.2-0.2,0.2l12.3,12.3C265.1,208.9,265.3,208.8,265.4,208.7z"/>
			</g>
			<g>
				<path class="st39" d="M260.3,201.5c-0.3-0.4-0.3-1.1,0.1-1.5l2.8-2.8c0.4-0.4,1.1-0.5,1.5-0.1c0.3,0.4,0.3,1.1-0.1,1.5l-2.8,2.8
					C261.4,201.8,260.8,201.8,260.3,201.5z"/>
				<path class="st38" d="M265.1,196.7L265.1,196.7c-0.7-0.5-1.6-0.5-2.2,0.1l-2.8,2.8c-0.6,0.6-0.7,1.5-0.2,2.2l0,0l0,0
					c0.6,0.5,1.6,0.4,2.2-0.2l2.8-2.8C265.6,198.3,265.6,197.4,265.1,196.7L265.1,196.7L265.1,196.7z"/>
			</g>
		</g>
		<g>
			<path class="st37" d="M272.4,197.2c-0.7-1.8-1.8-3.4-3.2-4.8c-1.3-1.3-2.8-2.3-4.4-3c-0.5-0.2-1.1,0-1.3,0.5
				c-0.2,0.5,0,1.1,0.5,1.3c2.9,1.3,5.4,3.8,6.6,6.8c0,0.1,0.1,0.2,0.2,0.3c0.3,0.3,0.7,0.4,1,0.2
				C272.3,198.2,272.6,197.7,272.4,197.2z"/>
			<path class="st37" d="M275.8,196c-0.9-2.3-2.2-4.4-4-6.2c-1.7-1.7-3.7-3-5.9-3.9c-0.2-0.1-0.5-0.1-0.7,0s-0.4,0.3-0.5,0.5
				c-0.2,0.5,0.1,1.1,0.5,1.3c2,0.8,3.7,1.9,5.2,3.5c1.6,1.6,2.8,3.5,3.6,5.5c0,0.1,0.1,0.2,0.2,0.3c0.3,0.3,0.7,0.4,1,0.2
				c0.2-0.1,0.4-0.3,0.5-0.5C275.9,196.5,275.9,196.2,275.8,196z"/>
			<path class="st37" d="M279.3,194.7c-1-2.9-2.6-5.5-4.8-7.6c-2.1-2.1-4.5-3.7-7.3-4.7c-0.2-0.1-0.5-0.1-0.7,0s-0.4,0.3-0.5,0.5
				c-0.2,0.5,0.1,1.1,0.6,1.2c2.5,0.9,4.7,2.4,6.6,4.3c2,2,3.4,4.3,4.4,6.9c0,0.1,0.1,0.3,0.2,0.4c0.3,0.3,0.7,0.4,1,0.2
				c0.2-0.1,0.4-0.3,0.6-0.5S279.4,195,279.3,194.7z"/>
			<path class="st37" d="M282.6,193.5c-1.2-3.4-3.1-6.5-5.6-9.1c-2.5-2.5-5.4-4.4-8.7-5.5c-0.2-0.1-0.5-0.1-0.7,0s-0.4,0.3-0.5,0.5
				c-0.2,0.5,0.1,1.1,0.6,1.2c3,1.1,5.7,2.8,8,5.1c2.4,2.4,4.1,5.2,5.2,8.3c0,0.1,0.1,0.3,0.2,0.4c0.3,0.3,0.6,0.4,1,0.2
				C282.6,194.6,282.9,194,282.6,193.5z"/>
		</g>
		<path class="st9" d="M255.8,210.4c-3,0-6-0.5-8.7-1.4c0,0.2,0,0.3,0,0.5s0,0.3,0,0.5s0,0.4,0.1,0.5c0,0.1,0,0.3,0.1,0.4
			c0,0.2,0.1,0.4,0.2,0.5c0,0.1,0.1,0.3,0.1,0.4c0.1,0.2,0.2,0.4,0.3,0.5c0,0.1,0.1,0.2,0.1,0.3c0.2,0.3,0.3,0.5,0.6,0.7
			c0.2,0.2,0.4,0.4,0.7,0.6c0.1,0.1,0.2,0.1,0.3,0.1c0.2,0.1,0.3,0.2,0.5,0.3c0.1,0,0.2,0.1,0.4,0.1c0.2,0.1,0.3,0.1,0.5,0.2
			c0.1,0,0.3,0,0.4,0.1c0.2,0,0.4,0.1,0.5,0.1c0.2,0,0.3,0,0.5,0s0.4,0,0.5,0c0.2,0,0.4,0,0.6,0s0.4,0,0.5-0.1
			c0.2,0,0.4-0.1,0.6-0.1s0.4-0.1,0.5-0.1c0.2,0,0.4-0.1,0.7-0.2c0.2,0,0.3-0.1,0.5-0.1c0.2-0.1,0.5-0.2,0.7-0.2
			c0.2-0.1,0.3-0.1,0.5-0.2c0.2-0.1,0.5-0.2,0.7-0.3s0.3-0.1,0.5-0.2c0.2-0.1,0.5-0.2,0.7-0.4c0.1-0.1,0.3-0.1,0.4-0.2
			c0.3-0.1,0.5-0.3,0.7-0.4c0.1-0.1,0.3-0.2,0.4-0.2c0.3-0.1,0.5-0.3,0.7-0.5c0.1-0.1,0.3-0.2,0.4-0.2c0.2-0.2,0.5-0.3,0.7-0.5
			c0.1-0.1,0.2-0.2,0.4-0.3c0.2-0.2,0.5-0.4,0.7-0.5c0.1-0.1,0.2-0.2,0.3-0.3c0.2-0.2,0.4-0.4,0.6-0.6c0.1-0.1,0.2-0.1,0.2-0.2
			c0.1-0.1,0.2-0.1,0.2-0.2C262.4,209.8,259.1,210.4,255.8,210.4z"/>
	</g>
</g>
<g class="st40">
	<path class="st17" d="M267.1,171.7L267.1,171.7l-1.3-0.5l0.3-1.1c-0.1,0-0.1-0.1-0.2-0.1l-0.1-0.1c-0.1-0.1-0.1-0.1-0.1-0.2
		l-1.1,0.3l0,0h-0.1l-0.5-1l0,0c0,0,0,0,0.1,0l-0.1-0.2l1-0.6c0-0.1,0-0.1,0-0.2v-0.1c0-0.1,0-0.2,0-0.2l-1-0.6l0.1-0.2
		c0,0,0,0-0.1,0l0.4-1.1h0.1l0,0l1.1,0.3c0-0.1,0.1-0.1,0.1-0.2l0.1-0.1l0,0c0.1-0.1,0.1-0.1,0.2-0.2l-0.3-1.1l1.2-0.5l0,0l0,0
		l0.6,1c0.1,0,0.1,0,0.2,0l0,0l0,0l0,0l0,0l0,0l0,0c0.1,0,0.1,0,0.2,0l0.6-1l0,0l0,0l1.2,0.5l-0.3,1.1c0.1,0,0.1,0.1,0.2,0.1l0,0
		l0.1,0.1c0.1,0.1,0.1,0.1,0.1,0.2l1.1-0.3l0,0h0.1l0.5,1.1c0,0,0,0-0.1,0l0.1,0.2l-1,0.6c0,0.1,0,0.1,0,0.2v0.1c0,0.1,0,0.2,0,0.2
		l1,0.6l-0.1,0.2c0,0,0,0,0.1,0l0,0l-0.4,1H271l0,0l-1.1-0.3c0,0.1-0.1,0.1-0.1,0.2l-0.1,0.1c-0.1,0.1-0.1,0.1-0.2,0.2l0.3,1.1
		l-1.2,0.5l0,0l0,0l-0.6-1c-0.1,0-0.1,0-0.2,0c0,0,0,0-0.1,0l0,0l0,0l0,0l0,0c0,0,0,0-0.1,0s-0.1,0-0.2,0L267.1,171.7L267.1,171.7z
		 M268,169c0.3,0,0.5-0.2,0.7-0.4s0.4-0.5,0.3-0.9c0-0.3-0.1-0.6-0.4-0.9c-0.2-0.2-0.5-0.3-0.7-0.3c-0.3,0-0.5,0.2-0.7,0.4
		s-0.4,0.5-0.3,0.9c0,0.3,0.1,0.6,0.4,0.9C267.5,168.9,267.6,169,268,169z"/>
</g>
<g class="st41">
	<path class="st14" d="M13.1,134.5L13.1,134.5l2.6,0.5l-0.1,2.3c0.1,0.1,0.3,0.1,0.4,0.2c0.1,0,0.1,0.1,0.2,0.2
		c0.1,0.1,0.2,0.2,0.3,0.3l2-1l0,0h0.1l1.2,1.8l0,0h-0.1l0.2,0.3l-1.7,1.5c0,0.1,0.1,0.3,0.1,0.4c0,0.1,0,0.2,0.1,0.3
		c0,0.2,0.1,0.3,0.1,0.5l2.2,0.7l-0.1,0.3h0.1l-0.4,2.3h-0.1l0,0L18,145c-0.1,0.1-0.1,0.2-0.2,0.4c0,0.1-0.1,0.1-0.1,0.2l0,0
		c-0.1,0.1-0.2,0.2-0.3,0.4l1,2.1l-2.2,1.5l0,0l-0.1,0.1l-1.5-1.7c-0.1,0-0.2,0.1-0.3,0.1h-0.1l0,0h-0.1H14l0,0h-0.1
		c-0.1,0-0.2,0-0.3,0l-0.7,2.2h-0.1l0,0l-2.6-0.5l0.1-2.3c-0.1-0.1-0.3-0.1-0.4-0.2l0,0c-0.1,0-0.1-0.1-0.2-0.1
		c-0.1-0.1-0.2-0.2-0.3-0.3l-2,1l0,0H7.3L6,146h0.1l-0.2-0.3l1.7-1.5c0-0.1-0.1-0.3-0.1-0.5c0-0.1,0-0.2-0.1-0.3
		c0-0.2,0-0.3-0.1-0.4l-2.2-0.7l0.1-0.4H5.1l0,0l0.4-2.2h0.1l0,0l2.2,0.1c0.1-0.1,0.1-0.2,0.2-0.4c0.1-0.1,0.1-0.2,0.2-0.2
		c0.1-0.1,0.2-0.3,0.3-0.4l-1-2.1l2.2-1.5l0,0l0.1-0.1l1.5,1.7c0.1,0,0.2-0.1,0.3-0.1h0.1l0,0h0.1h0.1l0,0H12c0.1,0,0.2,0,0.3,0
		L13.1,134.5L13.1,134.5z M12.4,139.9c-0.5,0.2-0.9,0.5-1.2,0.9c-0.4,0.6-0.5,1.2-0.4,1.8c0.1,0.7,0.5,1.2,1.1,1.5
		c0.5,0.3,1,0.4,1.5,0.4c0.5-0.2,0.9-0.5,1.2-0.9c0.4-0.5,0.5-1.1,0.4-1.8s-0.5-1.2-1.1-1.5C13.4,140,12.9,139.9,12.4,139.9z"/>
</g>
<g class="st42">
	<path class="st43" d="M16.4,206.4L16.4,206.4l2.6,0.5l-0.1,2.3c0.1,0.1,0.3,0.1,0.4,0.2c0.1,0,0.1,0.1,0.2,0.2
		c0.1,0.1,0.2,0.2,0.3,0.3l2-1l0,0h0.1l1.2,1.8l0,0H23l0.2,0.3l-1.7,1.5c0,0.1,0.1,0.3,0.1,0.4c0,0.1,0,0.2,0.1,0.3
		c0,0.2,0.1,0.3,0.1,0.5l2.2,0.7l-0.1,0.3H24l-0.4,2.3h-0.1l0,0l-2.2-0.1c-0.1,0.1-0.1,0.2-0.2,0.4c0,0.1-0.1,0.1-0.1,0.2l0,0
		c-0.1,0.1-0.2,0.2-0.3,0.4l1,2.1l-2.2,1.5l0,0l-0.1,0.1l-1.5-1.7c-0.1,0-0.2,0.1-0.3,0.1h-0.1l0,0h-0.1h-0.1l0,0h-0.1
		c-0.1,0-0.2,0-0.3,0l-0.7,2.2h-0.1l0,0l-2.6-0.5l0.1-2.3c-0.1-0.1-0.3-0.1-0.4-0.2l0,0c-0.1,0-0.1-0.1-0.2-0.1
		c-0.1-0.1-0.2-0.2-0.3-0.3l-2,1l0,0h-0.1l-1.3-1.9h0.1l-0.2-0.3l1.7-1.5c0-0.1-0.1-0.3-0.1-0.5c0-0.1,0-0.2-0.1-0.3
		c0-0.2,0-0.3-0.1-0.4l-2.2-0.7l0.1-0.4H8.4l0,0l0.4-2.2h0.1l0,0l2.2,0.1c0.1-0.1,0.1-0.2,0.2-0.4c0.1-0.1,0.1-0.2,0.2-0.2
		c0.1-0.1,0.2-0.3,0.3-0.4l-1-2.1l2.2-1.5l0,0l0.1-0.1l1.5,1.7c0.1,0,0.2-0.1,0.3-0.1H15l0,0h0.1h0.1l0,0h0.1c0.1,0,0.2,0,0.3,0
		L16.4,206.4L16.4,206.4z M15.7,211.8c-0.5,0.2-0.9,0.5-1.2,0.9c-0.4,0.6-0.5,1.2-0.4,1.8c0.1,0.7,0.5,1.2,1.1,1.5
		c0.5,0.3,1,0.4,1.5,0.4c0.5-0.2,0.9-0.5,1.2-0.9c0.4-0.5,0.5-1.1,0.4-1.8s-0.5-1.2-1.1-1.5C16.7,211.9,16.2,211.8,15.7,211.8z"/>
</g>
<g class="st41">
	<path class="st14" d="M291.8,201L291.8,201l2.6,0.5l-0.1,2.3c0.1,0.1,0.3,0.1,0.4,0.2c0.1,0,0.1,0.1,0.2,0.2
		c0.1,0.1,0.2,0.2,0.3,0.3l2-1l0,0h0.1l1.2,1.8l0,0h-0.1l0.2,0.3l-1.7,1.5c0,0.1,0.1,0.3,0.1,0.4c0,0.1,0,0.2,0.1,0.3
		c0,0.2,0.1,0.3,0.1,0.5l2.2,0.7l-0.1,0.3h0.1l-0.4,2.3h-0.1l0,0l-2.2-0.1c-0.1,0.1-0.1,0.2-0.2,0.4c0,0.1-0.1,0.1-0.1,0.2l0,0
		c-0.1,0.1-0.2,0.2-0.3,0.4l1,2.1l-2.2,1.5l0,0l-0.1,0.1l-1.5-1.7c-0.1,0-0.2,0.1-0.3,0.1h-0.1l0,0h-0.1h-0.1l0,0h-0.1
		c-0.1,0-0.2,0-0.3,0l-0.7,2.2h-0.1l0,0l-2.6-0.5l0.1-2.3c-0.1-0.1-0.3-0.1-0.4-0.2l0,0c-0.1,0-0.1-0.1-0.2-0.1
		c-0.1-0.1-0.2-0.2-0.3-0.3l-2,1l0,0H286l-1.3-1.9h0.1l-0.2-0.3l1.7-1.5c0-0.1-0.1-0.3-0.1-0.5c0-0.1,0-0.2-0.1-0.3
		c0-0.2,0-0.3-0.1-0.4l-2.2-0.7l0.1-0.4h-0.1l0,0l0.4-2.2h0.1l0,0l2.2,0.1c0.1-0.1,0.1-0.2,0.2-0.4c0.1-0.1,0.1-0.2,0.2-0.2
		c0.1-0.1,0.2-0.3,0.3-0.4l-1-2.1l2.2-1.5l0,0l0.1-0.1l1.5,1.7c0.1,0,0.2-0.1,0.3-0.1h0.1l0,0h0.1h0.1l0,0h0.1c0.1,0,0.2,0,0.3,0
		L291.8,201L291.8,201z M291.1,206.5c-0.5,0.2-0.9,0.5-1.2,0.9c-0.4,0.6-0.5,1.2-0.4,1.8c0.1,0.7,0.5,1.2,1.1,1.5
		c0.5,0.3,1,0.4,1.5,0.4c0.5-0.2,0.9-0.5,1.2-0.9c0.4-0.5,0.5-1.1,0.4-1.8s-0.5-1.2-1.1-1.5C292.1,206.5,291.6,206.4,291.1,206.5z"
		/>
</g>
<g>
	<path class="st14" d="M6.4,283.4l2.5-1.4c0.1,0,0.2,0,0.3,0c0.8,0.7,1.3,1.5,1.4,2.5c0,0.1,0,0.2-0.1,0.3l-2.4,1.4
		c-0.2,0.1-0.2,0.5,0,0.6c1.5,0.8,3.6,0.5,4.4-0.2c0.9-0.7,1.5-2.2,1.4-3.3c0-0.1,0-0.1,0-0.2c0-0.5,0.2-0.9,0.5-1.2l1.5-1.5
		l10.6-10.6c0.4-0.4,0.9-0.5,1.4-0.5c2.3,0.2,3.9-1,4.4-3.2l0,0c0-0.1,0.1-0.4,0.1-0.5s0-0.3-0.1-0.3c-0.1-0.1-0.2,0-0.3,0l-2.5,1.4
		c-0.1,0-0.2,0-0.3,0c-0.8-0.7-1.2-1.5-1.4-2.5c0-0.1,0-0.2,0.1-0.3l2.4-1.4c0.2-0.1,0.2-0.5,0-0.6c-1.5-0.8-3.6-0.5-4.4,0.2
		c-0.9,0.7-1.5,2.2-1.4,3.3c0,0.1,0,0.1,0,0.2c0,0.5-0.2,0.9-0.5,1.2l-1.5,1.5L12,278.8c-0.4,0.4-0.9,0.5-1.4,0.5
		c-2.3-0.2-3.9,1-4.4,3.2l0,0c0,0.1-0.1,0.3-0.1,0.5s0,0.3,0.1,0.3C6.2,283.4,6.3,283.4,6.4,283.4z M13.1,279.6L24.7,268
		c0.2-0.2,0.5-0.2,0.7,0s0.2,0.5,0,0.7l-11.6,11.6c-0.1,0.1-0.2,0.1-0.4,0.1c-0.1,0-0.3,0-0.4-0.1C12.9,280.1,12.9,279.8,13.1,279.6
		z"/>
	<path class="st14" d="M23,278.1c0.1,0.5,0.3,0.9,0.6,1.4l-0.5,0.5l1.6,1.6l0.5-0.5c0.4,0.3,0.9,0.5,1.4,0.6l2.4-1.8
		c2.9-2.9,5.7-5.7,8.6-8.6c0.1-0.1,0.2-0.3,0.2-0.5c-0.1-2-1.9-3.8-3.9-3.9c-0.2,0-0.4,0.1-0.5,0.2c-2.9,2.9-5.7,5.7-8.6,8.6
		L23,278.1z M36.8,270.5c0.2,0.2,0.2,0.4,0,0.5l-7.6,7.6c-0.1,0.1-0.4,0.1-0.5,0c-0.2-0.2-0.2-0.4,0-0.5l7.6-7.6
		C36.4,270.3,36.6,270.4,36.8,270.5z M35.8,268.8c0.2,0.2,0.2,0.4,0,0.5l-8,8c-0.1,0.1-0.4,0.1-0.5,0c-0.2-0.2-0.2-0.4,0-0.5l8-8
		C35.4,268.7,35.7,268.7,35.8,268.8z M26,275.5l7.6-7.6c0.1-0.1,0.4-0.1,0.5,0c0.2,0.2,0.2,0.4,0,0.5l-7.6,7.6
		c-0.1,0.1-0.4,0.1-0.5,0C25.9,275.9,25.9,275.6,26,275.5z"/>
	<path class="st14" d="M35,285.1l-1.5,0.4c-0.1-0.1-0.1-0.2-0.2-0.2l-0.1-0.1c-0.1-0.1-0.2-0.1-0.2-0.2l0.4-1.5l-1.7-0.7l-0.8,1.4
		c-0.1,0-0.2,0-0.3,0l0,0c-0.1,0-0.1,0-0.2,0s-0.2,0-0.3,0l-0.8-1.4l-1.7,0.7L28,285c-0.1,0.1-0.2,0.1-0.2,0.2l-0.1,0.1l0,0
		c-0.1,0.1-0.1,0.2-0.2,0.2l-1.5-0.4l-0.7,1.7l1.4,0.8c0,0.1,0,0.2,0,0.3c0,0.1,0,0.1,0,0.2s0,0.2,0,0.3l-1.4,0.8l0.7,1.7l1.5-0.4
		c0.1,0.1,0.1,0.2,0.2,0.2l0.1,0.1c0.1,0.1,0.2,0.1,0.2,0.2l-0.4,1.5l1.7,0.7l0.8-1.4c0.1,0,0.2,0,0.3,0c0.1,0,0.1,0,0.2,0
		s0.2,0,0.3,0l0.8,1.4l1.7-0.7L33,291c0.1-0.1,0.2-0.1,0.2-0.2l0.1-0.1c0.1-0.1,0.1-0.2,0.2-0.2l1.5,0.4l0.7-1.7l-1.4-0.8
		c0-0.1,0-0.2,0-0.3c0-0.1,0-0.1,0-0.2s0-0.2,0-0.3l1.4-0.8L35,285.1z M30.4,289.5c-0.8,0-1.5-0.7-1.5-1.5s0.7-1.5,1.5-1.5
		s1.5,0.7,1.5,1.5S31.2,289.5,30.4,289.5z"/>
	<polygon class="st14" points="23.1,280.8 15.1,288.7 15.1,288.7 13.5,289.6 12.6,291.3 13.5,292.1 15.1,291.2 16,289.6 16,289.6 
		24,281.6 	"/>
</g>
<path class="st44" d="M235.2,190.7l-25.2,0.5c-1.5,0-2.7,1.3-2.7,2.8l0.5,25.1c0,1.5,1.3,2.7,2.8,2.7l25.2-0.5
	c1.5,0,2.7-1.3,2.7-2.8l-0.5-25.1C238,191.9,236.8,190.7,235.2,190.7z M211.9,206.5l7.5-7.8l7.8,7.5l-7.5,7.8L211.9,206.5z
	 M226.5,213.8l-1.7-1.7l5.8-6.1l-6.1-5.8l1.7-1.7l7.8,7.5L226.5,213.8z"/>
<g>
	
		<linearGradient id="path87_1_" gradientUnits="userSpaceOnUse" x1="110.4691" y1="241.3467" x2="110.4691" y2="275.4893" gradientTransform="matrix(0.8678 1.379752e-02 -1.445977e-02 0.9094 -9.5125 -90.9333)">
		<stop  offset="0" style="stop-color:#096FD2"/>
		<stop  offset="1" style="stop-color:#0E8EE9"/>
	</linearGradient>
	<path id="path87" class="st45" d="M94.5,130.3L71.1,130c-1.7,0-3.1,1.4-3.1,3.2l-0.4,24.5c0,1.8,1.3,3.2,3,3.3l23.4,0.4
		c1.7,0,3.1-1.4,3.1-3.2l0.4-24.5C97.6,131.8,96.3,130.4,94.5,130.3C94.5,130.3,94.5,130.3,94.5,130.3z M82.4,158.4
		c-6.8-0.2-12.2-6-12-13c0.1-7,5.6-12.7,12.4-12.6c6.8,0.2,12.2,6,12,13C94.7,152.9,89.2,158.5,82.4,158.4L82.4,158.4z"/>
	
		<linearGradient id="path89_1_" gradientUnits="userSpaceOnUse" x1="110.4587" y1="71.0244" x2="110.4557" y2="80.0507" gradientTransform="matrix(0.8678 1.379752e-02 1.445977e-02 -0.9094 -14.341 212.8085)">
		<stop  offset="0" style="stop-color:#096FD2"/>
		<stop  offset="1" style="stop-color:#0E8EE9"/>
	</linearGradient>
	<path id="path89" class="st46" d="M93.9,145.8l-8.4-4.2l0.6,2.6l-7.1-0.1l0.7-2.6l-8.5,4l8.4,4.2l-0.6-2.6l7.1,0.1l-0.7,2.6
		L93.9,145.8"/>
</g>
</svg>
