<?xml version="1.0" encoding="utf-8"?>
<!-- Generator: Adobe Illustrator 24.0.0, SVG Export Plug-In . SVG Version: 6.00 Build 0)  -->
<svg version="1.1" id="Capa_1" xmlns="http://www.w3.org/2000/svg" xmlns:xlink="http://www.w3.org/1999/xlink" x="0px" y="0px"
	 viewBox="0 0 87.1 92.8" style="enable-background:new 0 0 87.1 92.8;" xml:space="preserve">
<style type="text/css">
	.st0{display:none;}
	.st1{fill:#0063AD;}
	.st2{fill:#AD0C41;}
	.st3{display:inline;}
	.st4{fill:#0063AD;stroke:#0063AD;stroke-width:3;stroke-miterlimit:10;}
</style>
<g id="Capa_1_1_" class="st0">
	
		<image style="display:inline;overflow:visible;enable-background:new    ;" width="150" height="150" xlink:href="sunat.png"  transform="matrix(2.4011 0 0 2.4011 2.3126 -133.9197)">
	</image>
</g>
<g id="Capa_2_1_">
	<g>
		<path class="st1" d="M19.1,32.1L0,51l40.6,40.8c0,0,3.1,2.2,5.9-0.4c3.8-3.1,15.2-16.2,17.1-18.6c4-5.8,3.6-15.1-10-19.7
			c-13-3.7-19.7,1.6-28.9-2.8c-3.8-1.9-5.4-5.1-3.6-13.7C22.3,31.5,20.5,30.8,19.1,32.1z"/>
		<path class="st2" d="M68,60.6l19.1-18.9L46.5,0.9c0,0-3.1-2.2-5.9,0.4c-3.8,3.1-15.2,16.2-17.1,18.6c-4,5.8-3.6,15.1,10,19.7
			c13,3.7,19.2-1.7,28.4,2.7c3.8,1.9,5.9,5.2,4,13.8C64.8,61.2,66.6,61.8,68,60.6z"/>
	</g>
</g>
<g id="Capa_3" class="st0">
	<g class="st3">
		<path class="st4" d="M104.3,67.4c-2.6-0.4-5.1-1-7.4-1.7c-2.3-0.8-4.4-1.7-6.2-2.8l5-6.4c2.2,1.3,4.8,2.3,7.7,3
			c2.9,0.7,5.9,1.1,8.9,1.1c3.5,0,6.3-0.4,8.2-1.3c2-0.9,2.9-2.1,2.9-3.6l0,0c0-1.1-0.4-2-1.3-2.6s-2-1.1-3.4-1.4
			c-1.4-0.3-3.2-0.6-5.4-0.8c-0.1,0-0.2,0-0.2,0c-0.1,0-0.1,0-0.2,0l-0.9-0.1c-3.9-0.4-7-1-9.6-1.6c-2.5-0.7-4.7-1.8-6.4-3.4
			c-1.8-1.6-2.7-4-2.7-7l0,0c0-2.7,0.8-4.9,2.5-6.8c1.7-1.9,4.1-3.3,7.2-4.3c3.2-1,7-1.5,11.5-1.5c2.1,0,4.2,0.2,6.3,0.5
			c2.1,0.3,4.3,0.8,6.3,1.5c2.1,0.6,4,1.4,5.9,2.3l-4.6,6.6c-2.2-1.1-4.5-1.9-6.9-2.6c-2.4-0.6-4.7-0.9-6.9-0.9
			c-3.3,0-5.9,0.4-7.7,1.2c-1.8,0.8-2.7,1.9-2.7,3.3l0,0c0,1.2,0.5,2.1,1.4,2.8s2.1,1.2,3.5,1.5s3.4,0.7,5.9,1c0.1,0,0.2,0,0.3,0
			c0.1,0,0.2,0,0.3,0c0.2,0,0.3,0,0.5,0.1c0.1,0,0.3,0.1,0.5,0.1c3.6,0.5,6.7,1.1,9.1,1.9c2.4,0.7,4.5,1.9,6.1,3.5
			c1.6,1.6,2.5,3.8,2.5,6.6v0.1c0,2.6-0.9,4.9-2.6,6.7c-1.7,1.9-4.2,3.3-7.5,4.3s-7.2,1.5-11.8,1.5C109.6,68,106.9,67.8,104.3,67.4z
			"/>
		<path class="st4" d="M151.9,66.2c-3.1-1.2-5.5-2.9-7.2-5.2c-1.6-2.3-2.5-5.1-2.5-8.3V26.3H153v26.5c0,2.4,0.9,4.2,2.7,5.5
			s4.3,2,7.5,2s5.8-0.7,7.5-2c1.8-1.3,2.7-3.1,2.7-5.5V26.3h10.8v26.3c0,3.2-0.8,6-2.5,8.3c-1.6,2.3-4,4-7.2,5.2
			c-3.2,1.2-6.9,1.8-11.4,1.8C158.8,68,155,67.4,151.9,66.2z"/>
		<path class="st4" d="M195.8,26.3h13.3l21.4,31.6l-1,0.7V26.3h10.4v41.2h-13.3l-21.3-31.1l0.9-0.7v31.8h-10.4L195.8,26.3
			L195.8,26.3z"/>
		<path class="st4" d="M268.7,26.3h6.9l22,41.2h-11.7l-13.8-28.2l-13.8,28.2h-11.7L268.7,26.3z M257.3,53.5h30.3V61h-30.3V53.5z"/>
		<path class="st4" d="M295.7,26.3h42.2v7.5h-42.2V26.3z M311.4,29.7h10.8v37.9h-10.8V29.7z"/>
	</g>
</g>
</svg>
