<?xml version="1.0" encoding="utf-8"?>
<!-- Generator: Adobe Illustrator 24.0.0, SVG Export Plug-In . SVG Version: 6.00 Build 0)  -->
<svg version="1.1" xmlns="http://www.w3.org/2000/svg" xmlns:xlink="http://www.w3.org/1999/xlink" x="0px" y="0px"
	 viewBox="0 0 553.5 390.9" style="enable-background:new 0 0 553.5 390.9;" xml:space="preserve">
<style type="text/css">
	.st0{display:none;}
	.st1{fill:#B8B3AD;}
	.st2{fill:#FFFFFF;}
	.st3{fill:none;stroke:#6E2143;stroke-width:8;stroke-miterlimit:10;}
	.st4{fill:none;stroke:#3C3F68;stroke-width:8;stroke-miterlimit:10;}
	.st5{display:inline;fill:#B8B3AD;}
	.st6{fill:#6E2143;}
	.st7{fill:none;stroke:#6E2143;stroke-width:4;stroke-miterlimit:10;}
</style>
<g id="Capa_1" class="st0">
	
		<image style="display:inline;overflow:visible;" width="150" height="150" xlink:href="img/reniec.png"  transform="matrix(3.8133 0 0 3.8133 -11.0838 -92.776)">
	</image>
</g>
<g id="Capa_5">
	<polygon class="st1" points="332.4,144.6 332.4,259.7 0,259.7 0,374.9 332.4,374.9 553.5,374.9 553.5,259.7 553.5,144.6 	"/>
</g>
<g id="Texto">
	<g>
		<path class="st2" d="M27.2,286H79c24.3,0,24.3,0,28.8,2.9c5.4,3.4,7,8.3,7,21.1c0,10.9-1.1,15.1-4.9,18.1c-2,1.7-4,2.4-8.2,3.1
			c10.9,1.3,12.8,4.6,12.3,21.6v6.8H92.9v-3.9c0-8.3-0.4-10.9-2.1-12.8c-1.5-1.8-3.1-2-11.9-2H48.6v18.6H27.2V286z M78.8,322.5
			c10.8-0.2,10.8-0.2,12.2-1.3c1.7-1.1,2.3-3.3,2.3-7.9c0-5-0.8-7.1-3.1-8c-1.5-0.7-1.8-0.7-11.5-0.8H48.6v18.1H78.8z"/>
		<path class="st2" d="M203.2,286v17.3h-56.8V314h53.9v16.2h-53.9v11.7h57.2v17.6h-78.3V286H203.2z"/>
		<path class="st2" d="M251.1,286l36.8,54.8h2.2l-0.5-54.8h21.8v73.6h-37.3l-37-54.9h-2.3l0.5,54.9h-21.8V286H251.1z"/>
		<path class="st2" d="M347,286v73.6h-22.5V286H347z"/>
		<path class="st2" d="M437.9,286v17.3h-56.8V314h53.9v16.2h-53.9v11.7h57.2v17.6h-78.3V286H437.9z"/>
		<path class="st2" d="M536.6,331.2c0.1,4.2,0.2,5.8,0.2,6.9c0,11.9-3,17.3-10.8,20c-5.7,1.9-13.4,2.5-29,2.5
			c-27.5,0-36.4-0.9-42.1-4.3c-4.6-2.8-6.8-6.8-7.6-14.3c-0.3-3.3-0.5-9.4-0.5-18.7c0-16.4,0.4-22.5,2-26.6
			c3.8-9.9,11.5-11.8,48.3-11.8c18.8,0,25.3,0.8,30.2,3.4c6,3.2,8.1,8.6,8.1,20.4v3.6H514c-0.2-4.9-0.4-5.8-1.7-6.9
			c-1.6-1.4-7.8-2.1-21.3-2.1c-13.4,0-17.3,0.4-19.4,2.2c-2.5,2.2-3.4,6.5-3.4,17.6c0,18.9,0.3,19.1,22.9,19.1
			c23.5,0,23.8-0.1,24-11H536.6z"/>
	</g>
</g>
<g id="Capa_6">
	<g>
		<line class="st3" x1="553.5" y1="263.5" x2="332.4" y2="263.6"/>
		<line class="st4" x1="553.5" y1="270.4" x2="332.4" y2="270.5"/>
	</g>
	<g>
		<line class="st3" x1="553.5" y1="378.1" x2="0" y2="378.1"/>
		<line class="st4" x1="553.5" y1="385.4" x2="0" y2="385.2"/>
	</g>
</g>
<g id="Capa_8" class="st0">
	<rect x="332.4" y="144.6" class="st5" width="221.1" height="125.3"/>
</g>
<g id="Capa_2">
	<g>
		<circle class="st6" cx="383" cy="32" r="29"/>
		<path class="st6" d="M407.5,68.8h-53.9c-7.4,0-13.4,6-13.4,13.4v76h80.7v-76C420.9,74.8,414.9,68.8,407.5,68.8z"/>
		<rect x="351.3" y="144.4" class="st6" width="58.4" height="97.5"/>
	</g>
	<g>
		<path class="st6" d="M538.4,31c0,16-13,29-29,29c-0.9,0-1.9,0-2.8-0.1V27.3c0-9-4.3-16.9-11-21.9c4.1-2.2,8.8-3.5,13.8-3.5
			C525.5,2,538.4,15,538.4,31z"/>
		<path class="st6" d="M550,82.5c0-7.4-6-13.4-13.4-13.4h-90c-7.4,0-13.4,6-13.4,13.4v76h47.3v83.4h58.4v-83.4H550V82.5z"/>
		<path class="st1" d="M506.7,27.3v32.5C492,58.4,480.4,46.1,480.4,31c0-11,6.2-20.6,15.2-25.5C502.3,10.4,506.7,18.4,506.7,27.3z"
			/>
		<path class="st6" d="M506.7,59.8V60H452V27.3C452,12.3,464.2,0,479.3,0c6.1,0,11.8,2,16.4,5.4c-9.1,4.9-15.2,14.5-15.2,25.5
			C480.4,46.1,492,58.4,506.7,59.8z"/>
	</g>
</g>
<g id="Capa_3">
	<path class="st2" d="M394.1,255.6c25.8,21.9,68.3,13.4,98.4-19.5s33.6-76.4,10.7-99.7c-25.3-21.1-68.3-13.4-98.4,19.5
		S361.9,226.1,394.1,255.6z"/>
</g>
<g id="Capa_4">
	<path class="st7" d="M510.8,209.9c-5.6-4.6-3.1-23.4-4.2-46.2c0-20-16-32.6-36.1-32.6c-18.3,0-23.8,4.8-34.5,12.2
		c-9.1,5.6-20.2,0.6-20.2,0.6"/>
	<path class="st7" d="M503.2,226.2c-10.6-17.1-9.8-31.1-10.7-53.9c0-20-7.3-28.9-25.6-28.9c-16.6,0-22.6,8.8-34.7,14.2
		c-10.6,4.3-27.2-6-27.2-6"/>
	<path class="st7" d="M494.9,237.4c-10.7-16.2-14.7-20-17.2-42.5c-1.6-19.9,7.6-37.5-7.6-40.8c-17.1-2-26.7,14-40.3,16.4
		c-13.9,1.1-30.9-10.7-30.9-10.7"/>
	<path class="st7" d="M482.7,246.1c-39.5-59.7-6.1-76.4-15.4-81.4c-10.1-4.4-12.2,15.2-43.4,16.2c-19.3-0.7-31.7-13.5-31.7-13.5"/>
	<path class="st7" d="M386.4,176.8c0,0,8.6,9.2,18.8,12.8c15.1,3.7,23.9-2.1,32.3-2c8.9,0.1,12.3,1.3,15.8,7.1
		c3.5,5,4.3,21.3,7.4,29c3.9,11.4,6.6,22.5,10.6,30.7"/>
	<path class="st7" d="M381.8,185.7c0,0,9.3,9.8,19.5,13.4c11.4,3.5,19.6-1.3,27.4-0.6c8.8,0.8,12.5,4,16.7,11.4
		c2.9,5.3,11.4,25.1,13.7,51.6"/>
	<path class="st7" d="M377.2,196.5c0,0,8,9.8,19.4,12.2c11.9,2.8,15.4,1.3,23.2,1.3c9.4,0,13.6,4.3,18.6,13
		c5.1,8.9,10.2,33.6,10.8,42.4"/>
	<path class="st7" d="M438.9,267.3"/>
	<path class="st7" d="M374.5,211.2c22.9,3.7,62.9,9.1,65.6,55.9"/>
	<path class="st7" d="M373.5,220.8c27.8,9.4,42.4,12.4,58.4,48"/>
	<path class="st7" d="M374.5,233.5c25.1,5.9,38.7,23.1,44.7,35.4"/>
</g>
</svg>
