<?xml version="1.0" encoding="utf-8"?>
<!-- Generator: Adobe Illustrator 24.0.0, SVG Export Plug-In . SVG Version: 6.00 Build 0)  -->
<svg version="1.1" xmlns="http://www.w3.org/2000/svg" xmlns:xlink="http://www.w3.org/1999/xlink" x="0px" y="0px"
	 viewBox="0 0 408.8 259.5" style="enable-background:new 0 0 408.8 259.5;" xml:space="preserve">
<style type="text/css">
	.st0{display:none;}
	.st1{fill:#FFFFFF;}
	.st2{fill:#FFF800;}
	.st3{fill:#F8AF42;}
</style>
<g id="Capa_1" class="st0">
	
		<image style="display:inline;overflow:visible;" width="238" height="101" xlink:href="F81F01DA.jpg"  transform="matrix(2.5693 0 0 2.5693 0.5 -1.278419e-05)">
	</image>
</g>
<g id="Capa_2">
	<polygon points="408.8,0 61.6,0 0,54.6 0,259.5 408.8,259.5 	"/>
	<g>
		<g>
			<path class="st1" d="M54.4,160.4c0.3,4.9,4.5,9.6,12.5,9.6c7.6,0,11.2-3.7,11.2-8.6c0-4.7-3.5-6.9-10.1-8.4l-9.7-2.3
				c-10.1-2.2-18.2-8.3-18.2-21.5c0-15.1,11.4-23.6,26.7-23.6c16.5,0,26.3,10.2,26.5,23.1H77.9c-0.3-4.7-3.9-9.3-11.2-9.3
				c-6.5,0-10.2,3.4-10.2,8.4c0,4,3.3,6.5,9.2,7.8l9.9,2.2c9.8,2.1,18.7,7.5,18.7,21.8c0,14.8-10.2,24.4-28.1,24.4
				c-20.9,0-27.5-12.6-27.7-23.5H54.4z"/>
			<path class="st1" d="M150.4,182.5h-45.9v-75.6h45.9v14.5h-29.6v16.3h27.7v13.4h-27.7V168h29.6V182.5z"/>
		</g>
		<g>
			<path class="st1" d="M261.9,146.9c0,13.6,4.6,21,12.8,21c7.3,0,11.7-6.2,11.8-14.6H302v2.3c0,16.9-11.5,28.3-27.5,28.3
				c-18.7,0-29.2-14.4-29.2-37.1v-8.4c0-22.9,10.5-37.3,29.2-37.3c16,0,27.5,11.5,27.5,28.8v2.3h-15.6c0-8.7-4.4-15.1-11.8-15.1
				c-8.1,0-12.8,7.5-12.8,21.3V146.9z"/>
			<path class="st1" d="M357.3,182.5h-45.2v-80h45.2v15.4h-29.1v17.3h27.3v14.2h-27.3v17.8h29.1V182.5z"/>
		</g>
		<g>
			<path class="st1" d="M206.1,158.6h-0.4c-1.3,4.7-6.1,7.2-11.4,7.2c-8.6,0-14.1-6.1-14.1-16v-6c0-9.4,5.4-15.6,14.1-15.6
				c6.5,0,9.7,3.8,10.6,7h0.3v-6.3h10.2v24.5c0,3,2,4.7,4.6,4.7c3.5,0,7.1-4.7,7.1-15.5v-1.3c0-14.3-10.6-26-27.7-26h-0.4
				c-17.7,0-29.5,12-29.5,30.4v1.7c0,20.8,13.8,29.6,28.7,29.6h0.5c5.7,0,10.4-0.8,13.1-2v8.2c-2.4,1.1-7.1,2-13.8,2h-0.5
				c-21.4,0-37.5-13.2-37.5-37.5v-2.3c0-23.1,15.9-38.3,39-38.3h0.4c23.7,0,37,16,37,33.8v2.4c0,13-6.4,22.6-17.7,22.6
				C213,165.9,207.4,163.4,206.1,158.6z M197.7,157c3.4,0,6.3-1.9,6.3-8.3v-4.1c0-5.8-3-7.9-6.3-7.9c-3.9,0-6.4,2.7-6.4,8.8v2.5
				C191.2,154.6,193.8,157,197.7,157z"/>
		</g>
	</g>
	<g>
		<polygon class="st2" points="61.6,0 61.6,54.6 0,54.6 		"/>
		<polygon class="st2" points="61.6,0 61.6,54.6 0,54.6 		"/>
		<polygon class="st3" points="61.6,0 61.6,54.6 0,54.6 		"/>
	</g>
</g>
</svg>
