<svg xmlns="http://www.w3.org/2000/svg" viewBox="0 0 339.38 92.64"><defs><style>.b4bd42a8-a323-4d7a-a4d1-d263adec649a,.e440ec67-306c-4c27-ad0a-7d4d023258f3{fill:#0063ad;}.ef0a1759-ca0e-40ad-a90d-01af64098a2b{fill:#ad0c41;}.b4bd42a8-a323-4d7a-a4d1-d263adec649a{stroke:#0063ad;stroke-miterlimit:10;stroke-width:3px;}</style></defs><title>sunat-copy</title><g id="e6d90e03-3a5c-4b44-9784-433237732417" data-name="Capa 2"><path class="e440ec67-306c-4c27-ad0a-7d4d023258f3" d="M19.09,32.06,0,51,40.62,91.76a4.61,4.61,0,0,0,5.85-.43c3.83-3.06,15.18-16.2,17.14-18.58,4-5.76,3.55-15.08-10-19.67-13-3.7-19.66,1.57-28.85-2.77-3.83-1.87-5.42-5.15-3.59-13.7C22.29,31.47,20.52,30.81,19.09,32.06Z"/><path class="ef0a1759-ca0e-40ad-a90d-01af64098a2b" d="M68,60.58,87.09,41.64,46.47.88a4.6,4.6,0,0,0-5.85.42C36.79,4.37,25.44,17.51,23.48,19.89c-4,5.75-3.56,15.07,10,19.67,13,3.7,19.21-1.67,28.41,2.67,3.83,1.87,5.86,5.24,4,13.8C64.8,61.16,66.57,61.82,68,60.58Z"/></g><g id="fdfd8860-8719-4770-839f-974b97ff252c" data-name="Capa 3"><path class="b4bd42a8-a323-4d7a-a4d1-d263adec649a" d="M104.28,67.4a44.5,44.5,0,0,1-7.4-1.75,31.19,31.19,0,0,1-6.19-2.76l5-6.41a28.23,28.23,0,0,0,7.68,3,37.45,37.45,0,0,0,8.94,1.06,21,21,0,0,0,8.23-1.29q2.93-1.29,2.93-3.64v0A3.09,3.09,0,0,0,122.18,53a8.78,8.78,0,0,0-3.4-1.41,54.37,54.37,0,0,0-5.38-.83l-.22,0-.22,0-.87-.09A71,71,0,0,1,102.52,49a14.78,14.78,0,0,1-6.45-3.43,9,9,0,0,1-2.65-7v0a10,10,0,0,1,2.49-6.84,15.58,15.58,0,0,1,7.24-4.32,38.75,38.75,0,0,1,11.47-1.49,40.33,40.33,0,0,1,6.31.51,43.63,43.63,0,0,1,6.32,1.48,40.71,40.71,0,0,1,5.85,2.32l-4.59,6.58a34,34,0,0,0-6.94-2.55,28.37,28.37,0,0,0-6.95-.91,20,20,0,0,0-7.71,1.18q-2.73,1.17-2.73,3.3v0a3.3,3.3,0,0,0,1.42,2.82,9.58,9.58,0,0,0,3.53,1.52c1.39.32,3.36.66,5.89,1l.32,0,.31,0,.46.08.45.07a64.5,64.5,0,0,1,9.12,1.85,14.31,14.31,0,0,1,6.11,3.52,8.87,8.87,0,0,1,2.46,6.62v.06a9.66,9.66,0,0,1-2.57,6.75,16.27,16.27,0,0,1-7.5,4.28A41.76,41.76,0,0,1,112.33,68,54.67,54.67,0,0,1,104.28,67.4Z"/><path class="b4bd42a8-a323-4d7a-a4d1-d263adec649a" d="M151.86,66.19A15.21,15.21,0,0,1,144.7,61a14,14,0,0,1-2.45-8.3V26.34h10.84V52.85a6.43,6.43,0,0,0,2.65,5.5q2.65,2,7.48,2c3.24,0,5.76-.65,7.54-2a6.42,6.42,0,0,0,2.67-5.5V26.34h10.84V52.65a13.87,13.87,0,0,1-2.48,8.3,15.23,15.23,0,0,1-7.2,5.24,36.78,36.78,0,0,1-22.73,0Z"/><path class="b4bd42a8-a323-4d7a-a4d1-d263adec649a" d="M195.83,26.34h13.25l21.41,31.59-1,.73V26.34H239.9v41.2H226.57L205.25,36.43l.95-.74V67.54H195.83Z"/><path class="b4bd42a8-a323-4d7a-a4d1-d263adec649a" d="M268.72,26.34h6.88l22,41.23H285.93L272.16,39.41,258.39,67.57H246.72ZM257.28,53.47h30.27V61H257.28Z"/><path class="b4bd42a8-a323-4d7a-a4d1-d263adec649a" d="M295.71,26.34h42.17v7.48H295.71Zm15.67,3.37h10.84V67.57H311.38Z"/></g></svg>