<?xml version="1.0" encoding="utf-8"?>
<!-- Generator: Adobe Illustrator 24.0.0, SVG Export Plug-In . SVG Version: 6.00 Build 0)  -->
<svg version="1.1" id="Capa_1" xmlns="http://www.w3.org/2000/svg" xmlns:xlink="http://www.w3.org/1999/xlink" x="0px" y="0px"
	 viewBox="0 0 667.3 259.5" style="enable-background:new 0 0 667.3 259.5;" xml:space="preserve">
<style type="text/css">
	.st0{display:none;}
	.st1{fill:#FFFFFF;}
	.st2{fill:#FFF800;}
	.st3{fill:#F8AF42;}
	.st4{fill:none;stroke:#FFFFFF;stroke-width:3;stroke-miterlimit:10;}
</style>
<g id="Capa_1_1_" class="st0">
</g>
<polygon points="667.3,0 61.6,0 0,54.6 0,259.5 667.3,259.5 "/>
<g>
	<g>
		<path class="st1" d="M54.4,160.4c0.3,4.9,4.5,9.6,12.5,9.6c7.6,0,11.2-3.7,11.2-8.6c0-4.7-3.5-6.9-10.1-8.4l-9.7-2.3
			c-10.1-2.2-18.2-8.3-18.2-21.5c0-15.1,11.4-23.6,26.7-23.6c16.5,0,26.3,10.2,26.5,23.1H77.9c-0.3-4.7-3.9-9.3-11.2-9.3
			c-6.5,0-10.2,3.4-10.2,8.4c0,4,3.3,6.5,9.2,7.8l9.9,2.2c9.8,2.1,18.7,7.5,18.7,21.8c0,14.8-10.2,24.4-28.1,24.4
			c-20.9,0-27.5-12.6-27.7-23.5L54.4,160.4L54.4,160.4z"/>
		<path class="st1" d="M150.4,182.5h-45.9v-75.6h45.9v14.5h-29.6v16.3h27.7v13.4h-27.7V168h29.6L150.4,182.5L150.4,182.5z"/>
	</g>
	<g>
		<path class="st1" d="M261.9,146.9c0,13.6,4.6,21,12.8,21c7.3,0,11.7-6.2,11.8-14.6H302v2.3c0,16.9-11.5,28.3-27.5,28.3
			c-18.7,0-29.2-14.4-29.2-37.1v-8.4c0-22.9,10.5-37.3,29.2-37.3c16,0,27.5,11.5,27.5,28.8v2.3h-15.6c0-8.7-4.4-15.1-11.8-15.1
			c-8.1,0-12.8,7.5-12.8,21.3L261.9,146.9L261.9,146.9z"/>
		<path class="st1" d="M357.3,182.5h-45.2v-80h45.2v15.4h-29.1v17.3h27.3v14.2h-27.3v17.8h29.1V182.5z"/>
	</g>
	<g>
		<path class="st1" d="M206.1,158.6h-0.4c-1.3,4.7-6.1,7.2-11.4,7.2c-8.6,0-14.1-6.1-14.1-16v-6c0-9.4,5.4-15.6,14.1-15.6
			c6.5,0,9.7,3.8,10.6,7h0.3v-6.3h10.2v24.5c0,3,2,4.7,4.6,4.7c3.5,0,7.1-4.7,7.1-15.5v-1.3c0-14.3-10.6-26-27.7-26H199
			c-17.7,0-29.5,12-29.5,30.4v1.7c0,20.8,13.8,29.6,28.7,29.6h0.5c5.7,0,10.4-0.8,13.1-2v8.2c-2.4,1.1-7.1,2-13.8,2h-0.5
			c-21.4,0-37.5-13.2-37.5-37.5v-2.3c0-23.1,15.9-38.3,39-38.3h0.4c23.7,0,37,16,37,33.8v2.4c0,13-6.4,22.6-17.7,22.6
			C213,165.9,207.4,163.4,206.1,158.6z M197.7,157c3.4,0,6.3-1.9,6.3-8.3v-4.1c0-5.8-3-7.9-6.3-7.9c-3.9,0-6.4,2.7-6.4,8.8v2.5
			C191.2,154.6,193.8,157,197.7,157z"/>
	</g>
</g>
<g>
	<polygon class="st2" points="61.6,0 61.6,54.6 0,54.6 	"/>
	<polygon class="st2" points="61.6,0 61.6,54.6 0,54.6 	"/>
	<polygon class="st3" points="61.6,0 61.6,54.6 0,54.6 	"/>
</g>
<line class="st4" x1="369.7" y1="97.2" x2="369.7" y2="186.6"/>
<g>
	<path class="st1" d="M402,118.7c0-0.8-0.3-1.4-0.9-1.9c-0.6-0.4-1.6-0.9-3.1-1.3s-2.7-0.9-3.6-1.5c-1.7-1.1-2.5-2.4-2.5-4.1
		c0-1.5,0.6-2.7,1.8-3.7c1.2-1,2.8-1.4,4.7-1.4c1.3,0,2.4,0.2,3.4,0.7s1.8,1.1,2.4,2c0.6,0.9,0.9,1.8,0.9,2.9H402
		c0-1-0.3-1.7-0.9-2.3c-0.6-0.5-1.5-0.8-2.6-0.8c-1,0-1.9,0.2-2.4,0.7c-0.6,0.4-0.9,1.1-0.9,1.9c0,0.7,0.3,1.2,0.9,1.7
		c0.6,0.5,1.7,0.9,3.1,1.3c1.4,0.4,2.6,0.9,3.5,1.5c0.9,0.5,1.5,1.2,1.9,1.9c0.4,0.7,0.6,1.5,0.6,2.5c0,1.5-0.6,2.8-1.8,3.7
		c-1.2,0.9-2.8,1.4-4.8,1.4c-1.3,0-2.6-0.2-3.7-0.7c-1.1-0.5-2-1.2-2.6-2.1c-0.6-0.9-0.9-1.9-0.9-3h3.2c0,1,0.3,1.9,1,2.4
		s1.7,0.9,3,0.9c1.1,0,2-0.2,2.5-0.7C401.7,120.1,402,119.5,402,118.7z"/>
	<path class="st1" d="M407.8,106.2c0-0.5,0.2-0.9,0.5-1.2c0.3-0.3,0.7-0.5,1.3-0.5s1,0.2,1.3,0.5s0.5,0.7,0.5,1.2
		c0,0.5-0.2,0.9-0.5,1.2c-0.3,0.3-0.7,0.5-1.3,0.5s-1-0.2-1.3-0.5C407.9,107,407.8,106.6,407.8,106.2z M411,123.5H408v-13.7h3.1
		V123.5z"/>
	<path class="st1" d="M422.1,119.7c0-0.5-0.2-1-0.7-1.3c-0.5-0.3-1.2-0.5-2.3-0.8s-1.9-0.5-2.6-0.8c-1.5-0.7-2.3-1.8-2.3-3.2
		c0-1.2,0.5-2.2,1.5-3s2.3-1.2,3.8-1.2c1.6,0,3,0.4,4,1.2c1,0.8,1.5,1.9,1.5,3.2h-3.1c0-0.6-0.2-1.1-0.7-1.5c-0.4-0.4-1-0.6-1.8-0.6
		c-0.7,0-1.2,0.2-1.7,0.5c-0.4,0.3-0.6,0.7-0.6,1.3c0,0.5,0.2,0.8,0.6,1.1s1.2,0.5,2.4,0.8c1.2,0.3,2.2,0.6,2.9,1
		c0.7,0.4,1.2,0.8,1.5,1.3c0.3,0.5,0.5,1.1,0.5,1.9c0,1.2-0.5,2.2-1.5,3c-1,0.8-2.4,1.1-4,1.1c-1.1,0-2.1-0.2-3-0.6s-1.6-1-2.1-1.7
		s-0.7-1.5-0.7-2.3h3c0,0.7,0.3,1.3,0.8,1.7c0.5,0.4,1.2,0.6,2,0.6c0.8,0,1.4-0.2,1.9-0.5C421.9,120.6,422.1,120.2,422.1,119.7z"/>
	<path class="st1" d="M431.7,106.4v3.3h2.4v2.3h-2.4v7.7c0,0.5,0.1,0.9,0.3,1.1c0.2,0.2,0.6,0.3,1.1,0.3c0.4,0,0.7,0,1.1-0.1v2.4
		c-0.7,0.2-1.4,0.3-2,0.3c-2.4,0-3.6-1.3-3.6-3.9V112h-2.3v-2.3h2.3v-3.3H431.7z"/>
	<path class="st1" d="M442.5,123.7c-2,0-3.5-0.6-4.8-1.8c-1.2-1.2-1.8-2.9-1.8-4.9v-0.4c0-1.4,0.3-2.6,0.8-3.7
		c0.5-1.1,1.3-1.9,2.2-2.5s2-0.9,3.2-0.9c1.9,0,3.3,0.6,4.3,1.8c1,1.2,1.5,2.9,1.5,5.1v1.2h-9c0.1,1.1,0.5,2,1.1,2.7
		c0.7,0.7,1.5,1,2.5,1c1.4,0,2.6-0.6,3.5-1.7l1.7,1.6c-0.5,0.8-1.3,1.5-2.2,1.9C444.7,123.5,443.7,123.7,442.5,123.7z M442.1,112
		c-0.8,0-1.5,0.3-2.1,0.9c-0.5,0.6-0.9,1.4-1,2.5h5.9v-0.2c-0.1-1-0.3-1.8-0.8-2.3C443.7,112.2,443,112,442.1,112z"/>
	<path class="st1" d="M453.3,109.7l0.1,1.4c1-1.1,2.3-1.7,4-1.7c1.8,0,3.1,0.7,3.8,2.1c1-1.4,2.4-2.1,4.2-2.1c1.5,0,2.6,0.4,3.4,1.3
		c0.7,0.8,1.1,2.1,1.1,3.7v9h-3.1v-8.9c0-0.9-0.2-1.5-0.6-1.9s-1-0.6-1.9-0.6c-0.7,0-1.3,0.2-1.7,0.6c-0.4,0.4-0.8,0.9-0.9,1.5
		l0,9.4h-3.1v-9c0-1.6-0.9-2.4-2.5-2.4c-1.2,0-2.1,0.5-2.6,1.5v10h-3.1v-13.7H453.3z"/>
	<path class="st1" d="M481.2,123.5c-0.1-0.3-0.3-0.7-0.4-1.3c-1,1-2.2,1.5-3.6,1.5c-1.4,0-2.5-0.4-3.4-1.2s-1.3-1.8-1.3-2.9
		c0-1.5,0.5-2.6,1.6-3.4c1.1-0.8,2.6-1.2,4.7-1.2h1.9v-0.9c0-0.7-0.2-1.3-0.6-1.7c-0.4-0.4-1-0.6-1.8-0.6c-0.7,0-1.3,0.2-1.7,0.5
		c-0.4,0.4-0.7,0.8-0.7,1.3h-3.1c0-0.8,0.3-1.5,0.7-2.1c0.5-0.7,1.2-1.2,2-1.5c0.9-0.4,1.8-0.6,2.9-0.6c1.6,0,2.9,0.4,3.8,1.2
		c1,0.8,1.4,1.9,1.5,3.4v6.2c0,1.2,0.2,2.2,0.5,3v0.2H481.2z M477.9,121.2c0.6,0,1.2-0.1,1.7-0.4c0.5-0.3,0.9-0.7,1.2-1.2V117h-1.7
		c-1.1,0-2,0.2-2.6,0.6s-0.9,1-0.9,1.7c0,0.6,0.2,1.1,0.6,1.4C476.7,121.1,477.2,121.2,477.9,121.2z"/>
	<path class="st1" d="M504.7,115.2h-7.6v5.7h8.9v2.6h-12.1V105h12v2.6h-8.8v5.1h7.6V115.2z"/>
	<path class="st1" d="M511.6,123.5h-3.1V104h3.1V123.5z"/>
	<path class="st1" d="M521,123.7c-2,0-3.5-0.6-4.8-1.8c-1.2-1.2-1.8-2.9-1.8-4.9v-0.4c0-1.4,0.3-2.6,0.8-3.7
		c0.5-1.1,1.3-1.9,2.2-2.5s2-0.9,3.2-0.9c1.9,0,3.3,0.6,4.3,1.8c1,1.2,1.5,2.9,1.5,5.1v1.2h-9c0.1,1.1,0.5,2,1.1,2.7
		c0.7,0.7,1.5,1,2.5,1c1.4,0,2.6-0.6,3.5-1.7l1.7,1.6c-0.5,0.8-1.3,1.5-2.2,1.9C523.1,123.5,522.1,123.7,521,123.7z M520.6,112
		c-0.8,0-1.5,0.3-2.1,0.9c-0.5,0.6-0.9,1.4-1,2.5h5.9v-0.2c-0.1-1-0.3-1.8-0.8-2.3C522.1,112.2,521.5,112,520.6,112z"/>
	<path class="st1" d="M534.5,121.3c0.8,0,1.4-0.2,1.9-0.7s0.8-1,0.8-1.7h2.9c0,0.9-0.3,1.7-0.8,2.4c-0.5,0.7-1.2,1.3-2,1.8
		s-1.8,0.6-2.8,0.6c-1.9,0-3.4-0.6-4.6-1.9s-1.7-3-1.7-5.2v-0.3c0-2.1,0.6-3.8,1.7-5c1.1-1.3,2.6-1.9,4.6-1.9c1.6,0,3,0.5,4,1.4
		c1,1,1.6,2.2,1.6,3.8h-2.9c0-0.8-0.3-1.4-0.8-1.9c-0.5-0.5-1.1-0.8-1.9-0.8c-1,0-1.8,0.4-2.3,1.1c-0.5,0.7-0.8,1.8-0.8,3.3v0.5
		c0,1.5,0.3,2.6,0.8,3.3C532.7,120.9,533.5,121.3,534.5,121.3z"/>
	<path class="st1" d="M546.3,106.4v3.3h2.4v2.3h-2.4v7.7c0,0.5,0.1,0.9,0.3,1.1c0.2,0.2,0.6,0.3,1.1,0.3c0.4,0,0.7,0,1.1-0.1v2.4
		c-0.7,0.2-1.4,0.3-2,0.3c-2.4,0-3.6-1.3-3.6-3.9V112H541v-2.3h2.3v-3.3H546.3z"/>
	<path class="st1" d="M558.3,112.6c-0.4-0.1-0.8-0.1-1.3-0.1c-1.4,0-2.4,0.5-2.9,1.6v9.4h-3.1v-13.7h2.9l0.1,1.5
		c0.7-1.2,1.8-1.8,3.1-1.8c0.4,0,0.8,0.1,1.1,0.2L558.3,112.6z"/>
	<path class="st1" d="M559.2,116.5c0-1.3,0.3-2.6,0.8-3.6c0.5-1.1,1.3-1.9,2.2-2.5c1-0.6,2.1-0.9,3.3-0.9c1.9,0,3.4,0.6,4.5,1.8
		c1.2,1.2,1.8,2.8,1.9,4.7l0,0.7c0,1.4-0.3,2.6-0.8,3.6c-0.5,1.1-1.3,1.9-2.2,2.5c-1,0.6-2.1,0.9-3.4,0.9c-1.9,0-3.5-0.6-4.7-1.9
		c-1.2-1.3-1.7-3-1.7-5.2V116.5z M562.3,116.7c0,1.4,0.3,2.5,0.9,3.3c0.6,0.8,1.4,1.2,2.4,1.2s1.9-0.4,2.4-1.2
		c0.6-0.8,0.9-2,0.9-3.6c0-1.4-0.3-2.5-0.9-3.3c-0.6-0.8-1.4-1.2-2.4-1.2c-1,0-1.8,0.4-2.4,1.2C562.6,114,562.3,115.2,562.3,116.7z
		 M566.5,104h3.5l-3.5,3.8l-2.5,0L566.5,104z"/>
	<path class="st1" d="M577.5,109.7l0.1,1.6c1-1.2,2.3-1.8,4-1.8c2.9,0,4.3,1.6,4.4,4.9v9.1h-3.1v-8.9c0-0.9-0.2-1.5-0.6-1.9
		c-0.4-0.4-1-0.6-1.8-0.6c-1.2,0-2.2,0.6-2.8,1.7v9.8h-3.1v-13.7H577.5z"/>
	<path class="st1" d="M589.1,106.2c0-0.5,0.2-0.9,0.5-1.2c0.3-0.3,0.7-0.5,1.3-0.5s1,0.2,1.3,0.5s0.5,0.7,0.5,1.2
		c0,0.5-0.2,0.9-0.5,1.2c-0.3,0.3-0.7,0.5-1.3,0.5s-1-0.2-1.3-0.5C589.2,107,589.1,106.6,589.1,106.2z M592.4,123.5h-3.1v-13.7h3.1
		V123.5z"/>
	<path class="st1" d="M601.4,121.3c0.8,0,1.4-0.2,1.9-0.7s0.8-1,0.8-1.7h2.9c0,0.9-0.3,1.7-0.8,2.4c-0.5,0.7-1.2,1.3-2,1.8
		s-1.8,0.6-2.8,0.6c-1.9,0-3.4-0.6-4.6-1.9s-1.7-3-1.7-5.2v-0.3c0-2.1,0.6-3.8,1.7-5c1.1-1.3,2.6-1.9,4.6-1.9c1.6,0,3,0.5,4,1.4
		c1,1,1.6,2.2,1.6,3.8h-2.9c0-0.8-0.3-1.4-0.8-1.9c-0.5-0.5-1.1-0.8-1.9-0.8c-1,0-1.8,0.4-2.3,1.1c-0.5,0.7-0.8,1.8-0.8,3.3v0.5
		c0,1.5,0.3,2.6,0.8,3.3C599.6,120.9,600.3,121.3,601.4,121.3z"/>
	<path class="st1" d="M608.7,116.5c0-1.3,0.3-2.6,0.8-3.6c0.5-1.1,1.3-1.9,2.2-2.5c1-0.6,2.1-0.9,3.3-0.9c1.9,0,3.4,0.6,4.5,1.8
		c1.2,1.2,1.8,2.8,1.9,4.7l0,0.7c0,1.4-0.3,2.6-0.8,3.6c-0.5,1.1-1.3,1.9-2.2,2.5c-1,0.6-2.1,0.9-3.4,0.9c-1.9,0-3.5-0.6-4.7-1.9
		c-1.2-1.3-1.7-3-1.7-5.2V116.5z M611.8,116.7c0,1.4,0.3,2.5,0.9,3.3c0.6,0.8,1.4,1.2,2.4,1.2s1.9-0.4,2.4-1.2
		c0.6-0.8,0.9-2,0.9-3.6c0-1.4-0.3-2.5-0.9-3.3c-0.6-0.8-1.4-1.2-2.4-1.2c-1,0-1.8,0.4-2.4,1.2C612.1,114,611.8,115.2,611.8,116.7z"
		/>
	<path class="st1" d="M391.5,145.5c0-2.1,0.5-3.8,1.5-5.1c1-1.3,2.3-1.9,3.9-1.9c1.5,0,2.6,0.5,3.5,1.5v-7h3.1v19.5h-2.8l-0.2-1.4
		c-0.9,1.1-2.2,1.7-3.7,1.7c-1.6,0-2.9-0.6-3.9-1.9C392,149.5,391.5,147.7,391.5,145.5z M394.6,145.8c0,1.4,0.3,2.5,0.8,3.3
		c0.5,0.8,1.3,1.2,2.3,1.2c1.3,0,2.2-0.6,2.8-1.7v-5.9c-0.6-1.1-1.5-1.7-2.7-1.7c-1,0-1.8,0.4-2.3,1.2
		C394.8,143,394.6,144.2,394.6,145.8z"/>
	<path class="st1" d="M412.8,152.7c-2,0-3.5-0.6-4.8-1.8c-1.2-1.2-1.8-2.9-1.8-4.9v-0.4c0-1.4,0.3-2.6,0.8-3.7
		c0.5-1.1,1.3-1.9,2.2-2.5s2-0.9,3.2-0.9c1.9,0,3.3,0.6,4.3,1.8c1,1.2,1.5,2.9,1.5,5.1v1.2h-9c0.1,1.1,0.5,2,1.1,2.7
		c0.7,0.7,1.5,1,2.5,1c1.4,0,2.6-0.6,3.5-1.7l1.7,1.6c-0.5,0.8-1.3,1.5-2.2,1.9C415,152.5,413.9,152.7,412.8,152.7z M412.4,141
		c-0.8,0-1.5,0.3-2.1,0.9c-0.5,0.6-0.9,1.4-1,2.5h5.9v-0.2c-0.1-1-0.3-1.8-0.8-2.3C413.9,141.2,413.3,141,412.4,141z"/>
	<path class="st1" d="M432.8,150.3c0.8,0,1.4-0.2,1.9-0.7s0.8-1,0.8-1.7h2.9c0,0.9-0.3,1.7-0.8,2.4c-0.5,0.7-1.2,1.3-2,1.8
		s-1.8,0.6-2.8,0.6c-1.9,0-3.4-0.6-4.6-1.9s-1.7-3-1.7-5.2v-0.3c0-2.1,0.6-3.8,1.7-5c1.1-1.3,2.6-1.9,4.6-1.9c1.6,0,3,0.5,4,1.4
		c1,1,1.6,2.2,1.6,3.8h-2.9c0-0.8-0.3-1.4-0.8-1.9c-0.5-0.5-1.1-0.8-1.9-0.8c-1,0-1.8,0.4-2.3,1.1c-0.5,0.7-0.8,1.8-0.8,3.3v0.5
		c0,1.5,0.3,2.6,0.8,3.3C431,149.9,431.8,150.3,432.8,150.3z"/>
	<path class="st1" d="M440.2,145.5c0-1.3,0.3-2.6,0.8-3.6c0.5-1.1,1.3-1.9,2.2-2.5c1-0.6,2.1-0.9,3.3-0.9c1.9,0,3.4,0.6,4.5,1.8
		c1.2,1.2,1.8,2.8,1.9,4.7l0,0.7c0,1.4-0.3,2.6-0.8,3.6c-0.5,1.1-1.3,1.9-2.2,2.5c-1,0.6-2.1,0.9-3.4,0.9c-1.9,0-3.5-0.6-4.7-1.9
		c-1.2-1.3-1.7-3-1.7-5.2V145.5z M443.3,145.7c0,1.4,0.3,2.5,0.9,3.3c0.6,0.8,1.4,1.2,2.4,1.2s1.9-0.4,2.4-1.2
		c0.6-0.8,0.9-2,0.9-3.6c0-1.4-0.3-2.5-0.9-3.3c-0.6-0.8-1.4-1.2-2.4-1.2c-1,0-1.8,0.4-2.4,1.2C443.6,143,443.3,144.2,443.3,145.7z"
		/>
	<path class="st1" d="M458.4,138.7l0.1,1.6c1-1.2,2.3-1.8,4-1.8c2.9,0,4.3,1.6,4.4,4.9v9.1h-3.1v-8.9c0-0.9-0.2-1.5-0.6-1.9
		c-0.4-0.4-1-0.6-1.8-0.6c-1.2,0-2.2,0.6-2.8,1.7v9.8h-3.1v-13.7H458.4z"/>
	<path class="st1" d="M473.9,135.4v3.3h2.4v2.3h-2.4v7.7c0,0.5,0.1,0.9,0.3,1.1c0.2,0.2,0.6,0.3,1.1,0.3c0.4,0,0.7,0,1.1-0.1v2.4
		c-0.7,0.2-1.4,0.3-2,0.3c-2.4,0-3.6-1.3-3.6-3.9V141h-2.3v-2.3h2.3v-3.3H473.9z"/>
	<path class="st1" d="M485.9,141.6c-0.4-0.1-0.8-0.1-1.3-0.1c-1.4,0-2.4,0.5-2.9,1.6v9.4h-3.1v-13.7h2.9l0.1,1.5
		c0.7-1.2,1.8-1.8,3.1-1.8c0.4,0,0.8,0.1,1.1,0.2L485.9,141.6z"/>
	<path class="st1" d="M495.7,152.5c-0.1-0.3-0.3-0.7-0.4-1.3c-1,1-2.2,1.5-3.6,1.5c-1.4,0-2.5-0.4-3.4-1.2s-1.3-1.8-1.3-2.9
		c0-1.5,0.5-2.6,1.6-3.4c1.1-0.8,2.6-1.2,4.7-1.2h1.9v-0.9c0-0.7-0.2-1.3-0.6-1.7c-0.4-0.4-1-0.6-1.8-0.6c-0.7,0-1.3,0.2-1.7,0.5
		c-0.4,0.4-0.7,0.8-0.7,1.3h-3.1c0-0.8,0.3-1.5,0.7-2.1c0.5-0.7,1.2-1.2,2-1.5c0.9-0.4,1.8-0.6,2.9-0.6c1.6,0,2.9,0.4,3.8,1.2
		c1,0.8,1.4,1.9,1.5,3.4v6.2c0,1.2,0.2,2.2,0.5,3v0.2H495.7z M492.3,150.2c0.6,0,1.2-0.1,1.7-0.4c0.5-0.3,0.9-0.7,1.2-1.2V146h-1.7
		c-1.1,0-2,0.2-2.6,0.6s-0.9,1-0.9,1.7c0,0.6,0.2,1.1,0.6,1.4C491.1,150.1,491.6,150.2,492.3,150.2z"/>
	<path class="st1" d="M505.4,135.4v3.3h2.4v2.3h-2.4v7.7c0,0.5,0.1,0.9,0.3,1.1c0.2,0.2,0.6,0.3,1.1,0.3c0.4,0,0.7,0,1.1-0.1v2.4
		c-0.7,0.2-1.4,0.3-2,0.3c-2.4,0-3.6-1.3-3.6-3.9V141H500v-2.3h2.3v-3.3H505.4z"/>
	<path class="st1" d="M518.4,152.5c-0.1-0.3-0.3-0.7-0.4-1.3c-1,1-2.2,1.5-3.6,1.5c-1.4,0-2.5-0.4-3.4-1.2s-1.3-1.8-1.3-2.9
		c0-1.5,0.5-2.6,1.6-3.4c1.1-0.8,2.6-1.2,4.7-1.2h1.9v-0.9c0-0.7-0.2-1.3-0.6-1.7c-0.4-0.4-1-0.6-1.8-0.6c-0.7,0-1.3,0.2-1.7,0.5
		c-0.4,0.4-0.7,0.8-0.7,1.3H510c0-0.8,0.3-1.5,0.7-2.1c0.5-0.7,1.2-1.2,2-1.5c0.9-0.4,1.8-0.6,2.9-0.6c1.6,0,2.9,0.4,3.8,1.2
		c1,0.8,1.4,1.9,1.5,3.4v6.2c0,1.2,0.2,2.2,0.5,3v0.2H518.4z M515,150.2c0.6,0,1.2-0.1,1.7-0.4c0.5-0.3,0.9-0.7,1.2-1.2V146h-1.7
		c-1.1,0-2,0.2-2.6,0.6s-0.9,1-0.9,1.7c0,0.6,0.2,1.1,0.6,1.4C513.8,150.1,514.3,150.2,515,150.2z"/>
	<path class="st1" d="M529.9,150.3c0.8,0,1.4-0.2,1.9-0.7s0.8-1,0.8-1.7h2.9c0,0.9-0.3,1.7-0.8,2.4c-0.5,0.7-1.2,1.3-2,1.8
		s-1.8,0.6-2.8,0.6c-1.9,0-3.4-0.6-4.6-1.9s-1.7-3-1.7-5.2v-0.3c0-2.1,0.6-3.8,1.7-5c1.1-1.3,2.6-1.9,4.6-1.9c1.6,0,3,0.5,4,1.4
		c1,1,1.6,2.2,1.6,3.8h-2.9c0-0.8-0.3-1.4-0.8-1.9c-0.5-0.5-1.1-0.8-1.9-0.8c-1,0-1.8,0.4-2.3,1.1c-0.5,0.7-0.8,1.8-0.8,3.3v0.5
		c0,1.5,0.3,2.6,0.8,3.3C528.1,149.9,528.9,150.3,529.9,150.3z"/>
	<path class="st1" d="M537.8,135.2c0-0.5,0.2-0.9,0.5-1.2c0.3-0.3,0.7-0.5,1.3-0.5s1,0.2,1.3,0.5s0.5,0.7,0.5,1.2
		c0,0.5-0.2,0.9-0.5,1.2c-0.3,0.3-0.7,0.5-1.3,0.5s-1-0.2-1.3-0.5C538,136,537.8,135.6,537.8,135.2z M541.1,152.5H538v-13.7h3.1
		V152.5z"/>
	<path class="st1" d="M543.9,145.5c0-1.3,0.3-2.6,0.8-3.6c0.5-1.1,1.3-1.9,2.2-2.5c1-0.6,2.1-0.9,3.3-0.9c1.9,0,3.4,0.6,4.5,1.8
		c1.2,1.2,1.8,2.8,1.9,4.7l0,0.7c0,1.4-0.3,2.6-0.8,3.6c-0.5,1.1-1.3,1.9-2.2,2.5c-1,0.6-2.1,0.9-3.4,0.9c-1.9,0-3.5-0.6-4.7-1.9
		c-1.2-1.3-1.7-3-1.7-5.2V145.5z M547,145.7c0,1.4,0.3,2.5,0.9,3.3c0.6,0.8,1.4,1.2,2.4,1.2s1.9-0.4,2.4-1.2c0.6-0.8,0.9-2,0.9-3.6
		c0-1.4-0.3-2.5-0.9-3.3c-0.6-0.8-1.4-1.2-2.4-1.2c-1,0-1.8,0.4-2.4,1.2C547.3,143,547,144.2,547,145.7z"/>
	<path class="st1" d="M562.1,138.7l0.1,1.6c1-1.2,2.3-1.8,4-1.8c2.9,0,4.3,1.6,4.4,4.9v9.1h-3.1v-8.9c0-0.9-0.2-1.5-0.6-1.9
		c-0.4-0.4-1-0.6-1.8-0.6c-1.2,0-2.2,0.6-2.8,1.7v9.8h-3.1v-13.7H562.1z"/>
	<path class="st1" d="M579.8,152.7c-2,0-3.5-0.6-4.8-1.8c-1.2-1.2-1.8-2.9-1.8-4.9v-0.4c0-1.4,0.3-2.6,0.8-3.7
		c0.5-1.1,1.3-1.9,2.2-2.5s2-0.9,3.2-0.9c1.9,0,3.3,0.6,4.3,1.8c1,1.2,1.5,2.9,1.5,5.1v1.2h-9c0.1,1.1,0.5,2,1.1,2.7
		c0.7,0.7,1.5,1,2.5,1c1.4,0,2.6-0.6,3.5-1.7l1.7,1.6c-0.5,0.8-1.3,1.5-2.2,1.9C582,152.5,580.9,152.7,579.8,152.7z M579.4,141
		c-0.8,0-1.5,0.3-2.1,0.9c-0.5,0.6-0.9,1.4-1,2.5h5.9v-0.2c-0.1-1-0.3-1.8-0.8-2.3C580.9,141.2,580.3,141,579.4,141z"/>
	<path class="st1" d="M595.4,148.7c0-0.5-0.2-1-0.7-1.3c-0.5-0.3-1.2-0.5-2.3-0.8s-1.9-0.5-2.6-0.8c-1.5-0.7-2.3-1.8-2.3-3.2
		c0-1.2,0.5-2.2,1.5-3s2.3-1.2,3.8-1.2c1.6,0,3,0.4,4,1.2c1,0.8,1.5,1.9,1.5,3.2h-3.1c0-0.6-0.2-1.1-0.7-1.5c-0.4-0.4-1-0.6-1.8-0.6
		c-0.7,0-1.2,0.2-1.7,0.5c-0.4,0.3-0.6,0.7-0.6,1.3c0,0.5,0.2,0.8,0.6,1.1s1.2,0.5,2.4,0.8c1.2,0.3,2.2,0.6,2.9,1
		c0.7,0.4,1.2,0.8,1.5,1.3c0.3,0.5,0.5,1.1,0.5,1.9c0,1.2-0.5,2.2-1.5,3c-1,0.8-2.4,1.1-4,1.1c-1.1,0-2.1-0.2-3-0.6s-1.6-1-2.1-1.7
		s-0.7-1.5-0.7-2.3h3c0,0.7,0.3,1.3,0.8,1.7c0.5,0.4,1.2,0.6,2,0.6c0.8,0,1.4-0.2,1.9-0.5C595.2,149.6,595.4,149.2,595.4,148.7z"/>
	<path class="st1" d="M391.5,174.5c0-2.1,0.5-3.8,1.5-5.1c1-1.3,2.3-1.9,3.9-1.9c1.5,0,2.6,0.5,3.5,1.5v-7h3.1v19.5h-2.8l-0.2-1.4
		c-0.9,1.1-2.2,1.7-3.7,1.7c-1.6,0-2.9-0.6-3.9-1.9C392,178.5,391.5,176.7,391.5,174.5z M394.6,174.8c0,1.4,0.3,2.5,0.8,3.3
		c0.5,0.8,1.3,1.2,2.3,1.2c1.3,0,2.2-0.6,2.8-1.7v-5.9c-0.6-1.1-1.5-1.7-2.7-1.7c-1,0-1.8,0.4-2.3,1.2
		C394.8,172,394.6,173.2,394.6,174.8z"/>
	<path class="st1" d="M412.8,181.7c-2,0-3.5-0.6-4.8-1.8c-1.2-1.2-1.8-2.9-1.8-4.9v-0.4c0-1.4,0.3-2.6,0.8-3.7
		c0.5-1.1,1.3-1.9,2.2-2.5s2-0.9,3.2-0.9c1.9,0,3.3,0.6,4.3,1.8c1,1.2,1.5,2.9,1.5,5.1v1.2h-9c0.1,1.1,0.5,2,1.1,2.7
		c0.7,0.7,1.5,1,2.5,1c1.4,0,2.6-0.6,3.5-1.7l1.7,1.6c-0.5,0.8-1.3,1.5-2.2,1.9C415,181.5,413.9,181.7,412.8,181.7z M412.4,170
		c-0.8,0-1.5,0.3-2.1,0.9c-0.5,0.6-0.9,1.4-1,2.5h5.9v-0.2c-0.1-1-0.3-1.8-0.8-2.3C413.9,170.2,413.3,170,412.4,170z"/>
	<path class="st1" d="M424,181.5h-3.1V162h3.1V181.5z"/>
	<path class="st1" d="M444.9,173.2h-7.6v5.7h8.9v2.6h-12.1V163h12v2.6h-8.8v5.1h7.6V173.2z"/>
	<path class="st1" d="M456.2,177.7c0-0.5-0.2-1-0.7-1.3c-0.5-0.3-1.2-0.5-2.3-0.8s-1.9-0.5-2.6-0.8c-1.5-0.7-2.3-1.8-2.3-3.2
		c0-1.2,0.5-2.2,1.5-3s2.3-1.2,3.8-1.2c1.6,0,3,0.4,4,1.2c1,0.8,1.5,1.9,1.5,3.2h-3.1c0-0.6-0.2-1.1-0.7-1.5c-0.4-0.4-1-0.6-1.8-0.6
		c-0.7,0-1.2,0.2-1.7,0.5c-0.4,0.3-0.6,0.7-0.6,1.3c0,0.5,0.2,0.8,0.6,1.1s1.2,0.5,2.4,0.8c1.2,0.3,2.2,0.6,2.9,1
		c0.7,0.4,1.2,0.8,1.5,1.3c0.3,0.5,0.5,1.1,0.5,1.9c0,1.2-0.5,2.2-1.5,3c-1,0.8-2.4,1.1-4,1.1c-1.1,0-2.1-0.2-3-0.6s-1.6-1-2.1-1.7
		s-0.7-1.5-0.7-2.3h3c0,0.7,0.3,1.3,0.8,1.7c0.5,0.4,1.2,0.6,2,0.6c0.8,0,1.4-0.2,1.9-0.5C456,178.6,456.2,178.2,456.2,177.7z"/>
	<path class="st1" d="M465.8,164.4v3.3h2.4v2.3h-2.4v7.7c0,0.5,0.1,0.9,0.3,1.1c0.2,0.2,0.6,0.3,1.1,0.3c0.4,0,0.7,0,1.1-0.1v2.4
		c-0.7,0.2-1.4,0.3-2,0.3c-2.4,0-3.6-1.3-3.6-3.9V170h-2.3v-2.3h2.3v-3.3H465.8z"/>
	<path class="st1" d="M478.8,181.5c-0.1-0.3-0.3-0.7-0.4-1.3c-1,1-2.2,1.5-3.6,1.5c-1.4,0-2.5-0.4-3.4-1.2s-1.3-1.8-1.3-2.9
		c0-1.5,0.5-2.6,1.6-3.4c1.1-0.8,2.6-1.2,4.7-1.2h1.9v-0.9c0-0.7-0.2-1.3-0.6-1.7c-0.4-0.4-1-0.6-1.8-0.6c-0.7,0-1.3,0.2-1.7,0.5
		c-0.4,0.4-0.7,0.8-0.7,1.3h-3.1c0-0.8,0.3-1.5,0.7-2.1c0.5-0.7,1.2-1.2,2-1.5c0.9-0.4,1.8-0.6,2.9-0.6c1.6,0,2.9,0.4,3.8,1.2
		c1,0.8,1.4,1.9,1.5,3.4v6.2c0,1.2,0.2,2.2,0.5,3v0.2H478.8z M475.4,179.2c0.6,0,1.2-0.1,1.7-0.4c0.5-0.3,0.9-0.7,1.2-1.2V175h-1.7
		c-1.1,0-2,0.2-2.6,0.6s-0.9,1-0.9,1.7c0,0.6,0.2,1.1,0.6,1.4C474.2,179.1,474.7,179.2,475.4,179.2z"/>
	<path class="st1" d="M484.1,174.5c0-2.1,0.5-3.8,1.5-5.1c1-1.3,2.3-1.9,3.9-1.9c1.5,0,2.6,0.5,3.5,1.5v-7h3.1v19.5h-2.8l-0.2-1.4
		c-0.9,1.1-2.2,1.7-3.7,1.7c-1.6,0-2.9-0.6-3.9-1.9C484.6,178.5,484.1,176.7,484.1,174.5z M487.1,174.8c0,1.4,0.3,2.5,0.8,3.3
		c0.5,0.8,1.3,1.2,2.3,1.2c1.3,0,2.2-0.6,2.8-1.7v-5.9c-0.6-1.1-1.5-1.7-2.7-1.7c-1,0-1.8,0.4-2.3,1.2
		C487.4,172,487.1,173.2,487.1,174.8z"/>
	<path class="st1" d="M498.7,174.5c0-1.3,0.3-2.6,0.8-3.6c0.5-1.1,1.3-1.9,2.2-2.5c1-0.6,2.1-0.9,3.3-0.9c1.9,0,3.4,0.6,4.5,1.8
		c1.2,1.2,1.8,2.8,1.9,4.7l0,0.7c0,1.4-0.3,2.6-0.8,3.6c-0.5,1.1-1.3,1.9-2.2,2.5c-1,0.6-2.1,0.9-3.4,0.9c-1.9,0-3.5-0.6-4.7-1.9
		c-1.2-1.3-1.7-3-1.7-5.2V174.5z M501.8,174.7c0,1.4,0.3,2.5,0.9,3.3c0.6,0.8,1.4,1.2,2.4,1.2s1.9-0.4,2.4-1.2
		c0.6-0.8,0.9-2,0.9-3.6c0-1.4-0.3-2.5-0.9-3.3c-0.6-0.8-1.4-1.2-2.4-1.2c-1,0-1.8,0.4-2.4,1.2C502.1,172,501.8,173.2,501.8,174.7z"
		/>
</g>
</svg>
