<?xml version="1.0" encoding="utf-8"?>
<!-- Generator: Adobe Illustrator 24.0.0, SVG Export Plug-In . SVG Version: 6.00 Build 0)  -->
<svg version="1.1" xmlns="http://www.w3.org/2000/svg" xmlns:xlink="http://www.w3.org/1999/xlink" x="0px" y="0px"
	 viewBox="0 0 307.1 132.8" style="enable-background:new 0 0 307.1 132.8;" xml:space="preserve">
<style type="text/css">
	.st0{fill:#9E876E;}
	.st1{fill:#FFFFFF;}
	.st2{fill:#00A2E4;stroke:#FFFFFF;stroke-width:3;stroke-miterlimit:10;}
	.st3{fill:none;stroke:#FFFFFF;stroke-width:2;stroke-miterlimit:10;}
	.st4{fill:#E9BC00;}
	.st5{display:none;}
</style>
<g id="Capa_2">
	<polygon class="st0" points="27.3,0 27.3,0 0,27.3 0,27.3 0,132.8 307.1,132.8 307.1,0 	"/>
	<g>
		<path class="st1" d="M55,46.7h7.6v40.2H55V46.7z M58,63.5h14c0.8,0,1.5-0.2,2-0.6c0.6-0.4,1-0.9,1.4-1.7c0.3-0.7,0.5-1.5,0.5-2.5
			c0-0.9-0.2-1.8-0.5-2.5c-0.3-0.7-0.8-1.3-1.4-1.7C73.5,54.2,72.8,54,72,54H58v-7.3h14.6c2.2,0,4.2,0.5,5.8,1.5s3,2.4,3.9,4.2
			c0.9,1.8,1.4,3.9,1.4,6.3c0,2.4-0.5,4.5-1.4,6.3c-0.9,1.8-2.2,3.2-3.9,4.2s-3.6,1.5-5.8,1.5H58V63.5z M66.5,69.5l8.1-1.3
			l10.8,18.7h-9.2L66.5,69.5z"/>
		<path class="st1" d="M91.9,46.7h9.3l15,30.8l-0.7,0.7V46.7h7.2v40.2h-9.3L98.5,56.6l0.7-0.7v31.1h-7.2V46.7z"/>
		<path class="st1" d="M131.6,46.7h7.6v40.2h-7.6V46.7z M135,64h12.9c0.9,0,1.7-0.2,2.4-0.6c0.7-0.4,1.2-1,1.6-1.8
			c0.4-0.8,0.6-1.6,0.6-2.6c0-1-0.2-1.9-0.6-2.6s-0.9-1.4-1.6-1.8c-0.7-0.4-1.5-0.6-2.4-0.6H135v-7.3h12.7c2.5,0,4.7,0.5,6.6,1.5
			s3.4,2.5,4.4,4.3c1.1,1.9,1.6,4,1.6,6.5s-0.5,4.6-1.6,6.5s-2.5,3.3-4.4,4.3c-1.9,1-4.1,1.5-6.6,1.5H135V64z"/>
	</g>
	<line class="st2" x1="169.8" y1="47" x2="169.8" y2="87.1"/>
	<g>
		<path class="st1" d="M182.3,48.7h1.4v8.5h-1.4V48.7z M182.8,52.3h2.9c0.2,0,0.4,0,0.5-0.1s0.3-0.2,0.3-0.4s0.1-0.4,0.1-0.6
			c0-0.2,0-0.4-0.1-0.6s-0.2-0.3-0.3-0.4S186,50,185.8,50h-2.9v-1.3h3c0.5,0,0.9,0.1,1.3,0.3s0.6,0.5,0.8,0.9s0.3,0.8,0.3,1.3
			c0,0.5-0.1,0.9-0.3,1.3s-0.5,0.7-0.8,0.9s-0.8,0.3-1.3,0.3h-3V52.3z M184.9,53.4l1.5-0.3l2.2,4h-1.7L184.9,53.4z"/>
		<path class="st1" d="M190.8,56.9c-0.4-0.2-0.7-0.5-0.9-0.9s-0.3-0.9-0.3-1.5v-0.7c0-0.6,0.1-1.1,0.3-1.5s0.5-0.8,0.9-1
			s0.9-0.3,1.4-0.3c0.5,0,1,0.1,1.3,0.4s0.7,0.6,0.8,1.1s0.3,1.1,0.3,1.8v0.4h-4.1v-1h2.8l0-0.1c0-0.4-0.2-0.8-0.4-1
			s-0.5-0.4-0.8-0.4c-0.4,0-0.7,0.1-1,0.4s-0.3,0.6-0.3,1.1v0.8c0,0.5,0.1,0.8,0.4,1.1s0.6,0.4,1.1,0.4c0.2,0,0.5,0,0.7-0.1
			s0.4-0.2,0.6-0.4l0.9,0.9c-0.3,0.3-0.7,0.5-1,0.7s-0.8,0.2-1.2,0.2C191.7,57.3,191.2,57.2,190.8,56.9z"/>
		<path class="st1" d="M196.9,57c-0.3-0.2-0.5-0.5-0.7-0.9s-0.2-0.8-0.2-1.4v-1.2c0-0.5,0.1-1,0.2-1.4s0.4-0.7,0.7-0.9
			s0.7-0.3,1.1-0.3c0.3,0,0.7,0.1,0.9,0.3s0.5,0.5,0.7,0.8l-0.1,1.3c0-0.2,0-0.4-0.1-0.6s-0.2-0.3-0.4-0.4s-0.3-0.1-0.6-0.1
			c-0.3,0-0.6,0.1-0.8,0.3s-0.3,0.5-0.3,0.9v1.1c0,0.4,0.1,0.7,0.3,0.9s0.5,0.3,0.8,0.3c0.2,0,0.4,0,0.6-0.1s0.3-0.2,0.4-0.4
			s0.1-0.4,0.1-0.6l0.1,1.3c-0.1,0.3-0.3,0.6-0.6,0.8s-0.6,0.3-1,0.3C197.6,57.3,197.2,57.2,196.9,57z M197,59.4
			c-0.4-0.2-0.7-0.4-0.9-0.7l0.9-0.9c0.1,0.2,0.3,0.3,0.5,0.4s0.4,0.1,0.6,0.1c0.4,0,0.7-0.1,0.9-0.3s0.3-0.5,0.3-0.9v-6h1.4V57
			c0,0.6-0.1,1-0.3,1.4s-0.5,0.7-0.9,0.9s-0.9,0.3-1.4,0.3C197.8,59.6,197.4,59.6,197,59.4z"/>
		<path class="st1" d="M202.6,48.7h1.4v1.4h-1.4V48.7z M202.6,51.1h1.4v6.1h-1.4V51.1z"/>
		<path class="st1" d="M206.8,57.2c-0.3-0.1-0.6-0.2-0.9-0.3s-0.5-0.3-0.8-0.5l0.8-1.1c0.3,0.2,0.6,0.4,0.9,0.5s0.6,0.2,0.9,0.2
			c0.4,0,0.7-0.1,1-0.2s0.3-0.3,0.3-0.5c0-0.2-0.1-0.3-0.2-0.4s-0.2-0.1-0.4-0.2s-0.4-0.1-0.7-0.1c-0.1,0-0.1,0-0.2,0s-0.1,0-0.2,0
			c0,0,0,0,0,0s0,0,0,0c-0.4,0-0.8-0.1-1-0.2s-0.5-0.2-0.7-0.5s-0.3-0.6-0.3-1c0-0.4,0.1-0.8,0.3-1.1s0.5-0.5,0.8-0.7
			s0.8-0.2,1.3-0.2c0.3,0,0.6,0,0.9,0.1s0.6,0.1,0.9,0.3s0.5,0.3,0.8,0.4l-0.8,1c-0.3-0.2-0.6-0.3-0.9-0.4s-0.6-0.1-0.8-0.1
			c-0.4,0-0.6,0.1-0.8,0.2s-0.3,0.3-0.3,0.5c0,0.1,0.1,0.2,0.2,0.3s0.2,0.1,0.4,0.1s0.4,0.1,0.7,0.1c0,0,0.1,0,0.1,0s0.1,0,0.1,0
			c0,0,0,0,0,0s0,0,0,0c0.4,0,0.8,0.1,1.1,0.2s0.5,0.3,0.8,0.5s0.3,0.6,0.3,1.1c0,0.4-0.1,0.8-0.3,1.1s-0.5,0.5-0.9,0.7
			s-0.9,0.2-1.4,0.2C207.5,57.3,207.2,57.2,206.8,57.2z"/>
		<path class="st1" d="M211.4,51.1h2.9v1.2h-2.9V51.1z M212.4,56.8c-0.2-0.3-0.4-0.7-0.4-1.2v-6.3h1.4v6.1c0,0.1,0,0.3,0.1,0.3
			s0.1,0.1,0.3,0.1h0.5v1.3h-0.8C213,57.2,212.6,57.1,212.4,56.8z"/>
		<path class="st1" d="M215.8,51.1h1.5v6.1h-1.5V51.1z M218.8,52.4c-0.1-0.1-0.3-0.1-0.5-0.1c-0.4,0-0.6,0.1-0.8,0.3
			s-0.3,0.5-0.3,0.9l-0.1-1.4c0.2-0.4,0.4-0.6,0.7-0.8s0.6-0.3,0.9-0.3c0.3,0,0.5,0,0.7,0.1s0.4,0.2,0.6,0.4l-0.9,1.2
			C219.1,52.6,219,52.5,218.8,52.4z"/>
		<path class="st1" d="M221.8,57c-0.4-0.2-0.7-0.5-0.9-0.9s-0.3-0.9-0.3-1.4v-1c0-0.6,0.1-1,0.3-1.4s0.5-0.7,0.9-0.9
			s0.8-0.3,1.4-0.3s1,0.1,1.4,0.3s0.7,0.5,0.9,0.9s0.3,0.9,0.3,1.4v1c0,0.6-0.1,1-0.3,1.4s-0.5,0.7-0.9,0.9s-0.8,0.3-1.4,0.3
			S222.2,57.2,221.8,57z M224,55.6c0.2-0.2,0.3-0.5,0.3-1v-1c0-0.4-0.1-0.7-0.3-0.9s-0.5-0.3-0.9-0.3s-0.7,0.1-0.9,0.3
			s-0.3,0.5-0.3,0.9v1c0,0.4,0.1,0.7,0.3,1s0.5,0.3,0.9,0.3C223.5,55.9,223.8,55.8,224,55.6z"/>
		<path class="st1" d="M182.3,61.7h1.5l3.7,6.6l-0.1,0.2v-6.7h1.4v8.5h-1.5l-3.7-6.5l0.1-0.2v6.6h-1.4V61.7z"/>
		<path class="st1" d="M190.8,69.8c-0.3-0.3-0.5-0.8-0.5-1.4c0-0.6,0.2-1.1,0.5-1.4s0.9-0.5,1.6-0.5h1.6l0.1,1.1h-1.7
			c-0.3,0-0.5,0.1-0.6,0.2s-0.2,0.3-0.2,0.5c0,0.3,0.1,0.4,0.3,0.6s0.5,0.2,0.8,0.2c0.4,0,0.8,0,1-0.1s0.3-0.3,0.3-0.5l0.1,0.9
			c-0.1,0.2-0.2,0.4-0.3,0.5s-0.4,0.2-0.6,0.3s-0.5,0.1-0.8,0.1C191.6,70.3,191.1,70.1,190.8,69.8z M193.9,66.3
			c0-0.3-0.1-0.6-0.3-0.8s-0.5-0.3-0.9-0.3c-0.2,0-0.5,0-0.7,0.1s-0.4,0.2-0.6,0.3l-0.9-0.8c0.2-0.3,0.6-0.5,0.9-0.6
			s0.8-0.2,1.3-0.2c0.5,0,1,0.1,1.3,0.3s0.6,0.4,0.8,0.8s0.3,0.7,0.3,1.2v3.9h-1.3V66.3z"/>
		<path class="st1" d="M198,69.9c-0.4-0.2-0.7-0.5-0.9-0.9s-0.3-0.9-0.3-1.5v-0.8c0-0.6,0.1-1.1,0.3-1.5s0.5-0.7,0.9-0.9
			s0.9-0.3,1.5-0.3c0.3,0,0.6,0,0.9,0.1s0.5,0.2,0.8,0.3s0.4,0.3,0.6,0.5l-0.9,0.9c-0.2-0.2-0.3-0.3-0.6-0.4s-0.4-0.1-0.7-0.1
			c-0.4,0-0.8,0.1-1,0.4s-0.4,0.6-0.4,1v0.8c0,0.4,0.1,0.8,0.4,1s0.6,0.4,1,0.4c0.2,0,0.5,0,0.7-0.1s0.4-0.2,0.6-0.4l0.9,0.9
			c-0.2,0.2-0.3,0.4-0.6,0.5s-0.5,0.3-0.8,0.3s-0.6,0.1-0.9,0.1C198.9,70.3,198.4,70.2,198,69.9z"/>
		<path class="st1" d="M202.9,61.7h1.4v1.4h-1.4V61.7z M202.9,64.1h1.4v6.1h-1.4V64.1z"/>
		<path class="st1" d="M206.9,70c-0.4-0.2-0.7-0.5-0.9-0.9s-0.3-0.9-0.3-1.4v-1c0-0.6,0.1-1,0.3-1.4s0.5-0.7,0.9-0.9
			s0.8-0.3,1.4-0.3s1,0.1,1.4,0.3s0.7,0.5,0.9,0.9s0.3,0.9,0.3,1.4v1c0,0.6-0.1,1-0.3,1.4s-0.5,0.7-0.9,0.9s-0.8,0.3-1.4,0.3
			S207.3,70.2,206.9,70z M209.2,68.6c0.2-0.2,0.3-0.5,0.3-1v-1c0-0.4-0.1-0.7-0.3-0.9s-0.5-0.3-0.9-0.3s-0.7,0.1-0.9,0.3
			s-0.3,0.5-0.3,0.9v1c0,0.4,0.1,0.7,0.3,1s0.5,0.3,0.9,0.3C208.7,68.9,209,68.8,209.2,68.6z"/>
		<path class="st1" d="M212.5,64.1h1.4v6.1h-1.4V64.1z M216.1,66.5c0-0.4-0.1-0.6-0.3-0.8s-0.5-0.3-0.8-0.3c-0.3,0-0.6,0.1-0.8,0.3
			s-0.3,0.4-0.3,0.8l-0.1-1.3c0.2-0.4,0.4-0.7,0.7-0.9s0.6-0.3,1-0.3c0.6,0,1.2,0.2,1.5,0.6s0.5,1,0.5,1.8v3.7h-1.4V66.5z"/>
		<path class="st1" d="M219.4,69.8c-0.3-0.3-0.5-0.8-0.5-1.4c0-0.6,0.2-1.1,0.5-1.4s0.9-0.5,1.6-0.5h1.6l0.1,1.1H221
			c-0.3,0-0.5,0.1-0.6,0.2s-0.2,0.3-0.2,0.5c0,0.3,0.1,0.4,0.3,0.6s0.5,0.2,0.8,0.2c0.4,0,0.8,0,1-0.1s0.3-0.3,0.3-0.5l0.1,0.9
			c-0.1,0.2-0.2,0.4-0.3,0.5s-0.4,0.2-0.6,0.3s-0.5,0.1-0.8,0.1C220.3,70.3,219.7,70.1,219.4,69.8z M222.5,66.3
			c0-0.3-0.1-0.6-0.3-0.8s-0.5-0.3-0.9-0.3c-0.2,0-0.5,0-0.7,0.1s-0.4,0.2-0.6,0.3l-0.9-0.8c0.2-0.3,0.6-0.5,0.9-0.6
			s0.8-0.2,1.3-0.2c0.5,0,1,0.1,1.3,0.3s0.6,0.4,0.8,0.8s0.3,0.7,0.3,1.2v3.9h-1.3V66.3z"/>
		<path class="st1" d="M226.9,68.4c0,0.1,0,0.3,0.1,0.3s0.2,0.1,0.3,0.1h0.4v1.3H227c-0.5,0-0.8-0.1-1.1-0.4s-0.4-0.7-0.4-1.2v-6.9
			h1.4V68.4z"/>
		<path class="st1" d="M233,70c-0.3-0.2-0.5-0.5-0.7-0.9s-0.2-0.8-0.2-1.4v-1.2c0-0.5,0.1-1,0.2-1.4s0.4-0.7,0.7-0.9
			s0.7-0.3,1.1-0.3c0.3,0,0.7,0.1,0.9,0.3s0.5,0.5,0.7,0.8l-0.1,1.3c0-0.2,0-0.4-0.1-0.6s-0.2-0.3-0.4-0.4s-0.3-0.1-0.6-0.1
			c-0.3,0-0.6,0.1-0.8,0.3s-0.3,0.5-0.3,0.9v1.1c0,0.4,0.1,0.7,0.3,0.9s0.5,0.3,0.8,0.3c0.2,0,0.4,0,0.6-0.1s0.3-0.2,0.4-0.4
			s0.1-0.4,0.1-0.6l0.1,1.3c-0.1,0.3-0.3,0.6-0.6,0.8s-0.6,0.3-1,0.3C233.7,70.3,233.3,70.2,233,70z M235.6,61.7h1.4v8.5h-1.4V61.7z
			"/>
		<path class="st1" d="M239.8,69.9c-0.4-0.2-0.7-0.5-0.9-0.9s-0.3-0.9-0.3-1.5v-0.7c0-0.6,0.1-1.1,0.3-1.5s0.5-0.8,0.9-1
			s0.9-0.3,1.4-0.3c0.5,0,1,0.1,1.3,0.4s0.7,0.6,0.8,1.1s0.3,1.1,0.3,1.8v0.4h-4.1v-1h2.8l0-0.1c0-0.4-0.2-0.8-0.4-1
			s-0.5-0.4-0.8-0.4c-0.4,0-0.7,0.1-1,0.4s-0.3,0.6-0.3,1.1v0.8c0,0.5,0.1,0.8,0.4,1.1s0.6,0.4,1.1,0.4c0.2,0,0.5,0,0.7-0.1
			s0.4-0.2,0.6-0.4l0.9,0.9c-0.3,0.3-0.7,0.5-1,0.7s-0.8,0.2-1.2,0.2C240.7,70.3,240.2,70.2,239.8,69.9z"/>
		<path class="st1" d="M182.3,74.7h1.4v8.5h-1.4V74.7z M182.9,78.5h2.7c0.2,0,0.4-0.1,0.6-0.2s0.3-0.3,0.4-0.4s0.1-0.4,0.1-0.7
			c0-0.3,0-0.5-0.1-0.7s-0.2-0.3-0.4-0.4s-0.4-0.2-0.6-0.2h-2.7v-1.3h2.7c0.5,0,1,0.1,1.4,0.3s0.7,0.5,0.9,0.9s0.3,0.9,0.3,1.4
			s-0.1,1-0.3,1.4s-0.5,0.7-0.9,0.9s-0.9,0.3-1.4,0.3h-2.7V78.5z"/>
		<path class="st1" d="M189.3,77.1h1.5v6.1h-1.5V77.1z M192.4,78.4c-0.1-0.1-0.3-0.1-0.5-0.1c-0.4,0-0.6,0.1-0.8,0.3
			s-0.3,0.5-0.3,0.9l-0.1-1.4c0.2-0.4,0.4-0.6,0.7-0.8s0.6-0.3,0.9-0.3c0.3,0,0.5,0,0.7,0.1s0.4,0.2,0.6,0.4l-0.9,1.2
			C192.6,78.6,192.5,78.5,192.4,78.4z"/>
		<path class="st1" d="M195.3,83c-0.4-0.2-0.7-0.5-0.9-0.9s-0.3-0.9-0.3-1.4v-1c0-0.6,0.1-1,0.3-1.4s0.5-0.7,0.9-0.9
			s0.8-0.3,1.4-0.3s1,0.1,1.4,0.3s0.7,0.5,0.9,0.9s0.3,0.9,0.3,1.4v1c0,0.6-0.1,1-0.3,1.4s-0.5,0.7-0.9,0.9s-0.8,0.3-1.4,0.3
			S195.7,83.2,195.3,83z M197.6,81.6c0.2-0.2,0.3-0.5,0.3-1v-1c0-0.4-0.1-0.7-0.3-0.9s-0.5-0.3-0.9-0.3s-0.7,0.1-0.9,0.3
			s-0.3,0.5-0.3,0.9v1c0,0.4,0.1,0.7,0.3,1s0.5,0.3,0.9,0.3C197.1,81.9,197.4,81.8,197.6,81.6z"/>
		<path class="st1" d="M204.1,77.1h1.4l-2.3,6.1h-1l-2.3-6.1h1.4l1.4,4.1L204.1,77.1z"/>
		<path class="st1" d="M207.6,82.9c-0.4-0.2-0.7-0.5-0.9-0.9s-0.3-0.9-0.3-1.5v-0.7c0-0.6,0.1-1.1,0.3-1.5s0.5-0.8,0.9-1
			s0.9-0.3,1.4-0.3c0.5,0,1,0.1,1.3,0.4s0.7,0.6,0.8,1.1s0.3,1.1,0.3,1.8v0.4h-4.1v-1h2.8l0-0.1c0-0.4-0.2-0.8-0.4-1
			s-0.5-0.4-0.8-0.4c-0.4,0-0.7,0.1-1,0.4s-0.3,0.6-0.3,1.1v0.8c0,0.5,0.1,0.8,0.4,1.1s0.6,0.4,1.1,0.4c0.2,0,0.5,0,0.7-0.1
			s0.4-0.2,0.6-0.4l0.9,0.9c-0.3,0.3-0.7,0.5-1,0.7s-0.8,0.2-1.2,0.2C208.5,83.3,208,83.2,207.6,82.9z"/>
		<path class="st1" d="M213.7,83c-0.3-0.2-0.5-0.5-0.7-0.9c-0.2-0.4-0.2-0.8-0.2-1.4v-1.2c0-0.5,0.1-1,0.2-1.4s0.4-0.7,0.7-0.9
			s0.7-0.3,1.1-0.3c0.3,0,0.7,0.1,0.9,0.3s0.5,0.5,0.7,0.8l-0.1,1.3c0-0.2,0-0.4-0.1-0.6s-0.2-0.3-0.4-0.4s-0.3-0.1-0.6-0.1
			c-0.3,0-0.6,0.1-0.8,0.3s-0.3,0.5-0.3,0.9v1.1c0,0.4,0.1,0.7,0.3,0.9s0.5,0.3,0.8,0.3c0.2,0,0.4,0,0.6-0.1s0.3-0.2,0.4-0.4
			s0.1-0.4,0.1-0.6l0.1,1.3c-0.1,0.3-0.3,0.6-0.6,0.8s-0.6,0.3-1,0.3C214.4,83.3,214,83.2,213.7,83z M216.3,74.7h1.4v8.5h-1.4V74.7z
			"/>
		<path class="st1" d="M220.4,83c-0.4-0.2-0.7-0.5-0.9-0.9s-0.3-0.9-0.3-1.4v-1c0-0.6,0.1-1,0.3-1.4s0.5-0.7,0.9-0.9
			s0.8-0.3,1.4-0.3s1,0.1,1.4,0.3s0.7,0.5,0.9,0.9s0.3,0.9,0.3,1.4v1c0,0.6-0.1,1-0.3,1.4s-0.5,0.7-0.9,0.9s-0.8,0.3-1.4,0.3
			S220.8,83.2,220.4,83z M222.7,81.6c0.2-0.2,0.3-0.5,0.3-1v-1c0-0.4-0.1-0.7-0.3-0.9s-0.5-0.3-0.9-0.3s-0.7,0.1-0.9,0.3
			s-0.3,0.5-0.3,0.9v1c0,0.4,0.1,0.7,0.3,1s0.5,0.3,0.9,0.3C222.2,81.9,222.5,81.8,222.7,81.6z"/>
		<path class="st1" d="M225.9,77.1h1.5v6.1h-1.5V77.1z M229,78.4c-0.1-0.1-0.3-0.1-0.5-0.1c-0.4,0-0.6,0.1-0.8,0.3s-0.3,0.5-0.3,0.9
			l-0.1-1.4c0.2-0.4,0.4-0.6,0.7-0.8s0.6-0.3,0.9-0.3c0.3,0,0.5,0,0.7,0.1s0.4,0.2,0.6,0.4l-0.9,1.2C229.2,78.6,229.1,78.5,229,78.4
			z"/>
		<path class="st1" d="M232,82.9c-0.4-0.2-0.7-0.5-0.9-0.9s-0.3-0.9-0.3-1.5v-0.7c0-0.6,0.1-1.1,0.3-1.5s0.5-0.8,0.9-1
			s0.9-0.3,1.4-0.3c0.5,0,1,0.1,1.3,0.4s0.7,0.6,0.8,1.1s0.3,1.1,0.3,1.8v0.4h-4.1v-1h2.8l0-0.1c0-0.4-0.2-0.8-0.4-1
			s-0.5-0.4-0.8-0.4c-0.4,0-0.7,0.1-1,0.4s-0.3,0.6-0.3,1.1v0.8c0,0.5,0.1,0.8,0.4,1.1s0.6,0.4,1.1,0.4c0.2,0,0.5,0,0.7-0.1
			s0.4-0.2,0.6-0.4l0.9,0.9c-0.3,0.3-0.7,0.5-1,0.7s-0.8,0.2-1.2,0.2C232.9,83.3,232.4,83.2,232,82.9z"/>
		<path class="st1" d="M238.6,83.2c-0.3-0.1-0.6-0.2-0.9-0.3s-0.5-0.3-0.8-0.5l0.8-1.1c0.3,0.2,0.6,0.4,0.9,0.5s0.6,0.2,0.9,0.2
			c0.4,0,0.7-0.1,1-0.2s0.3-0.3,0.3-0.5c0-0.2-0.1-0.3-0.2-0.4s-0.2-0.1-0.4-0.2s-0.4-0.1-0.7-0.1c-0.1,0-0.1,0-0.2,0s-0.1,0-0.2,0
			c0,0,0,0,0,0s0,0,0,0c-0.4,0-0.8-0.1-1-0.2s-0.5-0.2-0.7-0.5s-0.3-0.6-0.3-1c0-0.4,0.1-0.8,0.3-1.1s0.5-0.5,0.8-0.7
			s0.8-0.2,1.3-0.2c0.3,0,0.6,0,0.9,0.1s0.6,0.1,0.9,0.3s0.5,0.3,0.8,0.4l-0.8,1c-0.3-0.2-0.6-0.3-0.9-0.4s-0.6-0.1-0.8-0.1
			c-0.4,0-0.6,0.1-0.8,0.2s-0.3,0.3-0.3,0.5c0,0.1,0.1,0.2,0.2,0.3s0.2,0.1,0.4,0.1s0.4,0.1,0.7,0.1c0,0,0.1,0,0.1,0s0.1,0,0.1,0
			c0,0,0,0,0,0s0,0,0,0c0.4,0,0.8,0.1,1.1,0.2s0.5,0.3,0.8,0.5s0.3,0.6,0.3,1.1c0,0.4-0.1,0.8-0.3,1.1c-0.2,0.3-0.5,0.5-0.9,0.7
			s-0.9,0.2-1.4,0.2C239.3,83.3,238.9,83.2,238.6,83.2z"/>
	</g>
	<line class="st3" x1="273.6" y1="116.7" x2="300.2" y2="116.7"/>
	<line class="st3" x1="273.5" y1="122.5" x2="300.2" y2="122.5"/>
	<line class="st3" x1="273.6" y1="9.6" x2="300.2" y2="9.6"/>
	<line class="st3" x1="273.6" y1="16" x2="300.2" y2="16"/>
	<line class="st3" x1="273.6" y1="22.3" x2="300.2" y2="22.3"/>
	<line class="st3" x1="273.6" y1="28.6" x2="300.2" y2="28.6"/>
	<line class="st3" x1="273.6" y1="34.9" x2="300.2" y2="34.9"/>
	<line class="st3" x1="273.6" y1="41.3" x2="300.2" y2="41.3"/>
	<line class="st3" x1="273.6" y1="47.6" x2="300.2" y2="47.6"/>
	<line class="st3" x1="273.6" y1="53.9" x2="300.2" y2="53.9"/>
	<line class="st3" x1="273.6" y1="60.2" x2="300.2" y2="60.2"/>
	<line class="st3" x1="273.6" y1="66.6" x2="300.2" y2="66.6"/>
	<line class="st3" x1="273.6" y1="72.9" x2="300.2" y2="72.9"/>
	<line class="st3" x1="273.6" y1="79.2" x2="300.2" y2="79.2"/>
	<line class="st3" x1="273.6" y1="85.5" x2="300.2" y2="85.5"/>
	<line class="st3" x1="273.6" y1="91.9" x2="300.2" y2="91.9"/>
	<line class="st3" x1="273.6" y1="98.2" x2="300.2" y2="98.2"/>
	<line class="st3" x1="273.6" y1="104.5" x2="300.2" y2="104.5"/>
	<line class="st3" x1="273.6" y1="110.8" x2="300.2" y2="110.8"/>
	<polygon class="st4" points="27.3,0 27.3,0 27.3,27.3 0,27.3 0,27.3 	"/>
</g>
<g id="Capa_1" class="st5">
	
		<image style="display:inline;overflow:visible;" width="150" height="150" xlink:href="rnp.png"  transform="matrix(2.12 0 0 2.12 -7.5319 -93.617)">
	</image>
</g>
</svg>
