<svg xmlns="http://www.w3.org/2000/svg" viewBox="0 0 221.11 269.86"><defs><style>.e2963e43-3947-4a37-b89d-0a6f3a8c5be5{fill:#b8b3ad;}.a5056028-f2b5-4510-8a89-45d279e1e336{fill:#6e2143;}.e31725c0-0bfe-450a-8779-d73757630b43{fill:#fff;}.fa4dd8e0-11e0-460f-939f-e9717f66e64e{fill:none;stroke:#6e2143;stroke-miterlimit:10;stroke-width:4px;}</style></defs><title>reniec-min</title><g id="e9662214-4b32-4d81-948c-a1bca33ba9af" data-name="Capa 8"><rect class="e2963e43-3947-4a37-b89d-0a6f3a8c5be5" y="144.59" width="221.11" height="125.27"/></g><g id="e97448e0-dfc4-430e-a748-b0954710ebd5" data-name="Capa 2"><circle class="a5056028-f2b5-4510-8a89-45d279e1e336" cx="50.62" cy="31.99" r="29"/><path class="a5056028-f2b5-4510-8a89-45d279e1e336" d="M21.17,68.8H75a13.4,13.4,0,0,1,13.4,13.4v76a0,0,0,0,1,0,0H7.77a0,0,0,0,1,0,0v-76A13.4,13.4,0,0,1,21.17,68.8Z"/><rect class="a5056028-f2b5-4510-8a89-45d279e1e336" x="18.91" y="144.37" width="58.39" height="97.53"/><path class="a5056028-f2b5-4510-8a89-45d279e1e336" d="M206,31a29,29,0,0,1-29,29,25.8,25.8,0,0,1-2.79-.14V27.35a27.3,27.3,0,0,0-11-21.9A29,29,0,0,1,206,31Z"/><path class="a5056028-f2b5-4510-8a89-45d279e1e336" d="M217.55,82.54a13.4,13.4,0,0,0-13.4-13.4h-90a13.4,13.4,0,0,0-13.4,13.4v76h47.27v83.4h58.39V158.5h11.1Z"/><path class="e2963e43-3947-4a37-b89d-0a6f3a8c5be5" d="M174.23,27.35V59.84a29,29,0,0,1-11-54.39A27.3,27.3,0,0,1,174.23,27.35Z"/><path class="a5056028-f2b5-4510-8a89-45d279e1e336" d="M174.23,59.84V60H119.54V27.35a27.34,27.34,0,0,1,43.72-21.9,29,29,0,0,0,11,54.39Z"/></g><g id="f31dec95-b7de-4e65-8142-52c375670205" data-name="Capa 3"><path class="e31725c0-0bfe-450a-8779-d73757630b43" d="M61.71,255.58c25.8,21.9,68.27,13.45,98.4-19.47s33.61-76.42,10.71-99.72c-25.27-21.12-68.26-13.45-98.39,19.46S29.47,226.08,61.71,255.58Z"/></g><g id="b6671b05-344f-4a72-b27e-caa8edc0a03f" data-name="Capa 4"><path class="fa4dd8e0-11e0-460f-939f-e9717f66e64e" d="M178.4,209.9c-5.57-4.63-3.14-23.4-4.17-46.21,0-20-15.95-32.55-36.12-32.55-18.3,0-23.79,4.81-34.49,12.17-9.07,5.61-20.19.55-20.19.55"/><path class="fa4dd8e0-11e0-460f-939f-e9717f66e64e" d="M170.79,226.2c-10.59-17.09-9.8-31.06-10.73-53.87,0-20-7.27-28.89-25.57-28.89-16.61,0-22.6,8.76-34.68,14.21-10.56,4.34-27.19-6-27.19-6"/><path class="fa4dd8e0-11e0-460f-939f-e9717f66e64e" d="M162.49,237.44c-10.72-16.23-14.68-20-17.2-42.46-1.63-19.9,7.58-37.5-7.57-40.83-17.1-2-26.68,14-40.34,16.37-13.88,1.15-30.89-10.7-30.89-10.7"/><path class="fa4dd8e0-11e0-460f-939f-e9717f66e64e" d="M150.27,246.15c-39.49-59.75-6.07-76.37-15.45-81.45-10.09-4.4-12.17,15.22-43.4,16.15-19.34-.7-31.7-13.5-31.7-13.5"/><path class="fa4dd8e0-11e0-460f-939f-e9717f66e64e" d="M54,176.8s8.55,9.18,18.76,12.76c15.09,3.71,23.91-2.07,32.3-1.95,8.85.12,12.26,1.32,15.83,7.06,3.5,5,4.26,21.28,7.41,29,3.91,11.38,6.63,22.52,10.56,30.72"/><path class="fa4dd8e0-11e0-460f-939f-e9717f66e64e" d="M49.38,185.73s9.27,9.78,19.49,13.36c11.42,3.47,19.61-1.29,27.43-.59,8.81.79,12.54,3.95,16.66,11.4,2.93,5.32,11.36,25.07,13.66,51.62"/><path class="fa4dd8e0-11e0-460f-939f-e9717f66e64e" d="M44.79,196.46s8,9.79,19.4,12.17c11.94,2.83,15.39,1.27,23.24,1.27,9.36,0,13.57,4.3,18.55,13,5.11,8.91,10.19,33.64,10.81,42.39"/><path class="fa4dd8e0-11e0-460f-939f-e9717f66e64e" d="M106.49,267.27"/><path class="fa4dd8e0-11e0-460f-939f-e9717f66e64e" d="M42.06,211.18c22.9,3.66,62.93,9.11,65.57,55.94"/><path class="fa4dd8e0-11e0-460f-939f-e9717f66e64e" d="M41.09,220.84c27.78,9.45,42.4,12.38,58.4,48"/><path class="fa4dd8e0-11e0-460f-939f-e9717f66e64e" d="M42.06,233.48a66.28,66.28,0,0,1,44.73,35.36"/></g></svg>