<?xml version="1.0" encoding="utf-8"?>
<!-- Generator: Adobe Illustrator 24.0.0, SVG Export Plug-In . SVG Version: 6.00 Build 0)  -->
<svg version="1.1" id="Capa_1" xmlns="http://www.w3.org/2000/svg" xmlns:xlink="http://www.w3.org/1999/xlink" x="0px" y="0px"
	 viewBox="0 0 348 384.2" style="enable-background:new 0 0 348 384.2;" xml:space="preserve">
<style type="text/css">
	.st0{fill:#FF9900;}
	.st1{fill:#0088DB;stroke:#0088DB;stroke-width:5;stroke-miterlimit:10;}
	.st2{display:none;}
</style>
<path class="st0" d="M57.5,114.9H0C0,114.9,41.9,0,173.3,0S348,114.9,348,114.9h-57c0,0-36.7-65.9-117.4-65.9S57.5,114.9,57.5,114.9
	z"/>
<path class="st0" d="M57.5,268.7H0c0,0,41.9,114.9,173.3,114.9S348,268.7,348,268.7h-57c0,0-36.7,65.9-117.4,65.9
	S57.5,268.7,57.5,268.7z"/>
<g>
	<g>
		<path class="st1" d="M47.7,246.4c-4.7-1.1-9.2-2.7-13.3-4.8c-4.2-2.1-7.9-4.7-11.1-7.6l9-17.7c4,3.6,8.6,6.4,13.8,8.3
			c5.2,2,10.6,2.9,16.1,2.9c6.4,0,11.3-1.2,14.8-3.6c3.5-2.4,5.3-5.7,5.3-10.1v-0.1c0-3-0.8-5.4-2.3-7.2c-1.6-1.8-3.6-3.1-6.1-3.9
			c-2.5-0.8-5.7-1.6-9.7-2.3c-0.1-0.1-0.3-0.1-0.4-0.1c-0.1,0-0.2,0-0.4-0.1l-1.6-0.2c-6.9-1.2-12.7-2.7-17.2-4.5
			c-4.6-1.8-8.4-5-11.6-9.5c-3.2-4.5-4.8-10.9-4.8-19.2v-0.1c0-7.4,1.5-13.7,4.5-18.9s7.3-9.2,13-12c5.7-2.7,12.6-4.1,20.6-4.1
			c3.7,0,7.5,0.5,11.4,1.4s7.7,2.3,11.4,4.1c3.7,1.8,7.2,3.9,10.5,6.4l-8.3,18.2c-4-3-8.2-5.4-12.5-7.1c-4.3-1.7-8.5-2.5-12.5-2.5
			c-6,0-10.6,1.1-13.9,3.3c-3.3,2.2-4.9,5.2-4.9,9.1v0.1c0,3.3,0.9,5.9,2.6,7.8c1.7,1.9,3.8,3.3,6.3,4.2s6.1,1.8,10.6,2.8
			c0.2,0.1,0.4,0.1,0.6,0.1s0.4,0.1,0.6,0.1c0.3,0.1,0.6,0.1,0.8,0.2c0.3,0.1,0.5,0.1,0.8,0.2c6.6,1.4,12,3.1,16.4,5.1
			s8.1,5.3,11,9.7c2.9,4.5,4.4,10.6,4.4,18.3v0.2c0,7.3-1.5,13.5-4.6,18.7s-7.6,9.1-13.5,11.8s-13,4.1-21.3,4.1
			C57.2,248.1,52.4,247.5,47.7,246.4z"/>
		<path class="st1" d="M139.5,246.9h-20.2v-114h20.2V246.9z"/>
		<path class="st1" d="M191.8,132.9h12.4l39.6,113.9h-21L198,169.1l-24.8,77.8h-21L191.8,132.9z M171.3,207.9h54.5v20.7h-54.5V207.9
			z"/>
		<path class="st1" d="M259.4,132.9h19.5v113.9h-19.5V132.9z M266.5,132.9h60.9v20.7h-60.9V132.9z M266.5,181h53v20.7h-53V181z"/>
	</g>
</g>
<g id="Capa_1_1_" class="st2">
	
		<image style="display:inline;overflow:visible;enable-background:new    ;" width="150" height="150" xlink:href="siaf.png"  transform="matrix(2.72 0 0 2.72 -24.5957 -12.8723)">
	</image>
</g>
</svg>
