<?xml version="1.0" encoding="utf-8"?>
<!-- Generator: Adobe Illustrator 24.0.0, SVG Export Plug-In . SVG Version: 6.00 Build 0)  -->
<svg version="1.1" id="Capa_1" xmlns="http://www.w3.org/2000/svg" xmlns:xlink="http://www.w3.org/1999/xlink" x="0px" y="0px"
	 viewBox="0 0 204 130.7" style="enable-background:new 0 0 204 130.7;" xml:space="preserve">
<style type="text/css">
	.st0{fill:#9E876E;}
	.st1{fill:#E9BC00;}
	.st2{fill:#FFFFFF;}
	.st3{display:none;}
</style>
<g>
	<polygon class="st0" points="204,130.7 204,0 27.3,0 0,27.3 0,130.7 	"/>
	<polygon class="st1" points="27.3,0 27.3,0 27.3,27.3 0,27.3 0,27.3 	"/>
</g>
<g>
	<path class="st2" d="M49.3,45.2h7.6v40.2h-7.6V45.2z M52.3,62h14c0.8,0,1.5-0.2,2-0.6c0.6-0.4,1-0.9,1.4-1.7
		c0.3-0.7,0.5-1.5,0.5-2.5c0-0.9-0.2-1.8-0.5-2.5s-0.8-1.3-1.4-1.7c-0.5-0.3-1.2-0.5-2-0.5h-14v-7.3h14.6c2.2,0,4.2,0.5,5.8,1.5
		s3,2.4,3.9,4.2s1.4,3.9,1.4,6.3c0,2.4-0.5,4.5-1.4,6.3c-0.9,1.8-2.2,3.2-3.9,4.2s-3.6,1.5-5.8,1.5H52.3V62z M60.8,68l8.1-1.3
		l10.8,18.7h-9.2L60.8,68z"/>
	<path class="st2" d="M86.3,45.2h9.3l15,30.8l-0.7,0.7V45.2h7.2v40.2h-9.3L92.8,55.1l0.7-0.7v31.1h-7.2L86.3,45.2L86.3,45.2z"/>
	<path class="st2" d="M126,45.2h7.6v40.2H126V45.2z M129.4,62.5h12.9c0.9,0,1.7-0.2,2.4-0.6c0.7-0.4,1.2-1,1.6-1.8
		c0.4-0.8,0.6-1.6,0.6-2.6s-0.2-1.9-0.6-2.6c-0.4-0.7-0.9-1.4-1.6-1.8c-0.7-0.4-1.5-0.6-2.4-0.6h-12.9v-7.3H142
		c2.5,0,4.7,0.5,6.6,1.5c1.9,1,3.4,2.5,4.4,4.3c1.1,1.9,1.6,4,1.6,6.5s-0.5,4.6-1.6,6.5s-2.5,3.3-4.4,4.3s-4.1,1.5-6.6,1.5h-12.7
		V62.5z"/>
</g>
<g id="Capa_1_1_" class="st3">
	
		<image style="display:inline;overflow:visible;enable-background:new    ;" width="150" height="150" xlink:href="rnp.png"  transform="matrix(2.12 0 0 2.12 -10.1819 -96.2127)">
	</image>
</g>
</svg>
