<?xml version="1.0" encoding="utf-8"?>
<!-- Generator: Adobe Illustrator 24.0.0, SVG Export Plug-In . SVG Version: 6.00 Build 0)  -->
<svg version="1.1" id="Capa_2" xmlns="http://www.w3.org/2000/svg" xmlns:xlink="http://www.w3.org/1999/xlink" x="0px" y="0px"
	 viewBox="0 0 3293.3 2138.6" style="enable-background:new 0 0 3293.3 2138.6;" xml:space="preserve">
<style type="text/css">
	.st0{fill:#185C37;}
	.st1{fill:#21A366;}
	.st2{fill:#107C41;}
	.st3{opacity:0.1;enable-background:new    ;}
	.st4{opacity:0.2;enable-background:new    ;}
	.st5{fill:url(#SVGID_1_);}
	.st6{fill:#FFFFFF;}
	.st7{fill:#33C481;}
	.st8{fill:#D30505;}
	.st9{fill:#FF2116;}
	.st10{fill:#FCFCFC;}
</style>
<g id="Livello_1">
	<path class="st0" d="M1437.8,1017L532.5,857.3v1180.4c0,53.9,43.7,97.6,97.6,97.6l0,0h1562c53.9,0,97.6-43.7,97.6-97.6l0,0v-434.9
		L1437.8,1017z"/>
	<path class="st1" d="M1437.8,5.3H630.1c-53.9,0-97.6,43.7-97.6,97.6l0,0v434.9l905.3,532.5L1917,1230l372.8-159.8V537.8L1437.8,5.3
		z"/>
	<path class="st2" d="M532.5,537.8h905.3v532.5H532.5V537.8z"/>
	<path class="st3" d="M1180.4,431.3H532.5v1331.3h647.9c53.8-0.2,97.4-43.8,97.6-97.6v-1136C1277.8,475.1,1234.2,431.5,1180.4,431.3
		z"/>
	<path class="st4" d="M1127.1,484.5H532.5v1331.3h594.6c53.8-0.2,97.4-43.8,97.6-97.6v-1136C1224.6,528.3,1181,484.7,1127.1,484.5z"
		/>
	<path class="st4" d="M1127.1,484.5H532.5v1224.8h594.6c53.8-0.2,97.4-43.8,97.6-97.6V582.1C1224.6,528.3,1181,484.7,1127.1,484.5z"
		/>
	<path class="st4" d="M1073.9,484.5H532.5v1224.8h541.4c53.8-0.2,97.4-43.8,97.6-97.6V582.1C1171.3,528.3,1127.7,484.7,1073.9,484.5
		z"/>
	
		<linearGradient id="SVGID_1_" gradientUnits="userSpaceOnUse" x1="203.5127" y1="-931.7399" x2="967.9858" y2="392.2957" gradientTransform="matrix(1 0 0 1 0 1340)">
		<stop  offset="0" style="stop-color:#18884F"/>
		<stop  offset="0.5" style="stop-color:#117E43"/>
		<stop  offset="1" style="stop-color:#0B6631"/>
	</linearGradient>
	<path class="st5" d="M97.6,484.5h976.3c53.9,0,97.6,43.7,97.6,97.6v976.3c0,53.9-43.7,97.6-97.6,97.6H97.6
		c-53.9,0-97.6-43.7-97.6-97.6V582.1C0,528.2,43.7,484.5,97.6,484.5z"/>
	<path class="st6" d="M302.3,1387.5l205.3-318.2L319.5,753h151.3l102.7,202.3c9.5,19.2,16,33.5,19.5,42.9h1.3
		c6.7-15.3,13.8-30.2,21.3-44.7l109.7-200.5h138.9l-192.9,314.5l197.8,319.9H721.4l-118.6-222.1c-5.6-9.4-10.3-19.4-14.2-29.7h-1.8
		c-3.5,10.1-8.1,19.7-13.7,28.8l-122.1,223L302.3,1387.5L302.3,1387.5z"/>
	<path class="st7" d="M2192.1,5.3h-754.4v532.5h852V102.9C2289.8,49,2246.1,5.3,2192.1,5.3L2192.1,5.3z"/>
	<path class="st2" d="M1437.8,1070.3h852v532.5h-852V1070.3z"/>
</g>
<g id="g876">
	<path id="path890" class="st8" d="M1774.8,0c-121.8,0-220.9,99.2-220.9,220.9v1696.7c0,121.7,99.1,220.9,220.9,220.9h1297.4
		c121.8,0,220.9-99.2,220.9-220.9V522.5c0,0,3.5-40.9-14.3-80.6c-16.6-37.3-43.7-63.2-43.7-63.2c-0.1-0.1-0.1-0.2-0.2-0.3L2913,62.7
		c-0.2-0.2-0.4-0.4-0.5-0.5c0,0-27.5-26.2-68.2-43.7c-48-20.6-97.4-18.4-97.4-18.4l0.7-0.1L1774.8,0z"/>
	<path id="rect2684" class="st9" d="M1774.8,72.6h972.8c0.2,0,0.5,0,0.7,0c0,0,38.9,0.4,67.4,12.6c27.4,11.8,46.8,29.5,46.9,29.7
		c0,0,0.1,0.1,0.1,0.1l321.1,315c0,0,19.3,20.4,28.7,41.4c7.6,17,8,48,8,48c0,0.5-0.1,1-0.1,1.5v1396.7
		c0,82.8-65.5,148.4-148.3,148.4H1774.8c-82.8,0-148.3-65.5-148.3-148.4V220.9C1626.5,138.1,1692,72.6,1774.8,72.6L1774.8,72.6z"/>
	<path id="path2697" class="st10" d="M1988.2,1273.3c-49.9-49.9,4.1-118.5,150.7-191.4l92.3-45.8l35.9-78.6
		c19.8-43.2,49.3-113.8,65.6-156.8l29.6-78.2l-20.4-57.9c-25.1-71.1-34-178.1-18.1-216.5c21.6-52.1,92.2-46.7,120.2,9.1
		c21.8,43.6,19.6,122.5-6.3,222.1l-21.2,81.6l18.7,31.7c10.3,17.5,40.3,58.9,66.8,92.1l49.7,61.8l61.8-8.1
		c196.4-25.6,263.6,17.9,263.6,80.4c0,78.8-154.2,85.3-283.7-5.6c-29.1-20.5-49.1-40.8-49.1-40.8s-81.1,16.5-121.1,27.3
		c-41.2,11.1-61.8,18.1-122.2,38.5c0,0-21.2,30.8-35,53.1c-51.4,83.2-111.3,152.2-154.2,177.3
		C2063.8,1296.7,2013.5,1298.6,1988.2,1273.3z M2066.5,1245.3c28.1-17.3,84.9-84.5,124.2-146.9l15.9-25.2l-72.5,36.5
		c-112,56.3-163.2,109.4-136.6,141.5C2012.6,1269.1,2030.5,1267.6,2066.5,1245.3L2066.5,1245.3z M2793.8,1041.1
		c27.5-19.2,23.5-58-7.6-73.6c-24.2-12.2-43.6-14.7-106.4-13.7c-38.6,2.6-100.6,10.4-111.1,12.8c0,0,34.1,23.5,49.2,32.2
		c20.1,11.5,69.1,32.8,104.8,43.8C2758,1053.3,2778.4,1052.2,2793.8,1041.1L2793.8,1041.1z M2501.4,919.6
		c-16.6-17.5-44.9-53.9-62.8-81c-23.4-30.7-35.2-52.4-35.2-52.4s-17.1,55.1-31.2,88.2l-43.8,108.3l-12.7,24.6
		c0,0,67.6-22.2,101.9-31.1c36.4-9.5,110.3-24,110.3-24L2501.4,919.6z M2407.2,541.7c4.2-35.6,6-71.1-5.4-89
		c-31.7-34.6-69.9-5.8-63.5,76.6c2.2,27.7,9.1,75.1,18.3,104.3l16.7,53.1l11.8-40C2391.6,624.7,2401.5,577.4,2407.2,541.7
		L2407.2,541.7z"/>
	<g id="g858">
		<path id="path845" class="st6" d="M2073.1,1504.5h81.1c25.9,0,46.9,2.5,63.1,7.4c16.1,4.8,29.7,15.6,40.8,32.4
			c11,16.6,16.5,36.7,16.5,60.2c0,21.6-4.5,40.1-13.4,55.6c-9,15.5-21,26.7-36.2,33.6c-15,6.9-38.2,10.3-69.6,10.3h-28.1v127.8
			h-54.2V1504.5z M2127.3,1546.5v114.2h26.9c24,0,40.5-4.5,49.6-13.4c9.3-9,13.9-23.5,13.9-43.7c0-15-3-27.2-9.1-36.5
			c-6.1-9.4-12.8-15.2-20.1-17.3c-7.2-2.2-18.6-3.4-34.3-3.4L2127.3,1546.5z"/>
		<path id="path847" class="st6" d="M2316,1504.5h73.6c35.7,0,64.1,6.3,85.4,18.9c21.4,12.6,37.6,31.4,48.4,56.4
			c11,24.9,16.5,52.6,16.5,83c0,32-5,60.5-14.9,85.6c-9.8,24.9-24.8,45.1-45.1,60.4c-20.1,15.4-48.9,23-86.3,23H2316V1504.5z
			 M2370.3,1547.9v240.6h22.5c31.5,0,54.4-10.9,68.6-32.6c14.2-21.9,21.3-51.1,21.3-87.5c0-80.3-30-120.4-89.9-120.4L2370.3,1547.9z
			"/>
		<path id="path849" class="st6" d="M2592.1,1504.5h181.8v43.4h-127.6v97.9h102.2v43.4h-102.2v142.7h-54.2V1504.5z"/>
	</g>
</g>
</svg>
