<?xml version="1.0" encoding="utf-8"?>
<!-- Generator: Adobe Illustrator 24.0.0, SVG Export Plug-In . SVG Version: 6.00 Build 0)  -->
<svg version="1.1" id="Capa_1" xmlns="http://www.w3.org/2000/svg" xmlns:xlink="http://www.w3.org/1999/xlink" x="0px" y="0px"
	 viewBox="0 0 512 578" style="enable-background:new 0 0 512 578;" xml:space="preserve">
<style type="text/css">
	.st0{fill:#8EBAC5;}
	.st1{fill:#CC2E43;}
	.st2{fill:#AE2538;}
	.st3{fill:#E63950;}
	.st4{fill:#FDBF00;}
	.st5{fill:#5A5A5A;}
	.st6{fill:#FF9F00;}
	.st7{fill:#444444;}
	.st8{fill:#DEECF1;}
	.st9{fill:#C6E2E7;}
</style>
<path class="st0" d="M451,183c-8.3,0-15-6.7-15-15v-38c0-8.3-6.7-15-15-15c-8.3,0-15-6.7-15-15s6.7-15,15-15c24.8,0,45,20.2,45,45
	v38C466,176.3,459.3,183,451,183z"/>
<path class="st0" d="M421,476c-24.8,0-45-20.2-45-45v-60c0-24.8-20.2-45-45-45c-8.3,0-15-6.7-15-15s6.7-15,15-15
	c41.4,0,75,33.6,75,75v60c0,8.3,6.7,15,15,15s15-6.7,15-15V250c0-8.3,6.7-15,15-15s15,6.7,15,15v181C466,455.8,445.8,476,421,476z"
	/>
<path class="st1" d="M346,250v272H76V250c0-8.4,6.6-15,15-15h240C339.4,235,346,241.6,346,250z"/>
<path class="st2" d="M346,250v272H211V235h120C339.4,235,346,241.6,346,250z"/>
<path class="st3" d="M331,25H91c-24.9,0-45,20.1-45,45v150c0,24.9,20.1,45,45,45h240c24.9,0,45-20.1,45-45V70
	C376,45.1,355.9,25,331,25z"/>
<path class="st1" d="M481,265h-60c-8.3,0-15-6.7-15-15v-30c0-41.4,33.6-75,75-75c8.3,0,15,6.7,15,15v90C496,258.3,489.3,265,481,265
	z"/>
<path class="st4" d="M223.3,302.6c-2.7-4.2-7.5-6-12.3-6s-9.6,1.8-12.3,6c-9.9,14.1-32.7,49.2-32.7,68.4c0,24.9,20.1,45,45,45
	s45-20.1,45-45C256,351.8,233.2,316.7,223.3,302.6z"/>
<path class="st5" d="M406,522c0,8.4-6.6,15-15,15H31c-8.4,0-15-6.6-15-15c0-8.4,6.6-15,15-15h360C399.4,507,406,513.6,406,522z"/>
<path class="st5" d="M286,461c0,8.4-6.6,15-15,15H151c-8.4,0-15-6.6-15-15c0-8.4,6.6-15,15-15h120C279.4,446,286,452.6,286,461z"/>
<path class="st1" d="M376,70v150c0,24.9-20.1,45-45,45H211V25h120C355.9,25,376,45.1,376,70z"/>
<path class="st6" d="M211,416V296.6c4.8,0,9.6,1.8,12.3,6c9.9,14.1,32.7,49.2,32.7,68.4C256,395.9,235.9,416,211,416z"/>
<path class="st7" d="M406,522c0,8.4-6.6,15-15,15H211v-30h180C399.4,507,406,513.6,406,522z"/>
<path class="st7" d="M286,461c0,8.4-6.6,15-15,15h-60v-30h60C279.4,446,286,452.6,286,461z"/>
<path class="st8" d="M301,85H121c-8.4,0-15,6.6-15,15v90c0,8.4,6.6,15,15,15h180c8.4,0,15-6.6,15-15v-90C316,91.6,309.4,85,301,85z"
	/>
<path class="st9" d="M301,205h-90V85h90c8.4,0,15,6.6,15,15v90C316,198.4,309.4,205,301,205z"/>
</svg>
