<?xml version="1.0" encoding="utf-8"?>
<!-- Generator: Adobe Illustrator 24.0.0, SVG Export Plug-In . SVG Version: 6.00 Build 0)  -->
<svg version="1.1" id="Capa_1" xmlns="http://www.w3.org/2000/svg" xmlns:xlink="http://www.w3.org/1999/xlink" x="0px" y="0px"
	 viewBox="0 0 687.5 563" style="enable-background:new 0 0 687.5 563;" xml:space="preserve">
<style type="text/css">
	.st0{fill:#0E9347;}
	.st1{fill:#3BB54A;}
	.st2{fill:#89C763;}
	.st3{fill:#0D8944;}
	.st4{fill:#E4AF18;}
	.st5{fill:#F4BF1A;}
	.st6{fill:#FFD949;}
	.st7{fill:#DCA815;}
	.st8{fill:#C49214;}
	.st9{fill:#FCC62D;}
</style>
<title>money</title>
<g id="a1712ee3-30ed-43b1-ae50-7e1579d3a115">
	<path class="st0" d="M553.5,288L112.3,436.3c-12.2,4.1-25.3-2.5-29.5-14.6L1.2,179c-4.1-12.2,2.5-25.3,14.6-29.5L457,1.2
		c12.2-4.1,25.3,2.5,29.5,14.6l81.6,242.7C572.2,270.7,565.6,283.9,553.5,288z"/>
	<path class="st1" d="M501.9,280.8L149,399.4c-8.3-24.3-34.6-37.4-59-29.2L38.1,215.7c24.3-8.3,37.4-34.6,29.3-59L420.4,38
		c8.2,24.3,34.6,37.4,59,29.3l51.8,154.5C506.9,230.1,493.8,256.4,501.9,280.8z"/>
	<path class="st0" d="M468.6,218.3c-25.4,8.5-44.5,28.5-51,52.8c-12.9-1.8-26.5-2.1-40.8,2.7c-30.9,10.4-51.4,36.9-54.6,67.5
		L502,280.8c-8.2-24.3,4.3-49.3,28.2-58.6C511.3,213.8,489.6,211.3,468.6,218.3z"/>
	
		<ellipse transform="matrix(0.9479 -0.3186 0.3186 0.9479 -54.892 102.0822)" class="st0" cx="284.6" cy="218.8" rx="93.1" ry="104.7"/>
	<circle class="st0" cx="152.3" cy="263.3" r="23.3"/>
	<ellipse class="st0" cx="417" cy="174.3" rx="23.3" ry="23.3"/>
	<path class="st2" d="M292,204l-22.1,7.4c-6.6,2.2-12.5-0.7-14.7-7.3c-2.2-6.6,0.7-12.5,7.3-14.7l33.1-11.1
		c6.6-2.2,9.5-8.1,7.3-14.7s-8.1-9.6-14.7-7.3l-11,3.7c-2.2-6.6-8.1-9.6-14.7-7.3c-6.6,2.3-9.5,8.1-7.3,14.7
		c-18.8,6.3-28.3,25.5-22,44.2s25.5,28.3,44.2,22l22.1-7.4c6.6-2.2,12.5,0.7,14.7,7.3s-0.7,12.5-7.3,14.7l-33.1,11.1
		c-6.6,2.2-9.5,8.1-7.3,14.7s8.1,9.5,14.7,7.3l11-3.7c2.2,6.6,8.1,9.5,14.7,7.3s9.5-8.1,7.3-14.7c18.8-6.3,28.3-25.5,22-44.2
		S310.7,197.7,292,204z"/>
</g>
<g id="e953c447-289f-4d62-ab72-09c45960de4b">
	<path class="st0" d="M574.9,356.8l-459.3,75.6c-12.7,2-24.6-6.5-26.7-19.2L47.3,160.6c-2.1-12.7,6.5-24.6,19.2-26.8l459.3-75.5
		c12.7-2.1,24.6,6.5,26.7,19.2l41.6,252.6C596.1,342.8,587.5,354.7,574.9,356.8z"/>
	<path class="st1" d="M525.2,341.4l-367.4,60.5c-4.2-25.3-28.1-42.5-53.5-38.4L77.8,202.7c25.3-4.2,42.5-28.1,38.4-53.5l367.4-60.4
		c4.2,25.3,28.1,42.5,53.5,38.4L563.5,288C538.2,292.2,521.1,316.1,525.2,341.4z"/>
	<path class="st0" d="M502.4,274.4c-26.4,4.3-48.5,20.9-58.8,43.9c-12.4-3.9-25.8-6.4-40.7-3.9c-32.1,5.3-56.7,28.2-64.8,57.8
		l187.2-30.8c-4.2-25.3,12.2-48,37.2-53.3C545.2,276.8,524.2,270.8,502.4,274.4z"/>
	<ellipse transform="matrix(0.9872 -0.1595 0.1595 0.9872 -35.308 54.3636)" class="st0" cx="321" cy="247.1" rx="93.4" ry="105"/>
	<circle class="st0" cx="182.9" cy="268" r="23.3"/>
	<circle class="st0" cx="458.4" cy="222.7" r="23.3"/>
	<path class="st2" d="M330.3,232l-23,3.8c-6.9,1.1-12.2-2.7-13.4-9.6s2.7-12.2,9.6-13.4l34.5-5.7c6.9-1.1,10.7-6.5,9.6-13.4
		s-6.5-10.7-13.4-9.6l-11.5,1.9c-1.1-6.9-6.5-10.7-13.4-9.6s-10.7,6.5-9.6,13.4c-19.5,3.2-32,20.6-28.8,40.1s20.6,32,40.1,28.8
		l23-3.8c6.9-1.1,12.2,2.7,13.4,9.6s-2.7,12.2-9.6,13.4l-34.5,5.7c-6.9,1.1-10.7,6.5-9.6,13.4s6.5,10.7,13.4,9.6l11.5-1.9
		c1.1,6.9,6.5,10.7,13.4,9.6s10.7-6.5,9.6-13.4c19.5-3.2,32-20.6,28.8-40.1S349.8,228.8,330.3,232z"/>
</g>
<g id="a91a6751-8758-491a-a656-0bf031b3fbd7">
	<path class="st0" d="M576.3,448.1H110.9c-12.8,0-23.2-10.4-23.3-23.3v-256c0-12.8,10.4-23.2,23.3-23.3h465.5
		c12.8,0,23.2,10.4,23.3,23.3v256C599.6,437.6,589.2,448,576.3,448.1z"/>
	<path class="st3" d="M518.2,355c-26.8,0-51.2,12.8-65.2,33.7c-11.6-5.8-24.4-10.5-39.6-10.5c-40.7,0-74.5,30.3-80.3,69.8h243.2
		c11.6,0,21-8.1,23.3-19.8C595,387.6,560,355,518.2,355z"/>
	<path class="st1" d="M529.8,424.8H157.4c-0.1-25.7-20.9-46.5-46.5-46.5v-163c25.7-0.1,46.5-20.9,46.5-46.6h372.4
		c0.1,25.7,20.9,46.5,46.5,46.6v162.9C550.7,378.3,529.9,399.1,529.8,424.8z"/>
	<path class="st0" d="M518.2,355c-26.8,0-51.2,12.8-65.2,33.7c-11.6-5.8-24.4-10.5-39.6-10.5c-32.6,0-60.5,18.6-73.3,46.5h189.7
		c0-25.6,19.8-45.4,45.4-46.5C560,364.3,540.3,355,518.2,355z"/>
	<ellipse class="st0" cx="343.6" cy="296.8" rx="93.1" ry="104.7"/>
	<circle class="st0" cx="204" cy="296.8" r="23.3"/>
	<circle class="st0" cx="483.3" cy="296.8" r="23.3"/>
	<path class="st2" d="M355.3,285.2H332c-7,0-11.6-4.7-11.6-11.6s4.6-11.7,11.6-11.7h34.9c7,0,11.6-4.7,11.6-11.6
		c0-6.9-4.6-11.6-11.6-11.6h-11.7c0-7-4.6-11.6-11.6-11.6s-11.6,4.7-11.6,11.6c-19.8,0-34.9,15.1-34.9,34.9s15.1,34.9,34.9,34.9
		h23.3c7,0,11.6,4.7,11.6,11.6s-4.7,11.6-11.6,11.6h-34.9c-7,0-11.6,4.7-11.6,11.6s4.6,11.6,11.6,11.6H332c0,7,4.6,11.6,11.6,11.6
		s11.6-4.6,11.6-11.6c19.8,0,34.9-15.1,34.9-34.9S375,285.2,355.3,285.2z"/>
	<path class="st4" d="M567.9,535.5c-56.5,0-102.3-11.7-102.3-23.6v27.5c0,12,45.8,23.6,102.3,23.6s102.3-11.7,102.3-23.6v-27.5
		C670.2,523.9,624.4,535.5,567.9,535.5"/>
	<path class="st5" d="M556.1,492.2c-56.5,0-102.3-11.7-102.3-23.6v27.5c0,12,45.8,23.6,102.3,23.6s102.3-11.7,102.3-23.6v-27.5
		C658.4,480.6,612.6,492.2,556.1,492.2"/>
	<path class="st4" d="M579.8,448.9c-56.5,0-102.3-11.6-102.3-23.6v27.5c0,12,45.8,23.6,102.3,23.6S682,464.8,682,452.8v-27.5
		C682,437.3,636.2,448.9,579.8,448.9"/>
	<path class="st6" d="M658.4,378.6c0,12-45.8,23.1-102.3,23.1s-102.3-11.1-102.3-23.1s45.8-20.2,102.3-20.2S658.4,366.6,658.4,378.6
		"/>
	<path class="st5" d="M556.1,401.7c-56.5,0-102.3-11.7-102.3-23.6v27.5c0,12,45.8,23.6,102.3,23.6s102.3-11.7,102.3-23.6v-27.5
		C658.4,390,612.6,401.7,556.1,401.7"/>
	<path class="st7" d="M469.6,390.2v27.5c2.4,0.9,5,1.7,7.9,2.5v-27.6C474.6,391.9,472,391.1,469.6,390.2"/>
	<path class="st7" d="M634.8,392.7v27.5c2.9-0.8,5.5-1.7,7.9-2.5v-27.5C640.3,391.1,637.7,391.9,634.8,392.7"/>
	<path class="st7" d="M489.3,395.6v27.5c2.5,0.5,5.1,1,7.9,1.5v-27.5C494.4,396.6,491.8,396.1,489.3,395.6"/>
	<path class="st7" d="M615.2,397.1v27.5c2.7-0.5,5.4-1,7.9-1.5v-27.5C620.5,396.1,617.9,396.6,615.2,397.1"/>
	<path class="st7" d="M508.9,398.8v27.5c2.6,0.3,5.2,0.6,7.9,0.9v-27.5C514.1,399.5,511.5,399.2,508.9,398.8"/>
	<path class="st7" d="M595.5,399.7v27.5c2.7-0.3,5.3-0.6,7.9-0.9v-27.5C600.8,399.2,598.2,399.5,595.5,399.7"/>
	<path class="st7" d="M528.6,400.7v27.5c2.6,0.2,5.2,0.3,7.9,0.5v-27.5C533.8,401.1,531.2,400.9,528.6,400.7"/>
	<path class="st7" d="M575.8,401.2v27.5c2.7-0.1,5.3-0.3,7.9-0.5v-27.5C581.1,400.9,578.5,401.1,575.8,401.2"/>
	<path class="st7" d="M556.1,401.7c-1.3,0-2.6,0-3.9,0v27.5h3.9h3.9v-27.5C558.8,401.7,557.5,401.7,556.1,401.7"/>
	<path class="st8" d="M493.2,437.4v27.5c2.4,0.9,5,1.7,7.9,2.5v-27.5C498.2,439.1,495.6,438.3,493.2,437.4"/>
	<path class="st8" d="M658.4,439.9v27.5c2.9-0.8,5.5-1.7,7.9-2.5v-27.5C663.9,438.3,661.3,439.1,658.4,439.9"/>
	<path class="st8" d="M512.9,442.8v27.5c2.5,0.5,5.1,1,7.9,1.5v-27.5C518,443.8,515.4,443.3,512.9,442.8"/>
	<path class="st8" d="M638.8,444.3v27.5c2.7-0.5,5.3-1,7.9-1.5v-27.5C644.1,443.3,641.5,443.8,638.8,444.3"/>
	<path class="st8" d="M532.5,446v27.5c2.6,0.3,5.2,0.6,7.9,0.9v-27.5C537.7,446.7,535.1,446.4,532.5,446"/>
	<path class="st8" d="M619.1,447v27.5c2.7-0.3,5.3-0.6,7.9-0.9v-27.5C624.4,446.4,621.8,446.7,619.1,447"/>
	<path class="st8" d="M552.2,448v27.5c2.6,0.2,5.2,0.3,7.9,0.5v-27.5C557.4,448.3,554.8,448.1,552.2,448"/>
	<path class="st8" d="M599.4,448.4v27.5c2.7-0.1,5.3-0.3,7.9-0.5v-27.5C604.7,448.2,602.1,448.3,599.4,448.4"/>
	<path class="st8" d="M579.8,448.9h-3.9v27.5c1.3,0,2.6,0,3.9,0h3.9v-27.6L579.8,448.9"/>
	<path class="st7" d="M469.6,480.7v27.5c2.4,0.9,5,1.7,7.9,2.5v-27.5C474.6,482.4,472,481.5,469.6,480.7"/>
	<path class="st7" d="M634.8,483.2v27.5c2.9-0.8,5.5-1.7,7.9-2.5v-27.5C640.3,481.6,637.7,482.4,634.8,483.2"/>
	<path class="st7" d="M489.3,486.1v27.5c2.5,0.5,5.1,1,7.9,1.5v-27.5C494.4,487.1,491.8,486.6,489.3,486.1"/>
	<path class="st7" d="M615.2,487.6v27.5c2.7-0.5,5.4-1,7.9-1.5v-27.5C620.5,486.6,617.9,487.1,615.2,487.6"/>
	<path class="st7" d="M508.9,489.3v27.5c2.6,0.3,5.2,0.6,7.9,0.9v-27.5C514.1,489.9,511.5,489.6,508.9,489.3"/>
	<path class="st7" d="M595.5,490.2v27.5c2.7-0.3,5.3-0.6,7.9-0.9v-27.5C600.8,489.7,598.2,490,595.5,490.2"/>
	<path class="st7" d="M528.6,491.2v27.5c2.6,0.2,5.2,0.3,7.9,0.5v-27.5C533.8,491.6,531.2,491.4,528.6,491.2"/>
	<path class="st7" d="M575.8,491.7v27.5c2.7-0.1,5.3-0.3,7.9-0.5v-27.5C581.1,491.4,578.5,491.6,575.8,491.7"/>
	<path class="st7" d="M556.1,492.2h-3.9v27.5c1.3,0,2.6,0,3.9,0s2.6,0,3.9,0v-27.5H556.1"/>
	<path class="st8" d="M481.4,524v27.5c2.4,0.9,5,1.7,7.9,2.5v-27.5C486.4,525.7,483.8,524.8,481.4,524"/>
	<path class="st8" d="M646.6,526.5V554c2.8-0.8,5.5-1.7,7.9-2.5V524C652.1,524.8,649.5,525.7,646.6,526.5"/>
	<path class="st8" d="M501,529.4v27.5c2.5,0.5,5.1,1,7.9,1.5v-27.5C506.2,530.4,503.6,529.8,501,529.4"/>
	<path class="st8" d="M627,530.8v27.5c2.7-0.5,5.4-1,7.9-1.5v-27.5C632.3,529.9,629.7,530.4,627,530.8"/>
	<path class="st8" d="M520.7,532.6v27.5c2.6,0.3,5.2,0.6,7.9,0.9v-27.5C525.9,533.2,523.3,532.9,520.7,532.6"/>
	<path class="st8" d="M607.3,533.5V561c2.7-0.3,5.3-0.6,7.9-0.9v-27.5C612.6,532.9,610,533.2,607.3,533.5"/>
	<path class="st8" d="M540.4,534.5V562c2.6,0.2,5.2,0.3,7.9,0.5V535C545.6,534.9,543,534.7,540.4,534.5"/>
	<path class="st8" d="M587.6,535v27.5c2.7-0.1,5.3-0.3,7.9-0.5v-27.5C592.9,534.7,590.3,534.9,587.6,535"/>
	<path class="st8" d="M567.9,535.5c-1.3,0-2.6,0-3.9,0V563h3.9h3.9v-27.5C570.6,535.5,569.3,535.5,567.9,535.5"/>
	<path class="st9" d="M655.3,501.5c-11.2,9.8-51.3,18.2-99.2,18.2c-37.4,0-70.1-5.1-88-12.1c-1.5,1.1-2.4,2.8-2.5,4.7
		c0,12,45.8,23.1,102.3,23.1s102.3-11.2,102.3-23.1C670.2,508.3,664.8,504.6,655.3,501.5"/>
	<path class="st6" d="M579.8,476.5c-52,0-94.9-9.9-101.4-20.8c-15.3,3.5-24.5,8.1-24.5,13.4c0,12,45.8,23.1,102.3,23.1
		c56.5,0,102.3-11.1,102.3-23.1c0-0.5-0.1-1.1-0.3-1.6C639.4,472.8,611.2,476.5,579.8,476.5"/>
	<path class="st9" d="M654.5,411.7c-12.2,9.5-51.6,17.5-98.3,17.5c-30.2,0-57.3-3.3-76-8.3c-1.7,1.5-2.7,3.1-2.7,4.8
		c0,12,45.8,23.1,102.3,23.1s102.3-11.1,102.3-23.1C682.1,420.1,671.6,415.2,654.5,411.7"/>
	<path class="st4" d="M585.2,356c-56.5,0-102.3-11.7-102.3-23.6v27.5c0,11.9,45.8,23.6,102.3,23.6s102.3-11.7,102.3-23.6v-27.5
		C687.5,344.4,641.7,356,585.2,356"/>
	<path class="st6" d="M663.8,285.7c0,11.9-45.8,23.1-102.3,23.1s-102.3-11.1-102.3-23.1s45.8-20.2,102.3-20.2
		S663.8,273.7,663.8,285.7"/>
	<path class="st5" d="M561.5,308.8c-56.5,0-102.3-11.6-102.3-23.6v27.5c0,12,45.8,23.6,102.3,23.6s102.3-11.7,102.3-23.6v-27.5
		C663.8,297.2,618,308.8,561.5,308.8"/>
	<path class="st7" d="M475,297.3v27.5c2.4,0.9,5,1.7,7.9,2.5v-27.5C480,299,477.4,298.2,475,297.3"/>
	<path class="st7" d="M640.2,299.8v27.5c2.9-0.8,5.5-1.7,7.9-2.5v-27.5C645.7,298.2,643.1,299,640.2,299.8"/>
	<path class="st7" d="M494.7,302.7v27.5c2.5,0.5,5.1,1,7.9,1.5v-27.5C499.8,303.7,497.2,303.2,494.7,302.7"/>
	<path class="st7" d="M620.6,304.2v27.5c2.7-0.5,5.3-1,7.9-1.5v-27.5C625.9,303.2,623.3,303.7,620.6,304.2"/>
	<path class="st7" d="M514.3,305.9v27.5c2.6,0.3,5.2,0.6,7.9,0.9v-27.5C519.5,306.6,516.9,306.2,514.3,305.9"/>
	<path class="st7" d="M600.9,306.8v27.5c2.7-0.3,5.3-0.6,7.9-0.9v-27.5C606.2,306.2,603.6,306.6,600.9,306.8"/>
	<path class="st7" d="M534,307.8v27.5c2.6,0.2,5.2,0.3,7.9,0.5v-27.5C539.2,308.2,536.6,308,534,307.8"/>
	<path class="st7" d="M581.2,308.3v27.5c2.7-0.1,5.3-0.3,7.9-0.5v-27.5C586.5,308,583.9,308.2,581.2,308.3"/>
	<path class="st7" d="M561.5,308.8h-3.9v27.5h3.9h3.9v-27.6L561.5,308.8"/>
	<path class="st8" d="M498.6,344.5V372c2.4,0.9,5,1.7,7.9,2.5V347C503.6,346.2,501,345.4,498.6,344.5"/>
	<path class="st8" d="M663.8,347v27.5c2.9-0.8,5.5-1.7,7.9-2.5v-27.5C669.3,345.4,666.7,346.2,663.8,347"/>
	<path class="st8" d="M518.3,349.9v27.5c2.5,0.5,5.1,1,7.9,1.5v-27.5C523.4,350.9,520.8,350.4,518.3,349.9"/>
	<path class="st8" d="M644.2,351.4v27.5c2.7-0.5,5.4-1,7.9-1.5v-27.5C649.5,350.4,646.9,350.9,644.2,351.4"/>
	<path class="st8" d="M537.9,353.1v27.5c2.6,0.3,5.2,0.6,7.9,0.9V354C543.1,353.8,540.5,353.5,537.9,353.1"/>
	<path class="st8" d="M624.5,354v27.5c2.7-0.3,5.3-0.6,7.9-0.9v-27.5C629.8,353.5,627.2,353.8,624.5,354"/>
	<path class="st8" d="M557.6,355.1v27.5c2.6,0.2,5.2,0.3,7.9,0.5v-27.5C562.8,355.4,560.2,355.2,557.6,355.1"/>
	<path class="st8" d="M604.8,355.5V383c2.7-0.1,5.3-0.3,7.9-0.5V355C610.1,355.2,607.5,355.4,604.8,355.5"/>
	<path class="st8" d="M585.2,356c-1.3,0-2.6,0-3.9,0v27.5h3.9h3.9v-27.6C587.8,356,586.4,356,585.2,356"/>
	<path class="st9" d="M659.9,318.8c-12.2,9.5-51.6,17.5-98.3,17.5c-30.2,0-57.3-3.3-76-8.3c-1.7,1.5-2.7,3.1-2.7,4.8
		c0,12,45.8,23.1,102.3,23.1s102.3-11.1,102.3-23.1C687.5,327.2,677,322.3,659.9,318.8"/>
</g>
</svg>
