<?xml version="1.0" encoding="utf-8"?>
<!-- Generator: Adobe Illustrator 24.0.0, SVG Export Plug-In . SVG Version: 6.00 Build 0)  -->
<svg version="1.1" id="Capa_1" xmlns="http://www.w3.org/2000/svg" xmlns:xlink="http://www.w3.org/1999/xlink" x="0px" y="0px"
	 viewBox="0 0 1755.4 1334.5" style="enable-background:new 0 0 1755.4 1334.5;" xml:space="preserve">
<style type="text/css">
	.st0{fill:none;stroke:url(#SVGID_1_);stroke-width:13;stroke-miterlimit:10;}
	.st1{fill:none;stroke:url(#SVGID_2_);stroke-width:13;stroke-miterlimit:10;}
	.st2{fill:none;stroke:url(#SVGID_3_);stroke-width:13;stroke-miterlimit:10;}
	.st3{fill:none;stroke:url(#SVGID_4_);stroke-width:13;stroke-miterlimit:10;}
	.st4{fill:none;stroke:url(#SVGID_5_);stroke-width:13;stroke-miterlimit:10;}
	.st5{fill:none;stroke:url(#SVGID_6_);stroke-width:13;stroke-miterlimit:10;}
	.st6{fill:none;stroke:url(#SVGID_7_);stroke-width:13;stroke-miterlimit:10;}
	.st7{fill:none;stroke:url(#SVGID_8_);stroke-width:13;stroke-miterlimit:10;}
	.st8{fill:none;stroke:url(#SVGID_9_);stroke-width:12;stroke-miterlimit:10;}
	.st9{fill:none;stroke:url(#SVGID_10_);stroke-width:12;stroke-miterlimit:10;}
	.st10{fill:none;stroke:url(#SVGID_11_);stroke-width:12;stroke-miterlimit:10;}
	.st11{fill:none;stroke:url(#SVGID_12_);stroke-width:12;stroke-miterlimit:10;}
	.st12{fill:url(#SVGID_13_);}
	.st13{fill:url(#SVGID_14_);}
	.st14{fill:url(#SVGID_15_);}
	.st15{fill:url(#SVGID_16_);}
	.st16{fill:url(#SVGID_17_);}
	.st17{fill:url(#SVGID_18_);}
	.st18{fill:url(#SVGID_19_);}
	.st19{fill:#EAD436;}
	.st20{fill:#F7482B;}
	.st21{fill:#FF812C;}
	.st22{fill:url(#SVGID_20_);}
	.st23{fill:url(#SVGID_21_);}
	.st24{fill:url(#SVGID_22_);}
	.st25{fill:url(#SVGID_23_);}
	.st26{fill:url(#SVGID_24_);}
	.st27{fill:url(#SVGID_25_);}
	.st28{fill:url(#SVGID_26_);}
	.st29{fill:url(#SVGID_27_);}
	.st30{fill:url(#SVGID_28_);}
	.st31{fill:url(#SVGID_29_);}
	.st32{fill:url(#SVGID_30_);}
	.st33{fill:url(#SVGID_31_);}
	.st34{fill:url(#SVGID_32_);}
	.st35{fill:url(#SVGID_33_);}
	.st36{fill:url(#SVGID_34_);}
	.st37{fill:url(#SVGID_35_);}
	.st38{fill:url(#SVGID_36_);}
	.st39{fill:url(#SVGID_37_);}
	.st40{fill:url(#SVGID_38_);}
	.st41{fill:url(#SVGID_39_);}
	.st42{fill:url(#SVGID_40_);}
	.st43{fill:url(#SVGID_41_);}
	.st44{fill:url(#SVGID_42_);}
	.st45{fill:url(#SVGID_43_);}
	.st46{fill:url(#SVGID_44_);}
	.st47{fill:url(#SVGID_45_);}
	.st48{fill:url(#SVGID_46_);}
	.st49{fill:url(#SVGID_47_);}
	.st50{fill:url(#SVGID_48_);}
	.st51{fill:url(#SVGID_49_);}
	.st52{fill:url(#SVGID_50_);}
	.st53{fill:url(#SVGID_51_);}
	.st54{fill:url(#SVGID_52_);}
	.st55{fill:url(#SVGID_53_);}
	.st56{fill:url(#SVGID_54_);}
	.st57{fill:url(#SVGID_55_);}
	.st58{fill:url(#SVGID_56_);}
	.st59{fill:url(#SVGID_57_);}
	.st60{fill:url(#SVGID_58_);}
	.st61{fill:url(#SVGID_59_);}
	.st62{fill:url(#SVGID_60_);}
	.st63{fill:url(#SVGID_61_);}
	.st64{fill:url(#SVGID_62_);}
	.st65{fill:url(#SVGID_63_);}
	.st66{fill:url(#SVGID_64_);}
	.st67{fill:#283A4D;}
	.st68{fill:#FF8E31;}
	.st69{fill:#F2F9FF;}
	.st70{fill:#E1EFFA;}
	.st71{fill:#5D6D7E;}
	.st72{fill:#34495E;}
</style>
<title>cloud</title>
<g id="b9ff4bf2-1bbb-4f1c-8051-88a3f46d60fd">
	
		<linearGradient id="SVGID_1_" gradientUnits="userSpaceOnUse" x1="1348.1" y1="131.4335" x2="1431.6996" y2="131.4335" gradientTransform="matrix(1 0 0 1 0 542)">
		<stop  offset="2.000000e-02" style="stop-color:#00B9FF"/>
		<stop  offset="1" style="stop-color:#0002CF"/>
	</linearGradient>
	<polyline class="st0" points="1354.6,516.9 1354.6,742.5 1424.3,742.5 1425.2,829.9 	"/>
	
		<linearGradient id="SVGID_2_" gradientUnits="userSpaceOnUse" x1="1375.8" y1="103.8798" x2="1459.3998" y2="103.8798" gradientTransform="matrix(1 0 0 1 0 542)">
		<stop  offset="2.000000e-02" style="stop-color:#00B9FF"/>
		<stop  offset="1" style="stop-color:#0002CF"/>
	</linearGradient>
	<polyline class="st1" points="1382.3,489.4 1382.3,715 1452.1,715 1452.9,802.3 	"/>
	
		<linearGradient id="SVGID_3_" gradientUnits="userSpaceOnUse" x1="1404.1" y1="75.7335" x2="1487.6996" y2="75.7335" gradientTransform="matrix(1 0 0 1 0 542)">
		<stop  offset="2.000000e-02" style="stop-color:#00B9FF"/>
		<stop  offset="1" style="stop-color:#0002CF"/>
	</linearGradient>
	<polyline class="st2" points="1410.6,461.2 1410.6,686.8 1480.3,686.8 1481.2,774.2 	"/>
	
		<linearGradient id="SVGID_4_" gradientUnits="userSpaceOnUse" x1="1432.7" y1="85.2183" x2="1516.2999" y2="85.2183" gradientTransform="matrix(1 0 0 1 0 542)">
		<stop  offset="2.000000e-02" style="stop-color:#00B9FF"/>
		<stop  offset="0.66" style="stop-color:#0002CF"/>
	</linearGradient>
	<polyline class="st3" points="1439.2,434.6 1439.2,660.3 1508.9,660.3 1509.8,819.8 	"/>
	
		<linearGradient id="SVGID_5_" gradientUnits="userSpaceOnUse" x1="2497.1099" y1="139.9835" x2="2580.7095" y2="139.9835" gradientTransform="matrix(-1 0 0 1 2888.4099 542)">
		<stop  offset="2.000000e-02" style="stop-color:#00B9FF"/>
		<stop  offset="1" style="stop-color:#0002CF"/>
	</linearGradient>
	<polyline class="st4" points="384.8,525.5 384.8,751.1 315.1,751.1 314.2,838.4 	"/>
	
		<linearGradient id="SVGID_6_" gradientUnits="userSpaceOnUse" x1="2524.9099" y1="112.3835" x2="2608.5095" y2="112.3835" gradientTransform="matrix(-1 0 0 1 2888.4099 542)">
		<stop  offset="2.000000e-02" style="stop-color:#00B9FF"/>
		<stop  offset="1" style="stop-color:#0002CF"/>
	</linearGradient>
	<polyline class="st5" points="357,497.9 357,723.5 287.3,723.5 286.4,810.8 	"/>
	
		<linearGradient id="SVGID_7_" gradientUnits="userSpaceOnUse" x1="2553.1099" y1="84.2335" x2="2636.7095" y2="84.2335" gradientTransform="matrix(-1 0 0 1 2888.4099 542)">
		<stop  offset="2.000000e-02" style="stop-color:#00B9FF"/>
		<stop  offset="1" style="stop-color:#0002CF"/>
	</linearGradient>
	<polyline class="st6" points="328.8,469.7 328.8,695.3 259.1,695.3 258.2,782.7 	"/>
	
		<linearGradient id="SVGID_8_" gradientUnits="userSpaceOnUse" x1="2581.71" y1="93.7183" x2="2665.3098" y2="93.7183" gradientTransform="matrix(-1 0 0 1 2888.4099 542)">
		<stop  offset="2.000000e-02" style="stop-color:#00B9FF"/>
		<stop  offset="1" style="stop-color:#0002CF"/>
	</linearGradient>
	<polyline class="st7" points="300.2,443.1 300.2,668.8 230.5,668.8 229.6,828.3 	"/>
	
		<linearGradient id="SVGID_9_" gradientUnits="userSpaceOnUse" x1="832.3" y1="26.55" x2="844.3" y2="26.55" gradientTransform="matrix(1 0 0 1 0 542)">
		<stop  offset="2.000000e-02" style="stop-color:#00B9FF"/>
		<stop  offset="1" style="stop-color:#0002CF"/>
	</linearGradient>
	<line class="st8" x1="838.3" y1="454.7" x2="838.3" y2="682.4"/>
	
		<linearGradient id="SVGID_10_" gradientUnits="userSpaceOnUse" x1="857.18" y1="23.35" x2="869.18" y2="23.35" gradientTransform="matrix(1 0 0 1 0 542)">
		<stop  offset="2.000000e-02" style="stop-color:#00B9FF"/>
		<stop  offset="1" style="stop-color:#0002CF"/>
	</linearGradient>
	<line class="st9" x1="863.2" y1="451.5" x2="863.2" y2="679.2"/>
	
		<linearGradient id="SVGID_11_" gradientUnits="userSpaceOnUse" x1="883.37" y1="23.35" x2="895.37" y2="23.35" gradientTransform="matrix(1 0 0 1 0 542)">
		<stop  offset="2.000000e-02" style="stop-color:#00B9FF"/>
		<stop  offset="1" style="stop-color:#0002CF"/>
	</linearGradient>
	<line class="st10" x1="889.4" y1="451.5" x2="889.4" y2="679.2"/>
	
		<linearGradient id="SVGID_12_" gradientUnits="userSpaceOnUse" x1="906.86" y1="18.05" x2="918.86" y2="18.05" gradientTransform="matrix(1 0 0 1 0 542)">
		<stop  offset="2.000000e-02" style="stop-color:#00B9FF"/>
		<stop  offset="1" style="stop-color:#0002CF"/>
	</linearGradient>
	<line class="st11" x1="912.9" y1="446.2" x2="912.9" y2="673.9"/>
</g>
<g id="e1ecdb5e-6c96-443d-9d73-460dac93d447">
	
		<linearGradient id="SVGID_13_" gradientUnits="userSpaceOnUse" x1="34.4496" y1="-200.45" x2="685.4002" y2="-200.45" gradientTransform="matrix(1 0 0 1 0 542)">
		<stop  offset="2.000000e-02" style="stop-color:#00B9FF"/>
		<stop  offset="1" style="stop-color:#0002CF"/>
	</linearGradient>
	<path class="st12" d="M580.4,540.6c58,0,105.1-47.1,105-105.1c0-48.9-33.7-91.3-81.3-102.3c-1-105.5-86.7-190.7-192.4-190.7
		c-70.1,0-134.7,38.1-168.5,99.5c-41.6-18-89.8,1.2-107.8,42.7c-3,7-5,14.3-6,21.8c-64,12.8-105.5,75.1-92.6,139.1
		c11.1,55.2,59.5,94.9,115.7,94.9h427.9V540.6z"/>
	
		<linearGradient id="SVGID_14_" gradientUnits="userSpaceOnUse" x1="1169.9495" y1="-200.45" x2="1820.9001" y2="-200.45" gradientTransform="matrix(1 0 0 1 -163 542)">
		<stop  offset="2.000000e-02" style="stop-color:#00B9FF"/>
		<stop  offset="1" style="stop-color:#0002CF"/>
	</linearGradient>
	<path class="st13" d="M1552.9,540.6c58,0,105.1-47.1,105-105.1c0-48.9-33.7-91.3-81.3-102.3c-1-105.5-86.7-190.7-192.4-190.7
		c-70.1,0-134.7,38.1-168.5,99.5c-41.6-18-89.8,1.2-107.8,42.7c-3,7-5,14.3-6,21.8c-64,12.8-105.5,75.1-92.6,139.1
		c11.1,55.2,59.5,94.9,115.8,94.9h427.8V540.6z"/>
	
		<linearGradient id="SVGID_15_" gradientUnits="userSpaceOnUse" x1="470.3271" y1="-294.3" x2="1280.8" y2="-294.3" gradientTransform="matrix(1 0 0 1 0 542)">
		<stop  offset="2.000000e-02" style="stop-color:#00B9FF"/>
		<stop  offset="1" style="stop-color:#0002CF"/>
	</linearGradient>
	<path class="st14" d="M1150,495.4c72.2,0,130.8-58.5,130.8-130.7c0-60.8-41.9-113.7-101.2-127.4C1178.4,106.1,1071.7,0,940.1,0
		c-87.2,0-167.6,47.4-209.7,123.8c-51.7-22.4-111.8,1.5-134.2,53.2c-3.7,8.7-6.3,17.8-7.5,27.1c-79.7,15.9-131.4,93.3-115.5,173
		c13.7,68.8,74.1,118.3,144.2,118.3L1150,495.4L1150,495.4z"/>
	
		<linearGradient id="SVGID_16_" gradientUnits="userSpaceOnUse" x1="470.3271" y1="-294.3" x2="1280.8" y2="-294.3" gradientTransform="matrix(1 0 0 1 0 542)">
		<stop  offset="2.000000e-02" style="stop-color:#00B9FF"/>
		<stop  offset="1" style="stop-color:#0002CF"/>
	</linearGradient>
	<path class="st15" d="M1150,495.4c72.2,0,130.8-58.5,130.8-130.7c0-60.8-41.9-113.7-101.2-127.4C1178.4,106.1,1071.7,0,940.1,0
		c-87.2,0-167.6,47.4-209.7,123.8c-51.7-22.4-111.8,1.5-134.2,53.2c-3.7,8.7-6.3,17.8-7.5,27.1c-79.7,15.9-131.4,93.3-115.5,173
		c13.7,68.8,74.1,118.3,144.2,118.3L1150,495.4L1150,495.4z"/>
</g>
<linearGradient id="SVGID_17_" gradientUnits="userSpaceOnUse" x1="869.4694" y1="1804.6012" x2="882.8294" y2="1689.7312" gradientTransform="matrix(1 0 0 -1 -2.24 2811.3601)">
	<stop  offset="0" style="stop-color:#0B799D"/>
	<stop  offset="1" style="stop-color:#07485E"/>
</linearGradient>
<path class="st16" d="M1150.3,1163.4H600.9c-21.6,0-39.1-17.5-39.1-39.1v-92c0-21.6,17.5-39.1,39.1-39.1l0,0h549.3
	c21.6,0,39.1,17.5,39.1,39.1l0,0v92C1189.4,1145.9,1171.8,1163.4,1150.3,1163.4z"/>
<linearGradient id="SVGID_18_" gradientUnits="userSpaceOnUse" x1="874.351" y1="1738.4705" x2="883.111" y2="1663.1703" gradientTransform="matrix(1 0 0 -1 -2.24 2811.3601)">
	<stop  offset="0" style="stop-color:#07485E;stop-opacity:0"/>
	<stop  offset="1" style="stop-color:#03232E"/>
</linearGradient>
<path class="st17" d="M561.8,1078.3v46c0,21.6,17.5,39.1,39.1,39.1h549.3c21.6,0,39.1-17.5,39.1-39.1v-46H561.8z"/>
<linearGradient id="SVGID_19_" gradientUnits="userSpaceOnUse" x1="939.6139" y1="1770.8384" x2="622.5939" y2="1920.4384" gradientTransform="matrix(1 0 0 -1 -2.24 2811.3601)">
	<stop  offset="0" style="stop-color:#07485E;stop-opacity:0"/>
	<stop  offset="1" style="stop-color:#03232E"/>
</linearGradient>
<path class="st18" d="M1150.3,993.1H875.6v170.3h274.7c21.6,0,39.1-17.5,39.1-39.1v-92C1189.4,1010.7,1171.9,993.1,1150.3,993.1
	L1150.3,993.1z"/>
<path class="st19" d="M613.2,1097.5L613.2,1097.5c-12.7,0-23-10.3-23-23l0,0l0,0c0-12.7,10.3-23,23-23l0,0c12.7,0,23,10.3,23,23l0,0
	C636.2,1087.2,625.9,1097.5,613.2,1097.5L613.2,1097.5z"/>
<path class="st20" d="M730.3,1097.5L730.3,1097.5c-12.7,0-23-10.3-23-23l0,0l0,0c0-12.7,10.3-23,23-23l0,0c12.7,0,23,10.3,23,23l0,0
	C753.3,1087.2,743,1097.5,730.3,1097.5L730.3,1097.5z"/>
<path class="st21" d="M671.7,1097.5L671.7,1097.5c-12.7,0-23-10.3-23-23l0,0l0,0c0-12.7,10.3-23,23-23l0,0c12.7,0,23,10.3,23,23l0,0
	C694.7,1087.2,684.4,1097.5,671.7,1097.5L671.7,1097.5z"/>
<linearGradient id="SVGID_20_" gradientUnits="userSpaceOnUse" x1="1031.14" y1="1690.16" x2="1031.14" y2="1791.87" gradientTransform="matrix(1 0 0 -1 -2.24 2811.3601)">
	<stop  offset="0" style="stop-color:#07485E;stop-opacity:0"/>
	<stop  offset="1" style="stop-color:#03232E"/>
</linearGradient>
<path class="st22" d="M1128.6,1106.4H929.2c-11.4,0-20.6-9.2-20.6-20.6l0,0v-19.2c0-11.4,9.2-20.6,20.6-20.6h199.4
	c11.4,0,20.6,9.2,20.6,20.6l0,0v19.2C1149.1,1097.2,1139.9,1106.4,1128.6,1106.4L1128.6,1106.4z"/>
<linearGradient id="SVGID_21_" gradientUnits="userSpaceOnUse" x1="869.3959" y1="1634.9827" x2="882.756" y2="1520.1127" gradientTransform="matrix(1 0 0 -1 -2.24 2811.3601)">
	<stop  offset="0" style="stop-color:#0B799D"/>
	<stop  offset="1" style="stop-color:#07485E"/>
</linearGradient>
<path class="st23" d="M1150.3,1333.7H600.9c-21.6,0-39.1-17.5-39.1-39.1v-92.1c0-21.6,17.5-39.1,39.1-39.1h549.3
	c21.6,0,39.1,17.5,39.1,39.1v92.1C1189.4,1316.2,1171.8,1333.7,1150.3,1333.7z"/>
<linearGradient id="SVGID_22_" gradientUnits="userSpaceOnUse" x1="874.284" y1="1568.8427" x2="883.044" y2="1493.5526" gradientTransform="matrix(1 0 0 -1 -2.24 2811.3601)">
	<stop  offset="0" style="stop-color:#07485E;stop-opacity:0"/>
	<stop  offset="1" style="stop-color:#03232E"/>
</linearGradient>
<path class="st24" d="M561.8,1248.5v46c0,21.6,17.5,39.1,39.1,39.1h549.3c21.6,0,39.1-17.5,39.1-39.1v-46H561.8z"/>
<linearGradient id="SVGID_23_" gradientUnits="userSpaceOnUse" x1="939.3522" y1="1600.6635" x2="622.3322" y2="1750.2734" gradientTransform="matrix(1 0 0 -1 -2.24 2811.3601)">
	<stop  offset="0" style="stop-color:#07485E;stop-opacity:0"/>
	<stop  offset="1" style="stop-color:#03232E"/>
</linearGradient>
<path class="st25" d="M1150.3,1163.4H875.6v170.3h274.7c21.6,0,39.1-17.5,39.1-39.1v-92.1
	C1189.4,1180.9,1171.8,1163.4,1150.3,1163.4z"/>
<path class="st19" d="M623.2,1266.5L623.2,1266.5c-12.7,0-23-10.3-23-23l0,0c0-12.7,10.3-23,23-23l0,0l0,0c12.7,0,23,10.3,23,23l0,0
	l0,0C646.2,1256.2,635.9,1266.5,623.2,1266.5z"/>
<path class="st20" d="M740.3,1266.5L740.3,1266.5c-12.7,0-23-10.3-23-23l0,0c0-12.7,10.3-23,23-23l0,0l0,0c12.7,0,23,10.3,23,23l0,0
	l0,0C763.3,1256.2,753,1266.5,740.3,1266.5z"/>
<path class="st21" d="M681.7,1266.5L681.7,1266.5c-12.7,0-23-10.3-23-23l0,0c0-12.7,10.3-23,23-23l0,0l0,0c12.7,0,23,10.3,23,23l0,0
	l0,0C704.7,1256.2,694.4,1266.5,681.7,1266.5z"/>
<linearGradient id="SVGID_24_" gradientUnits="userSpaceOnUse" x1="1031.14" y1="1520.55" x2="1031.14" y2="1622.26" gradientTransform="matrix(1 0 0 -1 -2.24 2811.3601)">
	<stop  offset="0" style="stop-color:#07485E;stop-opacity:0"/>
	<stop  offset="1" style="stop-color:#03232E"/>
</linearGradient>
<path class="st26" d="M1128.6,1276.7H929.2c-11.4,0-20.6-9.2-20.6-20.6v-19.2c0-11.4,9.2-20.6,20.6-20.6l0,0h199.4
	c11.3,0,20.6,9.2,20.6,20.5l0,0v19.2C1149.1,1267.5,1139.9,1276.7,1128.6,1276.7L1128.6,1276.7z"/>
<linearGradient id="SVGID_25_" gradientUnits="userSpaceOnUse" x1="869.6334" y1="2144.8403" x2="882.9935" y2="2029.9702" gradientTransform="matrix(1 0 0 -1 -2.24 2811.3601)">
	<stop  offset="0" style="stop-color:#0B799D"/>
	<stop  offset="1" style="stop-color:#07485E"/>
</linearGradient>
<path class="st27" d="M1150.3,821.8H600.9c-21.6,0-39.1-17.5-39.1-39.1v-92.1c0-21.6,17.5-39.1,39.1-39.1h549.3
	c21.6,0,39.1,17.5,39.1,39.1v92C1189.4,804.3,1171.9,821.8,1150.3,821.8z"/>
<linearGradient id="SVGID_26_" gradientUnits="userSpaceOnUse" x1="874.5095" y1="2078.7087" x2="883.2695" y2="2003.4088" gradientTransform="matrix(1 0 0 -1 -2.24 2811.3601)">
	<stop  offset="0" style="stop-color:#07485E;stop-opacity:0"/>
	<stop  offset="1" style="stop-color:#03232E"/>
</linearGradient>
<path class="st28" d="M561.8,736.7v46c0,21.6,17.5,39.1,39.1,39.1l0,0h549.3c21.6,0,39.1-17.5,39.1-39.1v-46H561.8z"/>
<linearGradient id="SVGID_27_" gradientUnits="userSpaceOnUse" x1="940.0189" y1="2112.1462" x2="622.9988" y2="2261.7463" gradientTransform="matrix(1 0 0 -1 -2.24 2811.3601)">
	<stop  offset="0" style="stop-color:#07485E;stop-opacity:0"/>
	<stop  offset="1" style="stop-color:#03232E"/>
</linearGradient>
<path class="st29" d="M1150.3,651.6H875.6v170.3h274.7c21.6,0,39.1-17.5,39.1-39.1v-92.1C1189.4,669.1,1171.8,651.6,1150.3,651.6z"
	/>
<path class="st19" d="M613.2,756.7L613.2,756.7c-12.7,0-23-10.3-23-23l0,0c0-12.7,10.3-23,23-23l0,0c12.7,0,23,10.3,23,23l0,0
	C636.2,746.4,625.9,756.7,613.2,756.7z"/>
<path class="st20" d="M730.3,756.7L730.3,756.7c-12.7,0-23-10.3-23-23l0,0c0-12.7,10.3-23,23-23l0,0c12.7,0,23,10.3,23,23l0,0
	C753.3,746.4,743,756.7,730.3,756.7z"/>
<path class="st21" d="M671.7,756.7L671.7,756.7c-12.7,0-23-10.3-23-23l0,0c0-12.7,10.3-23,23-23l0,0c12.7,0,23,10.3,23,23l0,0
	C694.7,746.4,684.4,756.7,671.7,756.7z"/>
<linearGradient id="SVGID_28_" gradientUnits="userSpaceOnUse" x1="1031.14" y1="2030.61" x2="1031.14" y2="2132.3198" gradientTransform="matrix(1 0 0 -1 -2.24 2811.3601)">
	<stop  offset="0" style="stop-color:#07485E;stop-opacity:0"/>
	<stop  offset="1" style="stop-color:#03232E"/>
</linearGradient>
<path class="st30" d="M1128.6,764.8H929.2c-11.4,0-20.6-9.2-20.6-20.6V725c0-11.4,9.2-20.6,20.6-20.6h199.4
	c11.4,0,20.6,9.2,20.6,20.6l0,0v19.2C1149.1,755.6,1139.9,764.8,1128.6,764.8L1128.6,764.8z"/>
<linearGradient id="SVGID_29_" gradientUnits="userSpaceOnUse" x1="869.5486" y1="1975.2205" x2="882.9086" y2="1860.3503" gradientTransform="matrix(1 0 0 -1 -2.24 2811.3601)">
	<stop  offset="0" style="stop-color:#0B799D"/>
	<stop  offset="1" style="stop-color:#07485E"/>
</linearGradient>
<path class="st31" d="M1150.3,992.1H600.9c-21.6,0-39.1-17.5-39.1-39.1v-92c0-21.6,17.5-39.1,39.1-39.1h549.3
	c21.6,0,39.1,17.5,39.1,39.1v92C1189.4,974.6,1171.8,992.1,1150.3,992.1z"/>
<linearGradient id="SVGID_30_" gradientUnits="userSpaceOnUse" x1="874.4309" y1="1909.0796" x2="883.1909" y2="1833.7897" gradientTransform="matrix(1 0 0 -1 -2.24 2811.3601)">
	<stop  offset="0" style="stop-color:#07485E;stop-opacity:0"/>
	<stop  offset="1" style="stop-color:#03232E"/>
</linearGradient>
<path class="st32" d="M561.8,907v46c0,21.6,17.5,39.1,39.1,39.1h549.3c21.6,0,39.1-17.5,39.1-39.1v-46H561.8z"/>
<linearGradient id="SVGID_31_" gradientUnits="userSpaceOnUse" x1="939.7841" y1="1942.0288" x2="622.7642" y2="2091.6389" gradientTransform="matrix(1 0 0 -1 -2.24 2811.3601)">
	<stop  offset="0" style="stop-color:#07485E;stop-opacity:0"/>
	<stop  offset="1" style="stop-color:#03232E"/>
</linearGradient>
<path class="st33" d="M1150.3,821.8H875.6v170.3h274.7c21.6,0,39.1-17.5,39.1-39.1v-92C1189.4,839.4,1171.8,821.9,1150.3,821.8
	L1150.3,821.8z"/>
<path class="st19" d="M613.2,925.6L613.2,925.6c-12.7,0-23-10.3-23-23l0,0c0-12.7,10.3-23,23-23l0,0c12.7,0,23,10.3,23,23l0,0
	C636.2,915.3,625.9,925.6,613.2,925.6z"/>
<path class="st20" d="M730.3,925.6L730.3,925.6c-12.7,0-23-10.3-23-23l0,0c0-12.7,10.3-23,23-23l0,0c12.7,0,23,10.3,23,23l0,0
	C753.3,915.3,743,925.6,730.3,925.6z"/>
<path class="st21" d="M671.7,925.6L671.7,925.6c-12.7,0-23-10.3-23-23l0,0c0-12.7,10.3-23,23-23l0,0c12.7,0,23,10.3,23,23l0,0
	C694.7,915.3,684.4,925.6,671.7,925.6z"/>
<linearGradient id="SVGID_32_" gradientUnits="userSpaceOnUse" x1="1031.14" y1="1861" x2="1031.14" y2="1962.71" gradientTransform="matrix(1 0 0 -1 -2.24 2811.3601)">
	<stop  offset="0" style="stop-color:#07485E;stop-opacity:0"/>
	<stop  offset="1" style="stop-color:#03232E"/>
</linearGradient>
<path class="st34" d="M1128.6,935.1H929.2c-11.4,0-20.6-9.2-20.6-20.6v-19.2c0-11.4,9.2-20.6,20.6-20.6h199.4
	c11.4,0,20.6,9.2,20.6,20.6l0,0v19.2C1149.1,925.9,1139.9,935.1,1128.6,935.1L1128.6,935.1z"/>
<linearGradient id="SVGID_33_" gradientUnits="userSpaceOnUse" x1="1494.6973" y1="1749.7859" x2="1505.5973" y2="1656.0658" gradientTransform="matrix(1 0 0 -1 -2.24 2811.3601)">
	<stop  offset="0" style="stop-color:#0B799D"/>
	<stop  offset="1" style="stop-color:#07485E"/>
</linearGradient>
<path class="st35" d="M1723.3,1189h-448.2c-17.6,0-31.9-14.3-31.9-31.9l0,0V1082c0-17.6,14.3-31.9,31.9-31.9l0,0h448.2
	c17.6,0,31.9,14.3,31.9,31.9l0,0v75.1C1755.2,1174.7,1740.9,1189,1723.3,1189z"/>
<linearGradient id="SVGID_34_" gradientUnits="userSpaceOnUse" x1="1498.674" y1="1695.8239" x2="1505.814" y2="1634.3939" gradientTransform="matrix(1 0 0 -1 -2.24 2811.3601)">
	<stop  offset="0" style="stop-color:#07485E;stop-opacity:0"/>
	<stop  offset="1" style="stop-color:#03232E"/>
</linearGradient>
<path class="st36" d="M1243.2,1119.6v37.6c0,17.6,14.3,31.9,31.9,31.9l0,0h448.2c17.6,0,31.9-14.3,31.9-31.9l0,0v-37.6H1243.2z"/>
<linearGradient id="SVGID_35_" gradientUnits="userSpaceOnUse" x1="1549.6042" y1="1723.6436" x2="1290.9543" y2="1845.6936" gradientTransform="matrix(1 0 0 -1 -2.24 2811.3601)">
	<stop  offset="0" style="stop-color:#07485E;stop-opacity:0"/>
	<stop  offset="1" style="stop-color:#03232E"/>
</linearGradient>
<path class="st37" d="M1723.3,1050.1h-224.1V1189h224.1c17.6,0,31.9-14.3,31.9-31.9l0,0V1082
	C1755.2,1064.4,1740.9,1050.1,1723.3,1050.1z"/>
<path class="st19" d="M1296.8,1142.5L1296.8,1142.5c-12.7,0-23-10.3-23-23l0,0l0,0c0-12.7,10.3-23,23-23l0,0c12.7,0,23,10.3,23,23
	l0,0C1319.8,1132.2,1309.5,1142.5,1296.8,1142.5L1296.8,1142.5z"/>
<path class="st20" d="M1413.9,1142.5L1413.9,1142.5c-12.7,0-23-10.3-23-23l0,0l0,0c0-12.7,10.3-23,23-23l0,0c12.7,0,23,10.3,23,23
	l0,0C1436.9,1132.2,1426.6,1142.5,1413.9,1142.5L1413.9,1142.5z"/>
<path class="st21" d="M1355.3,1142.5L1355.3,1142.5c-12.7,0-23-10.3-23-23l0,0l0,0c0-12.7,10.3-23,23-23l0,0c12.7,0,23,10.3,23,23
	l0,0C1378.3,1132.2,1368.1,1142.5,1355.3,1142.5C1355.4,1142.5,1355.4,1142.5,1355.3,1142.5z"/>
<linearGradient id="SVGID_36_" gradientUnits="userSpaceOnUse" x1="1626.49" y1="1656.05" x2="1626.49" y2="1739.03" gradientTransform="matrix(1 0 0 -1 -2.24 2811.3601)">
	<stop  offset="0" style="stop-color:#07485E;stop-opacity:0"/>
	<stop  offset="1" style="stop-color:#03232E"/>
</linearGradient>
<path class="st38" d="M1705.6,1142.5h-162.7c-9.3,0-16.8-7.5-16.8-16.8l0,0V1110c0-9.3,7.5-16.8,16.8-16.8l0,0h162.7
	c9.3,0,16.8,7.5,16.8,16.8l0,0v15.7C1722.4,1135,1714.9,1142.5,1705.6,1142.5L1705.6,1142.5z"/>
<linearGradient id="SVGID_37_" gradientUnits="userSpaceOnUse" x1="1494.6261" y1="1611.3976" x2="1505.5261" y2="1517.6776" gradientTransform="matrix(1 0 0 -1 -2.24 2811.3601)">
	<stop  offset="0" style="stop-color:#0B799D"/>
	<stop  offset="1" style="stop-color:#07485E"/>
</linearGradient>
<path class="st39" d="M1723.3,1328h-448.2c-17.6,0-31.9-14.3-31.9-31.9l0,0V1221c0-17.6,14.3-31.9,31.9-31.9l0,0h448.2
	c17.6,0,31.9,14.3,31.9,31.9l0,0v75.1C1755.2,1313.7,1740.9,1328,1723.3,1328z"/>
<linearGradient id="SVGID_38_" gradientUnits="userSpaceOnUse" x1="1498.6144" y1="1557.437" x2="1505.7544" y2="1496.007" gradientTransform="matrix(1 0 0 -1 -2.24 2811.3601)">
	<stop  offset="0" style="stop-color:#07485E;stop-opacity:0"/>
	<stop  offset="1" style="stop-color:#03232E"/>
</linearGradient>
<path class="st40" d="M1243.2,1258.5v37.6c0,17.6,14.3,31.9,31.9,31.9l0,0h448.2c17.6,0,31.9-14.3,31.9-31.9l0,0v-37.6H1243.2z"/>
<linearGradient id="SVGID_39_" gradientUnits="userSpaceOnUse" x1="1549.3774" y1="1584.7725" x2="1290.7275" y2="1706.8325" gradientTransform="matrix(1 0 0 -1 -2.24 2811.3601)">
	<stop  offset="0" style="stop-color:#07485E;stop-opacity:0"/>
	<stop  offset="1" style="stop-color:#03232E"/>
</linearGradient>
<path class="st41" d="M1723.3,1189h-224.1v139h224.1c17.6,0,31.9-14.3,31.9-31.9l0,0V1221C1755.2,1203.4,1740.9,1189.1,1723.3,1189
	C1723.3,1189.1,1723.3,1189.1,1723.3,1189L1723.3,1189z"/>
<path class="st19" d="M1296.8,1281.5L1296.8,1281.5c-12.7,0-23-10.3-23-23l0,0c0-12.7,10.3-23,23-23l0,0l0,0c12.7,0,23,10.3,23,23
	l0,0l0,0C1319.8,1271.2,1309.5,1281.5,1296.8,1281.5z"/>
<path class="st20" d="M1413.9,1281.5L1413.9,1281.5c-12.7,0-23-10.3-23-23l0,0c0-12.7,10.3-23,23-23l0,0l0,0c12.7,0,23,10.3,23,23
	l0,0l0,0C1436.9,1271.2,1426.6,1281.5,1413.9,1281.5z"/>
<path class="st21" d="M1355.3,1281.5L1355.3,1281.5c-12.7,0-23-10.3-23-23l0,0c0-12.7,10.3-23,23-23l0,0l0,0c12.7,0,23,10.3,23,23
	l0,0l0,0C1378.3,1271.2,1368,1281.5,1355.3,1281.5z"/>
<linearGradient id="SVGID_40_" gradientUnits="userSpaceOnUse" x1="1626.49" y1="1517.67" x2="1626.49" y2="1600.65" gradientTransform="matrix(1 0 0 -1 -2.24 2811.3601)">
	<stop  offset="0" style="stop-color:#07485E;stop-opacity:0"/>
	<stop  offset="1" style="stop-color:#03232E"/>
</linearGradient>
<path class="st42" d="M1705.6,1281.5h-162.7c-9.3,0-16.8-7.5-16.8-16.8l0,0V1249c0-9.3,7.5-16.8,16.8-16.8l0,0h162.7
	c9.3,0,16.8,7.5,16.8,16.8l0,0v15.7C1722.4,1273.9,1714.9,1281.4,1705.6,1281.5L1705.6,1281.5z"/>
<linearGradient id="SVGID_41_" gradientUnits="userSpaceOnUse" x1="1494.8159" y1="2026.5599" x2="1505.7159" y2="1932.8497" gradientTransform="matrix(1 0 0 -1 -2.24 2811.3601)">
	<stop  offset="0" style="stop-color:#0B799D"/>
	<stop  offset="1" style="stop-color:#07485E"/>
</linearGradient>
<path class="st43" d="M1723.3,911.2h-448.2c-17.6,0-31.9-14.3-31.9-31.9l0,0v-75.1c0-17.6,14.3-31.9,31.9-31.9l0,0h448.2
	c17.6,0,31.9,14.3,31.9,31.9l0,0v75.1C1755.2,896.9,1740.9,911.2,1723.3,911.2L1723.3,911.2z"/>
<linearGradient id="SVGID_42_" gradientUnits="userSpaceOnUse" x1="1498.8093" y1="1972.6096" x2="1505.9493" y2="1911.1797" gradientTransform="matrix(1 0 0 -1 -2.24 2811.3601)">
	<stop  offset="0" style="stop-color:#07485E;stop-opacity:0"/>
	<stop  offset="1" style="stop-color:#03232E"/>
</linearGradient>
<path class="st44" d="M1243.2,841.7v37.5c0,17.6,14.3,31.9,31.9,31.9l0,0h448.2c17.6,0,31.9-14.3,31.9-31.9l0,0v-37.5H1243.2z"/>
<linearGradient id="SVGID_43_" gradientUnits="userSpaceOnUse" x1="1550.0068" y1="2001.2563" x2="1291.3569" y2="2123.3162" gradientTransform="matrix(1 0 0 -1 -2.24 2811.3601)">
	<stop  offset="0" style="stop-color:#07485E;stop-opacity:0"/>
	<stop  offset="1" style="stop-color:#03232E"/>
</linearGradient>
<path class="st45" d="M1723.3,772.3h-224.1v138.9h224.1c17.6,0,31.9-14.3,31.9-31.9l0,0v-75.1
	C1755.2,786.6,1740.9,772.3,1723.3,772.3z"/>
<path class="st19" d="M1296.8,864.7L1296.8,864.7c-12.7,0-23-10.3-23-23l0,0c0-12.7,10.3-23,23-23l0,0c12.7,0,23,10.3,23,23l0,0
	C1319.8,854.4,1309.5,864.7,1296.8,864.7z"/>
<path class="st20" d="M1413.9,864.7L1413.9,864.7c-12.7,0-23-10.3-23-23l0,0c0-12.7,10.3-23,23-23l0,0c12.7,0,23,10.3,23,23l0,0
	C1436.9,854.4,1426.6,864.7,1413.9,864.7z"/>
<path class="st21" d="M1355.3,864.7L1355.3,864.7c-12.7,0-23-10.3-23-23l0,0c0-12.7,10.3-23,23-23l0,0c12.7,0,23,10.3,23,23l0,0
	C1378.3,854.4,1368.1,864.7,1355.3,864.7C1355.4,864.7,1355.4,864.7,1355.3,864.7z"/>
<linearGradient id="SVGID_44_" gradientUnits="userSpaceOnUse" x1="1626.49" y1="1932.8198" x2="1626.49" y2="2015.8" gradientTransform="matrix(1 0 0 -1 -2.24 2811.3601)">
	<stop  offset="0" style="stop-color:#07485E;stop-opacity:0"/>
	<stop  offset="1" style="stop-color:#03232E"/>
</linearGradient>
<path class="st46" d="M1705.6,864.7h-162.7c-9.3,0-16.8-7.5-16.8-16.8l0,0v-15.7c0-9.3,7.5-16.8,16.8-16.8l0,0h162.7
	c9.3,0,16.8,7.5,16.8,16.8l0,0v15.7C1722.4,857.2,1714.9,864.7,1705.6,864.7L1705.6,864.7z"/>
<linearGradient id="SVGID_45_" gradientUnits="userSpaceOnUse" x1="1494.757" y1="1888.1729" x2="1505.657" y2="1794.4528" gradientTransform="matrix(1 0 0 -1 -2.24 2811.3601)">
	<stop  offset="0" style="stop-color:#0B799D"/>
	<stop  offset="1" style="stop-color:#07485E"/>
</linearGradient>
<path class="st47" d="M1723.3,1050.1h-448.2c-17.6,0-31.9-14.3-31.9-31.9l0,0v-75.1c0-17.6,14.3-31.9,31.9-31.9l0,0h448.2
	c17.6,0,31.9,14.3,31.9,31.9l0,0v75.1C1755.2,1035.8,1740.9,1050.1,1723.3,1050.1L1723.3,1050.1z"/>
<linearGradient id="SVGID_46_" gradientUnits="userSpaceOnUse" x1="1498.7382" y1="1834.2213" x2="1505.8782" y2="1772.7914" gradientTransform="matrix(1 0 0 -1 -2.24 2811.3601)">
	<stop  offset="0" style="stop-color:#07485E;stop-opacity:0"/>
	<stop  offset="1" style="stop-color:#03232E"/>
</linearGradient>
<path class="st48" d="M1243.2,980.7v37.5c0,17.6,14.3,31.9,31.9,31.9l0,0h448.2c17.6,0,31.9-14.3,31.9-31.9l0,0v-37.5L1243.2,980.7
	L1243.2,980.7z"/>
<linearGradient id="SVGID_47_" gradientUnits="userSpaceOnUse" x1="1549.8062" y1="1862.451" x2="1291.1563" y2="1984.511" gradientTransform="matrix(1 0 0 -1 -2.24 2811.3601)">
	<stop  offset="0" style="stop-color:#07485E;stop-opacity:0"/>
	<stop  offset="1" style="stop-color:#03232E"/>
</linearGradient>
<path class="st49" d="M1723.3,911.2h-224.1v138.9h224.1c17.6,0,31.9-14.3,31.9-31.9l0,0v-75.1
	C1755.2,925.5,1740.9,911.2,1723.3,911.2L1723.3,911.2z"/>
<path class="st19" d="M1296.8,1003.6L1296.8,1003.6c-12.7,0-23-10.3-23-23l0,0l0,0c0-12.7,10.3-23,23-23l0,0c12.7,0,23,10.3,23,23
	l0,0C1319.8,993.3,1309.5,1003.6,1296.8,1003.6L1296.8,1003.6z"/>
<path class="st20" d="M1413.9,1003.6L1413.9,1003.6c-12.7,0-23-10.3-23-23l0,0l0,0c0-12.7,10.3-23,23-23l0,0c12.7,0,23,10.3,23,23
	l0,0C1436.9,993.3,1426.6,1003.6,1413.9,1003.6L1413.9,1003.6z"/>
<path class="st21" d="M1355.3,1003.6L1355.3,1003.6c-12.7,0-23-10.3-23-23l0,0l0,0c0-12.7,10.3-23,23-23l0,0c12.7,0,23,10.3,23,23
	l0,0C1378.3,993.3,1368,1003.6,1355.3,1003.6L1355.3,1003.6z"/>
<linearGradient id="SVGID_48_" gradientUnits="userSpaceOnUse" x1="1626.49" y1="1794.4399" x2="1626.49" y2="1877.4199" gradientTransform="matrix(1 0 0 -1 -2.24 2811.3601)">
	<stop  offset="0" style="stop-color:#07485E;stop-opacity:0"/>
	<stop  offset="1" style="stop-color:#03232E"/>
</linearGradient>
<path class="st50" d="M1705.6,1003.6h-162.7c-9.3,0-16.8-7.5-16.8-16.8l0,0v-15.7c0-9.3,7.5-16.8,16.8-16.8l0,0h162.7
	c9.3,0,16.8,7.5,16.8,16.8l0,0v15.7C1722.4,996.1,1714.9,1003.6,1705.6,1003.6L1705.6,1003.6z"/>
<linearGradient id="SVGID_49_" gradientUnits="userSpaceOnUse" x1="251.5623" y1="1749.226" x2="262.4623" y2="1655.5059" gradientTransform="matrix(1 0 0 -1 -2.24 2811.3601)">
	<stop  offset="0" style="stop-color:#0B799D"/>
	<stop  offset="1" style="stop-color:#07485E"/>
</linearGradient>
<path class="st51" d="M480.1,1189H31.9c-17.6,0-31.9-14.3-31.9-31.9V1082c0-17.6,14.3-31.9,31.9-31.9l0,0h448.2
	c17.6,0,31.9,14.3,31.9,31.9l0,0v75.1C512,1174.7,497.7,1189,480.1,1189z"/>
<linearGradient id="SVGID_50_" gradientUnits="userSpaceOnUse" x1="255.539" y1="1695.2642" x2="262.6791" y2="1633.8342" gradientTransform="matrix(1 0 0 -1 -2.24 2811.3601)">
	<stop  offset="0" style="stop-color:#07485E;stop-opacity:0"/>
	<stop  offset="1" style="stop-color:#03232E"/>
</linearGradient>
<path class="st52" d="M0,1119.6v37.6c0,17.6,14.3,31.9,31.9,31.9h448.2c17.6,0,31.9-14.3,31.9-31.9v-37.6H0z"/>
<linearGradient id="SVGID_51_" gradientUnits="userSpaceOnUse" x1="310.3879" y1="1721.765" x2="51.7479" y2="1843.8151" gradientTransform="matrix(1 0 0 -1 -2.24 2811.3601)">
	<stop  offset="0" style="stop-color:#07485E;stop-opacity:0"/>
	<stop  offset="1" style="stop-color:#03232E"/>
</linearGradient>
<path class="st53" d="M480.1,1050.1H256V1189h224.1c17.6,0,31.9-14.3,31.9-31.9V1082C512,1064.4,497.7,1050.1,480.1,1050.1z"/>
<path class="st19" d="M53.6,1142.5L53.6,1142.5c-12.7,0-23-10.3-23-23l0,0l0,0c0-12.7,10.3-23,23-23l0,0c12.7,0,23,10.3,23,23l0,0
	C76.6,1132.2,66.3,1142.5,53.6,1142.5z"/>
<path class="st20" d="M170.7,1142.5L170.7,1142.5c-12.7,0-23-10.3-23-23l0,0l0,0c0-12.7,10.3-23,23-23l0,0c12.7,0,23,10.3,23,23l0,0
	C193.7,1132.2,183.4,1142.5,170.7,1142.5L170.7,1142.5z"/>
<path class="st21" d="M112.2,1142.5L112.2,1142.5c-12.7,0-23-10.3-23-23l0,0l0,0c0-12.7,10.3-23,23-23l0,0c12.7,0,23,10.3,23,23l0,0
	C135.2,1132.2,125,1142.5,112.2,1142.5C112.2,1142.5,112.2,1142.5,112.2,1142.5z"/>
<linearGradient id="SVGID_52_" gradientUnits="userSpaceOnUse" x1="383.39" y1="1656.05" x2="383.39" y2="1739.03" gradientTransform="matrix(1 0 0 -1 -2.24 2811.3601)">
	<stop  offset="0" style="stop-color:#07485E;stop-opacity:0"/>
	<stop  offset="1" style="stop-color:#03232E"/>
</linearGradient>
<path class="st54" d="M462.4,1142.5H299.8c-9.3,0-16.8-7.5-16.8-16.8V1110c0-9.3,7.5-16.8,16.8-16.8l0,0h162.7
	c9.3,0,16.8,7.5,16.8,16.8l0,0v15.7C479.2,1135,471.7,1142.5,462.4,1142.5L462.4,1142.5z"/>
<linearGradient id="SVGID_53_" gradientUnits="userSpaceOnUse" x1="251.4969" y1="1610.8383" x2="262.3969" y2="1517.1183" gradientTransform="matrix(1 0 0 -1 -2.24 2811.3601)">
	<stop  offset="0" style="stop-color:#0B799D"/>
	<stop  offset="1" style="stop-color:#07485E"/>
</linearGradient>
<path class="st55" d="M480.1,1328H31.9c-17.6,0-31.9-14.3-31.9-31.9l0,0V1221c0-17.6,14.2-32,31.8-32h0.1h448.2
	c17.6,0,31.9,14.3,31.9,31.9v0.1v75.1C512,1313.7,497.7,1328,480.1,1328z"/>
<linearGradient id="SVGID_54_" gradientUnits="userSpaceOnUse" x1="255.4787" y1="1556.8772" x2="262.6187" y2="1495.4473" gradientTransform="matrix(1 0 0 -1 -2.24 2811.3601)">
	<stop  offset="0" style="stop-color:#07485E;stop-opacity:0"/>
	<stop  offset="1" style="stop-color:#03232E"/>
</linearGradient>
<path class="st56" d="M0,1258.5v37.6c0,17.6,14.2,31.9,31.9,31.9l0,0h448.2c17.6,0,31.9-14.3,31.9-31.9l0,0v-37.6H0z"/>
<linearGradient id="SVGID_55_" gradientUnits="userSpaceOnUse" x1="310.1732" y1="1582.9198" x2="51.5332" y2="1704.9797" gradientTransform="matrix(1 0 0 -1 -2.24 2811.3601)">
	<stop  offset="0" style="stop-color:#07485E;stop-opacity:0"/>
	<stop  offset="1" style="stop-color:#03232E"/>
</linearGradient>
<path class="st57" d="M480.1,1189H256v139h224.1c17.6,0,31.9-14.3,31.9-31.9l0,0V1221C512,1203.4,497.8,1189,480.1,1189
	C480.2,1189,480.1,1189,480.1,1189z"/>
<path class="st19" d="M53.6,1281.5L53.6,1281.5c-12.7,0-23-10.3-23-23l0,0c0-12.7,10.3-23,23-23l0,0l0,0c12.7,0,23,10.3,23,23l0,0
	C76.6,1271.1,66.3,1281.4,53.6,1281.5z"/>
<path class="st20" d="M170.7,1281.5L170.7,1281.5c-12.7,0-23-10.3-23-23l0,0c0-12.7,10.3-23,23-23l0,0l0,0c12.7,0,23,10.3,23,23l0,0
	l0,0C193.7,1271.2,183.4,1281.5,170.7,1281.5z"/>
<path class="st21" d="M112.2,1281.5L112.2,1281.5c-12.7,0-23-10.3-23-23l0,0c0-12.7,10.3-23,23-23l0,0l0,0c12.7,0,23,10.3,23,23l0,0
	l0,0C135.2,1271.2,124.9,1281.5,112.2,1281.5z"/>
<linearGradient id="SVGID_56_" gradientUnits="userSpaceOnUse" x1="383.39" y1="1517.67" x2="383.39" y2="1600.65" gradientTransform="matrix(1 0 0 -1 -2.24 2811.3601)">
	<stop  offset="0" style="stop-color:#07485E;stop-opacity:0"/>
	<stop  offset="1" style="stop-color:#03232E"/>
</linearGradient>
<path class="st58" d="M462.4,1281.5H299.8c-9.3,0-16.8-7.5-16.8-16.8V1249c0-9.3,7.5-16.8,16.8-16.8l0,0h162.7
	c9.3,0,16.8,7.5,16.8,16.8l0,0v15.7C479.2,1273.9,471.7,1281.4,462.4,1281.5L462.4,1281.5z"/>
<linearGradient id="SVGID_57_" gradientUnits="userSpaceOnUse" x1="251.681" y1="2025.9998" x2="262.581" y2="1932.2897" gradientTransform="matrix(1 0 0 -1 -2.24 2811.3601)">
	<stop  offset="0" style="stop-color:#0B799D"/>
	<stop  offset="1" style="stop-color:#07485E"/>
</linearGradient>
<path class="st59" d="M480.1,911.2H31.9C14.3,911.2,0,896.9,0,879.3v-75.1c0-17.6,14.3-31.9,31.9-31.9h448.2
	c17.6,0,31.9,14.3,31.9,31.9v75.1C512,896.9,497.7,911.2,480.1,911.2L480.1,911.2z"/>
<linearGradient id="SVGID_58_" gradientUnits="userSpaceOnUse" x1="255.6801" y1="1972.0507" x2="262.8201" y2="1910.6207" gradientTransform="matrix(1 0 0 -1 -2.24 2811.3601)">
	<stop  offset="0" style="stop-color:#07485E;stop-opacity:0"/>
	<stop  offset="1" style="stop-color:#03232E"/>
</linearGradient>
<path class="st60" d="M0,841.7v37.5c0,17.6,14.3,31.9,31.9,31.9h448.2c17.6,0,31.9-14.3,31.9-31.9v-37.6L0,841.7L0,841.7z"/>
<linearGradient id="SVGID_59_" gradientUnits="userSpaceOnUse" x1="310.7904" y1="1999.3776" x2="52.1504" y2="2121.4375" gradientTransform="matrix(1 0 0 -1 -2.24 2811.3601)">
	<stop  offset="0" style="stop-color:#07485E;stop-opacity:0"/>
	<stop  offset="1" style="stop-color:#03232E"/>
</linearGradient>
<path class="st61" d="M480.1,772.3H256v138.9h224.1c17.6,0,31.9-14.3,31.9-31.9v-75.1C512,786.6,497.7,772.3,480.1,772.3z"/>
<path class="st19" d="M53.6,864.7L53.6,864.7c-12.7,0-23-10.3-23-23l0,0c0-12.7,10.3-23,23-23l0,0c12.7,0,23,10.3,23,23l0,0
	C76.5,854.4,66.3,864.7,53.6,864.7z"/>
<path class="st20" d="M170.7,864.7L170.7,864.7c-12.7,0-23-10.3-23-23l0,0c0-12.7,10.3-23,23-23l0,0c12.7,0,23,10.3,23,23l0,0
	C193.7,854.4,183.4,864.7,170.7,864.7z"/>
<path class="st21" d="M112.2,864.7L112.2,864.7c-12.7,0-23-10.3-23-23l0,0c0-12.7,10.3-23,23-23l0,0c12.7,0,23,10.3,23,23l0,0
	C135.2,854.4,124.9,864.7,112.2,864.7L112.2,864.7z"/>
<linearGradient id="SVGID_60_" gradientUnits="userSpaceOnUse" x1="383.39" y1="1932.8198" x2="383.39" y2="2015.8" gradientTransform="matrix(1 0 0 -1 -2.24 2811.3601)">
	<stop  offset="0" style="stop-color:#07485E;stop-opacity:0"/>
	<stop  offset="1" style="stop-color:#03232E"/>
</linearGradient>
<path class="st62" d="M462.4,864.7H299.8c-9.3,0-16.8-7.5-16.8-16.8v-15.7c0-9.3,7.5-16.8,16.8-16.8l0,0h162.7
	c9.3,0,16.8,7.5,16.8,16.8l0,0v15.7C479.2,857.2,471.7,864.7,462.4,864.7L462.4,864.7z"/>
<linearGradient id="SVGID_61_" gradientUnits="userSpaceOnUse" x1="251.622" y1="1887.6129" x2="262.522" y2="1793.8928" gradientTransform="matrix(1 0 0 -1 -2.24 2811.3601)">
	<stop  offset="0" style="stop-color:#0B799D"/>
	<stop  offset="1" style="stop-color:#07485E"/>
</linearGradient>
<path class="st63" d="M480.1,1050.1H31.9c-17.6,0-31.9-14.3-31.9-31.9v-75.1c0-17.6,14.3-31.9,31.9-31.9h448.2
	c17.6,0,31.9,14.3,31.9,31.9v75.1C512,1035.8,497.7,1050.1,480.1,1050.1L480.1,1050.1z"/>
<linearGradient id="SVGID_62_" gradientUnits="userSpaceOnUse" x1="255.6033" y1="1833.6617" x2="262.7432" y2="1772.2317" gradientTransform="matrix(1 0 0 -1 -2.24 2811.3601)">
	<stop  offset="0" style="stop-color:#07485E;stop-opacity:0"/>
	<stop  offset="1" style="stop-color:#03232E"/>
</linearGradient>
<path class="st64" d="M0,980.7v37.5c0,17.6,14.3,31.9,31.9,31.9h448.2c17.6,0,31.9-14.3,31.9-31.9v-37.5L0,980.7L0,980.7z"/>
<linearGradient id="SVGID_63_" gradientUnits="userSpaceOnUse" x1="310.5897" y1="1860.5723" x2="51.9497" y2="1982.6322" gradientTransform="matrix(1 0 0 -1 -2.24 2811.3601)">
	<stop  offset="0" style="stop-color:#07485E;stop-opacity:0"/>
	<stop  offset="1" style="stop-color:#03232E"/>
</linearGradient>
<path class="st65" d="M480.1,911.2H256v138.9h224.1c17.6,0,31.9-14.3,31.9-31.9v-75.1C512,925.5,497.7,911.2,480.1,911.2z"/>
<path class="st19" d="M53.6,1003.6L53.6,1003.6c-12.7,0-23-10.3-23-23l0,0l0,0c0-12.7,10.3-23,23-23l0,0c12.7,0,23,10.3,23,23l0,0
	C76.6,993.3,66.3,1003.6,53.6,1003.6z"/>
<path class="st20" d="M170.7,1003.6L170.7,1003.6c-12.7,0-23-10.3-23-23l0,0l0,0c0-12.7,10.3-23,23-23l0,0c12.7,0,23,10.3,23,23l0,0
	C193.7,993.3,183.4,1003.6,170.7,1003.6L170.7,1003.6z"/>
<path class="st21" d="M112.2,1003.6L112.2,1003.6c-12.7,0-23-10.3-23-23l0,0l0,0c0-12.7,10.3-23,23-23l0,0c12.7,0,23,10.3,23,23l0,0
	C135.2,993.3,124.9,1003.6,112.2,1003.6L112.2,1003.6z"/>
<linearGradient id="SVGID_64_" gradientUnits="userSpaceOnUse" x1="383.39" y1="1794.4399" x2="383.39" y2="1877.4199" gradientTransform="matrix(1 0 0 -1 -2.24 2811.3601)">
	<stop  offset="0" style="stop-color:#07485E;stop-opacity:0"/>
	<stop  offset="1" style="stop-color:#03232E"/>
</linearGradient>
<path class="st66" d="M462.4,1003.6H299.8c-9.3,0-16.8-7.5-16.8-16.8v-15.7c0-9.3,7.5-16.8,16.8-16.8l0,0h162.7
	c9.3,0,16.8,7.5,16.8,16.8l0,0v15.7C479.2,996.1,471.7,1003.6,462.4,1003.6L462.4,1003.6z"/>
<g id="afc9bb34-9db7-4daa-8cab-f9a609c305c9">
	<rect x="993.8" y="1199.5" class="st67" width="185.2" height="93.7"/>
	<path class="st68" d="M983.5,1193c0,3.6,2.9,6.5,6.5,6.5h192.9c3.6,0,6.5-2.9,6.5-6.5v-28.3c0-3.6-2.9-6.5-6.5-6.5H990
		c-3.6,0-6.5,2.9-6.5,6.5V1193z"/>
	<path class="st68" d="M983.5,1238c0,3.6,2.9,6.5,6.5,6.5h192.9c3.6,0,6.5-2.9,6.5-6.5v-28.3c0-3.6-2.9-6.5-6.5-6.5H990
		c-3.6,0-6.5,2.9-6.5,6.5V1238z"/>
	<path class="st68" d="M983.5,1283c0,3.6,2.9,6.5,6.5,6.5h192.9c3.6,0,6.5-2.9,6.5-6.5v-28.3c0-3.6-2.9-6.5-6.5-6.5H990
		c-3.6,0-6.5,2.9-6.5,6.5V1283z"/>
	<path class="st68" d="M983.5,1328c0,3.6,2.9,6.5,6.5,6.5h192.9c3.6,0,6.5-2.9,6.5-6.5v-28.3c0-3.6-2.9-6.5-6.5-6.5H990
		c-3.6,0-6.5,2.9-6.5,6.5V1328z"/>
	<path class="st69" d="M1171.6,1121.4v36.7H1158v-34.6c0-39.5-32-71.5-71.5-71.5s-71.5,32-71.5,71.5v34.6h-13.6v-36.7
		c0.5-47,39.1-84.8,86.1-84.3C1133.7,1037.7,1171.1,1075.1,1171.6,1121.4L1171.6,1121.4z"/>
	<path class="st70" d="M1158,1123.6v34.6h-13.6v-36.7c0.4-32-25.2-58.3-57.2-58.7s-58.3,25.2-58.7,57.2c0,0.5,0,1,0,1.5v36.7h-13.6
		v-34.6c0-39.5,32-71.6,71.5-71.6S1158,1084,1158,1123.6C1158,1123.5,1158,1123.6,1158,1123.6L1158,1123.6z"/>
	<rect x="977.2" y="1192.2" class="st71" width="33.2" height="18.2"/>
	<rect x="993.8" y="1192.2" class="st72" width="16.6" height="18.2"/>
	<rect x="977.2" y="1237.2" class="st71" width="33.2" height="18.2"/>
	<rect x="993.8" y="1237.2" class="st72" width="16.6" height="18.2"/>
	<rect x="977.2" y="1282.2" class="st71" width="33.2" height="18.2"/>
	<rect x="993.8" y="1282.2" class="st72" width="16.6" height="18.2"/>
	<rect x="347.4" y="1215" class="st67" width="156.3" height="79.1"/>
	<path class="st68" d="M338.7,1209.6c0,3,2.4,5.5,5.5,5.5H507c3,0,5.5-2.5,5.5-5.5v-23.9c0-3-2.4-5.5-5.5-5.5H344.1
		c-3,0-5.5,2.5-5.5,5.5v23.9H338.7z"/>
	<path class="st68" d="M338.7,1247.5c0,3,2.4,5.5,5.5,5.5H507c3,0,5.5-2.5,5.5-5.5v-23.9c0-3-2.4-5.5-5.5-5.5H344.1
		c-3,0-5.4,2.5-5.5,5.5v23.9H338.7z"/>
	<path class="st68" d="M338.7,1285.5c0,3,2.4,5.5,5.5,5.5H507c3,0,5.5-2.5,5.5-5.5v-23.9c0-3-2.4-5.5-5.5-5.5H344.1
		c-3,0-5.4,2.5-5.5,5.5v23.9H338.7z"/>
	<path class="st68" d="M338.7,1323.4c0,3,2.4,5.5,5.5,5.5H507c3,0,5.5-2.5,5.5-5.5v-23.9c0-3-2.4-5.5-5.5-5.5H344.1
		c-3,0-5.4,2.5-5.5,5.5v23.9H338.7z"/>
	<path class="st69" d="M497.4,1149.2v31h-11.5V1151c0-33.3-27-60.4-60.4-60.4s-60.4,27-60.4,60.4v29.2h-11.5v-31
		c0-39.7,32.2-71.9,71.9-71.8C465.2,1077.4,497.4,1109.5,497.4,1149.2L497.4,1149.2z"/>
	<path class="st70" d="M485.9,1151v29.2h-11.5v-31c0-27-21.9-48.9-48.9-48.9s-48.9,21.9-48.9,48.9v31h-11.5V1151
		c-0.4-33.3,26.2-60.7,59.6-61.1c33.3-0.4,60.7,26.2,61.1,59.6C485.9,1150,485.9,1150.5,485.9,1151L485.9,1151z"/>
	<rect x="333.4" y="1208.9" class="st71" width="28" height="15.4"/>
	<rect x="347.4" y="1208.9" class="st72" width="14" height="15.4"/>
	<rect x="333.4" y="1246.8" class="st71" width="28" height="15.4"/>
	<rect x="347.4" y="1246.8" class="st72" width="14" height="15.4"/>
	<rect x="333.4" y="1284.8" class="st71" width="28" height="15.4"/>
	<rect x="347.4" y="1284.8" class="st72" width="14" height="15.4"/>
	<rect x="1590.5" y="1214.5" class="st67" width="156.3" height="79.1"/>
	<path class="st68" d="M1581.8,1209c0,3,2.5,5.5,5.5,5.5H1750c3,0,5.5-2.5,5.5-5.5v-23.9c0-3-2.4-5.5-5.5-5.5h-162.8
		c-3,0-5.5,2.5-5.5,5.5v23.9H1581.8z"/>
	<path class="st68" d="M1581.8,1247c0,3,2.5,5.5,5.5,5.5H1750c3,0,5.5-2.5,5.5-5.5v-23.9c0-3-2.4-5.5-5.5-5.5h-162.8
		c-3,0-5.5,2.5-5.5,5.5v23.9H1581.8z"/>
	<path class="st68" d="M1581.8,1285c0,3,2.4,5.5,5.5,5.5H1750c3,0,5.5-2.5,5.5-5.5v-23.9c0-3-2.4-5.5-5.5-5.5h-162.8
		c-3,0-5.5,2.5-5.5,5.5v23.9H1581.8z"/>
	<path class="st68" d="M1581.8,1322.9c0,3,2.5,5.5,5.5,5.5H1750c3,0,5.5-2.5,5.5-5.5V1299c0-3-2.4-5.5-5.5-5.5h-162.8
		c-3,0-5.5,2.5-5.5,5.5v23.9H1581.8z"/>
	<path class="st69" d="M1740.5,1148.7v31H1729v-29.2c0-33.3-27-60.4-60.3-60.4s-60.4,27-60.4,60.3v0.1v29.2h-11.5v-31
		c0.5-39.7,33-71.5,72.7-71C1708.5,1078.1,1740,1109.6,1740.5,1148.7L1740.5,1148.7z"/>
	<path class="st70" d="M1729,1150.5v29.2h-11.5v-31c0-27-21.8-48.9-48.8-48.9s-48.9,21.8-48.9,48.8c0,0,0,0,0,0.1v31h-11.5v-29.2
		c0-33.3,27-60.4,60.3-60.4S1729,1117.1,1729,1150.5C1729,1150.4,1729,1150.5,1729,1150.5z"/>
	<rect x="1576.5" y="1208.4" class="st71" width="28" height="15.4"/>
	<rect x="1590.5" y="1208.4" class="st72" width="14" height="15.4"/>
	<rect x="1576.5" y="1246.3" class="st71" width="28" height="15.4"/>
	<rect x="1590.5" y="1246.3" class="st72" width="14" height="15.4"/>
	<rect x="1576.5" y="1284.3" class="st71" width="28" height="15.4"/>
	<rect x="1590.5" y="1284.3" class="st72" width="14" height="15.4"/>
</g>
</svg>
