<?xml version="1.0" encoding="utf-8"?>
<!-- Generator: Adobe Illustrator 24.2.0, SVG Export Plug-In . SVG Version: 6.00 Build 0)  -->
<svg version="1.1" id="OBJECTS" xmlns="http://www.w3.org/2000/svg" xmlns:xlink="http://www.w3.org/1999/xlink" x="0px" y="0px"
	 viewBox="0 0 645.1 270.3" style="enable-background:new 0 0 645.1 270.3;" xml:space="preserve">
<style type="text/css">
	.st0{fill:url(#SVGID_1_);}
	.st1{fill:url(#SVGID_2_);}
	.st2{fill:url(#SVGID_3_);}
	.st3{fill:#F5F5F7;}
</style>
<linearGradient id="SVGID_1_" gradientUnits="userSpaceOnUse" x1="228.0067" y1="-774.4178" x2="162.8067" y2="-955.968" gradientTransform="matrix(1 0 0 -1 -73.47 -724.4388)">
	<stop  offset="0" style="stop-color:#703D1C"/>
	<stop  offset="1" style="stop-color:#832E43"/>
</linearGradient>
<path class="st0" d="M229.8,124.8l-87.6-87.6c-12.5-12.5-32.7-12.5-45.2,0L9.3,124.8c-12.5,12.5-12.5,32.7,0,45.2L97,257.6
	c12.5,12.5,32.7,12.5,45.2,0l87.6-87.6C242.3,157.5,242.3,137.3,229.8,124.8L229.8,124.8z M219.4,159.6l-87.6,87.6
	c-6.8,6.8-17.7,6.8-24.5,0l-87.6-87.6c-6.7-6.8-6.7-17.7,0-24.5l87.6-87.6c6.8-6.8,17.7-6.8,24.5,0l87.6,87.7
	C226.2,141.9,226.2,152.8,219.4,159.6L219.4,159.6L219.4,159.6L219.4,159.6z"/>
<linearGradient id="SVGID_2_" gradientUnits="userSpaceOnUse" x1="185.0452" y1="-916.4545" x2="280.7653" y2="-816.1545" gradientTransform="matrix(1 0 0 -1 -73.47 -724.4388)">
	<stop  offset="0" style="stop-color:#FF2676"/>
	<stop  offset="0.98" style="stop-color:#FF7500"/>
</linearGradient>
<path class="st1" d="M183.8,59l0.3,7.5c17.7-0.1,19.8,15.1,17.4,27.4c-4.7,23.7-26.4,38-62.6,68.6c-15.7,13.3-29.9,36.5-13,64.9
	c6.6-13.5,26.9-29.2,58.4-56.4c30.5-26.4,40.8-41.6,41.7-66.8C226.8,80.6,211.2,61.7,183.8,59z"/>
<linearGradient id="SVGID_3_" gradientUnits="userSpaceOnUse" x1="90.5685" y1="-864.0697" x2="261.7792" y2="-864.0697" gradientTransform="matrix(1 0 0 -1 -73.47 -724.4388)">
	<stop  offset="0" style="stop-color:#FE1192"/>
	<stop  offset="0.98" style="stop-color:#FE7519"/>
</linearGradient>
<path class="st2" d="M150.5,123c-49.1,42.6-94.2,65.5-97.9,96.2c-3.1,25.3,17.8,42.3,39.3,33.3l5,5c-34.5,18.3-85.4-10.9-79.3-62.2
	c5.8-48.4,58-78,108.6-116.8c26.9-20.6,39.1-34.9,31.6-48.1c-3.9-6.9-15.5-8.9-28-1c-3.2-1.1-6.5-1.6-9.8-1.6
	c21.9-18.8,45.7-11.1,56-1.5C192.4,41.8,199.6,80.4,150.5,123z"/>
<g>
	<path class="st3" d="M293.1,169.7c1.2,10.5,12.1,17.3,26.2,17.3s23.8-6.8,23.8-16.1c0-8.3-6.1-12.8-21.4-16.3l-16.5-3.6
		c-23.4-5-34.9-16.9-34.9-35.4c0-23.4,20.2-38.8,48.5-38.8c29.5,0,48.1,15.2,48.5,38.1h-24.9c-0.9-10.7-10.3-17.2-23.5-17.2
		c-13.1,0-21.9,6.2-21.9,15.6c0,7.8,6.1,12.2,20.7,15.6l15.4,3.3c25.4,5.4,36.5,16.4,36.5,35.7c0,24.6-20,40.2-51.4,40.2
		c-30.5,0-49.9-14.5-50.7-38.3L293.1,169.7z"/>
	<path class="st3" d="M387.7,205.8V79h26.5v126.8H387.7z"/>
	<path class="st3" d="M510.5,175h-44.6l-9.7,30.8H429L473,79h31.2l44.1,126.8h-28.2L510.5,175z M471.6,155.2h33.1l-16.3-51.9h-0.6
		L471.6,155.2z"/>
	<path class="st3" d="M645.1,205.8h-82V79h26.5v104.8h55.5V205.8z"/>
</g>
</svg>
