<svg id="Capa_1" data-name="Capa 1" xmlns="http://www.w3.org/2000/svg" viewBox="0 0 146.07 50"><defs><style>.cls-1{fill:#f15a24;}</style></defs><path class="cls-1" d="M30.45,0h85.17A12.41,12.41,0,0,1,128,12.41V50a0,0,0,0,1,0,0H18a0,0,0,0,1,0,0V12.41A12.41,12.41,0,0,1,30.45,0Z"/><path class="cls-1" d="M201.43,119.94a18,18,0,0,1-17.93-18h0v18h18v-.07Z" transform="translate(-55.46 -70)"/><path class="cls-1" d="M55.56,119.94h-.1V120h18V102h0A18,18,0,0,1,55.56,119.94Z" transform="translate(-55.46 -70)"/></svg>