<svg id="a717cb59-58a6-4d23-b0c2-bec61ada8601" data-name="Capa 2" xmlns="http://www.w3.org/2000/svg" viewBox="0 0 64 64"><defs><style>.bc69297c-bc72-419e-8062-7e65d2ade6aa{fill:none;stroke:#cc0a42;stroke-miterlimit:10;stroke-width:4px;}.f9e86d64-7f41-4f98-8ed2-0c5da9075a37{fill:#cc0a42;}</style></defs><title>soporte</title><circle class="bc69297c-bc72-419e-8062-7e65d2ade6aa" cx="32" cy="32" r="30"/><ellipse class="bc69297c-bc72-419e-8062-7e65d2ade6aa" cx="32" cy="32" rx="17.05" ry="16.98"/><path class="f9e86d64-7f41-4f98-8ed2-0c5da9075a37" d="M5,18.83,15.17,29.24S19.3,18,28.25,15L18,5.45S8.62,11.21,5,18.83Z"/><path class="f9e86d64-7f41-4f98-8ed2-0c5da9075a37" d="M46.59,5.91,35.93,15.79s11.13,4.4,13.9,13.42l9.82-10S54.12,9.68,46.59,5.91Z"/><path class="f9e86d64-7f41-4f98-8ed2-0c5da9075a37" d="M5.69,45.8,15.83,35.39S20,46.63,28.9,49.61L18.67,59.18S9.28,53.42,5.69,45.8Z"/><path class="f9e86d64-7f41-4f98-8ed2-0c5da9075a37" d="M58.46,45.8l-9.83-10S44.51,46.29,35.56,49.27L45.27,59.4S54.88,53.42,58.46,45.8Z"/></svg>