<?xml version="1.0" encoding="utf-8"?>
<!-- Generator: Adobe Illustrator 24.2.0, SVG Export Plug-In . SVG Version: 6.00 Build 0)  -->
<svg version="1.1" id="a717cb59-58a6-4d23-b0c2-bec61ada8601"
	 xmlns="http://www.w3.org/2000/svg" xmlns:xlink="http://www.w3.org/1999/xlink" x="0px" y="0px" viewBox="0 0 64 64"
	 style="enable-background:new 0 0 64 64;" xml:space="preserve">
<style type="text/css">
	.st0{fill:none;stroke:#FF0066;stroke-width:4;stroke-miterlimit:10;}
	.st1{fill:#FF0066;}
</style>
<circle class="st0" cx="32" cy="32" r="30"/>
<ellipse class="st0" cx="32" cy="32" rx="17" ry="17"/>
<path class="st1" d="M5,18.8l10.2,10.4c0,0,4.1-11.2,13.1-14.2L18,5.4C18,5.4,8.6,11.2,5,18.8z"/>
<path class="st1" d="M46.6,5.9l-10.7,9.9c0,0,11.1,4.4,13.9,13.4l9.8-10C59.7,19.2,54.1,9.7,46.6,5.9z"/>
<path class="st1" d="M5.7,45.8l10.1-10.4c0,0,4.2,11.2,13.1,14.2l-10.2,9.6C18.7,59.2,9.3,53.4,5.7,45.8z"/>
<path class="st1" d="M58.5,45.8l-9.8-10c0,0-4.1,10.5-13.1,13.5l9.7,10.1C45.3,59.4,54.9,53.4,58.5,45.8z"/>
</svg>
